<svg width="120" height="120" viewBox="0 0 120 120" fill="none" xmlns="http://www.w3.org/2000/svg">
<path d="M21.584 23.8972L26.2093 40.8565L34.175 36.4882L21.584 23.8972Z" fill="#9C1006"/>
<path d="M98.4147 96.1028L93.7895 79.1434L85.8237 83.5118L98.4147 96.1028Z" fill="#9C1006"/>
<path d="M79.1431 93.7902L96.1024 98.4154L83.5114 85.8244L79.1431 93.7902Z" fill="#9C1006"/>
<path d="M41.1128 26.2098L23.8965 21.5846L36.4875 34.1756L41.1128 26.2098Z" fill="#9C1006"/>
<path d="M96.1024 21.5846L79.1431 26.2098L83.5114 34.1756L96.1024 21.5846Z" fill="#9C1006"/>
<path d="M26.2093 79.1434L21.584 96.1028L34.175 83.5118L26.2093 79.1434Z" fill="#9C1006"/>
<path d="M93.7895 41.1135L98.4147 23.8972L85.8237 36.4882L93.7895 41.1135Z" fill="#9C1006"/>
<path d="M23.8965 98.4154L40.8558 93.7902L36.4875 85.8244L23.8965 98.4154Z" fill="#9C1006"/>
<path d="M25.2251 75.146C25.207 75.1325 25.188 75.1202 25.1683 75.1092L1.92609 62.1702H54.81L35.8847 81.0955L27.2193 76.3914L27.2043 76.3836L26.2168 75.8899L25.2251 75.146Z" stroke="#9C1006" stroke-linejoin="round"/>
<path d="M76.3843 27.2043C76.3894 27.2145 76.3948 27.2245 76.4005 27.2342L81.3435 35.6374L62.1709 54.81V1.89553L75.3623 25.1603L75.8704 26.1765L76.3843 27.2043Z" stroke="#9C1006" stroke-linejoin="round"/>
<path d="M93.7471 44.3401C93.7711 44.3581 93.7967 44.3739 93.8235 44.3873L94.8415 44.8962L118.074 57.8298H65.19L84.1153 38.9045L92.7486 43.5911L93.7471 44.3401Z" stroke="#9C1006" stroke-linejoin="round"/>
<path d="M27.2043 43.6164C27.2145 43.6113 27.2245 43.6059 27.2342 43.6001L35.6374 38.6571L54.81 57.8298H1.89553L25.1603 44.6384L26.1765 44.1303L27.2043 43.6164Z" stroke="#9C1006" stroke-linejoin="round"/>
<path d="M92.7957 76.3836C92.7856 76.3887 92.7756 76.3941 92.7658 76.3999L84.3627 81.3429L65.19 62.1702H118.105L94.8397 75.3616L93.8235 75.8697L92.7957 76.3836Z" stroke="#9C1006" stroke-linejoin="round"/>
<path d="M75.1467 94.7749C75.1331 94.793 75.1208 94.812 75.1098 94.8317L62.1709 118.074V65.1792L81.3458 84.1114L76.3974 92.7712C76.3928 92.7792 76.3884 92.7874 76.3843 92.7957L75.8905 93.7832L75.1467 94.7749Z" stroke="#9C1006" stroke-linejoin="round"/>
<path d="M44.3402 26.2529C44.3582 26.2289 44.374 26.2033 44.3874 26.1765L44.8964 25.1586L57.8299 1.92609V54.81L38.9047 35.8847L43.5913 27.2514L44.3402 26.2529Z" stroke="#9C1006" stroke-linejoin="round"/>
<path d="M43.6172 92.7957C43.6121 92.7855 43.6067 92.7755 43.6009 92.7658L38.6579 84.3626L57.8305 65.19V118.104L44.6392 94.8397L44.1311 93.8235L43.6172 92.7957Z" stroke="#9C1006" stroke-linejoin="round"/>
</svg>
