<svg width="44" height="44" viewBox="0 0 44 44" fill="none" xmlns="http://www.w3.org/2000/svg">
<path d="M7.83691 8.65922L9.51621 14.8045L12.4083 13.2216L7.83691 8.65922Z" fill="#9C1006"/>
<path d="M35.7316 34.8231L34.0523 28.6778L31.1602 30.2607L35.7316 34.8231Z" fill="#9C1006"/>
<path d="M28.7349 33.9851L34.8923 35.6611L30.3209 31.0987L28.7349 33.9851Z" fill="#9C1006"/>
<path d="M14.927 9.49721L8.67627 7.82123L13.2477 12.3836L14.927 9.49721Z" fill="#9C1006"/>
<path d="M34.8923 7.82123L28.7349 9.49721L30.3209 12.3836L34.8923 7.82123Z" fill="#9C1006"/>
<path d="M9.51621 28.6778L7.83691 34.8231L12.4083 30.2607L9.51621 28.6778Z" fill="#9C1006"/>
<path d="M34.0523 14.8976L35.7316 8.65922L31.1602 13.2216L34.0523 14.8976Z" fill="#9C1006"/>
<path d="M8.67627 35.6611L14.8337 33.9851L13.2477 31.0987L8.67627 35.6611Z" fill="#9C1006"/>
<path d="M9.34918 26.974C9.33111 26.9605 9.31214 26.9482 9.2924 26.9372L1.92943 22.8464H19.1294L12.9718 28.9918L10.0341 27.4002L10.0192 27.3925L9.6863 27.2264L9.34918 26.974Z" stroke="#9C1006" stroke-linejoin="round"/>
<path d="M27.448 10.0005C27.453 10.0107 27.4585 10.0206 27.4643 10.0304L29.1333 12.8622L22.8906 19.0925V1.89226L27.0806 9.26729L27.2614 9.62806L27.448 10.0005Z" stroke="#9C1006" stroke-linejoin="round"/>
<path d="M33.8463 16.3221C33.8703 16.34 33.8959 16.3558 33.9227 16.3692L34.2859 16.5505L41.6392 20.6359H24.4393L30.5969 14.4905L33.5024 16.0647L33.8463 16.3221Z" stroke="#9C1006" stroke-linejoin="round"/>
<path d="M10.0192 16.0898C10.0293 16.0848 10.0393 16.0794 10.0491 16.0736L12.8881 14.407L19.1294 20.6359H1.89879L9.28447 16.4565L9.64599 16.2761L10.0192 16.0898Z" stroke="#9C1006" stroke-linejoin="round"/>
<path d="M33.5495 27.3925C33.5393 27.3975 33.5294 27.4029 33.5196 27.4087L30.6806 29.0754L24.4393 22.8464H41.6699L34.2842 27.0258L33.9227 27.2062L33.5495 27.3925Z" stroke="#9C1006" stroke-linejoin="round"/>
<path d="M27.0288 34.1503C27.0152 34.1684 27.0029 34.1873 26.9919 34.2071L22.8906 41.5595V24.379L29.1356 30.5327L27.4611 33.4573C27.4565 33.4654 27.4521 33.4735 27.448 33.4818L27.2816 33.8139L27.0288 34.1503Z" stroke="#9C1006" stroke-linejoin="round"/>
<path d="M16.3531 9.70448C16.3711 9.68048 16.3869 9.6549 16.4004 9.62806L16.582 9.26553L20.6778 1.92276V19.0925L14.5188 12.9457L16.0952 10.0476L16.3531 9.70448Z" stroke="#9C1006" stroke-linejoin="round"/>
<path d="M16.1205 33.4818C16.1155 33.4717 16.11 33.4617 16.1043 33.4519L14.4352 30.6201L20.6779 24.3898V41.59L16.4879 34.215L16.3071 33.8542L15.8601 34.0782L16.3071 33.8542L16.1205 33.4818Z" stroke="#9C1006" stroke-linejoin="round"/>
</svg>
