<svg width="25" height="25" viewBox="0 0 25 25" fill="none" xmlns="http://www.w3.org/2000/svg">
<path d="M6.5 10.5C6.2 10.5 6 10.4 5.8 10.2L2.8 7.2C2.4 6.8 2.4 6.2 2.8 5.8L5.8 2.8C6.2 2.4 6.8 2.4 7.2 2.8C7.6 3.2 7.6 3.8 7.2 4.2L4.9 6.5L7.2 8.8C7.6 9.2 7.6 9.8 7.2 10.2C7 10.4 6.8 10.5 6.5 10.5Z" fill="#704437"/>
<path d="M18.5 22.5C18.2 22.5 18 22.4 17.8 22.2C17.4 21.8 17.4 21.2 17.8 20.8L20.1 18.5L17.8 16.2C17.4 15.8 17.4 15.2 17.8 14.8C18.2 14.4 18.8 14.4 19.2 14.8L22.2 17.8C22.6 18.2 22.6 18.8 22.2 19.2L19.2 22.2C19 22.4 18.8 22.5 18.5 22.5Z" fill="#704437"/>
<path d="M21.5 7.5H4C3.4 7.5 3 7.1 3 6.5C3 5.9 3.4 5.5 4 5.5H21.5C22.1 5.5 22.5 5.9 22.5 6.5C22.5 7.1 22.1 7.5 21.5 7.5Z" fill="#704437"/>
<path d="M20.5 19.5H3.5C2.9 19.5 2.5 19.1 2.5 18.5C2.5 17.9 2.9 17.5 3.5 17.5H20.5C21.1 17.5 21.5 17.9 21.5 18.5C21.5 19.1 21.1 19.5 20.5 19.5Z" fill="#704437"/>
</svg>
