<svg width="120" height="120" fill="none" xmlns="http://www.w3.org/2000/svg">
    <path d="m21.584 23.897 4.625 16.96 7.966-4.369-12.591-12.59ZM98.415 96.103l-4.626-16.96-7.965 4.369 12.59 12.59ZM79.143 93.79l16.96 4.625-12.592-12.59-4.368 7.965ZM41.113 26.21l-17.216-4.625 12.59 12.59 4.626-7.965ZM96.102 21.585 79.143 26.21l4.368 7.966 12.591-12.591ZM26.21 79.143l-4.626 16.96 12.591-12.591-7.966-4.369ZM93.79 41.114l4.625-17.217-12.591 12.591 7.966 4.626ZM23.896 98.415l16.96-4.625-4.369-7.966-12.59 12.591Z" fill="#9C1006"/>
    <path d="M25.225 75.146a.515.515 0 0 0-.057-.037L1.926 62.17H54.81L35.885 81.095l-8.666-4.704-.015-.007-.987-.494-.992-.744ZM76.384 27.204l.016.03 4.944 8.403L62.17 54.81V1.896L75.362 25.16l.508 1.017.514 1.027ZM93.747 44.34a.5.5 0 0 0 .076.047l1.019.51 23.232 12.933H65.19l18.925-18.925 8.634 4.686.998.75ZM27.204 43.616l.03-.016 8.403-4.943L54.81 57.83H1.896L25.16 44.638l1.017-.508 1.027-.514ZM92.796 76.384a.51.51 0 0 0-.03.016l-8.403 4.943L65.19 62.17h52.915L94.84 75.362l-1.017.508-1.027.514ZM75.147 94.775a.502.502 0 0 0-.037.057l-12.94 23.242V65.179l19.176 18.932-4.949 8.66a.442.442 0 0 0-.013.025l-.493.987-.744.992ZM44.34 26.253a.5.5 0 0 0 .047-.076l.51-1.018L57.83 1.926V54.81L38.905 35.885l4.686-8.634.75-.998ZM43.617 92.796a.453.453 0 0 0-.016-.03l-4.943-8.403L57.83 65.19v52.914L44.64 94.84l-.509-1.017-.514-1.027Z" stroke="#9C1006" stroke-linejoin="round"/>
</svg>
