<svg width="22" height="22" fill="none" xmlns="http://www.w3.org/2000/svg">
    <g clip-path="url(#a)" fill="#78778E">
        <path d="M19.001 22c-.294 0-.584-.129-.782-.375l-4-5a1.002 1.002 0 0 1 .156-1.406 1.002 1.002 0 0 1 1.406.156l4 5a1.002 1.002 0 0 1-.78 1.625Z"/>
        <path d="M11 2c3.859 0 7 3.14 7 7 0 3.859-3.141 7-7 7s-7-3.141-7-7c0-3.86 3.141-7 7-7Zm0-2a9 9 0 0 0-9 9 9 9 0 0 0 9 9 9 9 0 0 0 9-9 9 9 0 0 0-9-9Z"/>
    </g>
    <defs>
        <clipPath id="a">
            <path fill="#fff" d="M0 0h22v22H0z"/>
        </clipPath>
    </defs>
</svg>
