<svg width="17" height="16" fill="none" xmlns="http://www.w3.org/2000/svg">
    <path d="M8.179 8.435a2.837 2.837 0 0 1-2.834-2.834 2.837 2.837 0 0 1 2.834-2.834 2.837 2.837 0 0 1 2.834 2.834 2.837 2.837 0 0 1-2.834 2.834Zm0-4.728c-1.045 0-1.895.85-1.895 1.894 0 1.045.85 1.895 1.895 1.895 1.044 0 1.894-.85 1.894-1.895 0-1.044-.85-1.894-1.894-1.894Z" fill="#FDDE0C"/>
    <path d="M8.179 16h-.002a.47.47 0 0 1-.403-.231L3.562 8.614a6.102 6.102 0 0 1-.843-3.093V5.5c0-3.033 2.467-5.5 5.5-5.5 3.032 0 5.5 2.467 5.5 5.5a6.1 6.1 0 0 1-.865 3.13L8.582 15.77a.47.47 0 0 1-.403.229ZM8.219.94A4.566 4.566 0 0 0 3.657 5.5v.02c0 .92.246 1.825.713 2.618l3.811 6.472 3.865-6.463c.479-.8.732-1.715.732-2.647A4.566 4.566 0 0 0 8.219.94Z" fill="#FDDE0C"/>
</svg>
