<svg width="50" height="50" fill="none" xmlns="http://www.w3.org/2000/svg">
    <g clip-path="url(#a)" fill="#708879">
        <path d="M35.549 42.36H9.2c-1.207 0-2.2.982-2.2 2.201V47.8c0 1.218.993 2.2 2.2 2.2h26.338c1.207 0 2.2-.993 2.211-2.2V44.56c0-1.219-.982-2.2-2.2-2.2Zm.124 2.201V47.8a.125.125 0 0 1-.124.124H9.2a.125.125 0 0 1-.124-.124V44.56c0-.068.057-.124.124-.124H35.55c.068 0 .124.056.124.124ZM42.76 5.53a9.846 9.846 0 0 0-5.7-5 9.832 9.832 0 0 0-7.56.497 9.82 9.82 0 0 0-4.998 5.687 22.906 22.906 0 0 0-1.219 6.522l-.418 10.235-2.087-.71a4.358 4.358 0 0 0-3.385.225 4.464 4.464 0 0 0-2.246 2.55l-.203.598a4.448 4.448 0 0 0 2.223 5.405l-.474 1.41a1.71 1.71 0 0 0 1.072 2.166l13.496 4.594c.17.056.35.09.553.09h.7l-.215-.068c.52-.157.948-.553 1.128-1.094l.486-1.422a4.323 4.323 0 0 0 2.821-.372 4.464 4.464 0 0 0 2.245-2.55l.203-.599a4.358 4.358 0 0 0-.225-3.385 4.463 4.463 0 0 0-2.55-2.245l-2.088-.711 5.913-8.362a23.21 23.21 0 0 0 3.013-5.913 9.805 9.805 0 0 0-.486-7.549ZM31.937 36.582l-.35 1.05-12.796-4.356.35-1.05 12.796 4.356Zm6.601-18.788-6.263 8.87-7.346-2.506.452-10.844c.079-2.02.451-4.006 1.106-5.935a7.715 7.715 0 0 1 3.95-4.491 7.73 7.73 0 0 1 5.968-.384 7.715 7.715 0 0 1 4.492 3.95 7.781 7.781 0 0 1 .394 5.969 21.582 21.582 0 0 1-2.753 5.371ZM19.356 24.6c.26 0 .52.046.756.125l15.629 5.314a2.34 2.34 0 0 1 1.354 1.185c.282.564.316 1.208.113 1.806l-.203.598a2.339 2.339 0 0 1-1.185 1.354 2.334 2.334 0 0 1-1.806.113l-15.617-5.315a2.348 2.348 0 0 1-1.467-2.99l.203-.599a2.339 2.339 0 0 1 1.185-1.354 2.37 2.37 0 0 1 1.038-.237Z"/>
    </g>
    <defs>
        <clipPath id="a">
            <path fill="#fff" transform="translate(7)" d="M0 0h36.786v50H0z"/>
        </clipPath>
    </defs>
</svg>
