<svg width="44" height="44" fill="none" xmlns="http://www.w3.org/2000/svg">
    <path d="m7.837 8.66 1.68 6.145 2.891-1.583-4.571-4.563ZM35.732 34.823l-1.68-6.145-2.892 1.583 4.572 4.562ZM28.735 33.985l6.157 1.676-4.571-4.562-1.586 2.886ZM14.927 9.497l-6.25-1.676 4.57 4.563 1.68-2.887ZM34.892 7.821l-6.157 1.676 1.586 2.887 4.571-4.563ZM9.516 28.678l-1.68 6.145 4.572-4.562-2.892-1.583ZM34.052 14.898l1.68-6.239-4.572 4.563 2.892 1.676ZM8.676 35.661l6.158-1.676-1.586-2.886-4.572 4.562Z" fill="#9C1006"/>
    <path d="M9.35 26.974a.508.508 0 0 0-.058-.037l-7.363-4.09h17.2l-6.157 6.145-2.938-1.592-.015-.008-.333-.166-.337-.252ZM27.448 10l.016.03 1.67 2.832-6.243 6.23v-17.2l4.19 7.375.18.361.187.373ZM33.846 16.322c.024.018.05.034.077.047l.363.181 7.353 4.086h-17.2l6.158-6.145 2.905 1.574.344.257ZM10.02 16.09l.03-.016 2.838-1.667 6.241 6.229H1.9l7.385-4.18.362-.18.373-.186ZM33.55 27.392a.431.431 0 0 0-.03.017l-2.84 1.666-6.24-6.229h17.23l-7.386 4.18-.361.18-.373.186ZM27.029 34.15a.493.493 0 0 0-.037.057L22.89 41.56V24.38l6.245 6.154-1.675 2.924a.48.48 0 0 0-.013.025l-.166.332-.253.336ZM16.353 9.704a.507.507 0 0 0 .047-.076l.182-.362 4.096-7.343v17.17l-6.16-6.147 1.577-2.898.258-.344ZM16.12 33.482a.508.508 0 0 0-.016-.03l-1.669-2.832 6.243-6.23v17.2l-4.19-7.375-.18-.36-.448.223.447-.224-.186-.372Z" stroke="#9C1006" stroke-linejoin="round"/>
</svg>
