<svg width="297" height="461" fill="none" xmlns="http://www.w3.org/2000/svg">
    <g clip-path="url(#a)">
        <g clip-path="url(#b)">
            <path d="M188.17 363.217a3.577 3.577 0 0 1-.611 1.364h1.407a3.547 3.547 0 0 1-.611-1.364h-.185ZM160.479 365.423a40.97 40.97 0 0 1-10.767-2.19l-4.559-1.589c.057.257.097.53.097.803 0 1.331-.716 2.479-1.785 3.121l4.84 1.685c3.9 1.364 7.936 2.142 12.005 2.407a3.587 3.587 0 0 1 .169-4.237ZM137.671 362.15h.274a3.605 3.605 0 0 1 .667-1.83h-1.608c.386.522.611 1.148.667 1.83ZM188.958 360.312h-1.407c.378.522.611 1.156.667 1.83h.073a3.66 3.66 0 0 1 .667-1.83ZM180.921 362.446c0-.312.048-.609.129-.898l-2.863 1.123c-3.859 1.517-7.903 2.391-11.98 2.696.507.626.82 1.412.82 2.279 0 .73-.217 1.412-.595 1.981 4.535-.328 9.03-1.299 13.315-2.992l2.855-1.124a3.644 3.644 0 0 1-1.681-3.065ZM137.627 363.217a3.577 3.577 0 0 1-.611 1.364h1.608a3.547 3.547 0 0 1-.611-1.364h-.386Z" fill="#73BAE8" fill-opacity=".15"/>
            <path d="M163.359 363.995a3.628 3.628 0 0 0-2.886 1.428c1.905.129 3.819.089 5.725-.056a3.641 3.641 0 0 0-2.839-1.372ZM160.301 369.66a3.668 3.668 0 0 0 3.055 1.644c1.295 0 2.42-.665 3.072-1.676-1.078.08-2.155.152-3.233.152-.964 0-1.929-.056-2.894-.12Z" fill="#73BAE8" fill-opacity=".15"/>
            <path d="M166.2 365.367c-1.905.144-3.819.184-5.725.056a3.616 3.616 0 0 0-.78 2.231c0 .746.225 1.436.611 2.014.965.064 1.93.12 2.895.12 1.077 0 2.155-.072 3.232-.153.37-.569.595-1.251.595-1.981a3.662 3.662 0 0 0-.828-2.287ZM138.621 364.581a3.652 3.652 0 0 0 2.967 1.524c.692 0 1.327-.2 1.882-.529l-2.839-.987h-2.01v-.008ZM141.58 358.788a3.656 3.656 0 0 0-2.967 1.524h2.734l3.803 1.324a3.662 3.662 0 0 0-3.57-2.848Z" fill="#73BAE8" fill-opacity=".15"/>
            <path d="M145.246 362.447c0-.281-.04-.546-.096-.803l-3.804-1.324h-2.733a3.643 3.643 0 0 0-.668 1.83h2.139a1.599 1.599 0 0 1 1.496-1.067c.884 0 1.608.714 1.608 1.604 0 .883-.716 1.605-1.608 1.605-.7 0-1.279-.449-1.496-1.067h-2.082c.104.505.321.963.611 1.364h2.01l2.838.987c1.07-.65 1.785-1.798 1.785-3.129ZM182.605 365.52a3.65 3.65 0 0 0 4.945-.939h-2.556l-2.389.939ZM184.581 358.788a3.645 3.645 0 0 0-3.538 2.76l3.136-1.236h3.369a3.666 3.666 0 0 0-2.967-1.524Z" fill="#73BAE8" fill-opacity=".15"/>
            <path d="M186.148 363.217a1.598 1.598 0 0 1-1.495 1.067 1.606 1.606 0 1 1 0-3.21c.699 0 1.278.45 1.495 1.068h2.067a3.614 3.614 0 0 0-.667-1.83h-3.369l-3.136 1.236a3.647 3.647 0 0 0-.129.899c0 1.291.675 2.423 1.689 3.072l2.38-.938h2.556c.29-.401.507-.859.612-1.364h-2.003Z" fill="#73BAE8" fill-opacity=".15"/>
            <path d="m106.734 229.041-3.248-3.924-.876-1.059c.04-.225.072-.457.072-.698a3.661 3.661 0 0 0-3.666-3.659c-.242 0-.483.024-.708.073a14.555 14.555 0 0 0-8.226-2.552h-4.414a3.643 3.643 0 0 0-2.42-.931c-.933 0-1.777.361-2.42.931h-16.33c.048.682.096 1.364.152 2.038-1.27-.899-2.774-1.444-4.406-1.589-.008-.152-.024-.296-.032-.449h-.732a3.615 3.615 0 0 0-2.428-.939c-.354 0-.691.065-1.021.161l-5.806-5.304A54.225 54.225 0 0 0 16.6 197.003a3.674 3.674 0 0 0-3.04-1.613c-.811 0-1.56.273-2.162.722a17.598 17.598 0 0 1-9.19-8.537c.361-.561.57-1.227.57-1.949a3.661 3.661 0 0 0-3.666-3.659 3.661 3.661 0 0 0-3.667 3.659c0 1.717 1.182 3.137 2.782 3.538a21.856 21.856 0 0 0 11.86 11.016 3.653 3.653 0 0 0 2.951 2.472l-.008-1.541v-.57c-.62-.216-1.077-.794-1.077-1.484a1.604 1.604 0 0 1 3.208-.024c.008.698-.442 1.276-1.062 1.5l.008.666.009 1.444a3.664 3.664 0 0 0 2.3-1.331c11.489.649 22.384 5.167 30.923 12.974l3.216 2.936H15.748v4.261h36.23a9.003 9.003 0 0 0-1.632 5.159c0 .786.137 1.54.322 2.27.241-.265.522-.497.828-.682a7.652 7.652 0 0 1-.193-1.677c0-1.949.748-3.715 1.954-5.07.112-.129.209-.273.33-.394.192-.192.418-.345.627-.521a7.343 7.343 0 0 1 1.254-.819c.088-.802.748-1.436 1.576-1.436.322 0 .595.113.844.273.145.088.274.193.378.329.257-.024.507-.08.772-.08.442 0 .868.056 1.295.128.072.016.152.008.233.024 1.696.337 3.168 1.252 4.261 2.496.016.024.04.048.056.072 1.166 1.356 1.898 3.089 1.898 5.006 0 .771-.145 1.493-.354 2.191.089.088.161.184.233.281.41.489.692 1.075.796 1.733a8.551 8.551 0 0 0 .676-1.733c.209-.763.362-1.549.362-2.383a8.933 8.933 0 0 0-1.64-5.159h13.065a3.667 3.667 0 0 0 3.313 2.118 3.645 3.645 0 0 0 3.313-2.118h3.521c1.906 0 3.731.521 5.315 1.476-.016.136-.04.265-.04.401a3.661 3.661 0 0 0 3.666 3.659c.161 0 .314-.024.467-.048l1.713 2.062 1.198 1.452 2.331 2.808.097.12c.032-.04.072-.08.104-.12a12.04 12.04 0 0 1 1.673-1.581c.474-.377.981-.714 1.511-1.01l-1.246-1.501-.121-.168ZM59.042 234.296a7.682 7.682 0 0 1-2.887-.57 3.655 3.655 0 0 1-1.061.851c1.294.706 2.75 1.139 4.317 1.139a9.02 9.02 0 0 0 3.659-.786 3.636 3.636 0 0 1-1.825-1.003c-.7.225-1.431.369-2.203.369ZM59.422 230.998a4.32 4.32 0 0 1-2.613-.89c.144.393.233.81.233 1.259 0 .426-.089.835-.225 1.212a6.37 6.37 0 0 0 2.219.417 6.77 6.77 0 0 0 1.455-.176 3.675 3.675 0 0 1-.305-1.453c0-.152.024-.304.048-.449-.257.048-.53.08-.812.08Z" fill="#5B89C7" fill-opacity=".15"/>
            <path d="M62.953 221.499a6.53 6.53 0 0 0-2.283-1.124c-.08-.024-.153-.056-.225-.072a6.679 6.679 0 0 0-1.391-.16c-.145 0-.29.032-.434.04a1.57 1.57 0 0 1-1.311 1.308c-.088.016-.16.048-.25.048-.088 0-.168-.04-.248-.048a1.553 1.553 0 0 1-.933-.482c-.12.072-.258.128-.378.201-.113.072-.21.168-.314.248-.016.008-.024.024-.04.033a6.38 6.38 0 0 0-.876.81c-1.022 1.139-1.657 2.624-1.657 4.268 0 .41.048.811.12 1.204a3.611 3.611 0 0 1 2.686.545 4.254 4.254 0 0 1-.337-1.66c0-1.22.514-2.327 1.326-3.113.21.04.427.064.644.064a3.63 3.63 0 0 0 2.742-1.252c.313.024.619.088.916.177 1.769.553 3.064 2.182 3.064 4.124 0 .377-.065.73-.153 1.075.08-.008.153-.024.241-.024.515 0 1.005.112 1.447.297.105-.466.177-.947.177-1.445 0-2.062-1.005-3.891-2.533-5.062ZM113.979 237.602c-.049 0-.097.016-.137.016l-2.155-2.6a6.68 6.68 0 0 0-3.289 2.72l2.083 2.511a3.483 3.483 0 0 0-.161 1.011 3.661 3.661 0 0 0 3.667 3.659 3.66 3.66 0 0 0 3.666-3.659c0-2.022-1.656-3.658-3.674-3.658Zm0 5.263a1.6 1.6 0 0 1-1.19-.546 1.6 1.6 0 0 1-.427-1.067c0-.89.724-1.612 1.617-1.612.522 0 .972.264 1.262.658.209.272.346.593.346.954 0 .891-.724 1.613-1.608 1.613ZM-12.421 216.059c-1.07 0-2.018.465-2.686 1.187h-2.139c-4.406 0-8-3.578-8-7.975v-1.268a3.652 3.652 0 0 0 1.536-2.969 3.651 3.651 0 0 0-1.536-2.968v-8.754a3.652 3.652 0 0 0 1.536-2.969 3.651 3.651 0 0 0-1.536-2.968v-8.746a3.63 3.63 0 0 0-.008-5.937v-8.746a3.637 3.637 0 0 0 1.544-2.968c0-1.236-.62-2.319-1.552-2.985a22.567 22.567 0 0 0-1.97-9.002 3.623 3.623 0 0 0 .434-1.685 3.661 3.661 0 0 0-3.666-3.659c-.032 0-.056.008-.089.008a22.994 22.994 0 0 0-4.14-3.899 3.645 3.645 0 0 0-3.65-3.515c-.548 0-1.054.129-1.52.337l-2.252-1.307c.008.12.04.232.04.361 0 .473-.096.93-.265 1.348l1.142.657 1.841 1.068c.507-.426 1.23-.53 1.833-.177.772.441 1.03 1.42.587 2.19a1.605 1.605 0 0 1-2.195.586c-.603-.345-.876-1.027-.764-1.677l-1.857-1.067-1.142-.658a3.703 3.703 0 0 1-1.367 1.075l.644.377 1.64.947c.2 1.83 1.737 3.266 3.626 3.266.458 0 .893-.097 1.295-.249a18.45 18.45 0 0 1 3.095 2.929c-.104.337-.177.69-.177 1.067a3.646 3.646 0 0 0 3.088 3.594 18.382 18.382 0 0 1 1.503 7.133 3.64 3.64 0 0 0-1.503 2.937 3.65 3.65 0 0 0 1.511 2.944v8.786a3.63 3.63 0 0 0-1.511 2.945c0 1.211.603 2.286 1.511 2.952v8.786a3.64 3.64 0 0 0-1.52 2.952 3.64 3.64 0 0 0 1.52 2.953v8.786a3.64 3.64 0 0 0-1.52 2.952 3.64 3.64 0 0 0 1.52 2.953v1.292c.009 6.748 5.508 12.236 12.27 12.236h1.649a3.647 3.647 0 0 0 3.176 1.861 3.647 3.647 0 0 0 3.176-1.861h20.712v-4.261H-9.76a3.504 3.504 0 0 0-2.661-1.195Z" fill="#5B89C7" fill-opacity=".15"/>
            <path d="M244.604 252.349a82.011 82.011 0 0 1-1.889 1.508 7.886 7.886 0 0 0 2.525-1.476c-.057 0-.113.016-.169.016-.161-.008-.314-.032-.467-.048ZM236.588 246.869c.274-.642.507-1.292.764-1.934.37-.104.724-.249 1.037-.457a3.608 3.608 0 0 0 1.255-1.453 3.654 3.654 0 0 0 .386-1.596c0-.056-.016-.113-.016-.169-.049 0-.089-.016-.137-.016-.418 0-.812.056-1.198.153a6.037 6.037 0 0 0-.676.208c.025.105.065.209.065.321 0 .626-.362 1.148-.885 1.412a1.617 1.617 0 0 1-.731.193c-.282 0-.531-.088-.756-.217a5.358 5.358 0 0 0-.796 1.461c-.193.553-.322 1.131-.322 1.749 0 1.059.322 2.046.86 2.872a5.286 5.286 0 0 0 3.136 2.231c.724-.53 1.44-1.059 2.155-1.621-.201.04-.41.064-.627.064-1.841 0-3.337-1.412-3.514-3.201ZM241.465 241.509l3.345 3.153a5.283 5.283 0 0 0-3.345-3.153Z" fill="#7D4E24" fill-opacity=".15"/>
            <path d="M240.108 238.709c-.185 0-.362.04-.539.056a90.751 90.751 0 0 0 3.788-18.662c.176-1.878.289-3.771.353-5.673.033-1.051.081-2.094.081-3.153 0-1.821-.073-3.635-.177-5.432a7.747 7.747 0 0 1-4.149 3.378c.008.337.024.666.024 1.003.008.353.024.698.024 1.051 0 1.629-.056 3.249-.145 4.862a86.807 86.807 0 0 1-3.513 20.091c-.169.569-.338 1.139-.523 1.701a3.63 3.63 0 0 0-2.131 1.661 3.647 3.647 0 0 0-.514 1.837c0 .602.161 1.155.418 1.653a7.665 7.665 0 0 0-.772 2.816 86.872 86.872 0 0 1-7.534 13.808 87.33 87.33 0 0 1-4.768 6.459 88.218 88.218 0 0 1-26.156 21.84c-.129-.064-.257-.136-.394-.184a3.716 3.716 0 0 0-1.31-.249c-1.158 0-2.171.545-2.847 1.38a3.634 3.634 0 0 0-.764 1.717 87.26 87.26 0 0 1-36.689 8.063c-4.985 0-9.865-.441-14.625-1.243a3.685 3.685 0 0 0-1.07-1.308 3.616 3.616 0 0 0-4.269-.128c-.121.08-.226.184-.338.28a87.243 87.243 0 0 1-21.492-8.208c-.008-.056-.033-.104-.049-.152a3.592 3.592 0 0 0-.948-1.677 3.616 3.616 0 0 0-2.405-1.051 3.652 3.652 0 0 0-1.246.152 88.323 88.323 0 0 1-17.713-14.618c-.193-.201-.394-.401-.58-.602.033-.201.065-.409.065-.626a3.627 3.627 0 0 0-1.198-2.688 3.657 3.657 0 0 0-2.468-.971c-.016 0-.032.009-.04.009-7.599-9.46-13.284-20.508-16.435-32.576a3.368 3.368 0 0 0-.049-.152c.298-.53.483-1.131.483-1.781 0-.201-.024-.402-.056-.594a3.619 3.619 0 0 0-.797-1.733c-.08-.096-.152-.193-.233-.281-.024.096-.056.185-.088.281-.056.152-.088.321-.145.473a7.494 7.494 0 0 1-.804 1.452c.032.129.08.257.08.394 0 .89-.723 1.612-1.616 1.612-.136 0-.265-.048-.394-.08-.217.153-.466.273-.7.409-.023.016-.047.024-.063.04a7.498 7.498 0 0 1-1.44.594c.49.498 1.118.851 1.825 1.003.008 0 .017.008.033.008 3.304 12.348 9.142 23.661 16.909 33.386.024.032.048.064.072.088a3.637 3.637 0 0 0-.193 1.107c0 .056.016.104.016.153l1.005-.209 1.062-.217a1.578 1.578 0 0 1 1.246-1.348 1.607 1.607 0 0 1 1.898 1.244 1.603 1.603 0 0 1-1.247 1.894 1.582 1.582 0 0 1-1.68-.747l-.49.105-1.6.329c.225.65.635 1.211 1.165 1.636a3.621 3.621 0 0 0 2.284.819c.185 0 .362-.024.546-.056a92.068 92.068 0 0 0 18.751 15.645 3.65 3.65 0 0 0 .056.779c.121.634.426 1.235.885 1.741l1.037-1.284.257-.321a1.595 1.595 0 0 1 .105-1.837 1.61 1.61 0 0 1 2.259-.241c.692.554.796 1.565.241 2.255-.434.537-1.149.706-1.777.489l-.152.193-1.158 1.428c.442.265.925.425 1.423.489a3.63 3.63 0 0 0 2.3-.465 91.09 91.09 0 0 0 22.256 8.457c.273.658.74 1.219 1.327 1.62.45.305.964.498 1.527.578v-2.102c-.619-.225-1.069-.802-1.069-1.493 0-.882.715-1.604 1.608-1.604.884 0 1.608.714 1.608 1.604a1.58 1.58 0 0 1-1.069 1.493V302.68a3.653 3.653 0 0 0 1.68-.706c.121-.088.233-.177.346-.281a92.184 92.184 0 0 0 15.357 1.308 91.5 91.5 0 0 0 38.016-8.248c.201-.096.41-.185.619-.281.354.185.74.305 1.15.361v-.883l-.008-1.227a1.587 1.587 0 0 1-1.077-1.492c0-.883.715-1.605 1.6-1.613a1.611 1.611 0 0 1 1.616 1.596c0 .699-.443 1.276-1.062 1.501v.69l.008 1.42c.515-.08.997-.257 1.424-.53a3.648 3.648 0 0 0 1.632-2.463 92.523 92.523 0 0 0 31.889-28.756 93.872 93.872 0 0 0 6.657-11.321 7.824 7.824 0 0 0 1.914 1.525c.426-.289.844-.578 1.262-.867a6.374 6.374 0 0 1-2.557-1.918c-.884-1.091-1.431-2.455-1.431-3.963 0-.827.169-1.621.466-2.343a6.294 6.294 0 0 1 .989-1.637 1.607 1.607 0 0 1-.128-.618c0-.232.056-.457.145-.657a1.606 1.606 0 0 1 1.471-.955c.37 0 .699.144.973.353.514-.217 1.069-.337 1.632-.409.241-.033.483-.073.732-.073a4.53 4.53 0 0 0-.193-.433l.466.441c2.983.097 5.46 2.231 6.039 5.055.04.008.072.024.112.032l1.279-1.219c-1.062-3.105-3.964-5.36-7.414-5.36ZM60.202 217.238c.008.153.024.297.032.449a9.023 9.023 0 0 1 4.406 1.589 56.53 56.53 0 0 1-.153-2.038 86.053 86.053 0 0 1-.225-5.953c0-6.716.788-13.239 2.227-19.529a3.74 3.74 0 0 0 .58-.233c1.181-.61 2.001-1.821 2.001-3.242 0-.2-.024-.385-.056-.577a3.64 3.64 0 0 0-.94-1.918 87.143 87.143 0 0 1 11.288-23.517c.089-.128.177-.24.266-.369.064 0 .12.016.185.016 1.415 0 2.629-.81 3.24-1.981a3.576 3.576 0 0 0 .426-1.669c0-.434-.088-.851-.233-1.236a88.202 88.202 0 0 1 29.838-24.118c.322.088.652.152.997.152.201 0 .386-.024.579-.056a3.65 3.65 0 0 0 2.766-2.11c.258-.113.515-.217.78-.329a86.942 86.942 0 0 1 23.953-6.178 82.6 82.6 0 0 1 4.269-.369 87.766 87.766 0 0 1 5.468-.185 87.4 87.4 0 0 1 20.206 2.375c.241.056.482.104.724.169a3.65 3.65 0 0 0 2.782 2.318c.209.04.418.064.635.064a3.62 3.62 0 0 0 2.251-.794c13.693 4.365 25.931 12.003 35.789 21.992a3.552 3.552 0 0 0-.065.594c0 .305.049.594.113.875a3.653 3.653 0 0 0 3.28 2.76c.089.008.177.024.274.024.096 0 .193-.024.289-.032 9.327 10.775 16.073 23.821 19.257 38.199.145.642.282 1.276.41 1.926.957.112 1.85.385 2.662.81a3.657 3.657 0 0 0-1.93 1.228c.241.064.483.128.716.225.466.184.908.425 1.318.706.234-.137.491-.233.788-.233.611 0 1.126.353 1.399.859.121.224.218.473.218.754 0 .128-.049.232-.073.353a1.59 1.59 0 0 1-.305.642c.329.658.538 1.38.619 2.142.008-.008.024-.008.032-.016a3.615 3.615 0 0 0 1.262-1.3 3.582 3.582 0 0 0 .499-1.813c0-1.693-1.158-3.105-2.726-3.523-.08-.457-.161-.914-.249-1.372a86.867 86.867 0 0 0-1.102-4.95c-3.554-14.025-10.356-26.758-19.554-37.381a3.5 3.5 0 0 0 .12-.875c0-.088-.016-.168-.024-.249a3.57 3.57 0 0 0-.756-1.981l-1.077 1.123-.386.401a1.576 1.576 0 0 1-.265 1.821 1.606 1.606 0 0 1-2.268.049 1.597 1.597 0 0 1-.048-2.263 1.582 1.582 0 0 1 1.809-.337l.418-.433 1.045-1.091a3.673 3.673 0 0 0-1.222-.562 3.635 3.635 0 0 0-.892-.12c-.193 0-.386.024-.571.056-10.22-10.351-22.884-18.294-37.043-22.891-.201-.064-.394-.137-.595-.201a3.74 3.74 0 0 0-.434-.858l-.579.545-.965.907a1.59 1.59 0 0 1-.354 1.805 1.604 1.604 0 0 1-2.267-.064 1.597 1.597 0 0 1 .064-2.263c.507-.481 1.238-.545 1.825-.248l.507-.474 1.029-.971a3.625 3.625 0 0 0-1.712-.738c-.177-.024-.362-.056-.547-.056a3.62 3.62 0 0 0-2.284.819 91.805 91.805 0 0 0-22.071-2.688c-1.841 0-3.658.072-5.468.176a93.042 93.042 0 0 0-4.269.345 91.236 91.236 0 0 0-25.666 6.571 3.641 3.641 0 0 0-2.396-.914c-.032 0-.056.008-.088.008a3.653 3.653 0 0 0-1.857.561c-.017.008-.041.016-.057.033l.016.016 1.391 1.564c.105-.04.209-.056.314-.08.531-.096 1.101.048 1.487.481a1.6 1.6 0 0 1-.136 2.263 1.608 1.608 0 0 1-2.268-.136 1.58 1.58 0 0 1-.193-1.83l-.177-.2-1.206-1.356-.016-.016c-.016.016-.024.032-.04.048a3.659 3.659 0 0 0-.659 1.235 3.493 3.493 0 0 0-.169 1.051c0 .024.008.049.008.073a92.444 92.444 0 0 0-30.715 25.137 3.783 3.783 0 0 0-1.504.369c-.28.137-.53.305-.763.506l.932.818.652.57a1.6 1.6 0 0 1 .836-.193c.354.016.707.12.997.369.362.313.53.754.53 1.196 0 .377-.112.762-.377 1.067-.587.666-1.6.738-2.268.152a1.594 1.594 0 0 1-.426-1.789l-.579-.505-1.013-.883a3.608 3.608 0 0 0-.587 1.974c0 .281.04.561.105.826.008.048.032.088.04.137a91.23 91.23 0 0 0-12.214 25.001c-.08.248-.137.497-.217.746a3.655 3.655 0 0 0-.844.553l.547.474 1.053.898a1.596 1.596 0 0 1 1.833.161 1.6 1.6 0 0 1 .169 2.263 1.608 1.608 0 0 1-2.267.168 1.581 1.581 0 0 1-.435-1.789l-.675-.578-.933-.794c-.29.449-.466.971-.53 1.532-.017.137-.04.273-.04.418 0 .786.257 1.516.683 2.11a91.3 91.3 0 0 0-2.436 20.885c.016 1.99.096 3.971.225 5.945Z" fill="#7D4E24" fill-opacity=".15"/>
            <path d="M238.454 197.412c-.016-.008-.032-.008-.056-.016-.129-.04-.257-.088-.394-.12a3.68 3.68 0 0 0-.217.794c-.024.169-.048.329-.048.506 0 .024-.009.048-.009.072 0 1.067.467 2.022 1.199 2.688.12 1.067.217 2.134.297 3.209a3.42 3.42 0 0 0 1.182-2.391c.314.088.643.152.981.152.289 0 .563-.04.836-.104a5.104 5.104 0 0 0-.506-2.006c-.113.024-.218.064-.33.064a1.614 1.614 0 0 1-1.616-1.612c0-.209.048-.401.12-.586a5.101 5.101 0 0 0-1.439-.65ZM62.395 232.033l-.009-.008a1.768 1.768 0 0 1-.112-.473c-.008-.064-.04-.12-.04-.185 0-.89.723-1.612 1.616-1.612.241 0 .458.056.667.152.17-.281.338-.561.467-.866a6.35 6.35 0 0 0 .321-1.027 3.61 3.61 0 0 0-1.447-.297c-.08 0-.16.016-.241.024a4.34 4.34 0 0 0 .152-1.075c0-1.942-1.294-3.571-3.063-4.124.25 1.997.555 3.987.925 5.945-.217.169-.41.353-.58.562a3.613 3.613 0 0 0-.811 1.877c-.016.153-.049.297-.049.449 0 .514.113 1.003.306 1.453a6.62 6.62 0 0 0 1.898-.795Z" fill="#7D4E24" fill-opacity=".15"/>
            <path d="M167.84 266.141c.008.008.016.008.024.016a6.948 6.948 0 0 0 1.881.738 1.616 1.616 0 0 1 2.975 0c.322-.072.635-.176.941-.289.338-.128.651-.28.965-.457a7.315 7.315 0 0 0 1.093-.754c.306-.257.579-.538.837-.843a6.998 6.998 0 0 0 1.431-2.776c.08-.313.12-.626.153-.954a3.409 3.409 0 0 1-1.207-.362 5.708 5.708 0 0 1-2.967 4.638 3.633 3.633 0 0 0-2.725-1.236c-.378 0-.732.073-1.07.177a3.692 3.692 0 0 0-1.656 1.059c-1.777-.971-2.999-2.832-2.999-4.999 0-1.412.539-2.687 1.391-3.69a3.758 3.758 0 0 1-.997-.731c-1.005 1.204-1.632 2.736-1.632 4.421-.024 2.6 1.439 4.847 3.562 6.042ZM171.939 251.811a8.317 8.317 0 0 1 4.945 2.159c.507-.257 1.069-.426 1.672-.426.057 0 .113.016.177.016-1.833-2.094-4.502-3.45-7.502-3.45-.201 0-.385.048-.586.056a3.731 3.731 0 0 1 1.294 1.645ZM171.957 254.451c.555.072 1.094.2 1.584.425a5.929 5.929 0 0 1 1.592 1.059c.145-.401.362-.754.635-1.075a6.89 6.89 0 0 0-3.57-1.621c0 .048-.008.089-.016.137a3.644 3.644 0 0 1-.225 1.075Z" fill="#FFED00" fill-opacity=".15"/>
            <path d="M182.965 265.379h-3.281c.49-.77.852-1.621 1.11-2.511.257-.883.442-1.806.442-2.769 0-.128-.032-.24-.04-.369a3.664 3.664 0 0 1-1.649.979 6.776 6.776 0 0 1-.072.706 8.242 8.242 0 0 1-1.809 3.964c-.057.072-.113.136-.169.208a8.385 8.385 0 0 1-4.905 2.736c-.281.474-.78.803-1.367.803-.08 0-.144-.032-.225-.048-.49-.073-.9-.353-1.142-.763a8.216 8.216 0 0 1-2.291-.738c-.29-.144-.587-.289-.852-.465-2.316-1.492-3.868-4.076-3.868-7.021 0-2.198.868-4.18 2.259-5.672a3.674 3.674 0 0 1-.241-1.26c0-.265.032-.529.089-.778-2.26 1.829-3.739 4.589-3.739 7.718 0 3.33 1.656 6.259 4.173 8.072.844.61 1.785 1.059 2.798 1.388.273.409.635.746 1.045 1.019a3.667 3.667 0 0 0 1.994.594c1.222 0 2.3-.602 2.967-1.525h25.77c6.61 0 13.396-1.211 20.069-3.482a87.045 87.045 0 0 0 4.768-6.459c-8.169 3.683-16.652 5.681-24.837 5.681h-16.997v-.008ZM239.877 252.87a6.341 6.341 0 0 1-2.372-.465 55.71 55.71 0 0 1-1.262.866 76.733 76.733 0 0 1-4.109 2.624 89.966 89.966 0 0 1-4.462 7.173c5.194-2.447 10.252-5.536 15.036-9.219a67.77 67.77 0 0 0 1.889-1.508 3.639 3.639 0 0 1-1.367-.458 6.2 6.2 0 0 1-3.353.987ZM242.345 251.169a3.7 3.7 0 0 1-.788-1.412c-.032-.112-.072-.225-.096-.345-.249.201-.491.409-.732.602a84.758 84.758 0 0 1-2.155 1.621c.418.104.844.176 1.295.176a5.33 5.33 0 0 0 2.476-.642ZM296.85 160.288a3.662 3.662 0 0 0-3.667-3.659 3.66 3.66 0 0 0-3.666 3.659c0 1.211.603 2.278 1.511 2.944l-.048 8.617a3.634 3.634 0 0 0-1.463 2.905c0 1.179.562 2.214 1.431 2.88l-.048 8.746c-.837.674-1.383 1.685-1.383 2.84 0 1.075.474 2.03 1.206 2.696a32.297 32.297 0 0 1-3.98 12.757 3.651 3.651 0 0 0-3.032 3.595c0 .257.024.505.081.746-.893 1.115-1.833 2.198-2.879 3.193l-5.942 5.665c-.152-.016-.297-.048-.458-.048a3.662 3.662 0 0 0-3.667 3.658c0 .097.025.193.033.289l-9.376 8.938a3.057 3.057 0 0 0-.474-.048 3.32 3.32 0 0 0-.901.129 3.636 3.636 0 0 0-1.584.858l1.006.931.361.337a1.59 1.59 0 0 1 1.826.233c.651.601.691 1.612.088 2.262-.603.65-1.616.69-2.267.088a1.58 1.58 0 0 1-.37-1.797l-.41-.377-.893-.826a3.61 3.61 0 0 0-.49 1.596c-.008.081-.024.153-.024.233 0 .104.024.201.032.305l-9.89 9.427-1.279 1.22a3.655 3.655 0 0 1 2.469 3.025c.016.144.04.281.04.425 0 .016-.008.032-.008.048.048-.048.105-.088.153-.136l.088-.08 9.544-9.099 1.673-1.597c.273.065.555.105.844.105.635 0 1.23-.177 1.753-.466a3.641 3.641 0 0 0 1.914-3.193c0-.233-.025-.465-.073-.682l9.03-8.609c.281.064.563.112.86.112a3.662 3.662 0 0 0 3.667-3.659c0-.24-.025-.473-.073-.706l5.757-5.488c1.118-1.067 2.131-2.222 3.104-3.41.136.016.273.04.418.04a3.66 3.66 0 0 0 3.666-3.658 3.54 3.54 0 0 0-.45-1.717 36.623 36.623 0 0 0 4.382-14.162c1.11-.625 1.874-1.805 1.874-3.169a3.66 3.66 0 0 0-1.673-3.065l.049-8.376a3.652 3.652 0 0 0 1.624-3.033 3.627 3.627 0 0 0-1.592-3.009l.048-8.489a3.587 3.587 0 0 0 1.528-2.944ZM14.12 203.374l.017 2.006c.619.216 1.077.794 1.085 1.484v.008a1.603 1.603 0 0 1-3.208.016v-.008c0-.69.442-1.268 1.061-1.492l-.016-2.159a3.657 3.657 0 0 0-3.578 3.651c0 1.42.82 2.632 2.002 3.241v20.853c0 .819-.16 1.597-.41 2.335a7.53 7.53 0 0 1-4.993 4.846.15.15 0 0 1-.056.016 3.702 3.702 0 0 0-1.544-.633v2.102c.458.168.812.529.973.995.056.16.104.329.104.505 0 .883-.715 1.605-1.608 1.605a1.606 1.606 0 0 1-1.608-1.605c0-.176.048-.345.105-.505a1.55 1.55 0 0 1 .965-.987v-2.11c-.587.08-1.134.28-1.6.601a3.637 3.637 0 0 0-1.584 3.001 3.661 3.661 0 0 0 3.666 3.659c1.632 0 2.991-1.067 3.474-2.536 4.124-1.243 7.3-4.677 8.16-8.946.154-.754.234-1.532.234-2.335v-21.535a3.63 3.63 0 0 0 1.053-2.559 3.69 3.69 0 0 0-2.693-3.514Z" fill="#FFED00" fill-opacity=".15"/>
            <path d="M142.142 120.09a94.124 94.124 0 0 1 4.27-.345v-6.114c.764-.674 1.262-1.645 1.262-2.744 0-1.099-.498-2.07-1.262-2.744V97.504c.764-.674 1.262-1.645 1.262-2.744 0-1.1-.498-2.07-1.262-2.744v-2.48c0-3.666-.868-7.22-2.396-10.446a3.622 3.622 0 0 0 .434-1.685 3.66 3.66 0 0 0-3.666-3.658c-.057 0-.113.016-.169.016-1.801-2.159-3.948-4.052-6.441-5.504l-7.067-4.124a3.66 3.66 0 0 0-3.603-3.041c-.434 0-.836.088-1.222.224l-15.743-9.194a3.655 3.655 0 0 0-3.546-2.769 3.646 3.646 0 0 0-3.61 3.122h2.131c.217-.61.788-1.06 1.479-1.068.008 0 .016-.008.024-.008a1.606 1.606 0 1 1 0 3.21c-.611 0-1.126-.353-1.399-.859a1.806 1.806 0 0 1-.104-.216h-2.131a3.646 3.646 0 0 0 3.61 3.12c.708 0 1.359-.208 1.914-.553l14.955 8.738a3.662 3.662 0 0 0 3.659 3.57 3.61 3.61 0 0 0 1.704-.441l6.81 3.971c2.027 1.188 3.78 2.72 5.259 4.477-.088.321-.153.642-.153.995a3.646 3.646 0 0 0 3.088 3.595c1.23 2.648 1.93 5.544 1.93 8.545v2.094c-1.07.642-1.794 1.797-1.794 3.13 0 1.331.724 2.486 1.794 3.128v9.869c-1.07.642-1.794 1.797-1.794 3.129s.724 2.488 1.794 3.129v6.058h-.017ZM243.355 220.102l7.028 7.005a3.526 3.526 0 0 0-.145.971 3.66 3.66 0 0 0 3.667 3.658c.337 0 .667-.064.981-.152l2.508 2.503c.04-.585.209-1.123.491-1.596l-1.697-1.565-1.552-1.436a1.588 1.588 0 0 1-1.825-.233 1.596 1.596 0 0 1-.088-2.262 1.605 1.605 0 0 1 2.267-.089c.515.474.627 1.196.37 1.798l1.56 1.444 1.624 1.5a3.63 3.63 0 0 1 1.584-.858l-2.573-2.568c0-.048.016-.096.016-.144a3.66 3.66 0 0 0-3.666-3.659c-.049 0-.097.016-.145.016l-10.043-10.013a100.145 100.145 0 0 1-.362 5.68ZM229.561 206.35l.426.426c0 .04-.008.072-.008.104a3.661 3.661 0 0 0 3.667 3.659c.04 0 .072-.008.112-.008l5.629 5.608c.088-1.613.144-3.226.144-4.862 0-.353-.024-.698-.024-1.051l-.772-.771c.258-.056.499-.144.748-.232a7.723 7.723 0 0 0 4.149-3.378 7.582 7.582 0 0 0 1.094-3.9c0-.505-.057-.994-.153-1.476-.306.53-.74.979-1.263 1.3-.008.008-.024.008-.032.016.024.225.065.441.065.674 0 2.624-1.609 4.886-3.892 5.849a6.504 6.504 0 0 1-1.471.401c-.33.048-.66.104-.997.104-.073 0-.145-.016-.218-.024a6.257 6.257 0 0 1-2.331-.521c-.234.128-.491.225-.78.225a1.615 1.615 0 0 1-1.616-1.613c0-.137.048-.257.08-.385a6.336 6.336 0 0 1-1.021-1.669c-.056-.137-.081-.273-.129-.409-.201-.618-.337-1.268-.337-1.958 0-.337.048-.666.104-.995.064-.385.161-.762.289-1.115a3.51 3.51 0 0 1-.611-.875 3.638 3.638 0 0 1-.337-.923 7.207 7.207 0 0 0-.603 1.653l-29.027-28.94-3.023-3.009-.273-.273a18.32 18.32 0 0 0-3.948-2.977 3.655 3.655 0 0 0-3.522-2.711c-.788 0-1.504.248-2.107.665a18.397 18.397 0 0 0-3.328-.312H165.534c-2.219 0-4.591-.707-7.051-2.087-4.254-2.391-7.542-6.121-9.609-10.534.378-.578.603-1.26.603-1.998a3.641 3.641 0 0 0-2.428-3.426c-.378-1.765-.619-3.571-.619-5.432v-15.148a81.877 81.877 0 0 0-4.27.369v14.779c0 2.271.266 4.501.756 6.651a3.728 3.728 0 0 0-.627 1.276c-.08.297-.137.602-.137.931 0 .313.049.61.121.89l1.327-.553.41-.169a1.513 1.513 0 0 1 .345-1.051c.161-.208.362-.401.628-.505.82-.337 1.76.048 2.098.866a1.6 1.6 0 0 1-.868 2.094 1.544 1.544 0 0 1-.828.081 1.546 1.546 0 0 1-.965-.498l-.467.193-1.262.529c.281.474.667.875 1.126 1.18.305.2.659.345 1.021.449 2.436 5.344 6.424 9.845 11.562 12.741 3.112 1.749 6.191 2.64 9.15 2.64h16.339a7.45 7.45 0 0 0-.812 1.388 7.343 7.343 0 0 0-.603 2.415 3.606 3.606 0 0 1 1.841-.931c.112-.016.225-.024.338-.032a6.245 6.245 0 0 1 1.648-2.84 6.4 6.4 0 0 1 3.996-1.789c.281-.466.772-.795 1.359-.795.756 0 1.367.53 1.536 1.236a6.32 6.32 0 0 1 3.835 5.023c.032.224.064.441.064.674.266.104.531.224.764.385a3.664 3.664 0 0 1 1.568 2.575c0 .032.008.065.008.097l29.107 29.021 3.023 3.008Z" fill="#95C11F" fill-opacity=".15"/>
            <path d="M188.143 174.898a3.502 3.502 0 0 1-1.681-.449c-.032.112-.056.225-.104.329a3.61 3.61 0 0 1-.628.987 5.219 5.219 0 0 0 3.024.955c.04 0 .072-.008.112-.008a5.519 5.519 0 0 0 1.713-.329 3.56 3.56 0 0 1-.37-1.003 3.968 3.968 0 0 1-.072-.69c0-.161.024-.313.048-.466a3.512 3.512 0 0 1-2.042.674ZM188.754 177.779c-.113 0-.225-.024-.338-.032a5.908 5.908 0 0 1-.546-.057 6.276 6.276 0 0 1-2.951-1.227 3.663 3.663 0 0 1-1.946.57c-.048 0-.097-.016-.145-.016a7.721 7.721 0 0 0 3.739 1.973 7.865 7.865 0 0 0 1.584.161c.37 0 .732-.056 1.093-.113a7.555 7.555 0 0 0 3-1.083 3.551 3.551 0 0 1-.997-.69 6.217 6.217 0 0 1-2.493.514ZM192.703 167.958a5.405 5.405 0 0 0-1.648-1.26 1.594 1.594 0 0 1-1.407.859c-.796 0-1.431-.586-1.56-1.34a5.196 5.196 0 0 0-1.97.658c-.088.048-.177.088-.257.144a5.231 5.231 0 0 0-2.115 2.793c.41.088.796.256 1.142.465a3.45 3.45 0 0 1 1.93-2.038c.675.826 1.688 1.372 2.838 1.372.442 0 .868-.088 1.262-.233.434.578.7 1.284.7 2.062 0 .129-.024.241-.04.369a3.632 3.632 0 0 1 2.235-.778c.064 0 .128.016.201.016 0-.048-.008-.096-.016-.144a5.218 5.218 0 0 0-1.295-2.945ZM237.351 198.519c.137.016.265.024.394.057 0-.169.024-.337.048-.506.041-.273.113-.545.217-.794-.249-.048-.514-.064-.771-.08a3.112 3.112 0 0 1-.009 1.307c.041.008.081.016.121.016ZM236.858 196.12c.041 0 .073-.008.113-.008.418 0 .828.048 1.222.121.137.024.257.072.394.112a3.657 3.657 0 0 1 1.93-1.228 7.72 7.72 0 0 0-2.662-.81c-.289-.032-.579-.088-.876-.088-.515 0-1.021.056-1.512.152-.12.024-.241.072-.362.105.057.024.113.064.169.088a3.743 3.743 0 0 1 1.584 1.556ZM231.921 203.975c.177.586.442 1.132.804 1.613.265-.185.563-.321.908-.321.893 0 1.616.722 1.616 1.613 0 .184-.048.353-.104.521a5.297 5.297 0 0 0 1.825.345h.024c.065 0 .129-.016.201-.024a5.21 5.21 0 0 0 2.219-.602c1.689-.882 2.847-2.631 2.847-4.661 0-.088-.024-.169-.024-.257a3.58 3.58 0 0 1-.837.104c-.345 0-.667-.064-.98-.152a3.455 3.455 0 0 1-1.182 2.391 3.474 3.474 0 0 1-2.244.858 3.66 3.66 0 0 0-3.232-2.174 3.615 3.615 0 0 1-.217-.882c-.016-.137-.04-.265-.04-.41 0-.16.024-.321.048-.473a3.592 3.592 0 0 1-1.648-.449 5.065 5.065 0 0 0-.217 1.412v.024c0 .433.064.85.168 1.252.008.096.041.184.065.272ZM296.853 327.609c0-1.348-.732-2.504-1.818-3.145v-4.999c0-2.792-.257-5.536-.747-8.216a3.624 3.624 0 0 0 1.383-2.84 3.652 3.652 0 0 0-3.056-3.595 45.089 45.089 0 0 0-6.971-13.006c.032-.193.056-.385.056-.578a3.66 3.66 0 0 0-3.666-3.658c-.032 0-.056.008-.089.008a45.258 45.258 0 0 0-4.478-3.988l-5.034-3.915a24.874 24.874 0 0 1-7.493-9.612 3.642 3.642 0 0 0 1.045-2.552 3.65 3.65 0 0 0-2.846-3.554c-.209-1.324-.362-2.656-.362-4.028v-22.402a3.617 3.617 0 0 1-1.753.466c-.29 0-.571-.04-.844-.105l-1.673 1.597v20.452c0 1.99.233 3.939.619 5.841a3.584 3.584 0 0 0-.41 1.228h.668l1.439-.008a1.59 1.59 0 0 1 1.495-1.076c.66 0 1.223.394 1.472.955.016.032.016.072.032.105.064.168.113.345.113.537a1.606 1.606 0 0 1-1.6 1.613c-.7 0-1.279-.442-1.504-1.059l-1.134.008-.973.008a3.629 3.629 0 0 0 1.874 2.647 29.26 29.26 0 0 0 9.222 12.324l5.034 3.916a43.45 43.45 0 0 1 3.69 3.241 3.688 3.688 0 0 0-.169 1.035 3.662 3.662 0 0 0 3.667 3.659c.185 0 .362-.024.539-.056a40.724 40.724 0 0 1 6.175 11.931 3.55 3.55 0 0 0-.41 1.645 3.64 3.64 0 0 0 1.624 3.033c.514 2.615.796 5.295.796 8.031v5.424a3.619 3.619 0 0 0-1.238 2.72c0 1.083.482 2.046 1.238 2.72v13.768a3.619 3.619 0 0 0-1.238 2.72c0 1.083.482 2.046 1.238 2.72v13.768a3.619 3.619 0 0 0-1.238 2.72c0 1.083.482 2.046 1.238 2.72v13.768a3.619 3.619 0 0 0-1.238 2.72c0 1.083.482 2.046 1.238 2.72v13.768a3.619 3.619 0 0 0-1.238 2.72 3.63 3.63 0 0 0 1.238 2.72v3.739c0 6.652-2.276 12.774-6.047 17.684h-.032a3.66 3.66 0 0 0-3.666 3.659c0 .104.024.192.032.296-4.35 3.9-9.858 6.524-15.953 7.262a3.634 3.634 0 0 0-5.74.232h-40.259a3.663 3.663 0 0 0-3.321-2.134 3.662 3.662 0 0 0-3.667 3.659 3.643 3.643 0 0 0 3.128 3.602v-2.11a1.595 1.595 0 0 1-1.069-1.492c0-.883.715-1.605 1.608-1.605.136 0 .257.048.386.08.691.177 1.222.779 1.222 1.525 0 .698-.45 1.276-1.07 1.492v2.11a3.56 3.56 0 0 0 1.866-.866h41.176a3.65 3.65 0 0 0 2.966 1.524 3.656 3.656 0 0 0 3.12-1.765c7.012-.81 13.356-3.803 18.365-8.272.281.072.571.112.868.112a3.662 3.662 0 0 0 3.667-3.658c0-.402-.081-.771-.201-1.132 4.301-5.616 6.882-12.605 6.882-20.203v-3.313a3.634 3.634 0 0 0 1.818-3.146c0-1.348-.732-2.503-1.818-3.145v-12.926a3.631 3.631 0 0 0 1.818-3.145c0-1.348-.732-2.503-1.818-3.145v-12.926a3.633 3.633 0 0 0 1.818-3.145c0-1.348-.732-2.503-1.818-3.145V349.97a3.633 3.633 0 0 0 1.818-3.145c0-1.348-.732-2.503-1.818-3.145v-12.934a3.62 3.62 0 0 0 1.826-3.137Z" fill="#95C11F" fill-opacity=".15"/>
            <path d="m95.122 433.069-.378.008-1.753.016a1.587 1.587 0 0 1-1.488 1.083 1.606 1.606 0 0 1-1.624-1.589 1.606 1.606 0 0 1 1.592-1.62c.7-.008 1.279.433 1.512 1.051l1.077-.008 1.07-.008a3.653 3.653 0 0 0-3.61-3.137c-.177 0-.346.024-.515.048-.281-.201-.547-.409-.844-.594l-8.322-5.055a3.652 3.652 0 0 0-3.482-2.567c-.217 0-.426.024-.635.064l-11.184-6.804a3.654 3.654 0 0 0-3.602-3.025c-.813 0-1.56.273-2.172.722a3.64 3.64 0 0 0-1.495 2.929 3.661 3.661 0 0 0 3.666 3.659c.62 0 1.198-.169 1.713-.442l10.09 6.138c-.015.137-.04.273-.04.417a3.661 3.661 0 0 0 3.667 3.659c.756 0 1.464-.233 2.05-.626l7.502 4.566a3.335 3.335 0 0 0-.056.569 3.661 3.661 0 0 0 3.666 3.659h.009a8.865 8.865 0 0 1 .675 3.362v2.583c0 1.966-.66 3.763-1.745 5.232a3.644 3.644 0 0 0-3.32 2.744c-1.158.553-2.445.89-3.812.89H72.713a3.655 3.655 0 0 0-2.967-1.524c-1.222 0-2.3.602-2.967 1.524H49.154a3.655 3.655 0 0 0-2.967-1.524c-1.222 0-2.3.602-2.967 1.524H23.505a3.661 3.661 0 0 0-6.633 2.134 3.661 3.661 0 0 0 6.633 2.135H43.22a3.654 3.654 0 0 0 2.967 1.524c1.222 0 2.3-.602 2.967-1.524h17.625a3.655 3.655 0 0 0 2.967 1.524c1.222 0 2.3-.602 2.967-1.524h10.621c1.93 0 3.755-.426 5.412-1.18a3.66 3.66 0 0 0 1.945.57 3.661 3.661 0 0 0 3.667-3.659c0-.473-.097-.914-.258-1.332a13.027 13.027 0 0 0 2.397-7.534v-2.583c0-2.094-.531-4.124-1.472-5.954.024-.176.072-.345.097-.521Z" fill="#BEE3ED" fill-opacity=".15"/>
            <path d="M188.883 230.18a59.613 59.613 0 0 1-10.002 23.404.894.894 0 0 0-.145-.016c-.056 0-.113-.016-.177-.016-.603 0-1.166.161-1.672.425.345.321.659.674.949 1.043.16.209.321.41.458.634.088-.016.169-.056.265-.056.893 0 1.616.722 1.616 1.613 0 .553-.297 1.019-.723 1.308.08.409.112.834.128 1.259.008.113.032.217.032.329 0 .209-.048.41-.064.61a3.586 3.586 0 0 0 1.648-.979 3.628 3.628 0 0 0 .949-3.289 63.809 63.809 0 0 0 11.345-27.641c-1.527.489-3.055.955-4.607 1.372ZM104.618 291.985l-.901 1.115-1.254 1.556c.346.562.33 1.292-.104 1.838a1.611 1.611 0 0 1-2.26.241 1.603 1.603 0 0 1-.241-2.255c.434-.546 1.15-.706 1.777-.49l1.302-1.612.861-1.067a3.654 3.654 0 0 1-.885-1.741l-1.801 2.222c-.072 0-.136-.024-.209-.024a3.661 3.661 0 0 0-3.666 3.659c0 .329.056.65.145.954l-5.219 6.419a3.65 3.65 0 0 0-3.04 3.595c0 .048.009.088.017.136l-5.564 6.852c-.33-.008-.66.008-.99.096a3.653 3.653 0 0 0-2.669 4.405l-5.773 7.109c-.056 0-.112-.016-.169-.016a3.661 3.661 0 0 0-3.666 3.659c0 .401.08.778.201 1.139a54.643 54.643 0 0 0-3.16 5.263c-1.56.418-2.718 1.83-2.718 3.523 0 .553.137 1.075.354 1.54-.949 2.319-1.785 4.678-2.42 7.101-1.423.506-2.444 1.845-2.444 3.434 0 1.091.49 2.062 1.246 2.728a51.569 51.569 0 0 0-.418 3.683 3.638 3.638 0 0 0-1.673 3.065 3.64 3.64 0 0 0 1.496 2.928v3.089a3.64 3.64 0 0 0-1.496 2.929c0 1.203.595 2.263 1.496 2.928v3.089a3.641 3.641 0 0 0-1.496 2.929 3.64 3.64 0 0 0 1.496 2.929v3.089a3.64 3.64 0 0 0-1.496 2.928 3.64 3.64 0 0 0 1.496 2.929v3.089a3.64 3.64 0 0 0-1.496 2.928 3.64 3.64 0 0 0 1.496 2.929v3.089a3.64 3.64 0 0 0-1.496 2.928 3.64 3.64 0 0 0 1.496 2.929v3.891a3.637 3.637 0 0 1 2.17-.722c.789 0 1.504.249 2.108.666v-3.779a3.639 3.639 0 0 0 1.56-2.985c0-1.235-.62-2.326-1.56-2.984v-2.977a3.639 3.639 0 0 0 1.56-2.985c0-1.235-.62-2.326-1.56-2.984v-2.977a3.639 3.639 0 0 0 1.56-2.985 3.64 3.64 0 0 0-1.56-2.985v-2.992a3.639 3.639 0 0 0 1.56-2.985c0-1.236-.62-2.327-1.56-2.985v-2.976a3.64 3.64 0 0 0 1.56-2.985c0-1.236-.62-2.327-1.56-2.985v-2.977a3.623 3.623 0 0 0 .169-5.833c.088-1.171.24-2.326.41-3.482 1.085-.634 1.825-1.797 1.825-3.145a3.63 3.63 0 0 0-.772-2.222c.546-2.127 1.262-4.205 2.082-6.243 1.81-.224 3.208-1.749 3.208-3.61 0-.738-.225-1.42-.595-1.99a51.823 51.823 0 0 1 2.597-4.277H74a3.66 3.66 0 0 0 3.666-3.658 3.62 3.62 0 0 0-.153-.987l5.685-6.997c.394.032.796.016 1.198-.08a3.657 3.657 0 0 0 2.661-4.437c-.016-.056-.04-.104-.056-.16l4.913-6.042c.29.072.595.128.909.128a3.66 3.66 0 0 0 3.666-3.658c0-.586-.153-1.124-.394-1.613l4.647-5.713c.065 0 .129.024.201.024a3.66 3.66 0 0 0 3.667-3.658c0-.329-.056-.642-.137-.947l1.616-1.99a3.918 3.918 0 0 1-1.471-.505ZM179.923 166.915h-5.548l4.977 6.002c-.016.152-.048.304-.048.465a3.642 3.642 0 0 0 3.393 3.627 33.369 33.369 0 0 1 2.38 3.45l1.479-1.469a7.754 7.754 0 0 1-3.738-1.973c.048 0 .096.016.144.016a3.66 3.66 0 0 0 1.946-.57 6.539 6.539 0 0 1-1.487-1.565c-.153.049-.298.097-.467.097a1.615 1.615 0 0 1-1.616-1.613c0-.698.45-1.284 1.078-1.5-.008-.153-.049-.289-.049-.442 0-.465.057-.922.153-1.356.024-.112.072-.208.097-.321a4.77 4.77 0 0 0-.338.032 3.638 3.638 0 0 0-1.841.931c.08-.85.273-1.669.603-2.415l-1.118-1.396ZM168.195 269.559a9.798 9.798 0 0 1-2.798-1.388c-8.893 6.868-19.732 10.824-31.213 11.233a20.675 20.675 0 0 1 1.479 4.212c12.423-.722 24.09-5.311 33.569-13.046a3.765 3.765 0 0 1-1.037-1.011ZM191.575 194.5l2.622 2.471a38.128 38.128 0 0 0-3.844-15.734l-3.224 3.201a34.246 34.246 0 0 1 2.404 8.256c.7.578 1.383 1.18 2.042 1.806ZM121.228 279.46a21.137 21.137 0 0 0-14.529 5.769 3.65 3.65 0 0 1 2.404 1.051c.483.481.788 1.067.949 1.677a16.868 16.868 0 0 1 11.185-4.237h10.066a15.956 15.956 0 0 0-1.937-4.26h-8.138ZM178.06 258.719a1.589 1.589 0 0 1-1.117-1.508c0-.273.088-.514.201-.738-.057-.097-.105-.193-.169-.289-.338-.498-.756-.923-1.214-1.316a3.88 3.88 0 0 0-.796 1.589c-.049.24-.081.497-.081.754 0 .457.097.882.242 1.284l-.386.489c-.507.634-1.038 1.244-1.568 1.853a54.05 54.05 0 0 1-3.024 3.202 3.612 3.612 0 0 1 1.07-.177c1.085 0 2.058.482 2.726 1.236a5.757 5.757 0 0 0 1.752-1.476 5.67 5.67 0 0 0 1.215-3.162c.369.185.779.305 1.206.361.024-.24.072-.473.072-.722 0-.032-.008-.064-.008-.096a5.586 5.586 0 0 0-.121-1.284ZM194.238 208.894l-.346.136a1.58 1.58 0 0 1-.949 1.492c-.024.008-.04.033-.064.041a1.603 1.603 0 1 1-1.15-2.993c.104-.04.217-.04.33-.056a1.573 1.573 0 0 1 1.455.521l.732-.281 1.415-.545a3.596 3.596 0 0 0-1.037-1.236 3.45 3.45 0 0 0-.386-.257v-2.856l-4.27-4.028v7.326a3.63 3.63 0 0 0-1.214 2.704c0 1.075.474 2.038 1.214 2.704v7.566c0 2.15-.161 4.284-.394 6.418a77.608 77.608 0 0 0 4.463-1.444c.128-1.653.201-3.314.201-4.974v-7.117a3.67 3.67 0 0 0 1.624-1.966c.128-.369.217-.77.217-1.179 0-.225-.024-.442-.064-.658l-1.777.682Z" fill="#FFDF05" fill-opacity=".5"/>
            <path d="M185.732 175.757c.258-.297.475-.618.627-.987.041-.104.073-.217.105-.329.104-.337.177-.69.177-1.067a3.646 3.646 0 0 0-1.753-3.105 3.58 3.58 0 0 0-1.142-.466 5.022 5.022 0 0 0-.257 1.397c0 .08-.024.152-.024.224 0 .153.032.297.048.441.627.225 1.086.803 1.086 1.501 0 .329-.121.618-.29.874a4.93 4.93 0 0 0 1.423 1.517ZM165.807 146.961a31.832 31.832 0 0 0 5.282 15.694h5.299l-.072-.089c-3.852-4.645-6.039-10.454-6.28-16.464.595-.65.965-1.508.965-2.455 0-.915-.354-1.741-.909-2.383a21.883 21.883 0 0 1 5.508-12.565 3.638 3.638 0 0 1-2.782-2.318l-.724-.169a26.18 26.18 0 0 0-6.191 14.081 3.65 3.65 0 0 0-2.227 3.362c0 1.468.876 2.728 2.131 3.306ZM209.498 3.758A3.66 3.66 0 0 0 205.832.1a3.66 3.66 0 0 0-3.667 3.66 3.66 3.66 0 0 0 1.632 3.04v10.527a3.66 3.66 0 0 0-1.632 3.04 3.66 3.66 0 0 0 1.632 3.042v10.526a3.66 3.66 0 0 0-1.632 3.041 3.66 3.66 0 0 0 1.632 3.041v10.527a3.66 3.66 0 0 0-1.632 3.04 3.66 3.66 0 0 0 1.632 3.042V67.15a3.66 3.66 0 0 0-1.632 3.041 3.66 3.66 0 0 0 1.632 3.041v7.053c0 1.685-.161 3.346-.402 4.998a3.635 3.635 0 0 0-1.978 3.226c0 .85.298 1.62.788 2.238a35.697 35.697 0 0 1-7.252 12.942 3.646 3.646 0 0 0-3.168 3.274l-8.861 8.585c-.129-.016-.265-.04-.394-.04a3.66 3.66 0 0 0-3.666 3.658c0 .097.024.193.032.289l-2.107 2.046a3.633 3.633 0 0 1 1.713.738l1.037-.978 1.544-1.453a1.59 1.59 0 0 1 .354-1.805 1.604 1.604 0 0 1 2.267.064 1.597 1.597 0 0 1-.064 2.263c-.507.481-1.239.545-1.826.249l-1.535 1.444-1.038.979c.185.264.33.553.435.858.201.064.394.137.595.201l1.399-1.356c.273.064.563.112.86.112a3.66 3.66 0 0 0 3.586-4.421l7.96-7.718c.418.168.869.264 1.343.264a3.66 3.66 0 0 0 3.666-3.658c0-.522-.112-1.019-.313-1.469a40.029 40.029 0 0 0 7.534-13.888c1.423-.506 2.444-1.846 2.444-3.434a3.625 3.625 0 0 0-1.125-2.624c.265-1.853.45-3.715.45-5.6v-7.221a3.628 3.628 0 0 0 1.423-2.873c0-1.171-.563-2.198-1.423-2.872V56.456a3.628 3.628 0 0 0 1.423-2.872c0-1.172-.563-2.199-1.423-2.873V39.848a3.628 3.628 0 0 0 1.423-2.873c0-1.171-.563-2.198-1.423-2.872V23.239a3.628 3.628 0 0 0 1.423-2.872c0-1.172-.563-2.199-1.423-2.873V6.631c.86-.674 1.423-1.701 1.423-2.873Z" fill="#FFDF05" fill-opacity=".5"/>
            <path d="M126.018 239.054c.129.714.21 1.444.21 2.198a12.1 12.1 0 0 1-.861 4.461l12.511-12.412h-6.054l-5.806 5.753ZM177.627 192.085l-2.331 2.31-1.504 1.485a1.593 1.593 0 0 1-.306 1.813 1.613 1.613 0 0 1-2.275-.008 1.596 1.596 0 0 1 .008-2.263 1.604 1.604 0 0 1 1.817-.297l1.504-1.484 2.307-2.287a3.59 3.59 0 0 1-.796-1.933l-3.529 3.498c-.057 0-.113-.016-.169-.016a3.661 3.661 0 0 0-3.667 3.659c0 .048.016.096.016.152l-16.049 15.927a3.712 3.712 0 0 0-1.238-.233 3.65 3.65 0 0 0-3.224 1.95c.241-.016.474-.073.724-.073.402 0 .796.065 1.19.121.233.032.466.032.691.08.105.024.209.072.314.096.193-.08.394-.12.619-.12.892 0 1.616.722 1.616 1.613a1.614 1.614 0 0 1-3.112.593c-.048-.112-.056-.24-.072-.369a6.937 6.937 0 0 0-1.078-.112c-.056 0-.104-.016-.16-.016-.394 0-.772.056-1.15.112.024.353.088.682.201 1.003.064.169.136.337.217.49a5.148 5.148 0 0 0-.796.08l-3.289 3.265c.217.466.346.987.346 1.533 0 .048-.016.096-.016.136a3.606 3.606 0 0 1-.909 2.263c.25.602.611 1.131 1.054 1.597l1.769-1.75 5.242-5.199a3.637 3.637 0 0 0 3.465-3.442l16.323-16.191c.313.088.635.144.973.144a3.66 3.66 0 0 0 3.666-3.658c0-.329-.056-.65-.145-.955l3-2.977a3.748 3.748 0 0 1-1.247-.537ZM214.337 151.43l-5.983 5.929a3.662 3.662 0 0 0-5.194 3.322c0 .537.121 1.043.33 1.5l-6.119 6.066 3.023 3.009 7.044-6.989a3.645 3.645 0 0 0 2.983-2.96l7.18-7.125a3.64 3.64 0 0 1-3.264-2.752ZM139.241 225.943l-3.128 3.098h4.945a9.64 9.64 0 0 1-1.68-3.025c-.049-.024-.089-.048-.137-.073ZM103.628 261.271c-1.295 1.292-2.887 2.15-4.6 2.615a3.634 3.634 0 0 0-2.315-.85c-1.4 0-2.605.794-3.224 1.95l-7.454 1.845a3.627 3.627 0 0 1 1.198 2.688c0 .217-.024.417-.064.626.185.208.386.401.579.602l6.295-1.573a3.645 3.645 0 0 0 2.67 1.163 3.657 3.657 0 0 0 3.401-2.31 14.496 14.496 0 0 0 6.537-3.755l3.98-3.948a35.958 35.958 0 0 1-2.541-3.49l-4.462 4.437ZM79.258 270.907l-2.066.425a1.587 1.587 0 0 1-1.246 1.348 1.602 1.602 0 1 1-.651-3.137 1.582 1.582 0 0 1 1.68.746l2.066-.425.868-.177c0-.056-.016-.104-.016-.152 0-.393.08-.754.193-1.107a.993.993 0 0 0-.072-.089l-1.64.41a3.64 3.64 0 0 0-2.758-1.276 3.654 3.654 0 0 0-3.562 2.84l-12.8 3.169a57.711 57.711 0 0 0-8.886 3.017c-.112-.04-.209-.096-.33-.128a3.667 3.667 0 0 0-4.526 2.519v.016a56.205 56.205 0 0 0-18.51 16.569c-1.776.248-3.16 1.757-3.16 3.602 0 .361.073.706.17 1.043A55.856 55.856 0 0 0 17 321.479c-1.15.618-1.938 1.813-1.938 3.201a3.64 3.64 0 0 0 1.528 2.961c0 .12-.016.24-.016.369v19.336a3.651 3.651 0 0 0-1.512 2.945 3.63 3.63 0 0 0 1.512 2.945v19.713a3.651 3.651 0 0 0-1.512 2.945c0 1.211.596 2.278 1.512 2.944v19.714a3.651 3.651 0 0 0-1.512 2.945c0 1.211.596 2.278 1.512 2.944v19.714a3.65 3.65 0 0 0-1.512 2.944 3.661 3.661 0 0 0 3.667 3.659 3.661 3.661 0 0 0 3.666-3.659c0-1.227-.61-2.31-1.543-2.968v-19.658a3.637 3.637 0 0 0 1.543-2.968 3.627 3.627 0 0 0-1.543-2.969v-19.657a3.64 3.64 0 0 0 1.543-2.969 3.627 3.627 0 0 0-1.543-2.969v-19.657a3.638 3.638 0 0 0 1.543-2.969 3.627 3.627 0 0 0-1.543-2.969v-19.304c0-.12.016-.241.016-.361a3.641 3.641 0 0 0 1.527-2.961c0-1.051-.45-1.99-1.157-2.656.796-6.9 2.918-13.439 6.19-19.296.033 0 .057.008.081.008a3.661 3.661 0 0 0 3.667-3.659c0-.569-.145-1.099-.37-1.58a51.81 51.81 0 0 1 16.258-14.555c.297.193.619.361.98.458a3.668 3.668 0 0 0 4.656-3.242c2.437-1.019 4.961-1.893 7.59-2.551l13.468-3.354a3.6 3.6 0 0 0 1.866.521 3.656 3.656 0 0 0 3.12-1.765l2.54-.634a3.683 3.683 0 0 1-1.166-1.636l-.86.128ZM197.422 174.224a3.658 3.658 0 0 0-1.568-2.575 3.546 3.546 0 0 0-.763-.385c0 .056.016.112.016.168 0 .177-.041.345-.057.522-.04.505-.144.995-.297 1.46.273.209.474.489.571.826.04.145.088.281.088.434 0 .762-.539 1.364-1.246 1.54-.121.032-.233.072-.37.072-.273 0-.523-.088-.748-.208a6.413 6.413 0 0 1-1.817 1.195c.29.281.627.514.997.69a7.612 7.612 0 0 1-2.999 1.084c-.362.048-.716.112-1.094.112a7.933 7.933 0 0 1-1.584-.161l-1.479 1.469-5.017 4.982a3.641 3.641 0 0 1 3.176 2.768c.016.008.032.024.056.032l3.843-3.811 3.225-3.201 2.975-2.953c.16.024.313.048.474.048a3.66 3.66 0 0 0 3.666-3.658c0-.121-.024-.241-.032-.361-.008-.024-.008-.056-.016-.089Z" fill="#E30613" fill-opacity=".15"/>
            <path d="M190.583 176.375a5.273 5.273 0 0 0 1.744-1.067 1.613 1.613 0 0 1 1.44-2.239 5.41 5.41 0 0 0 .273-1.492c0-.048.016-.097.016-.153 0-.136-.032-.257-.04-.393-.064 0-.129-.016-.201-.016-.844 0-1.616.297-2.235.778a3.621 3.621 0 0 0-1.383 2.415c-.016.153-.049.305-.049.466 0 .24.025.465.073.69.064.361.193.698.362 1.011ZM114.953 250.046l.273-.024c.274-.505.788-.859 1.407-.859.322 0 .611.121.861.281.691-.297 1.31-.698 1.897-1.147a3.61 3.61 0 0 0-1.592-1.067c-.152-.048-.297-.104-.458-.137a3.478 3.478 0 0 0-.708-.072 3.68 3.68 0 0 0-2.428.931 3.59 3.59 0 0 0-1.174 2.078c.354.04.692.104 1.054.104.297 0 .578-.064.868-.088ZM118.183 251.057c-.137.746-.764 1.324-1.56 1.324-.514 0-.949-.249-1.246-.618-.434.056-.852.128-1.303.128-.305 0-.595-.064-.9-.088h-.024c0 .008.008.016.008.024.201.61.554 1.14 1.013 1.557-.032 0-.065.008-.097.008-.78 0-1.535-.08-2.275-.217l-.619.61a30.78 30.78 0 0 0 2.484 3.546l3.023-3a3.653 3.653 0 0 0 3.402-2.544c.104-.321.168-.658.177-1.011 0-.032.008-.064.008-.096 0-.273-.033-.53-.089-.786-.619.449-1.286.85-2.002 1.163ZM238.549 4.08a3.66 3.66 0 0 0-3.667-3.66 3.66 3.66 0 0 0-3.666 3.66c0 1.323.715 2.47 1.769 3.112v19.922c-1.054.642-1.769 1.79-1.769 3.113 0 1.324.715 2.472 1.769 3.114V58.3c-1.054.642-1.769 1.79-1.769 3.114 0 1.324.715 2.47 1.769 3.113v24.96c-1.054.643-1.769 1.79-1.769 3.114 0 1.324.715 2.471 1.769 3.113v21.936c0 2.888-.394 5.745-1.062 8.529-1.157.618-1.945 1.813-1.945 3.209 0 .602.16 1.164.418 1.669a36.945 36.945 0 0 1-6.095 10.254 3.541 3.541 0 0 0-.925-.136 3.66 3.66 0 0 0-3.666 3.659c0 .377.072.738.185 1.083l-1.11 1.099c.45.112.86.297 1.222.562l.483-.506 1.463-1.524a1.589 1.589 0 0 1 .257-1.822 1.605 1.605 0 0 1 2.268-.048c.643.61.659 1.629.048 2.263a1.582 1.582 0 0 1-1.809.337l-1.463 1.524-.483.506a3.57 3.57 0 0 1 .756 1.981l1.825-1.805h.024a3.661 3.661 0 0 0 3.667-3.659c0-.064-.016-.12-.016-.176a40.974 40.974 0 0 0 7.212-11.666c1.737-.281 3.072-1.781 3.072-3.595a3.643 3.643 0 0 0-1.126-2.631c.691-2.977 1.085-6.034 1.085-9.115v-22.29c.78-.673 1.287-1.652 1.287-2.76 0-1.106-.507-2.085-1.287-2.76V64.16c.78-.674 1.287-1.653 1.287-2.76 0-1.108-.507-2.087-1.287-2.76V32.964c.78-.674 1.287-1.653 1.287-2.76 0-1.108-.507-2.087-1.287-2.76V6.838a3.647 3.647 0 0 0 1.279-2.76Z" fill="#E30613" fill-opacity=".15"/>
            <path d="M235.461 194.371c.49-.096.997-.152 1.512-.152.297 0 .587.056.876.088-.129-.642-.273-1.284-.41-1.926l-1.978 1.99ZM225.991 203.887a83.885 83.885 0 0 1-13.042 10.752l3.168 2.984a87.575 87.575 0 0 0 12.905-10.743l.531-.538-3.023-3.017-.539.562ZM194.038 224.122a95.423 95.423 0 0 1-4.462 1.444c-7.703 2.271-15.744 3.483-23.849 3.483h-13.186a3.619 3.619 0 0 0-2.332-.859c-.273 0-.53.032-.788.088-.152.032-.297.089-.434.137-.185-.056-.37-.113-.579-.113a5.262 5.262 0 0 1-3.819-1.644 5.31 5.31 0 0 1-1.053-1.597c-.354.401-.78.722-1.271.939.274.682.668 1.291 1.126 1.853.37.449.78.851 1.246 1.204a7.015 7.015 0 0 0 2.324 1.147c.627.176 1.278.305 1.97.305.08 0 .153-.016.233-.024a1.577 1.577 0 0 1 1.053-.409c.097 0 .185.04.274.056.755.136 1.342.762 1.342 1.556 0 .891-.723 1.613-1.616 1.613-.595 0-1.093-.337-1.375-.818-.024-.04-.048-.065-.072-.105a9.51 9.51 0 0 1-1.528-.152c-.233-.04-.442-.12-.667-.177a9.005 9.005 0 0 1-4.519-2.864c-.032-.04-.072-.08-.104-.128a9.23 9.23 0 0 1-1.568-2.785 3.775 3.775 0 0 1-.997-.24 9.465 9.465 0 0 0 1.68 3.025h-22.256a3.623 3.623 0 0 0-1.713-.442 3.64 3.64 0 0 0-1.712.442h-8.66l.129.16 1.246 1.5c-.531.297-1.037.642-1.512 1.011a12.438 12.438 0 0 0-1.672 1.581c-.032.04-.072.08-.105.12a11.99 11.99 0 0 0-2.492 4.814 12.042 12.042 0 0 0-.394 3.017c0 1.79.402 3.482 1.101 5.015a3.64 3.64 0 0 1 1.11-1.677c-.322-1.003-.547-2.054-.547-3.161 0-2.504.925-4.774 2.404-6.579.185-.225.354-.466.563-.682.306-.313.651-.586.989-.859a10.732 10.732 0 0 1 1.761-1.147 10.35 10.35 0 0 1 4.35-1.156c.137-.008.273-.04.41-.04.635 0 1.246.08 1.849.185.298-.305.7-.506 1.166-.506.82 0 1.48.626 1.576 1.42.692.337 1.327.755 1.922 1.228l.016.016a10.328 10.328 0 0 1 3.867 7.277c.025.281.089.554.089.843 0 3.49-1.737 6.563-4.366 8.465.056.256.088.513.088.786 0 .032-.008.064-.008.096-.008.353-.08.69-.177 1.011a12.187 12.187 0 0 0 5.275-6.058c.547-1.38.86-2.88.86-4.461 0-.754-.08-1.484-.209-2.198a12.111 12.111 0 0 0-2.79-5.753H146.84a3.65 3.65 0 0 0 3.353 2.191 3.679 3.679 0 0 0 3.353-2.191H165.711c7.856 0 15.647-1.083 23.165-3.121a91.712 91.712 0 0 0 4.599-1.38 90.04 90.04 0 0 0 18.952-8.778l-3.216-3.033a87.028 87.028 0 0 1-15.173 7.109Z" fill="#1D71B8" fill-opacity=".15"/>
            <path d="m104.721 233.301-2.332-2.808-1.198-1.452H86.043c-.675-.803-1.672-1.332-2.806-1.332-1.134 0-2.13.521-2.806 1.332H68.137a9.257 9.257 0 0 1-.676 1.733c.032.192.057.393.057.593 0 .65-.185 1.252-.483 1.782.016.056.032.104.048.152h13.058a3.657 3.657 0 0 0 3.096 1.717c1.31 0 2.444-.69 3.096-1.717H104.72ZM113.155 251.795a10.464 10.464 0 0 1-3.537-.939 10.35 10.35 0 0 1-.981-.529 3.567 3.567 0 0 1-1.785.65 12.08 12.08 0 0 0 4.961 2.182c.739.136 1.495.217 2.275.217.032 0 .064-.008.097-.008a3.62 3.62 0 0 1-1.014-1.557c-.016 0-.016-.008-.016-.016ZM110.099 246.628a3.565 3.565 0 0 1-.314 2.327 8.596 8.596 0 0 0 3.232 1.067 3.612 3.612 0 0 1 1.174-2.078c-.04 0-.08.008-.12.008-1.488.008-2.855-.498-3.972-1.324ZM122.715 242.335c.032-.304.096-.601.096-.914 0-2.656-1.222-5.007-3.103-6.604a9.086 9.086 0 0 0-1.809-1.195c-.241.136-.499.241-.796.241-.483 0-.909-.225-1.206-.562a1.783 1.783 0 0 1-.29-.433 8.745 8.745 0 0 0-1.528-.153c-.201 0-.394.048-.595.056a8.49 8.49 0 0 0-2.476.53c-.185.072-.37.144-.555.225a8.786 8.786 0 0 0-3.321 2.68c-.209.28-.394.569-.57.874-.748 1.284-1.207 2.752-1.207 4.333 0 .826.153 1.604.37 2.359.258-.057.515-.089.788-.089.242 0 .475.024.7.073.265.048.514.128.756.232a6.674 6.674 0 0 1-.603-2.744c0-1.3.386-2.495 1.029-3.522a6.755 6.755 0 0 1 3.288-2.72 6.64 6.64 0 0 1 2.404-.465c.073 0 .137.016.202.024.675.81 1.68 1.34 2.814 1.34.297 0 .587-.048.86-.113 1.713 1.22 2.838 3.202 2.838 5.456 0 2.512-1.407 4.686-3.465 5.833.161.032.305.089.458.137a3.602 3.602 0 0 1 1.592 1.067 8.612 8.612 0 0 0 3.329-5.946ZM142.82 219.597c.378.249.7.57.965.939.74-1.364 2.051-2.383 3.618-2.688.258-.048.531-.072.796-.08a3.037 3.037 0 0 1-.217-.49 3.438 3.438 0 0 1-.201-1.003 7.143 7.143 0 0 0-4.961 3.322ZM140.834 218.987c.056 0 .112.016.168.016a9.03 9.03 0 0 1 7.197-4.661 3.64 3.64 0 0 1 .563-.795c-.121-.024-.226-.072-.346-.072-3.538 0-6.601 1.95-8.258 4.814-.169.289-.346.57-.482.883a3.646 3.646 0 0 1 1.117-.193c.017.008.025.008.041.008ZM237.302 197.821c0-.216-.024-.417-.064-.625-.089-.008-.177-.024-.274-.024a5.31 5.31 0 0 0-1.785.328c.024.105.065.209.065.321 0 .891-.724 1.613-1.617 1.613-.297 0-.562-.104-.796-.241a5.287 5.287 0 0 0-.94 1.83 3.68 3.68 0 0 0 1.648.449c-.024.161-.048.313-.048.473 0 .137.024.273.04.41l.989-.995a3.638 3.638 0 0 0 2.661-2.68l.161-.161c-.04-.008-.08-.008-.12-.008.048-.224.08-.449.08-.69ZM232.019 197.829c0-.882.716-1.604 1.6-1.612h.016c.37 0 .7.144.973.361a6.184 6.184 0 0 1 2.252-.45 3.635 3.635 0 0 0-1.593-1.556 1.949 1.949 0 0 0-.168-.089 3.715 3.715 0 0 0-1.464-.304 3.66 3.66 0 0 0-3.594 4.38c.064.329.185.634.338.923.161.321.362.618.611.875a6.235 6.235 0 0 1 1.142-1.966 1.69 1.69 0 0 1-.113-.562ZM55.4 228.319a3.626 3.626 0 0 0-2.685-.546c.08.441.209.858.378 1.268.104.256.249.481.386.722.008 0 .016-.008.024-.008.892 0 1.616.722 1.616 1.612 0 .081-.032.153-.048.225.522.417 1.11.746 1.745.987.136-.385.225-.786.225-1.212 0-.441-.089-.866-.233-1.259.731.553 1.624.89 2.613.89.281 0 .554-.032.82-.08a3.64 3.64 0 0 1 .812-1.877h-4.865a3.728 3.728 0 0 0-.788-.722ZM54.372 232.691c-.258.169-.54.289-.869.289-.273 0-.514-.08-.74-.201-.377-.2-.659-.537-.787-.946-.049-.153-.097-.297-.097-.466 0-.409.169-.778.418-1.059a7.79 7.79 0 0 1-.563-1.267c-.088-.265-.185-.522-.249-.795a3.582 3.582 0 0 0-.828.682.581.581 0 0 0-.088.113H15.745v1.933c0 .795-.08 1.581-.233 2.335h34.775a3.657 3.657 0 0 0 3.096 1.717c.627 0 1.206-.168 1.72-.449a3.763 3.763 0 0 0 1.062-.851c-.29-.12-.563-.273-.837-.425a7.438 7.438 0 0 1-.956-.61ZM3.935 227.709c-1.134 0-2.131.521-2.806 1.332h-28.946a3.653 3.653 0 0 0-2.967-1.525c-1.086 0-2.05.482-2.718 1.228-5.765-1.252-10.099-6.371-10.099-12.493v-76.913l-.643-.377a3.703 3.703 0 0 0 1.367-1.075l-.724-.417-1.11-.634c-.506.425-1.23.53-1.833.177l-.008-.008a1.597 1.597 0 0 1-.579-2.183 1.605 1.605 0 0 1 2.195-.585c.603.345.877 1.027.756 1.676l.571.329 1.262.731a3.57 3.57 0 0 0 .266-1.348c0-.121-.024-.241-.04-.361a3.607 3.607 0 0 0-1.496-2.6v-12.268a3.64 3.64 0 0 0 1.528-2.961 3.64 3.64 0 0 0-1.528-2.96v-12.268a3.64 3.64 0 0 0 1.528-2.96 3.64 3.64 0 0 0-1.528-2.961V84.017a3.64 3.64 0 0 0 1.528-2.96 3.64 3.64 0 0 0-1.528-2.962V65.844a3.64 3.64 0 0 0 1.528-2.961 3.64 3.64 0 0 0-1.528-2.96V47.653a3.64 3.64 0 0 0 1.528-2.96 3.64 3.64 0 0 0-1.528-2.96V29.464a3.64 3.64 0 0 0 1.528-2.96 3.64 3.64 0 0 0-1.528-2.961V6.719a3.64 3.64 0 0 0 1.528-2.96c.016-2.023-1.625-3.66-3.65-3.66a3.66 3.66 0 0 0-3.667 3.66 3.64 3.64 0 0 0 1.527 2.96v16.833a3.64 3.64 0 0 0-1.527 2.96 3.64 3.64 0 0 0 1.527 2.961V41.75a3.64 3.64 0 0 0-1.527 2.96 3.64 3.64 0 0 0 1.527 2.961v12.276a3.64 3.64 0 0 0-1.527 2.961 3.64 3.64 0 0 0 1.527 2.96v12.277a3.64 3.64 0 0 0-1.527 2.96 3.64 3.64 0 0 0 1.527 2.96v12.277a3.64 3.64 0 0 0-1.527 2.96 3.64 3.64 0 0 0 1.527 2.961v12.276a3.64 3.64 0 0 0-1.527 2.961 3.64 3.64 0 0 0 1.527 2.96v12.276a3.64 3.64 0 0 0-1.527 2.961c0 1.219.603 2.295 1.527 2.96v77.659c0 8.329 6.015 15.261 13.935 16.745a3.64 3.64 0 0 0 3.152 1.83c1.222 0 2.3-.602 2.967-1.525H.83c.25.401.579.746.957 1.019v3.803a3.586 3.586 0 0 1 1.6-.601v-4.662c-.62-.225-1.07-.802-1.07-1.492 0-.883.716-1.605 1.609-1.605.884 0 1.608.714 1.608 1.605a1.58 1.58 0 0 1-1.07 1.492v4.678c.571.096 1.094.313 1.544.634a.135.135 0 0 1 .056-.017v-3.827c.386-.273.708-.626.957-1.019h4.037c.24-.738.41-1.516.41-2.335v-1.933H6.733c-.668-.867-1.665-1.396-2.798-1.396ZM282.112 3.758A3.662 3.662 0 0 0 278.445.1a3.66 3.66 0 0 0-3.666 3.66 3.66 3.66 0 0 0 1.656 3.056V31.36a3.639 3.639 0 0 0-1.656 3.057 3.66 3.66 0 0 0 1.656 3.057v24.543a3.639 3.639 0 0 0-1.656 3.057 3.66 3.66 0 0 0 1.656 3.057v24.544a3.639 3.639 0 0 0-1.656 3.057 3.66 3.66 0 0 0 1.656 3.057v24.544a3.65 3.65 0 0 0 0 6.114v.649a56.063 56.063 0 0 1-3.039 18.254 3.652 3.652 0 0 0-2.276 3.378c0 .537.121 1.043.33 1.508a55.796 55.796 0 0 1-9.979 14.964c-.144-.016-.297-.048-.45-.048a3.66 3.66 0 0 0-3.666 3.658c0 .185.024.361.056.538l-16.419 16.464c.41 1.629.772 3.282 1.102 4.95l18.308-18.397c.209.032.418.064.627.064a3.662 3.662 0 0 0 3.594-4.381c4.382-4.726 7.936-10.029 10.574-15.742 1.825-.209 3.256-1.733 3.256-3.618 0-.907-.338-1.726-.884-2.359a60.272 60.272 0 0 0 3.152-19.273v-.858a3.635 3.635 0 0 0 1.399-2.857c0-1.163-.555-2.182-1.399-2.856V98.547a3.634 3.634 0 0 0 1.399-2.856c0-1.163-.555-2.183-1.399-2.856v-24.93a3.634 3.634 0 0 0 1.399-2.856c0-1.163-.555-2.182-1.399-2.856V37.256a3.634 3.634 0 0 0 1.399-2.856c0-1.164-.555-2.183-1.399-2.857V6.607a3.647 3.647 0 0 0 1.391-2.849Z" fill="#1D71B8" fill-opacity=".15"/>
            <path d="M61.71 182.248c.008-.088.024-.169.024-.257a3.661 3.661 0 0 0-3.666-3.659c-.282 0-.555.04-.82.097l-14.843-12.693a3.648 3.648 0 0 0-3.642-3.443c-.121 0-.226.025-.346.033l-14.77-12.637c-.45-.393-.885-.811-1.32-1.212a3.65 3.65 0 0 0-3.191-3.169A57.911 57.911 0 0 1 8.747 129.55c.137-.385.225-.795.225-1.228a3.628 3.628 0 0 0-1.994-3.233 57.72 57.72 0 0 1-3.248-18.446 3.65 3.65 0 0 0-.016-6.018v-13.15a3.642 3.642 0 0 0 1.592-3.017c0-1.252-.635-2.35-1.592-3.017V68.283a3.662 3.662 0 0 0 1.592-3.017c0-1.252-.635-2.351-1.592-3.009V49.1a3.648 3.648 0 0 0 1.592-3.01c0-1.25-.627-2.35-1.592-3.008V29.923a3.648 3.648 0 0 0 1.592-3.01c0-1.25-.627-2.35-1.592-3.008V6.759A3.64 3.64 0 0 0 5.298 3.75 3.661 3.661 0 0 0 1.63.091a3.661 3.661 0 0 0-3.666 3.66c0 1.195.579 2.238 1.463 2.912v17.346a3.633 3.633 0 0 0-1.463 2.905c0 1.195.579 2.238 1.463 2.904v13.367a3.633 3.633 0 0 0-1.463 2.905c0 1.187.579 2.238 1.463 2.904v13.367a3.633 3.633 0 0 0-1.463 2.905c0 1.187.579 2.238 1.463 2.904v13.376a3.633 3.633 0 0 0-1.463 2.904c0 1.188.579 2.239 1.463 2.904v13.376a3.625 3.625 0 0 0-1.455 2.904c0 1.196.587 2.247 1.471 2.913a62.039 62.039 0 0 0 3.233 19.216 3.639 3.639 0 0 0-1.046 2.551 3.65 3.65 0 0 0 3.498 3.643 62.236 62.236 0 0 0 10.203 15.501 3.679 3.679 0 0 0-.305 1.46 3.661 3.661 0 0 0 5.122 3.354c.233.209.458.433.691.634l14.328 12.26a3.477 3.477 0 0 0-.088.77 3.661 3.661 0 0 0 3.666 3.659c.459 0 .901-.096 1.311-.249l14.368 12.292c-.008.112-.032.225-.032.345a3.661 3.661 0 0 0 3.667 3.659c.313 0 .61-.048.9-.129l1.592 1.364c.394.337.813.658 1.215.979a3.597 3.597 0 0 1 .53-1.532l-1.85-1.589-1.6-1.372a1.596 1.596 0 0 1-1.832-.16 1.6 1.6 0 0 1-.17-2.263 1.608 1.608 0 0 1 2.268-.168c.53.457.676 1.171.434 1.781l1.609 1.38 1.849 1.588c.257-.216.53-.409.844-.553.072-.249.137-.498.217-.746-.241-.193-.49-.378-.724-.586l-1.632-1.388ZM239.875 240.177c.064 0 .129.016.193.016l-.466-.441c.072.136.136.281.193.433.024 0 .056-.008.08-.008ZM212.95 214.638l-8.901-8.392c0-.048.016-.088.016-.136a3.66 3.66 0 0 0-3.666-3.659c-.113 0-.225.024-.338.032l-5.861-5.52-2.622-2.471a48.009 48.009 0 0 0-8.289-6.259c-.017-.008-.033-.024-.057-.032a3.64 3.64 0 0 0-3.176-2.768c-.128-.016-.249-.04-.378-.04-.466 0-.9.096-1.31.249a48.699 48.699 0 0 0-30.345-3.306l-8.974 1.926-6.191 1.324-9.664 2.07a3.654 3.654 0 0 0-2.742-1.252 3.648 3.648 0 0 0-3.49 2.592l-4.519.97-4.937 1.059-8.096 1.734c-10.429 2.238-21.364.337-30.402-5.071.032.184.057.377.057.577 0 1.421-.82 2.632-2.002 3.242 9.913 5.841 21.862 7.871 33.239 5.424l10.726-2.303 3.112-.666a7.123 7.123 0 0 1 .539-1.709 7.551 7.551 0 0 1 2.162-2.752 3.278 3.278 0 0 0-.056.57c0 .264.032.529.089.778a6.543 6.543 0 0 1 2.082-1.396 1.61 1.61 0 0 1 1.488-.995c.474 0 .892.209 1.182.538.868.032 1.688.24 2.428.585a3.61 3.61 0 0 0-.507-1.42 7.526 7.526 0 0 1 4.109 2.913l.876-.185 6.682-1.436 13.701-2.937a44.348 44.348 0 0 1 27.121 2.76c0 .049.008.089.016.137.072.73.354 1.396.796 1.933l1.166-1.155.466-.465a1.595 1.595 0 0 1 .306-1.814 1.606 1.606 0 1 1 2.267 2.279 1.602 1.602 0 0 1-1.817.297l-.225.225-1.383 1.372c.37.256.796.433 1.254.537.258.056.523.096.804.096.692 0 1.327-.2 1.882-.537a44.83 44.83 0 0 1 7.084 5.416l1.318 1.243 4.27 4.028 2.589 2.439c0 .008-.008.016-.008.024l-2.195.65c.434.329.78.746 1.037 1.236l1.142-.433 1.125-.434.748-.289a1.585 1.585 0 0 1 1.013-1.532 1.63 1.63 0 0 1 .579-.096c.643 0 1.255.385 1.496 1.019.273.714-.016 1.484-.635 1.885-.097.064-.177.137-.29.185a1.593 1.593 0 0 1-1.785-.466l-.265.105-1.633.625-1.141.442c.04.216.064.433.064.658 0 .417-.088.81-.217 1.179l2.702-.794a3.623 3.623 0 0 0 1.833.505c.346 0 .683-.064.997-.152l7.823 7.373 3.217 3.033 20.776 19.577a3.656 3.656 0 0 1 2.131-1.66c.185-.562.354-1.132.523-1.701l-19.74-18.599-3.176-3.009Z" fill="#662483" fill-opacity=".5"/>
            <path d="M120.46 191.691a1.601 1.601 0 0 1-1.496-1.027 5.36 5.36 0 0 0-1.624 1.308c.265.434.611.811 1.029 1.1.185.128.378.232.579.328.466.209.973.337 1.512.337a3.656 3.656 0 0 0 3.127-1.773c.217-.361.378-.746.467-1.171a5.253 5.253 0 0 0-1.986-.674 1.615 1.615 0 0 1-1.608 1.572ZM254.221 265.94c.699 0 1.278.442 1.503 1.06l.836-.009 1.279-.008a3.597 3.597 0 0 0-1.255-2.246c-.209-5.801-2.613-11.498-7.099-15.678l-.531-.497-.088.08c-.049.048-.105.088-.153.136 0-.016.008-.032.008-.048 0-.144-.024-.289-.04-.425a3.584 3.584 0 0 0-.756-1.821 3.672 3.672 0 0 0-1.713-1.204.59.59 0 0 0-.112-.032c.008.04.008.088.016.128.032.185.04.377.056.57.016.193.056.377.056.57 0 .353-.048.69-.104 1.027.329.297.547.714.547 1.187 0 .891-.724 1.613-1.617 1.613-.04 0-.08-.024-.12-.024-.048.064-.097.12-.153.176a6.55 6.55 0 0 1-1.552 1.388c.41.241.869.393 1.367.458.153.016.306.048.458.048.057 0 .113-.016.169-.016a3.63 3.63 0 0 0 1.255-.273l.072.064c3.522 3.282 5.451 7.719 5.733 12.26a3.65 3.65 0 0 0-1.729 3.097 3.65 3.65 0 0 0 1.182 2.68 18.068 18.068 0 0 1-2.71 5.849 61.3 61.3 0 0 0-6.392 11.602 3.65 3.65 0 0 0-2.862 3.562c0 .843.297 1.613.78 2.231-1.464 4.814-2.3 9.804-2.533 14.899-1.134.626-1.906 1.806-1.906 3.186a3.62 3.62 0 0 0 1.801 3.129v12.364a3.647 3.647 0 0 0-1.801 3.129 3.62 3.62 0 0 0 1.801 3.129v12.364a3.648 3.648 0 0 0-1.801 3.13c0 1.339.724 2.495 1.801 3.129v12.364a3.647 3.647 0 0 0-1.801 3.129 3.63 3.63 0 0 0 1.801 3.129v12.364a3.647 3.647 0 0 0-1.801 3.129c0 1.34.724 2.496 1.801 3.13v12.364a3.647 3.647 0 0 0-1.801 3.129 3.62 3.62 0 0 0 1.801 3.129v12.364a3.647 3.647 0 0 0-1.801 3.129 3.662 3.662 0 0 0 3.667 3.659 3.66 3.66 0 0 0 3.666-3.659 3.64 3.64 0 0 0-1.254-2.736V407.37a3.64 3.64 0 0 0 1.254-2.736 3.64 3.64 0 0 0-1.254-2.736v-13.159a3.638 3.638 0 0 0 1.254-2.736 3.64 3.64 0 0 0-1.254-2.736v-13.158a3.64 3.64 0 0 0 1.254-2.736 3.64 3.64 0 0 0-1.254-2.736v-13.159a3.638 3.638 0 0 0 1.254-2.736 3.64 3.64 0 0 0-1.254-2.736v-13.158a3.64 3.64 0 0 0 1.254-2.736 3.64 3.64 0 0 0-1.254-2.736v-13.158a3.64 3.64 0 0 0 1.254-2.736c0-1.052-.45-1.998-1.166-2.664.193-4.862.981-9.628 2.38-14.218a3.646 3.646 0 0 0 2.453-3.434 3.6 3.6 0 0 0-.539-1.885 56.798 56.798 0 0 1 5.966-10.832 22.204 22.204 0 0 0 3.474-7.807 3.646 3.646 0 0 0 1.825-2.64l-1.383.008-.724.008a1.59 1.59 0 0 1-1.495 1.076 1.606 1.606 0 0 1-1.616-1.597c0-.826.715-1.549 1.6-1.557ZM241.406 248.738c0 .233.024.45.064.666.024.121.056.233.097.345.152.53.426 1.011.788 1.412a5.352 5.352 0 0 0 1.584-1.283 1.616 1.616 0 0 1-.483-1.14c0-.89.724-1.612 1.616-1.612.016 0 .032.008.041.008.024-.201.064-.402.064-.61 0-.088-.024-.169-.024-.257a5.595 5.595 0 0 0-.193-1.171 4.528 4.528 0 0 0-.137-.434l-3.345-3.153a5.196 5.196 0 0 0-1.463-.257c0 .057.016.113.016.169 0 .578-.145 1.115-.386 1.597a3.735 3.735 0 0 1-1.254 1.452l3.24 3.049a3.597 3.597 0 0 0-.225 1.219Z" fill="#662483" fill-opacity=".5"/>
            <path d="M96.397 173.582c.025-.168.049-.337.049-.513a3.661 3.661 0 0 0-3.667-3.659c-.144 0-.29.024-.426.04l-9.31-9.515a3.655 3.655 0 0 1-3.241 1.981c-.065 0-.12-.016-.185-.016-.089.121-.177.241-.265.369l9.841 10.062a3.661 3.661 0 0 0 3.594 4.397c.226 0 .435-.024.652-.065l14.079 14.387 4.936-1.06-16.056-16.408ZM174.972 256.449l-1.431-1.573a5.82 5.82 0 0 0-1.584-.425c.129-.337.201-.698.225-1.075 0-.049.016-.089.016-.137-.048-.008-.104-.008-.152-.016-.274-.032-.539-.08-.813-.08-.377 0-.731.056-1.093.112a1.61 1.61 0 0 1-1.6 1.525c-.45 0-.852-.185-1.142-.474a.486.486 0 0 0-.088.057c-.539.369-.997.826-1.415 1.323.289.297.627.546.997.731a3.586 3.586 0 0 0 1.648.409c.305 0 .603-.048.892-.121l3.755 4.14a55.752 55.752 0 0 0 1.568-1.853l.386-.489a3.607 3.607 0 0 1-.241-1.284 3.442 3.442 0 0 1 .072-.77ZM144.586 226.642a5.262 5.262 0 0 0 3.819 1.644c.201 0 .386.065.579.113.145-.048.29-.105.434-.137l-3.063-3.377-1.769 1.757ZM181.822 264.007l-1.029-1.139a9.924 9.924 0 0 1-1.109 2.511h3.28c-.386-.449-.74-.931-1.142-1.372ZM192.182 287.564c.466 0 .9.096 1.31.248-1.15-6.499-3.658-12.669-7.325-18.165h-5.21a43.496 43.496 0 0 1 8.386 19.297 3.633 3.633 0 0 1 2.839-1.38ZM124.721 195.125c.161-.064.322-.112.49-.152a3.447 3.447 0 0 1 1.44-.024 4.922 4.922 0 0 0-.29-1.38 5.308 5.308 0 0 0-1.206-1.95 5.133 5.133 0 0 0-1.109-.834 3.56 3.56 0 0 1-.467 1.171 3.631 3.631 0 0 1-.45.602c.9.529 1.52 1.476 1.592 2.567ZM116.327 193.882c-.008.016-.008.032-.016.048a5.362 5.362 0 0 0-.209 1.396c0 .241.04.473.072.714a1.608 1.608 0 0 1 1.592 1.605c0 .409-.161.77-.41 1.051a5.285 5.285 0 0 0 3.313 1.837c.241.032.474.072.723.072.442 0 .869-.072 1.287-.176.064-.016.12-.04.177-.056a3.595 3.595 0 0 1-.515-1.846c0-.016.008-.04.008-.056s.008-.04.008-.056a3.262 3.262 0 0 1-.844.128c-.274 0-.531-.048-.788-.112l-.909-.931a3.607 3.607 0 0 0-1.447-2.88c.105-.457.306-.867.579-1.228a3.624 3.624 0 0 1-1.608-1.428c-.378.45-.676.955-.885 1.509-.056.144-.088.272-.128.409Z" fill="#2FAC66" fill-opacity=".15"/>
            <path d="M124.849 201.994a3.666 3.666 0 0 1-1.27-.73 6.302 6.302 0 0 0-.073.024c-.667.232-1.375.385-2.114.385a6.599 6.599 0 0 1-1.496-.193 6.337 6.337 0 0 1-1.914-.81 6.404 6.404 0 0 1-1.584-1.46c-.08.016-.16.048-.241.048-.338 0-.635-.129-.9-.305a1.634 1.634 0 0 1-.435-.442c-.168-.256-.289-.537-.289-.866 0-.506.241-.931.603-1.228a6.075 6.075 0 0 1-.113-1.091c0-.449.049-.89.145-1.316.016-.096.065-.176.081-.272.056-.233.128-.458.209-.674a6.295 6.295 0 0 1 1.415-2.207 3.568 3.568 0 0 1-.089-.778c0-.193.024-.377.057-.57a7.46 7.46 0 0 0-2.163 2.752 7.731 7.731 0 0 0-.539 1.709l-3.112.666 1.657 1.693a3.556 3.556 0 0 0-.209 1.18 3.66 3.66 0 0 0 3.666 3.658c.225 0 .442-.024.659-.064.459.369.949.69 1.48.947l.619.634.241-.297c.748.249 1.528.417 2.364.417a7.487 7.487 0 0 0 2.911-.586c.161-.056.289-.152.434-.224ZM126.328 191.371c.314.385.587.802.804 1.259.394.827.627 1.733.627 2.704v.016c.45.249.844.578 1.158.987.048-.329.105-.658.105-1.003 0-1.364-.394-2.632-1.038-3.731-.104-.168-.185-.353-.297-.513a7.47 7.47 0 0 0-4.109-2.913c.265.425.434.907.507 1.42a6.42 6.42 0 0 1 2.243 1.774ZM166.972 252.934c.112-.778.756-1.388 1.568-1.388.378 0 .707.153.981.361.394-.08.804-.104 1.222-.128.161-.008.321-.048.49-.048.241 0 .475.048.708.072a3.652 3.652 0 0 0-3.257-2.295l-14.706-16.215h-.426a3.648 3.648 0 0 1-3.353 2.19l14.899 16.432a4.353 4.353 0 0 0-.144.458 3.462 3.462 0 0 0 .152 2.038 8.246 8.246 0 0 1 1.255-1.108c.201-.128.41-.24.611-.369ZM143.774 220.536a3.579 3.579 0 0 0-.965-.939 6.646 6.646 0 0 0-.498.915 7.08 7.08 0 0 0-.394 1.235c.064.048.144.073.201.137.225.224.337.505.402.794.112.522 0 1.083-.402 1.484-.089.089-.193.129-.29.193.081.57.217 1.123.418 1.637a3.775 3.775 0 0 0 1.271-.939c.538-.61.876-1.396.908-2.263 0-.048.016-.088.016-.136 0-.546-.128-1.067-.345-1.532a2.422 2.422 0 0 0-.322-.586ZM140.789 218.987c-.394 0-.764.08-1.117.193.136-.305.313-.594.482-.883l-15.526-15.87-2.718 3.321 15.414 15.759a3.55 3.55 0 0 0-.201 1.131c0 1.46.868 2.712 2.106 3.297.049.025.089.057.145.073.314.128.652.2.997.24-.128-.361-.265-.722-.345-1.099-.065-.305-.065-.626-.097-.939-.032-.024-.064-.032-.088-.064-.065-.064-.097-.152-.153-.224-.442-.626-.41-1.493.153-2.054.048-.049.104-.065.16-.105a8.972 8.972 0 0 1 .941-2.672.597.597 0 0 1 .056-.096c-.056 0-.112-.016-.168-.016-.017.008-.025.008-.041.008ZM77.642 153.179a3.661 3.661 0 0 0-3.666-3.659c-.338 0-.66.064-.973.145l-.04-.049a61.17 61.17 0 0 1-11.169-15.766 3.65 3.65 0 0 0 .539-1.877 3.652 3.652 0 0 0-2.903-3.571 61.042 61.042 0 0 1-3.835-18.437 3.642 3.642 0 0 0 1.367-2.833c0-1.187-.571-2.23-1.447-2.896V85.18a3.626 3.626 0 0 0 1.447-2.896c0-1.188-.571-2.23-1.447-2.897V60.34a3.626 3.626 0 0 0 1.447-2.897c0-1.187-.571-2.23-1.447-2.896V35.49a3.626 3.626 0 0 0 1.447-2.897c0-1.187-.571-2.23-1.447-2.896V6.655a3.626 3.626 0 0 0 1.447-2.897A3.661 3.661 0 0 0 53.295.1a3.661 3.661 0 0 0-3.666 3.66c0 1.259.635 2.366 1.6 3.024v22.795a3.653 3.653 0 0 0-1.6 3.024c0 1.26.635 2.367 1.6 3.025v18.791a3.653 3.653 0 0 0-1.6 3.025c0 1.26.635 2.367 1.6 3.025v18.799a3.653 3.653 0 0 0-1.6 3.025c0 1.26.635 2.367 1.6 3.025v18.798a3.647 3.647 0 0 0 .088 6.098 65.085 65.085 0 0 0 4.19 19.939 3.586 3.586 0 0 0-.515 1.837 3.658 3.658 0 0 0 2.854 3.562 65.655 65.655 0 0 0 12.045 17.066l.426.434c0 .048-.016.096-.016.144a3.661 3.661 0 0 0 3.667 3.659c.024 0 .04-.008.064-.008l2.211 2.262a3.47 3.47 0 0 1-.104-.826c0-.73.217-1.404.587-1.974l-.394-.345-1.592-1.388c-.58.321-1.311.281-1.834-.177a1.599 1.599 0 0 1-.153-2.262 1.608 1.608 0 0 1 2.268-.153c.523.458.667 1.18.426 1.79l1.6 1.388.394.345c.233-.201.49-.369.764-.506l-.74-.762a3.61 3.61 0 0 0 .177-1.059ZM238.082 449.453c-1.222 0-2.3.602-2.967 1.524h-13.508c-.828 0-1.657-.08-2.461-.224a3.642 3.642 0 0 0-2.83-2.159v2.223c.619.225 1.069.802 1.069 1.492 0 .883-.715 1.605-1.608 1.605a1.606 1.606 0 0 1-1.608-1.605c0-.698.451-1.275 1.07-1.492v-2.223c-.338.049-.66.137-.957.273-.555-.345-1.102-.698-1.608-1.115l-6.521-5.44a33.2 33.2 0 0 1-7.293-8.593c.129-.377.217-.778.217-1.196 0-1.596-1.029-2.936-2.46-3.434-1.528-3.843-2.38-7.975-2.38-12.219v-.129c.812-.674 1.343-1.669 1.343-2.808 0-1.139-.531-2.134-1.343-2.808v-13.816c.812-.674 1.343-1.669 1.343-2.809 0-1.139-.531-2.134-1.343-2.808v-13.816c.812-.674 1.343-1.669 1.343-2.809 0-1.139-.531-2.134-1.343-2.808v-6.988c.812-.674 1.343-1.669 1.343-2.808 0-1.14-.531-2.135-1.343-2.809v-13.631c.812-.674 1.343-1.669 1.343-2.809 0-1.139-.531-2.134-1.343-2.808v-16.921c.812-.674 1.343-1.669 1.343-2.808 0-1.14-.531-2.135-1.343-2.809v-13.96a3.654 3.654 0 0 0 1.624-3.041 3.652 3.652 0 0 0-1.624-3.041v-1.661c0-.626-.065-1.244-.089-1.87-.426.273-.9.45-1.423.53l.008 2.431.008 2.182a1.59 1.59 0 0 1 1.078 1.493c0 .882-.716 1.604-1.6 1.613a1.612 1.612 0 0 1-1.617-1.597c0-.698.443-1.276 1.062-1.501l-.008-2.19-.008-2.423a3.714 3.714 0 0 1-1.15-.361c-.201.096-.41.184-.619.281.016.473.064.947.064 1.428v1.813a3.628 3.628 0 0 0-1.423 2.873c0 1.171.563 2.206 1.423 2.872v13.848c-1.021.65-1.713 1.782-1.713 3.081 0 1.3.684 2.432 1.713 3.082v16.375c-1.021.65-1.713 1.782-1.713 3.081 0 1.3.684 2.431 1.713 3.081v13.087a3.632 3.632 0 0 0-1.68 2.784H190.458a1.598 1.598 0 0 1 1.495-1.067 1.605 1.605 0 1 1 0 3.209 1.583 1.583 0 0 1-1.495-1.067H188.319c.104.505.322.963.611 1.364.273.377.619.698 1.013.947v6.442c-1.021.65-1.713 1.782-1.713 3.081 0 1.3.684 2.432 1.713 3.081v13.255c-1.021.65-1.713 1.781-1.713 3.081s.684 2.431 1.713 3.081v13.271c-1.021.65-1.713 1.781-1.713 3.081s.684 2.439 1.713 3.081c.016 4.63.893 9.131 2.517 13.335a3.65 3.65 0 0 0-.732 2.174 3.657 3.657 0 0 0 3.578 3.651 37.29 37.29 0 0 0 8.089 9.412l6.521 5.439c.699.586 1.447 1.1 2.211 1.565a3.65 3.65 0 0 0 3.626 3.274c.941 0 1.785-.361 2.428-.939 1.118.208 2.252.329 3.394.329h13.508a3.66 3.66 0 0 0 6.633-2.134 3.632 3.632 0 0 0-3.634-3.651Z" fill="#2FAC66" fill-opacity=".15"/>
            <path d="M104.721 233.301h-2.436v4.172c0 .257.032.506.04.762a12.156 12.156 0 0 1 2.493-4.814l-.097-.12ZM105.86 122.77a3.67 3.67 0 0 0-.241 1.26 3.66 3.66 0 0 0 3.667 3.658c.225 0 .442-.024.651-.064l.643.73c.137-.457.362-.874.66-1.235.016-.016.024-.032.04-.048l-1.391-1.565a1.584 1.584 0 0 1-1.793-.409 1.6 1.6 0 0 1 .136-2.263 1.607 1.607 0 0 1 2.268.137c.466.521.514 1.251.193 1.829l1.383 1.557c.016-.009.04-.017.056-.033a3.584 3.584 0 0 1 1.857-.561l-1.077-1.236c.024-.16.048-.321.048-.489a3.651 3.651 0 0 0-3.53-3.643 56.414 56.414 0 0 1-6.89-11.321 3.59 3.59 0 0 0 .474-1.773 3.637 3.637 0 0 0-2.581-3.474 57.092 57.092 0 0 1-2.814-12.846 3.62 3.62 0 0 0 1.407-2.864c0-1.3-.683-2.431-1.705-3.081V69.374c.837-.674 1.375-1.685 1.375-2.832a3.637 3.637 0 0 0-1.375-2.833v-7.847a3.665 3.665 0 0 0 1.327-2.302h-2.074a1.6 1.6 0 0 1-1.496 1.067 1.606 1.606 0 1 1 0-3.21c.7 0 1.278.45 1.496 1.068h2.074a3.594 3.594 0 0 0-1.327-2.303V41.18a3.638 3.638 0 0 0 1.544-2.97 3.638 3.638 0 0 0-1.544-2.968v-5.544a3.638 3.638 0 0 0 1.544-2.969 3.638 3.638 0 0 0-1.544-2.968v-5.545a3.638 3.638 0 0 0 1.544-2.968 3.638 3.638 0 0 0-1.544-2.969V6.727a3.638 3.638 0 0 0 1.544-2.969A3.661 3.661 0 0 0 95.2.1a3.661 3.661 0 0 0-3.667 3.66 3.64 3.64 0 0 0 1.512 2.944v5.584a3.63 3.63 0 0 0-1.512 2.945 3.64 3.64 0 0 0 1.512 2.944v5.585a3.63 3.63 0 0 0-1.512 2.944 3.64 3.64 0 0 0 1.512 2.945v5.584a3.629 3.629 0 0 0-1.512 2.945 3.64 3.64 0 0 0 1.512 2.944v8.794a3.655 3.655 0 0 0-1.68 3.065c0 1.284.667 2.415 1.68 3.065v7.39a3.655 3.655 0 0 0-1.68 3.065c0 1.283.667 2.415 1.68 3.065V85.26c-.82.674-1.351 1.677-1.351 2.817 0 1.275.651 2.39 1.64 3.04a61.414 61.414 0 0 0 3.04 14.017 3.617 3.617 0 0 0-.692 2.127 3.654 3.654 0 0 0 2.983 3.586 60.665 60.665 0 0 0 7.196 11.923ZM133.981 295.411c.836 0 1.6.289 2.211.762v-4.413a3.627 3.627 0 0 0-.137-5.897 20.886 20.886 0 0 0-.394-2.239 20.285 20.285 0 0 0-1.479-4.212c-1.013-2.11-2.364-4.068-4.061-5.721l-14.119-13.8a29.584 29.584 0 0 1-2.332-2.576c-.916-1.123-1.728-2.318-2.484-3.546-.185-.297-.37-.586-.539-.891a12.092 12.092 0 0 1-3.803-1.901 3.694 3.694 0 0 0 1.785-.65 10.59 10.59 0 0 1-1.857-1.412c-.089.016-.177.056-.266.056a1.615 1.615 0 0 1-1.616-1.613c0-.249.065-.473.169-.682a10.54 10.54 0 0 1-.925-2.078 3.765 3.765 0 0 0-.852 1.059 3.474 3.474 0 0 0-.257.618 3.715 3.715 0 0 0-.185 1.083 3.63 3.63 0 0 0 1.994 3.234 35.341 35.341 0 0 0 3.24 6.266c.78 1.203 1.616 2.383 2.541 3.49a36.614 36.614 0 0 0 2.396 2.592l14.119 13.784a15.888 15.888 0 0 1 2.211 2.728 16.042 16.042 0 0 1 1.938 4.26c.209.739.362 1.485.467 2.247a3.62 3.62 0 0 0-1.448 2.888c0 1.26.636 2.367 1.608 3.025v4.156a3.842 3.842 0 0 1 2.075-.617ZM119.148 202.395l-.242.297-2.251 2.752c-5.476 5.969-10.855 12.348-13.178 19.681l3.248 3.924h.169c1.383-7.566 6.883-14.146 12.993-20.813l2.018-2.471 2.718-3.322.33-.409c.33.096.675.168 1.045.168a3.662 3.662 0 0 0 3.667-3.659c0-.625-.177-1.211-.451-1.725l6.007-7.357-6.682 1.436-.571.706c.643 1.107 1.037 2.367 1.037 3.731 0 .345-.056.674-.104 1.003a3.627 3.627 0 0 0-1.158-.987c0 .811-.169 1.581-.45 2.287.185.265.313.561.313.906 0 .113-.04.201-.064.305-.113.546-.466.987-.973 1.188-.185.072-.378.12-.579.12-.153 0-.281-.048-.418-.088a6.314 6.314 0 0 1-2.002 1.195c.362.321.796.57 1.27.731-.144.072-.273.168-.426.232a7.48 7.48 0 0 1-2.911.586c-.82 0-1.608-.169-2.355-.417ZM143.8 151.085a3.745 3.745 0 0 1-1.126-1.18l-4.511 1.878-1.085.449-.708.297a1.603 1.603 0 0 1-.973 1.565c-.048.016-.096.016-.145.032-.78.24-1.632-.121-1.953-.891a1.595 1.595 0 0 1 .763-2.03c.041-.016.065-.056.105-.072a1.605 1.605 0 0 1 1.793.409l.426-.176 1.383-.578 4.487-1.87a3.617 3.617 0 0 1-.121-.89c0-.321.056-.634.137-.931l-5.789 2.359a3.605 3.605 0 0 0-1.89-.538c-.104 0-.209.025-.313.033l-16.09-18.39c-.257.112-.514.216-.78.329a3.668 3.668 0 0 1-2.765 2.11l16.386 18.735a3.67 3.67 0 0 0-.104.842 3.66 3.66 0 0 0 3.666 3.659c.048 0 .097-.016.145-.016 5.869 8.689 5.435 20.427-1.295 28.668l-.579.714 6.192-1.324c5.668-9.428 5.371-21.495-.949-30.682.024-.072.048-.144.064-.217l5.629-2.294ZM108.436 248.008c.419.361.869.674 1.351.947a3.565 3.565 0 0 0 .314-2.327 3.676 3.676 0 0 0-2.139-2.632 3.887 3.887 0 0 0-1.455-.305c-.274 0-.531.033-.788.089a8.82 8.82 0 0 0 .828 1.965 1.61 1.61 0 0 1 1.399.907c.04.08.056.161.08.241.041.144.089.297.089.457 0 .12-.04.233-.073.345.137.112.274.209.394.313Z" fill="#999" fill-opacity=".15"/>
            <path d="M126.006 196.931c.137 0 .258.048.386.08.177-.53.298-1.083.298-1.677 0-.128-.032-.249-.04-.377a3.447 3.447 0 0 0-1.93.176 3.64 3.64 0 0 0-2.364 3.298c0 .016-.008.04-.008.056s-.008.04-.008.056c0 .674.193 1.3.514 1.846a5.207 5.207 0 0 0 1.834-.955c-.177-.257-.306-.554-.306-.891a1.621 1.621 0 0 1 1.624-1.612ZM137.705 307.951a3.638 3.638 0 0 0-1.512-2.944v-3.041a3.57 3.57 0 0 1-1.68.706v3.787a1.595 1.595 0 0 1 1.069 1.492c0 .883-.715 1.605-1.608 1.605a1.606 1.606 0 0 1-1.608-1.605c0-.698.45-1.276 1.07-1.492v-3.787a3.64 3.64 0 0 1-1.528-.578v2.897a3.635 3.635 0 0 0-1.544 2.968c0 1.228.611 2.311 1.544 2.969v4.726a3.637 3.637 0 0 0-1.544 2.968c0 1.228.611 2.311 1.544 2.969v4.726a3.637 3.637 0 0 0-1.544 2.969c0 1.227.611 2.31 1.544 2.968v4.726a3.637 3.637 0 0 0-1.544 2.969c0 1.227.611 2.31 1.544 2.968v4.726a3.637 3.637 0 0 0-1.544 2.969c0 1.227.611 2.311 1.544 2.969v5.897a3.637 3.637 0 0 0-1.544 2.968c0 1.228.611 2.311 1.544 2.969v5.568a3.637 3.637 0 0 0-1.544 2.969c0 1.228.611 2.311 1.544 2.969v4.22a3.624 3.624 0 0 0 0 5.937v4.221a3.637 3.637 0 0 0-1.544 2.968c0 1.228.611 2.311 1.544 2.969v4.22a3.639 3.639 0 0 0-.491 5.537 18.45 18.45 0 0 1-1.342 3.803c-1.89.152-3.377 1.709-3.377 3.626 0 .369.072.714.168 1.043a17.245 17.245 0 0 1-3.666 2.929l-3.248 1.733a3.665 3.665 0 0 0-5.026 2.68l-12.012 6.419a3.566 3.566 0 0 0-1.6-.385 3.65 3.65 0 0 0-3.61 3.105l1.977-.024c.145-.41.435-.747.829-.931.201-.096.426-.153.659-.161a1.606 1.606 0 0 1 1.624 1.589c.008.586-.322 1.083-.788 1.364-.241.144-.507.257-.804.257a1.595 1.595 0 0 1-1.512-1.051l-1.994.024a3.653 3.653 0 0 0 3.611 3.137 3.65 3.65 0 0 0 3.618-3.169l11.811-6.315a3.605 3.605 0 0 0 1.777.474 3.647 3.647 0 0 0 3.635-3.37l3.143-1.677c1.858-1.107 3.498-2.487 4.929-4.044.049 0 .089.016.129.016a3.66 3.66 0 0 0 3.377-5.087 22.733 22.733 0 0 0 1.889-5.295 3.637 3.637 0 0 0 2.067-3.274 3.64 3.64 0 0 0-1.512-2.945v-4.26a3.629 3.629 0 0 0 1.512-2.945 3.638 3.638 0 0 0-1.512-2.944v-4.261a3.628 3.628 0 0 0 1.512-2.944 3.639 3.639 0 0 0-1.512-2.945v-4.268a3.629 3.629 0 0 0 1.512-2.945 3.64 3.64 0 0 0-1.512-2.945v-5.608c.314-.225.587-.505.812-.818.29-.401.507-.859.611-1.364h-1.873a1.599 1.599 0 0 1-1.496 1.067 1.606 1.606 0 1 1 0-3.21c.7 0 1.279.45 1.496 1.068h1.922a3.615 3.615 0 0 0-1.48-2.648v-5.946a3.627 3.627 0 0 0 1.512-2.944 3.639 3.639 0 0 0-1.512-2.945v-4.766a3.628 3.628 0 0 0 1.512-2.944 3.639 3.639 0 0 0-1.512-2.945v-4.766a3.628 3.628 0 0 0 1.512-2.944 3.639 3.639 0 0 0-1.512-2.945v-4.766a3.629 3.629 0 0 0 1.512-2.945 3.638 3.638 0 0 0-1.512-2.944v-4.766c.949-.69 1.544-1.757 1.544-2.977Z" fill="#999" fill-opacity=".15"/>
        </g>
        <circle cx="191.627" cy="209.026" r="6.1" fill="#FFDF05"/>
        <circle r="3.05" transform="matrix(1 0 0 -1 191.628 209.026)" fill="#fff"/>
        <circle cx="245.1" cy="248.1" r="6.1" fill="#662483"/>
        <circle r="3.05" transform="matrix(1 0 0 -1 245.101 248.1)" fill="#fff"/>
    </g>
    <rect x="91.5" y="219.5" width="184" height="19" rx="9.5" fill="#fff" stroke="#FFDF05" stroke-width="3"/>
    <path d="M112.899 234h-1.498v-5.891c0-.482.03-1.072.089-1.771h-.026a6.082 6.082 0 0 1-.247.857L108.5 234h-1.041l-2.723-6.754a6.287 6.287 0 0 1-.241-.908h-.026c.034.364.051.959.051 1.784V234h-1.396v-9.103h2.126l2.393 6.062c.182.466.301.813.356 1.041h.031c.157-.478.284-.833.381-1.066l2.438-6.037h2.05V234Zm7.071 0h-1.428v-1.016h-.025c-.449.779-1.107 1.168-1.975 1.168-.639 0-1.14-.173-1.504-.52-.36-.347-.539-.806-.539-1.378 0-1.227.706-1.942 2.12-2.145l1.929-.273c0-.927-.44-1.39-1.32-1.39-.774 0-1.473.266-2.095.8v-1.289c.686-.406 1.477-.609 2.374-.609 1.642 0 2.463.808 2.463 2.424V234Zm-1.422-3.193-1.364.191c-.424.055-.743.158-.959.311-.211.148-.317.41-.317.787 0 .275.097.501.292.679.199.173.463.26.793.26.449 0 .819-.156 1.111-.47.296-.317.444-.715.444-1.193v-.565Zm6.995-1.904c-.177-.14-.433-.21-.768-.21-.435 0-.799.197-1.091.591-.292.393-.438.929-.438 1.606V234h-1.473v-6.5h1.473v1.339h.025c.144-.457.364-.812.66-1.066a1.504 1.504 0 0 1 1.003-.387c.267 0 .47.04.609.12v1.397Zm6.938 5.097h-1.866l-2.526-3.123h-.026V234h-1.479v-9.623h1.479v6.1h.026l2.387-2.977h1.771l-2.685 3.136 2.919 3.364Zm.527-.203v-1.365a2.94 2.94 0 0 0 1.822.629c.889 0 1.333-.263 1.333-.788a.605.605 0 0 0-.114-.374 1.046 1.046 0 0 0-.311-.279 2.263 2.263 0 0 0-.457-.216l-.584-.216a6.56 6.56 0 0 1-.724-.336 2.343 2.343 0 0 1-.533-.4 1.57 1.57 0 0 1-.317-.514 1.885 1.885 0 0 1-.108-.667c0-.313.074-.588.222-.825.148-.241.347-.442.596-.603.25-.165.534-.288.851-.368.317-.085.645-.127.984-.127.601 0 1.138.091 1.612.273v1.288a2.717 2.717 0 0 0-1.574-.47c-.186 0-.355.019-.508.058a1.327 1.327 0 0 0-.381.158.78.78 0 0 0-.247.248.57.57 0 0 0-.089.311c0 .14.03.258.089.355a.85.85 0 0 0 .26.261c.119.072.258.139.419.203.165.059.353.125.565.196.279.115.529.231.749.35.224.118.415.254.571.406.157.148.277.321.362.52.085.195.127.428.127.699 0 .33-.076.617-.228.863a1.918 1.918 0 0 1-.61.609 2.79 2.79 0 0 1-.882.356c-.33.08-.679.12-1.048.12-.71 0-1.326-.118-1.847-.355Zm6.761-7.662a.897.897 0 0 1-.623-.235.776.776 0 0 1-.253-.596c0-.242.084-.443.253-.603a.885.885 0 0 1 .623-.242c.249 0 .461.081.634.242.174.16.261.361.261.603a.786.786 0 0 1-.261.59.897.897 0 0 1-.634.241Zm.73 7.865h-1.473v-6.5h1.473v6.5Zm1.523-.203v-1.365c.55.419 1.157.629 1.822.629.888 0 1.333-.263 1.333-.788a.6.6 0 0 0-.115-.374 1.034 1.034 0 0 0-.311-.279 2.212 2.212 0 0 0-.457-.216l-.584-.216a6.627 6.627 0 0 1-.723-.336 2.3 2.3 0 0 1-.533-.4 1.59 1.59 0 0 1-.318-.514 1.885 1.885 0 0 1-.108-.667c0-.313.074-.588.222-.825.149-.241.347-.442.597-.603.25-.165.533-.288.851-.368.317-.085.645-.127.984-.127.601 0 1.138.091 1.612.273v1.288a2.72 2.72 0 0 0-1.574-.47 2.05 2.05 0 0 0-.508.058 1.327 1.327 0 0 0-.381.158.783.783 0 0 0-.248.248.569.569 0 0 0-.088.311c0 .14.029.258.088.355.06.098.146.184.261.261.118.072.258.139.419.203.165.059.353.125.565.196.279.115.529.231.749.35.224.118.414.254.571.406.157.148.277.321.362.52.084.195.127.428.127.699 0 .33-.076.617-.229.863a1.904 1.904 0 0 1-.609.609 2.79 2.79 0 0 1-.882.356c-.331.08-.68.12-1.048.12-.711 0-1.327-.118-1.847-.355Zm9.445.133c-.287.144-.666.216-1.136.216-1.261 0-1.892-.605-1.892-1.815v-3.676h-1.085V227.5h1.085v-1.504l1.473-.419v1.923h1.555v1.155h-1.555v3.25c0 .385.07.66.21.825.139.166.372.248.698.248.249 0 .465-.072.647-.216v1.168Zm.864-.133v-1.365c.55.419 1.157.629 1.821.629.889 0 1.333-.263 1.333-.788a.605.605 0 0 0-.114-.374 1.046 1.046 0 0 0-.311-.279 2.237 2.237 0 0 0-.457-.216l-.584-.216a6.56 6.56 0 0 1-.724-.336 2.343 2.343 0 0 1-.533-.4 1.604 1.604 0 0 1-.317-.514 1.885 1.885 0 0 1-.108-.667c0-.313.074-.588.222-.825.148-.241.347-.442.597-.603.249-.165.533-.288.85-.368.318-.085.646-.127.984-.127.601 0 1.139.091 1.613.273v1.288a2.72 2.72 0 0 0-1.575-.47c-.186 0-.355.019-.507.058a1.304 1.304 0 0 0-.381.158.773.773 0 0 0-.248.248.57.57 0 0 0-.089.311c0 .14.03.258.089.355a.85.85 0 0 0 .26.261c.119.072.258.139.419.203.165.059.354.125.565.196.28.115.529.231.749.35.225.118.415.254.572.406.156.148.277.321.361.52.085.195.127.428.127.699 0 .33-.076.617-.228.863a1.918 1.918 0 0 1-.61.609 2.78 2.78 0 0 1-.882.356c-.33.08-.679.12-1.047.12-.711 0-1.327-.118-1.847-.355Zm11.914.203h-1.866l-2.526-3.123h-.026V234h-1.479v-9.623h1.479v6.1h.026l2.386-2.977h1.771l-2.685 3.136 2.92 3.364Zm5.922 0h-1.428v-1.016h-.025c-.449.779-1.107 1.168-1.974 1.168-.639 0-1.141-.173-1.505-.52-.359-.347-.539-.806-.539-1.378 0-1.227.707-1.942 2.12-2.145l1.93-.273c0-.927-.44-1.39-1.321-1.39-.774 0-1.472.266-2.094.8v-1.289c.685-.406 1.476-.609 2.374-.609 1.642 0 2.462.808 2.462 2.424V234Zm-1.421-3.193-1.365.191c-.423.055-.743.158-.959.311-.211.148-.317.41-.317.787 0 .275.097.501.292.679.199.173.463.26.793.26.449 0 .819-.156 1.111-.47.296-.317.445-.715.445-1.193v-.565Zm8.855-3.307-2.933 7.541c-.609 1.346-1.464 2.019-2.564 2.019-.309 0-.568-.028-.775-.083v-1.225c.233.076.444.114.635.114.55 0 .96-.271 1.231-.812l.438-1.067-2.583-6.487h1.631l1.549 4.723c.017.059.055.215.114.469h.032c.021-.097.059-.249.114-.457l1.625-4.735h1.486Zm5.973 6.5h-1.428v-1.016h-.026c-.448.779-1.106 1.168-1.974 1.168-.639 0-1.14-.173-1.504-.52-.36-.347-.54-.806-.54-1.378 0-1.227.707-1.942 2.12-2.145l1.93-.273c0-.927-.44-1.39-1.32-1.39-.775 0-1.473.266-2.095.8v-1.289c.685-.406 1.477-.609 2.374-.609 1.642 0 2.463.808 2.463 2.424V234Zm-1.422-3.193-1.365.191c-.423.055-.743.158-.958.311-.212.148-.318.41-.318.787 0 .275.098.501.292.679.199.173.464.26.794.26.448 0 .819-.156 1.111-.47.296-.317.444-.715.444-1.193v-.565Zm8.303 2.254h-.026V234h-1.472v-9.623h1.472v4.266h.026c.503-.864 1.239-1.295 2.209-1.295.821 0 1.462.292 1.923.876.465.579.698 1.358.698 2.336 0 1.087-.26 1.959-.781 2.615-.52.651-1.231.977-2.132.977-.847 0-1.486-.364-1.917-1.091Zm-.038-2.584v.806c0 .474.15.876.45 1.206.305.33.69.495 1.155.495.546 0 .974-.211 1.283-.634.313-.428.469-1.022.469-1.784 0-.639-.146-1.138-.438-1.498-.287-.364-.679-.546-1.174-.546-.525 0-.948.186-1.269.559-.318.372-.476.837-.476 1.396Zm10.143-1.574c-.178-.14-.434-.21-.768-.21-.436 0-.8.197-1.092.591-.292.393-.438.929-.438 1.606V234h-1.472v-6.5h1.472v1.339h.026c.143-.457.364-.812.66-1.066.3-.258.635-.387 1.003-.387.266 0 .469.04.609.12v1.397Zm6.03 5.097h-1.428v-1.016h-.025c-.449.779-1.107 1.168-1.974 1.168-.639 0-1.141-.173-1.505-.52-.359-.347-.539-.806-.539-1.378 0-1.227.706-1.942 2.12-2.145l1.929-.273c0-.927-.44-1.39-1.32-1.39-.774 0-1.473.266-2.095.8v-1.289c.686-.406 1.477-.609 2.374-.609 1.642 0 2.463.808 2.463 2.424V234Zm-1.422-3.193-1.364.191c-.423.055-.743.158-.959.311-.211.148-.317.41-.317.787 0 .275.097.501.292.679.199.173.463.26.793.26.449 0 .819-.156 1.111-.47.296-.317.444-.715.444-1.193v-.565Zm9.014 3.193h-1.473v-3.663c0-1.214-.429-1.821-1.288-1.821-.449 0-.819.169-1.111.507-.292.335-.438.758-.438 1.27V234h-1.479v-6.5h1.479v1.079h.025c.487-.821 1.19-1.231 2.108-1.231.707 0 1.246.23 1.619.692.372.457.558 1.119.558 1.986V234Zm6.456-.298c-.521.3-1.137.45-1.847.45-.965 0-1.744-.3-2.336-.901-.593-.605-.889-1.388-.889-2.349 0-1.07.317-1.929.952-2.577.639-.651 1.492-.977 2.558-.977.593 0 1.115.103 1.568.311v1.371c-.453-.339-.935-.508-1.447-.508-.622 0-1.132.212-1.53.635-.398.419-.597.969-.597 1.65 0 .673.187 1.204.559 1.593.377.39.88.584 1.511.584.529 0 1.028-.188 1.498-.565v1.283Zm7.242.298h-1.472v-3.555c0-1.286-.43-1.929-1.289-1.929-.431 0-.795.186-1.092.558-.296.373-.444.849-.444 1.428V234h-1.479v-9.623h1.479v4.202h.025c.491-.821 1.194-1.231 2.108-1.231 1.443 0 2.164.882 2.164 2.647V234Zm8.252.152c-1.003 0-1.805-.302-2.405-.907-.597-.61-.895-1.416-.895-2.419 0-1.092.311-1.944.933-2.558.626-.614 1.468-.92 2.526-.92 1.016 0 1.807.298 2.374.895.567.596.851 1.424.851 2.482 0 1.036-.307 1.868-.921 2.494-.609.622-1.43.933-2.463.933Zm.07-5.63c-.575 0-1.03.201-1.365.603-.334.402-.501.956-.501 1.663 0 .681.169 1.219.508 1.612.338.39.791.584 1.358.584.58 0 1.024-.192 1.333-.577.313-.385.47-.933.47-1.644 0-.715-.157-1.268-.47-1.657-.309-.389-.753-.584-1.333-.584Zm8.277-2.945a1.328 1.328 0 0 0-.679-.172c-.715 0-1.072.404-1.072 1.213v.882h1.51v1.155h-1.504V234h-1.473v-5.345h-1.111V227.5h1.111v-1.054c0-.685.225-1.225.673-1.618.449-.398 1.009-.597 1.682-.597.364 0 .652.04.863.121v1.225Zm4.482 0a1.331 1.331 0 0 0-.679-.172c-.715 0-1.073.404-1.073 1.213v.882h1.511v1.155h-1.505V234h-1.472v-5.345h-1.111V227.5h1.111v-1.054c0-.685.224-1.225.673-1.618.448-.398 1.009-.597 1.682-.597.364 0 .651.04.863.121v1.225Zm1.549.558a.894.894 0 0 1-.622-.235.773.773 0 0 1-.254-.596c0-.242.084-.443.254-.603a.883.883 0 0 1 .622-.242c.249 0 .461.081.635.242.173.16.26.361.26.603a.789.789 0 0 1-.26.59.901.901 0 0 1-.635.241Zm.73 7.865h-1.473v-6.5h1.473v6.5Zm6.582-.298c-.52.3-1.136.45-1.847.45-.965 0-1.743-.3-2.336-.901-.592-.605-.889-1.388-.889-2.349 0-1.07.318-1.929.953-2.577.639-.651 1.491-.977 2.558-.977.592 0 1.115.103 1.568.311v1.371c-.453-.339-.936-.508-1.448-.508-.622 0-1.132.212-1.529.635-.398.419-.597.969-.597 1.65 0 .673.186 1.204.558 1.593.377.39.881.584 1.511.584.529 0 1.029-.188 1.498-.565v1.283Zm6.97-2.552h-4.431c.017.601.201 1.064.553 1.39.355.326.842.489 1.46.489.694 0 1.33-.208 1.91-.622v1.187c-.592.372-1.375.558-2.348.558-.957 0-1.708-.294-2.254-.882-.542-.592-.812-1.424-.812-2.495 0-1.011.298-1.834.895-2.469.601-.639 1.345-.958 2.234-.958s1.576.285 2.063.857c.487.571.73 1.364.73 2.38v.565Zm-1.422-1.041c-.004-.529-.129-.94-.374-1.232-.246-.296-.584-.444-1.016-.444-.423 0-.783.155-1.079.463-.292.309-.472.714-.54 1.213h3.009Z" fill="#222131"/>
    <rect x="114.5" y="257.5" width="177" height="19" rx="9.5" fill="#fff" stroke="#662483" stroke-width="3"/>
    <path d="M135.011 272h-1.968l-3.168-4.164a2.307 2.307 0 0 1-.215-.317h-.026V272h-1.51v-9.103h1.51v4.279h.026c.05-.093.122-.197.215-.311l3.054-3.968h1.809l-3.574 4.368 3.847 4.735Zm1.637-7.865a.896.896 0 0 1-.622-.235.776.776 0 0 1-.254-.596c0-.242.085-.443.254-.603a.884.884 0 0 1 .622-.242c.25 0 .462.081.635.242.174.16.26.361.26.603a.785.785 0 0 1-.26.59.898.898 0 0 1-.635.241Zm.73 7.865h-1.472v-6.5h1.472v6.5Zm5.358-.07c-.288.144-.667.216-1.136.216-1.261 0-1.892-.605-1.892-1.815v-3.676h-1.085V265.5h1.085v-1.504l1.473-.419v1.923h1.555v1.155h-1.555v3.25c0 .385.069.66.209.825.14.166.373.248.698.248.25 0 .466-.072.648-.216v1.168Zm6.259.07h-1.429v-1.016h-.025c-.449.779-1.107 1.168-1.974 1.168-.639 0-1.141-.173-1.505-.52-.359-.347-.539-.806-.539-1.378 0-1.227.707-1.942 2.12-2.145l1.93-.273c0-.927-.44-1.39-1.321-1.39-.774 0-1.472.266-2.094.8v-1.289c.685-.406 1.477-.609 2.374-.609 1.642 0 2.463.808 2.463 2.424V272Zm-1.422-3.193-1.365.191c-.423.055-.743.158-.958.311-.212.148-.318.41-.318.787 0 .275.097.501.292.679.199.173.464.26.794.26a1.45 1.45 0 0 0 1.11-.47c.297-.317.445-.715.445-1.193v-.565Zm8.855-3.307-2.933 7.541c-.609 1.346-1.464 2.019-2.564 2.019-.309 0-.567-.028-.775-.083v-1.225c.233.076.445.114.635.114.55 0 .961-.271 1.231-.812l.438-1.067-2.583-6.487h1.631l1.549 4.723c.017.059.055.215.114.469h.032c.021-.097.059-.249.114-.457l1.625-4.735h1.486Zm4.405 3.491h-3.466v-1.085h3.466v1.085Zm7.725 2.488c0 2.387-1.2 3.581-3.599 3.581-.846 0-1.585-.142-2.215-.426v-1.345c.711.406 1.386.609 2.025.609 1.544 0 2.316-.76 2.316-2.279v-.711h-.025c-.487.83-1.219 1.244-2.196 1.244-.792 0-1.431-.287-1.917-.863-.483-.58-.724-1.356-.724-2.33 0-1.104.26-1.982.781-2.634.52-.651 1.236-.977 2.145-.977.859 0 1.496.351 1.911 1.053h.025v-.901h1.473v5.979Zm-1.46-2.456v-.844c0-.457-.152-.847-.457-1.168a1.471 1.471 0 0 0-1.13-.489c-.558 0-.996.207-1.314.622-.313.411-.469.986-.469 1.727 0 .639.15 1.151.45 1.536.305.381.707.571 1.206.571.508 0 .921-.182 1.238-.546.317-.368.476-.838.476-1.409Zm6.259 3.129c-1.003 0-1.805-.302-2.406-.907-.597-.61-.895-1.416-.895-2.419 0-1.092.311-1.944.933-2.558.627-.614 1.469-.92 2.527-.92 1.015 0 1.807.298 2.374.895.567.596.85 1.424.85 2.482 0 1.036-.307 1.868-.92 2.494-.61.622-1.431.933-2.463.933Zm.07-5.63c-.576 0-1.031.201-1.365.603-.334.402-.501.956-.501 1.663 0 .681.169 1.219.507 1.612.339.39.792.584 1.359.584.58 0 1.024-.192 1.333-.577.313-.385.469-.933.469-1.644 0-.715-.156-1.268-.469-1.657-.309-.389-.753-.584-1.333-.584Zm8.588.381c-.178-.14-.434-.21-.768-.21-.436 0-.8.197-1.092.591-.292.393-.438.929-.438 1.606V272h-1.472v-6.5h1.472v1.339h.026c.144-.457.364-.812.66-1.066.3-.258.635-.387 1.003-.387.266 0 .469.04.609.12v1.397Zm3.809 5.249c-1.003 0-1.805-.302-2.406-.907-.597-.61-.895-1.416-.895-2.419 0-1.092.311-1.944.933-2.558.626-.614 1.468-.92 2.526-.92 1.016 0 1.807.298 2.374.895.568.596.851 1.424.851 2.482 0 1.036-.307 1.868-.92 2.494-.61.622-1.431.933-2.463.933Zm.07-5.63c-.576 0-1.031.201-1.365.603-.335.402-.502.956-.502 1.663 0 .681.17 1.219.508 1.612.339.39.791.584 1.359.584.579 0 1.024-.192 1.333-.577.313-.385.469-.933.469-1.644 0-.715-.156-1.268-.469-1.657-.309-.389-.754-.584-1.333-.584ZM196.621 272h-1.473v-1.104h-.025c-.474.837-1.204 1.256-2.19 1.256-.8 0-1.441-.29-1.923-.869-.478-.584-.718-1.378-.718-2.381 0-1.075.265-1.936.794-2.583.533-.648 1.242-.971 2.126-.971.876 0 1.513.351 1.911 1.053h.025v-4.024h1.473V272Zm-1.454-2.971v-.85c0-.462-.15-.853-.45-1.175-.301-.321-.684-.482-1.149-.482-.55 0-.984.205-1.301.616-.314.41-.47.979-.47 1.707 0 .66.15 1.183.451 1.568.304.381.713.571 1.225.571.503 0 .912-.184 1.225-.552.313-.372.469-.84.469-1.403Zm8.456 2.032h-.026V272h-1.472v-9.623h1.472v4.266h.026c.503-.864 1.239-1.295 2.209-1.295.821 0 1.462.292 1.923.876.465.579.698 1.358.698 2.336 0 1.087-.26 1.959-.781 2.615-.52.651-1.231.977-2.132.977-.847 0-1.486-.364-1.917-1.091Zm-.039-2.584v.806c0 .474.151.876.451 1.206.305.33.69.495 1.155.495.546 0 .974-.211 1.283-.634.313-.428.469-1.022.469-1.784 0-.639-.146-1.138-.438-1.498-.287-.364-.679-.546-1.174-.546-.525 0-.948.186-1.269.559-.318.372-.477.837-.477 1.396Zm10.144-1.574c-.178-.14-.434-.21-.768-.21-.436 0-.8.197-1.092.591-.292.393-.438.929-.438 1.606V272h-1.472v-6.5h1.472v1.339h.026c.143-.457.363-.812.66-1.066a1.5 1.5 0 0 1 1.003-.387c.266 0 .469.04.609.12v1.397Zm6.03 5.097h-1.428v-1.016h-.025c-.449.779-1.107 1.168-1.974 1.168-.639 0-1.141-.173-1.505-.52-.36-.347-.539-.806-.539-1.378 0-1.227.706-1.942 2.12-2.145l1.929-.273c0-.927-.44-1.39-1.32-1.39-.774 0-1.473.266-2.095.8v-1.289c.686-.406 1.477-.609 2.374-.609 1.642 0 2.463.808 2.463 2.424V272Zm-1.422-3.193-1.364.191c-.423.055-.743.158-.959.311-.211.148-.317.41-.317.787 0 .275.097.501.292.679.199.173.463.26.793.26.449 0 .819-.156 1.111-.47.296-.317.444-.715.444-1.193v-.565ZM227.35 272h-1.473v-3.663c0-1.214-.429-1.821-1.288-1.821-.449 0-.819.169-1.111.507-.292.335-.438.758-.438 1.27V272h-1.479v-6.5h1.479v1.079h.025c.487-.821 1.19-1.231 2.108-1.231.707 0 1.246.23 1.619.692.372.457.558 1.119.558 1.986V272Zm6.456-.298c-.521.3-1.137.45-1.848.45-.964 0-1.743-.3-2.335-.901-.593-.605-.889-1.388-.889-2.349 0-1.07.317-1.929.952-2.577.639-.651 1.492-.977 2.558-.977.593 0 1.115.103 1.568.311v1.371c-.453-.339-.935-.508-1.447-.508-.622 0-1.132.212-1.53.635-.398.419-.597.969-.597 1.65 0 .673.186 1.204.559 1.593.377.39.88.584 1.511.584.529 0 1.028-.188 1.498-.565v1.283Zm7.242.298h-1.472v-3.555c0-1.286-.43-1.929-1.289-1.929-.432 0-.795.186-1.092.558-.296.373-.444.849-.444 1.428V272h-1.479v-9.623h1.479v4.202h.025c.491-.821 1.194-1.231 2.108-1.231 1.443 0 2.164.882 2.164 2.647V272Zm8.252.152c-1.003 0-1.805-.302-2.405-.907-.597-.61-.895-1.416-.895-2.419 0-1.092.311-1.944.933-2.558.626-.614 1.468-.92 2.526-.92 1.016 0 1.807.298 2.374.895.567.596.851 1.424.851 2.482 0 1.036-.307 1.868-.921 2.494-.609.622-1.43.933-2.463.933Zm.07-5.63c-.575 0-1.03.201-1.365.603-.334.402-.501.956-.501 1.663 0 .681.169 1.219.508 1.612.338.39.791.584 1.358.584.58 0 1.024-.192 1.333-.577.313-.385.47-.933.47-1.644 0-.715-.157-1.268-.47-1.657-.309-.389-.753-.584-1.333-.584Zm8.277-2.945a1.328 1.328 0 0 0-.679-.172c-.715 0-1.072.404-1.072 1.213v.882h1.51v1.155h-1.504V272h-1.473v-5.345h-1.111V265.5h1.111v-1.054c0-.685.224-1.225.673-1.618.449-.398 1.009-.597 1.682-.597.364 0 .652.04.863.121v1.225Zm4.482 0a1.331 1.331 0 0 0-.679-.172c-.715 0-1.073.404-1.073 1.213v.882h1.511v1.155h-1.505V272h-1.472v-5.345H257.8V265.5h1.111v-1.054c0-.685.224-1.225.672-1.618.449-.398 1.01-.597 1.683-.597.364 0 .651.04.863.121v1.225Zm1.549.558a.894.894 0 0 1-.622-.235.773.773 0 0 1-.254-.596c0-.242.084-.443.254-.603a.883.883 0 0 1 .622-.242c.249 0 .461.081.634.242.174.16.261.361.261.603a.786.786 0 0 1-.261.59.897.897 0 0 1-.634.241Zm.73 7.865h-1.473v-6.5h1.473v6.5Zm6.582-.298c-.52.3-1.136.45-1.847.45-.965 0-1.743-.3-2.336-.901-.592-.605-.889-1.388-.889-2.349 0-1.07.318-1.929.953-2.577.639-.651 1.491-.977 2.558-.977.592 0 1.115.103 1.568.311v1.371c-.453-.339-.936-.508-1.448-.508-.622 0-1.132.212-1.529.635-.398.419-.597.969-.597 1.65 0 .673.186 1.204.558 1.593.377.39.881.584 1.511.584.529 0 1.029-.188 1.498-.565v1.283Zm6.97-2.552h-4.431c.017.601.201 1.064.553 1.39.355.326.842.489 1.46.489.694 0 1.33-.208 1.91-.622v1.187c-.592.372-1.375.558-2.348.558-.957 0-1.708-.294-2.254-.882-.542-.592-.812-1.424-.812-2.495 0-1.011.298-1.834.895-2.469.601-.639 1.345-.958 2.234-.958s1.576.285 2.063.857c.487.571.73 1.364.73 2.38v.565Zm-1.422-1.041c-.004-.529-.129-.94-.374-1.232-.246-.296-.584-.444-1.016-.444-.423 0-.783.155-1.079.463-.292.309-.472.714-.54 1.213h3.009Z" fill="#222131"/>
    <defs>
        <clipPath id="a">
            <path fill="#fff" d="M0 0h297v461H0z"/>
        </clipPath>
        <clipPath id="b">
            <path fill="#fff" transform="translate(-58.477 .1)" d="M0 0h355.328v462.079H0z"/>
        </clipPath>
    </defs>
</svg>
