<svg width="25" height="25" fill="none" xmlns="http://www.w3.org/2000/svg">
    <path d="M6.5 10.5c-.3 0-.5-.1-.7-.3l-3-3c-.4-.4-.4-1 0-1.4l3-3c.4-.4 1-.4 1.4 0 .4.4.4 1 0 1.4L4.9 6.5l2.3 2.3c.4.4.4 1 0 1.4-.2.2-.4.3-.7.3ZM18.5 22.5c-.3 0-.5-.1-.7-.3-.4-.4-.4-1 0-1.4l2.3-2.3-2.3-2.3c-.4-.4-.4-1 0-1.4.4-.4 1-.4 1.4 0l3 3c.4.4.4 1 0 1.4l-3 3c-.2.2-.4.3-.7.3Z" fill="#704437"/>
    <path d="M21.5 7.5H4c-.6 0-1-.4-1-1s.4-1 1-1h17.5c.6 0 1 .4 1 1s-.4 1-1 1ZM20.5 19.5h-17c-.6 0-1-.4-1-1s.4-1 1-1h17c.6 0 1 .4 1 1s-.4 1-1 1Z" fill="#704437"/>
</svg>
