<svg width="47" height="50" viewBox="0 0 47 50" fill="none" xmlns="http://www.w3.org/2000/svg">
<path d="M41.3653 0H9.31262C6.64783 0 4.47269 2.17514 4.47269 4.83992V6.91149H2.18456C0.979284 6.91149 0 7.89077 0 9.09604V10.6215C0 11.8267 0.979284 12.806 2.18456 12.806H4.47269V17.0056H2.18456C0.979284 17.0056 0 17.9849 0 19.1902V20.7156C0 21.9209 0.979284 22.9002 2.18456 22.9002H4.47269V27.0998H2.18456C0.979284 27.0998 0 28.0791 0 29.2844V30.8098C0 32.0151 0.979284 32.9944 2.18456 32.9944H4.47269V37.194H2.18456C0.979284 37.194 0 38.1733 0 39.3785V40.904C0 42.1092 0.979284 43.0885 2.18456 43.0885H4.47269V45.1601C4.47269 47.8249 6.64783 50 9.31262 50H41.3653C44.0301 50 46.2053 47.8249 46.2053 45.1601V4.83992C46.2053 2.17514 44.0301 0 41.3653 0ZM1.61017 10.6215V9.09604C1.61017 8.78531 1.86441 8.52166 2.18456 8.52166H7.3823C7.69303 8.52166 7.95669 8.77589 7.95669 9.09604V10.6215C7.95669 10.9322 7.70245 11.1959 7.3823 11.1959H2.18456C1.87382 11.1959 1.61017 10.9322 1.61017 10.6215ZM1.61017 20.7156V19.1902C1.61017 18.8795 1.86441 18.6158 2.18456 18.6158H7.3823C7.69303 18.6158 7.95669 18.8795 7.95669 19.1902V20.7156C7.95669 21.0264 7.70245 21.29 7.3823 21.29H2.18456C1.87382 21.29 1.61017 21.0264 1.61017 20.7156ZM1.61017 30.8098V29.2844C1.61017 28.9736 1.86441 28.71 2.18456 28.71H7.3823C7.69303 28.71 7.95669 28.9642 7.95669 29.2844V30.8098C7.95669 31.1205 7.70245 31.3842 7.3823 31.3842H2.18456C1.87382 31.3842 1.61017 31.1205 1.61017 30.8098ZM1.61017 40.904V39.3785C1.61017 39.0678 1.87382 38.8041 2.18456 38.8041H7.3823C7.69303 38.8041 7.95669 39.0584 7.95669 39.3785V40.904C7.95669 41.2147 7.70245 41.4783 7.3823 41.4783H2.18456C1.86441 41.4689 1.61017 41.2147 1.61017 40.904ZM6.08286 45.1601V43.0885H7.37288C8.57815 43.0885 9.55744 42.1092 9.55744 40.904V39.3785C9.55744 38.1733 8.57815 37.194 7.37288 37.194H6.08286V32.9944H7.37288C8.57815 32.9944 9.55744 32.0151 9.55744 30.8098V29.2844C9.55744 28.0791 8.57815 27.0998 7.37288 27.0998H6.08286V22.9002H7.37288C8.57815 22.9002 9.55744 21.9209 9.55744 20.7156V19.1902C9.55744 17.9849 8.57815 17.0056 7.37288 17.0056H6.08286V12.806H7.37288C8.57815 12.806 9.55744 11.8267 9.55744 10.6215V9.09604C9.55744 7.89077 8.57815 6.91149 7.37288 6.91149H6.08286V4.83992C6.08286 3.06026 7.53296 1.61017 9.31262 1.61017H12.081V48.3804H9.31262C7.53296 48.3804 6.08286 46.9397 6.08286 45.1601ZM44.5951 45.1601C44.5951 46.9397 43.145 48.3898 41.3653 48.3898H13.7006V1.61017H41.3653C43.145 1.61017 44.5951 3.06026 44.5951 4.83992V45.1601ZM42.7872 27.4859L41.7514 26.8832V20.8851C41.7514 20.5838 41.5913 20.3107 41.3277 20.1789L28.8041 13.4746C28.5687 13.3428 28.2768 13.3428 28.0414 13.4746L15.5179 20.1789C15.2542 20.3202 15.0942 20.5932 15.0942 20.8851C15.0942 21.1864 15.2542 21.4595 15.5179 21.5913L19.049 23.484V31.2806C19.049 31.5725 19.1996 31.8362 19.4539 31.9774L26.6008 36.1017C27.1751 36.4313 27.7966 36.6008 28.4181 36.6008C29.0395 36.6008 29.661 36.4313 30.2354 36.1017L37.3823 31.9774C37.6271 31.8362 37.7872 31.5631 37.7872 31.2806V23.484L40.1318 22.2316V26.8832L39.096 27.4859C38.8512 27.6271 38.6911 27.9002 38.6911 28.1827V32.58C38.6911 32.8814 38.8606 33.1638 39.1337 33.3051C39.2467 33.3616 39.3691 33.3898 39.4915 33.3898C39.661 33.3898 39.8305 33.3333 39.9812 33.2298L40.9322 32.5141L41.8832 33.2298C42.1281 33.4087 42.4576 33.4463 42.7307 33.3051C43.0038 33.1638 43.1733 32.8908 43.1733 32.58V28.1921C43.1921 27.9002 43.0414 27.6365 42.7872 27.4859ZM29.435 34.7175C28.7853 35.0942 28.0697 35.0942 27.42 34.7175L20.6686 30.8192V29.7081L26.8927 33.3051C27.3823 33.5876 27.9002 33.7288 28.4275 33.7288C28.9548 33.7288 29.4727 33.5876 29.9623 33.3051L36.1864 29.7081V30.8192L29.435 34.7175ZM36.177 27.8531L29.1431 31.9115C28.6723 32.1846 28.1544 32.1846 27.693 31.9115L20.6591 27.8531V24.3597L28.032 28.3051C28.1544 28.371 28.2768 28.3992 28.4087 28.3992C28.5405 28.3992 28.6723 28.371 28.7853 28.3051L36.1582 24.3597L36.177 27.8531ZM28.4275 26.6761L17.6083 20.8945L28.4181 15.1036L39.2279 20.8945L28.4275 26.6761ZM41.5819 30.9605L41.4313 30.8475C41.29 30.7439 41.1205 30.6874 40.951 30.6874C40.7815 30.6874 40.6121 30.7439 40.4708 30.8475L40.3202 30.9605V28.6535L40.951 28.2863L41.5819 28.6535V30.9605Z" fill="#708879"/>
</svg>
