<svg width="50" height="50" viewBox="0 0 50 50" fill="none" xmlns="http://www.w3.org/2000/svg">
<path d="M11.7066 0C11.1282 0.0608766 10.6818 0.54789 10.6818 1.13636V2.84091C10.6818 3.14529 10.7934 3.43953 11.0065 3.6526C11.2196 3.86567 11.5138 3.98742 11.8182 3.98742C12.1226 3.98742 12.4168 3.86567 12.6299 3.6526C12.8429 3.43953 12.9647 3.14529 12.9545 2.84091V2.27273H42.5V42.0455H41.9318C41.6274 42.0455 41.3332 42.1571 41.1201 42.3701C40.9071 42.5832 40.7853 42.8774 40.7853 43.1818C40.7853 43.4862 40.9071 43.7804 41.1201 43.9935C41.3332 44.2066 41.6274 44.3283 41.9318 44.3182H43.6364C44.2654 44.3182 44.7727 43.8109 44.7727 43.1818V1.13636C44.7727 0.507305 44.2654 0 43.6364 0H11.8182C11.7877 0 11.7472 0 11.7066 0ZM6.02476 5.68182C5.44643 5.74269 5 6.22971 5 6.81818V48.8636C5 49.4927 5.50731 50 6.13636 50H37.9545C38.5836 50 39.0909 49.4927 39.0909 48.8636V6.81818C39.0909 6.18912 38.5836 5.68182 37.9545 5.68182H6.13636C6.10593 5.68182 6.06534 5.68182 6.02476 5.68182ZM7.27273 7.95455H36.8182V47.7273H7.27273V7.95455ZM11.7066 16.4773C11.4022 16.4874 11.1181 16.6295 10.9152 16.8527C10.7123 17.0759 10.6006 17.3701 10.6209 17.6745C10.6311 17.9789 10.7731 18.263 10.9963 18.4659C11.2196 18.6688 11.5138 18.7703 11.8182 18.7601H32.2727C32.5771 18.7601 32.8713 18.6485 33.0844 18.4355C33.2975 18.2224 33.4192 17.9282 33.4192 17.6238C33.4192 17.3194 33.2975 17.0252 33.0844 16.8121C32.8713 16.599 32.5771 16.4773 32.2727 16.4874H11.8182C11.7877 16.4773 11.7472 16.4773 11.7066 16.4773ZM11.7066 23.2955C11.4022 23.3056 11.1181 23.4476 10.9152 23.6709C10.7123 23.8941 10.6006 24.1883 10.6209 24.4927C10.6311 24.7971 10.7731 25.0812 10.9963 25.2841C11.2196 25.487 11.5138 25.5885 11.8182 25.5783H32.2727C32.5771 25.5783 32.8713 25.4667 33.0844 25.2537C33.2975 25.0406 33.4192 24.7463 33.4192 24.442C33.4192 24.1376 33.2975 23.8433 33.0844 23.6303C32.8713 23.4172 32.5771 23.2955 32.2727 23.3056H11.8182C11.7877 23.2955 11.7472 23.2955 11.7066 23.2955ZM11.7066 30.1136C11.4022 30.1238 11.1181 30.2658 10.9152 30.489C10.7123 30.7123 10.6006 31.0065 10.6209 31.3109C10.6412 31.6153 10.7731 31.8993 10.9963 32.1023C11.2196 32.3052 11.5138 32.4168 11.8182 32.3965H32.2727C32.5771 32.3965 32.8713 32.2849 33.0844 32.0718C33.2975 31.8588 33.4192 31.5645 33.4192 31.2601C33.4192 30.9558 33.2975 30.6615 33.0844 30.4485C32.8713 30.2354 32.5771 30.1136 32.2727 30.1238H11.8182C11.7877 30.1136 11.7472 30.1136 11.7066 30.1136ZM11.7066 36.9318C11.4022 36.942 11.1181 37.0739 10.9152 37.2971C10.7123 37.5203 10.6006 37.8145 10.6209 38.1189C10.6311 38.4233 10.7731 38.7074 10.9963 38.9103C11.2196 39.1132 11.5138 39.2248 11.8182 39.2045H25.4545C25.7589 39.2045 26.0532 39.0929 26.2662 38.8799C26.4793 38.6668 26.6011 38.3726 26.6011 38.0682C26.6011 37.7638 26.4793 37.4696 26.2662 37.2565C26.0532 37.0434 25.7589 36.9217 25.4545 36.9318H11.8182C11.7877 36.9318 11.7472 36.9318 11.7066 36.9318Z" fill="#708879"/>
</svg>
