<svg width="50" height="50" viewBox="0 0 50 50" fill="none" xmlns="http://www.w3.org/2000/svg">
<g clip-path="url(#clip0_521_1254)">
<path d="M50 10.6082C50 8.84405 49.308 7.18713 48.0604 5.93957C46.8226 4.69201 45.1559 4 43.3918 4H6.60819C4.84405 4 3.18713 4.69201 1.93957 5.93957C0.692008 7.18713 0 8.84405 0 10.6082V43.5712C0 45.3353 0.692008 46.9922 1.93957 48.2398C3.18713 49.4873 4.84405 50.1793 6.60819 50.1793H43.3918C45.1559 50.1793 46.8129 49.4873 48.0604 48.2398C49.3177 47.0019 50 45.345 50 43.5712V10.6082ZM47.6998 43.5712C47.6998 44.7212 47.2515 45.8031 46.4425 46.6218C45.6335 47.4308 44.5517 47.8791 43.3918 47.8791H6.60819C5.45809 47.8791 4.37622 47.4308 3.5575 46.6218C2.73879 45.8129 2.30019 44.731 2.30019 43.5712V19.614H47.6998V43.5712ZM47.6998 17.3041H2.30019V10.6082C2.30019 9.45809 2.74854 8.37622 3.5575 7.5575C4.36647 6.74854 5.44834 6.30019 6.60819 6.30019H43.3918C44.5419 6.30019 45.6238 6.74854 46.4425 7.5575C47.2515 8.37622 47.6998 9.45809 47.6998 10.6082V17.3041Z" fill="#708879"/>
<path d="M12.3487 10.8612C12.144 10.5103 11.7639 10.2861 11.3546 10.2861H7.53389C7.12454 10.2861 6.74442 10.5103 6.53974 10.8612C6.33506 11.2121 6.33506 11.6604 6.53974 12.0113C6.74442 12.3622 7.12454 12.5863 7.53389 12.5863H11.3546C11.7639 12.5863 12.144 12.3622 12.3487 12.0113C12.5534 11.6604 12.5534 11.2218 12.3487 10.8612Z" fill="#708879"/>
<path d="M23.1773 10.8612C22.9726 10.5103 22.5925 10.2861 22.1832 10.2861H18.3625C17.9531 10.2861 17.573 10.5103 17.3684 10.8612C17.1637 11.2121 17.1637 11.6604 17.3684 12.0113C17.573 12.3622 17.9531 12.5863 18.3625 12.5863H22.1832C22.5925 12.5863 22.9726 12.3622 23.1773 12.0113C23.382 11.6604 23.382 11.2218 23.1773 10.8612Z" fill="#708879"/>
<path d="M10.5653 32.5673C10.3606 32.7817 10.2534 33.0644 10.2534 33.3568C10.2534 33.6492 10.3704 33.9318 10.5653 34.1463L16.4133 40.3159C16.6959 40.618 17.1248 40.7447 17.5244 40.6472C17.924 40.5498 18.2456 40.2476 18.3723 39.8578C18.4893 39.4582 18.3918 39.0293 18.1092 38.7272L13.0117 33.3568L18.1092 27.9962C18.3236 27.772 18.4406 27.4699 18.4308 27.158C18.4211 26.8656 18.3041 26.5927 18.0994 26.388L18.0507 26.349C17.8363 26.1443 17.5536 26.0371 17.2612 26.0371H17.232C16.9298 26.0469 16.6374 26.1736 16.4328 26.3977L10.5653 32.5673Z" fill="#708879"/>
<path d="M32.4853 40.6181C32.8751 40.7155 33.2942 40.5986 33.5769 40.3159L39.4346 34.1561C39.6393 33.9416 39.7465 33.659 39.7465 33.3666C39.7465 33.0742 39.6295 32.7916 39.4346 32.5771L33.5866 26.427C33.3722 26.1931 33.0603 26.0664 32.7387 26.0664C32.651 26.0664 32.5633 26.0762 32.4755 26.0956C32.0759 26.1931 31.7543 26.4953 31.6373 26.8949C31.5204 27.2945 31.6178 27.7233 31.9005 28.0255L36.9979 33.3763L31.9005 38.7467C31.6373 39.0391 31.5399 39.4582 31.6568 39.8481C31.7835 40.2185 32.0954 40.5206 32.4853 40.6181Z" fill="#708879"/>
<path d="M26.579 24.351L21.2281 41.7291C21.1112 42.119 21.2087 42.5576 21.4913 42.85C21.774 43.1521 22.1931 43.2788 22.6024 43.1911C23.002 43.0937 23.3237 42.7915 23.4504 42.4016L28.8012 25.0235C28.889 24.7311 28.8597 24.4192 28.7135 24.1463C28.5673 23.8831 28.3139 23.6784 28.0313 23.5907C27.9241 23.5517 27.8071 23.542 27.6901 23.542C27.5049 23.542 27.3198 23.5907 27.1541 23.6784C26.8617 23.8149 26.6667 24.0586 26.579 24.351Z" fill="#708879"/>
</g>
<defs>
<clipPath id="clip0_521_1254">
<rect width="50" height="50" fill="white"/>
</clipPath>
</defs>
</svg>
