<svg width="36" height="50" viewBox="0 0 36 50" fill="none" xmlns="http://www.w3.org/2000/svg">
<g clip-path="url(#clip0_103_154)">
<path d="M33.9711 24.8618C32.855 23.7457 31.3457 23.1186 29.7619 23.1186H28.5714V10.7143C28.5714 6.88776 26.5306 3.34821 23.2143 1.43495C19.898 -0.478316 15.8163 -0.478316 12.5 1.43495C9.18367 3.34821 7.14286 6.88776 7.14286 10.7143V23.1186H5.95238C4.36862 23.1186 2.85927 23.7457 1.7432 24.8618C0.627126 25.9779 0 27.4979 0 29.071V44.0476C0 45.6314 0.627126 47.1407 1.7432 48.2568C2.85927 49.3729 4.36862 50 5.95238 50H29.7619C31.3457 50 32.855 49.3729 33.9711 48.2568C35.0872 47.1407 35.7143 45.6314 35.7143 44.0476V29.071C35.7143 27.4979 35.0872 25.9779 33.9711 24.8618ZM9.52381 10.7143C9.52381 7.7381 11.1076 4.98512 13.6905 3.49702C16.2734 2.00893 19.4409 2.00893 22.0238 3.49702C24.6067 4.98512 26.1905 7.7381 26.1905 10.7143V23.1186H9.52381V10.7143ZM33.3333 44.0476C33.3333 44.9936 32.9613 45.9077 32.2917 46.5774C31.622 47.247 30.7185 47.619 29.7619 47.619H5.95238C5.00638 47.619 4.09226 47.247 3.42262 46.5774C2.75298 45.9077 2.38095 45.0042 2.38095 44.0476V29.071C2.38095 28.125 2.75298 27.2109 3.42262 26.5412C4.09226 25.8716 4.99575 25.4996 5.95238 25.4996H8.33333H27.381H29.7619C30.7079 25.4996 31.622 25.8716 32.2917 26.5412C32.9613 27.2109 33.3333 28.1144 33.3333 29.071V44.0476Z" fill="white"/>
<path d="M22.0982 39.0731L18.3886 40.9332C18.0591 41.1033 17.6658 41.1033 17.3363 40.9332L14.9554 39.7427C14.5515 39.5408 14.2964 39.1263 14.2857 38.6692V33.0038C14.2857 32.3448 14.8172 31.8133 15.4762 31.8133H20.2381C20.557 31.8133 20.8546 31.6858 21.0778 31.4626C21.301 31.2393 21.4286 30.9417 21.4286 30.6229C21.4286 30.304 21.301 30.0064 21.0778 29.7831C20.8546 29.5599 20.557 29.4324 20.2381 29.4324H15.4762C14.5302 29.4324 13.6161 29.8044 12.9465 30.474C12.2768 31.1437 11.9048 32.0472 11.9048 33.0038V38.6692C11.9048 39.3282 12.0961 39.9766 12.4362 40.5399C12.787 41.1033 13.2866 41.5603 13.8818 41.858L16.2628 43.0484C16.7517 43.3035 17.3044 43.4311 17.8572 43.4311C18.4099 43.4311 18.9626 43.3035 19.4516 43.0484L23.1399 41.1883C23.4269 41.0501 23.6395 40.8057 23.7458 40.5081C23.8521 40.2104 23.8308 39.8809 23.6926 39.5939C23.3844 39.02 22.6828 38.7967 22.0982 39.0731Z" fill="white"/>
<path d="M25.3613 30.1233L20.238 35.2147L18.6861 33.6947C18.2291 33.2377 17.4744 33.2377 17.0174 33.6947C16.5603 34.1518 16.5603 34.8958 17.0174 35.3635L19.3983 37.7445C19.6109 37.9783 19.9191 38.1059 20.2274 38.1059C20.5463 38.1059 20.8439 37.9783 21.0565 37.7445L27.0089 31.7921C27.4659 31.335 27.4659 30.5803 27.0089 30.1233C26.5624 29.6556 25.8184 29.6556 25.3613 30.1233Z" fill="white"/>
</g>
<defs>
<clipPath id="clip0_103_154">
<rect width="35.7143" height="50" fill="white"/>
</clipPath>
</defs>
</svg>
