<svg width="50" height="50" viewBox="0 0 50 50" fill="none" xmlns="http://www.w3.org/2000/svg">
<g clip-path="url(#clip0_521_1288)">
<path d="M50 24.0117C50 20.5189 47.1586 17.6887 43.677 17.6887H32.3113V6.323C32.3113 2.83019 29.4699 0 25.9883 0H6.33423C2.84142 0 0 2.84142 0 6.323V19.4295C0 22.9223 2.84142 25.7525 6.323 25.7525H7.53594V31.2219C7.53594 31.6487 7.78302 32.0305 8.1761 32.2102C8.55795 32.3899 9.01842 32.3226 9.34411 32.0418L16.5768 25.7525H17.7111V37.1181C17.7111 40.611 20.5526 43.4412 24.0341 43.4412H33.4569L40.6896 49.7305C41.004 50.0112 41.4645 50.0786 41.8576 49.8989C42.2394 49.7192 42.4977 49.3374 42.4977 48.9106V43.4412H43.7107C47.2035 43.4412 50.0337 40.5997 50.0337 37.1181V24.0117H50ZM16.15 23.5849C15.8917 23.5849 15.6334 23.6748 15.4425 23.8544L9.7035 28.841V24.6743C9.7035 24.0791 9.22057 23.5849 8.61411 23.5849H6.323C4.0319 23.5849 2.16756 21.7206 2.16756 19.4295V6.323C2.16756 4.0319 4.0319 2.16757 6.323 2.16757H25.9771C28.2682 2.16757 30.1325 4.0319 30.1325 6.323V19.4295C30.1325 21.7206 28.2682 23.5849 25.9771 23.5849H16.15ZM47.8212 37.1181C47.8212 39.4093 45.9569 41.2736 43.6658 41.2736H41.3747C40.7794 41.2736 40.2853 41.7565 40.2853 42.363V46.5296L34.5463 41.5431C34.3441 41.3747 34.097 41.2736 33.8387 41.2736H24.0117C21.7206 41.2736 19.8562 39.4093 19.8562 37.1181V25.7525H25.9771C29.2453 25.7525 31.9519 23.3041 32.2776 20.0584L32.3001 19.8562H43.677C45.9681 19.8562 47.8324 21.7206 47.8324 24.0117V37.1181H47.8212Z" fill="#708879"/>
<path d="M43.4411 30.5709C43.4411 29.6162 42.6549 28.8301 41.7003 28.8301C40.7456 28.8301 39.9595 29.6162 39.9595 30.5709C39.9595 31.5255 40.7456 32.3117 41.7003 32.3117C42.6549 32.3117 43.4411 31.5255 43.4411 30.5709Z" fill="#708879"/>
<path d="M33.8389 28.8301C32.8843 28.8301 32.0981 29.6162 32.0981 30.5709C32.0981 31.5255 32.8843 32.3117 33.8389 32.3117C34.7936 32.3117 35.5797 31.5255 35.5797 30.5709C35.5797 29.6162 34.8048 28.8301 33.8389 28.8301Z" fill="#708879"/>
<path d="M25.9771 28.8301C25.0225 28.8301 24.2363 29.6162 24.2363 30.5709C24.2363 31.5255 25.0225 32.3117 25.9771 32.3117C26.9317 32.3117 27.7179 31.5255 27.7179 30.5709C27.7179 29.6162 26.943 28.8301 25.9771 28.8301Z" fill="#708879"/>
<path d="M25.7526 12.9381C25.7526 11.9834 24.9664 11.1973 24.0118 11.1973C23.0572 11.1973 22.271 11.9834 22.271 12.9381C22.271 13.8927 23.0572 14.6788 24.0118 14.6788C24.9776 14.6788 25.7526 13.8927 25.7526 12.9381Z" fill="#708879"/>
<path d="M16.1612 11.1973C15.2066 11.1973 14.4204 11.9834 14.4204 12.9381C14.4204 13.8927 15.2066 14.6788 16.1612 14.6788C17.1158 14.6788 17.902 13.8927 17.902 12.9381C17.902 11.9834 17.1158 11.1973 16.1612 11.1973Z" fill="#708879"/>
<path d="M8.29987 11.1973C7.34525 11.1973 6.55908 11.9834 6.55908 12.9381C6.55908 13.8927 7.34525 14.6788 8.29987 14.6788C9.2545 14.6788 10.0407 13.8927 10.0407 12.9381C10.0407 11.9834 9.2545 11.1973 8.29987 11.1973Z" fill="#708879"/>
</g>
<defs>
<clipPath id="clip0_521_1288">
<rect width="50" height="50" fill="white"/>
</clipPath>
</defs>
</svg>
