<svg width="50" height="50" viewBox="0 0 50 50" fill="none" xmlns="http://www.w3.org/2000/svg">
<g clip-path="url(#clip0_521_1265)">
<path d="M0 48.3076H49.7461V50.338H0V48.3076Z" fill="#708879"/>
<path d="M48.0709 46.9361V44.6012C48.0709 43.6874 47.5123 42.8754 46.6497 42.5708C46.6497 42.4691 46.7003 42.3679 46.7003 42.2662V40.4893C46.7003 39.271 45.736 38.3066 44.5176 38.3066H30.3045C29.0862 38.3066 28.1219 39.271 28.1219 40.4893V42.2662C28.1219 42.3679 28.1219 42.4691 28.1724 42.5708C27.3604 42.8754 26.7512 43.6874 26.7512 44.6012V46.9361H28.7816V44.6012C28.7816 44.4995 28.8322 44.4489 28.9339 44.4489H45.9402C46.0419 44.4489 46.0925 44.4995 46.0925 44.6012V46.9361H48.0709ZM30.1524 40.4898C30.1524 40.3881 30.2029 40.3376 30.3046 40.3376H44.5689C44.6706 40.3376 44.7212 40.3881 44.7212 40.4898V42.2668C44.7212 42.3685 44.6706 42.419 44.5689 42.419L30.3046 42.4184C30.2029 42.4184 30.1524 42.3679 30.1524 42.2661V40.4898Z" fill="#708879"/>
<path d="M12.7408 41.7079L12.0299 40.997L30.2027 22.8241L31.6751 24.2965L31.4723 24.4994C30.6602 25.3114 30.6602 26.5809 31.4723 27.3929L33.7566 29.6772C34.1629 30.0835 34.6704 30.2864 35.1778 30.2864C35.7364 30.2864 36.2439 30.0835 36.599 29.6772L46.1929 20.0834C47.0049 19.2713 47.0049 18.0018 46.1929 17.1899L43.9085 14.9055C43.5022 14.4992 42.9948 14.2963 42.4873 14.2963C41.9799 14.2963 41.4213 14.4992 41.0661 14.9055L40.8633 15.1084L33.5531 7.90071L33.756 7.69786C34.1623 7.29155 34.3652 6.7841 34.3652 6.27666C34.3652 5.71805 34.1623 5.2106 33.756 4.85545L31.4716 2.5711C30.7102 1.80963 29.3395 1.80963 28.5781 2.5711L18.9849 12.0633C18.1729 12.8753 18.1729 14.1448 18.9849 14.9568L21.2692 17.2411C21.6756 17.6474 22.183 17.8503 22.6904 17.8503C23.1979 17.8503 23.7565 17.6474 24.1116 17.2411L24.3145 17.0383L25.7869 18.5106L7.71575 36.6834L7.00485 35.9725L2.53784 40.4396L8.32501 46.2267L12.7408 41.7079ZM23.2996 26.8855L21.8273 25.4131L23.2996 23.9407L24.772 25.4131L23.2996 26.8855ZM42.488 16.3778L44.7723 18.6621L35.1785 28.256L32.8941 25.9211L42.488 16.3778ZM22.7418 15.8192L20.4575 13.4843L30.0513 3.89043L32.3357 6.17478L22.7418 15.8192ZM25.8383 15.6163L32.1329 9.32172L39.4424 16.6312L33.0972 22.9265L27.3101 17.1393L25.8383 15.6163ZM28.7823 21.4035L26.1933 23.9919L24.7209 22.5195L27.3099 19.9305L28.5789 21.1994L28.7823 21.4035ZM20.4068 26.8349L21.8791 28.3072L10.6094 39.5763L9.13707 38.1039L20.4068 26.8349ZM7.00559 38.8148L9.89909 41.7083L8.32559 43.2818L5.43209 40.3883L7.00559 38.8148Z" fill="#708879"/>
<path d="M29.7949 15.0661L31.2306 13.6299L35.0716 17.4703L33.636 18.9066L29.7949 15.0661Z" fill="#708879"/>
<path d="M45.533 30.2871H50V32.3175H45.533V30.2871Z" fill="#708879"/>
<path d="M44.311 27.1073L48.0811 24.7109L49.1706 26.4247L45.4006 28.821L44.311 27.1073Z" fill="#708879"/>
<path d="M44.2939 35.4885L45.3835 33.7754L49.1529 36.173L48.0633 37.8861L44.2939 35.4885Z" fill="#708879"/>
<path d="M25.5325 30.2871H29.9995V32.3175H25.5325V30.2871Z" fill="#708879"/>
<path d="M26.3647 36.1632L30.1341 33.7656L31.2237 35.4787L27.4543 37.8764L26.3647 36.1632Z" fill="#708879"/>
</g>
<defs>
<clipPath id="clip0_521_1265">
<rect width="50" height="50" fill="white"/>
</clipPath>
</defs>
</svg>
