<svg width="22" height="22" viewBox="0 0 22 22" fill="none" xmlns="http://www.w3.org/2000/svg">
<g clip-path="url(#clip0_303_2701)">
<path d="M19.001 22C18.707 22 18.417 21.871 18.219 21.625L14.219 16.625C13.874 16.193 13.945 15.564 14.375 15.219C14.807 14.874 15.436 14.946 15.781 15.375L19.781 20.375C20.126 20.807 20.055 21.436 19.625 21.781C19.44 21.928 19.22 22 19.001 22Z" fill="#78778E"/>
<path d="M11 2C14.859 2 18 5.14 18 9C18 12.859 14.859 16 11 16C7.141 16 4 12.859 4 9C4 5.14 7.141 2 11 2ZM11 0C6.029 0 2 4.029 2 9C2 13.971 6.029 18 11 18C15.971 18 20 13.971 20 9C20 4.029 15.971 0 11 0Z" fill="#78778E"/>
</g>
<defs>
<clipPath id="clip0_303_2701">
<rect width="22" height="22" fill="white"/>
</clipPath>
</defs>
</svg>
