<svg width="20" height="30" viewBox="0 0 20 30" fill="none" xmlns="http://www.w3.org/2000/svg">
<path d="M9.91667 14.2916C8.97736 14.2916 8.07652 13.9185 7.41233 13.2543C6.74814 12.5901 6.375 11.6893 6.375 10.75C6.375 9.81067 6.74814 8.90983 7.41233 8.24564C8.07652 7.58145 8.97736 7.20831 9.91667 7.20831C10.856 7.20831 11.7568 7.58145 12.421 8.24564C13.0852 8.90983 13.4583 9.81067 13.4583 10.75C13.4583 11.2151 13.3667 11.6756 13.1887 12.1053C13.0108 12.535 12.7499 12.9254 12.421 13.2543C12.0921 13.5832 11.7017 13.8441 11.272 14.0221C10.8423 14.2 10.3818 14.2916 9.91667 14.2916ZM9.91667 0.833313C7.2866 0.833313 4.76426 1.8781 2.90452 3.73784C1.04479 5.59757 0 8.11992 0 10.75C0 18.1875 9.91667 29.1666 9.91667 29.1666C9.91667 29.1666 19.8333 18.1875 19.8333 10.75C19.8333 8.11992 18.7885 5.59757 16.9288 3.73784C15.0691 1.8781 12.5467 0.833313 9.91667 0.833313Z" fill="#662483"/>
</svg>
