<svg width="20" height="30" viewBox="0 0 20 30" fill="none" xmlns="http://www.w3.org/2000/svg">
<path d="M9.9987 14.2916C9.05939 14.2916 8.15855 13.9185 7.49436 13.2543C6.83017 12.5901 6.45703 11.6893 6.45703 10.75C6.45703 9.81067 6.83017 8.90983 7.49436 8.24564C8.15855 7.58145 9.05939 7.20831 9.9987 7.20831C10.938 7.20831 11.8388 7.58145 12.503 8.24564C13.1672 8.90983 13.5404 9.81067 13.5404 10.75C13.5404 11.2151 13.4488 11.6756 13.2708 12.1053C13.0928 12.535 12.8319 12.9254 12.503 13.2543C12.1742 13.5832 11.7837 13.8441 11.354 14.0221C10.9243 14.2 10.4638 14.2916 9.9987 14.2916ZM9.9987 0.833313C7.36863 0.833313 4.84629 1.8781 2.98656 3.73784C1.12682 5.59757 0.0820313 8.11992 0.0820312 10.75C0.0820313 18.1875 9.9987 29.1666 9.9987 29.1666C9.9987 29.1666 19.9154 18.1875 19.9154 10.75C19.9154 8.11992 18.8706 5.59757 17.0108 3.73784C15.1511 1.8781 12.6288 0.833313 9.9987 0.833313Z" fill="#FFDF05"/>
</svg>
