<svg width="17" height="16" viewBox="0 0 17 16" fill="none" xmlns="http://www.w3.org/2000/svg">
<path d="M8.17883 8.43511C6.61622 8.43511 5.34494 7.16382 5.34494 5.60122C5.34494 4.03862 6.61622 2.76733 8.17883 2.76733C9.74143 2.76733 11.0127 4.03862 11.0127 5.60122C11.0127 7.16382 9.74143 8.43511 8.17883 8.43511ZM8.17883 3.70665C7.13418 3.70665 6.28429 4.55654 6.28429 5.60119C6.28429 6.64584 7.13418 7.49573 8.17883 7.49573C9.22347 7.49573 10.0734 6.64584 10.0734 5.60119C10.0734 4.55654 9.22347 3.70665 8.17883 3.70665Z" fill="#FDDE0C"/>
<path d="M8.17884 16C8.17827 16 8.17774 16 8.17721 16C8.01142 15.9994 7.85821 15.9115 7.7741 15.7686L3.56163 8.61429C3.01008 7.67754 2.71854 6.60778 2.71854 5.52073V5.49985C2.71851 2.46723 5.18573 0 8.21835 0C11.251 0 13.7182 2.46723 13.7182 5.49985C13.7182 6.6017 13.4192 7.68396 12.8536 8.6296L8.58191 15.7714C8.49709 15.9132 8.34401 16 8.17884 16ZM8.21835 0.939348C5.70369 0.939348 3.65785 2.98518 3.65785 5.49985V5.52073C3.65785 6.44032 3.90446 7.34526 4.37107 8.13769L8.182 14.61L12.0475 8.14743C12.526 7.34751 12.7789 6.43199 12.7789 5.49988C12.7789 2.98518 10.733 0.939348 8.21835 0.939348Z" fill="#FDDE0C"/>
</svg>
