<svg width="50" height="50" viewBox="0 0 50 50" fill="none" xmlns="http://www.w3.org/2000/svg">
<g clip-path="url(#clip0_103_140)">
<path d="M49.0321 12.4445C44.8587 11.7161 40.8275 10.3748 37.0449 8.46508L36.9294 8.4029C32.8182 6.3155 29.0889 3.59743 25.8301 0.328641C25.3684 -0.115488 24.6403 -0.115488 24.1786 0.328641C20.9287 3.59743 17.1905 6.3155 13.0882 8.4029C9.27003 10.3393 5.19438 11.6983 0.985535 12.4356C0.390614 12.5422 -0.0355984 13.0929 0.0176781 13.688C0.426131 18.3691 1.54494 22.9437 3.35634 27.2784C5.16774 31.6131 7.61846 35.6369 10.6552 39.2165C14.5266 43.6845 19.1795 47.2642 24.4982 49.8667C24.6581 49.9467 24.8357 49.9822 25.0132 49.9822C25.1908 49.9822 25.3684 49.9467 25.5282 49.8667C30.8381 47.2642 35.491 43.6845 39.3624 39.2165C42.3991 35.628 44.8587 31.6131 46.6613 27.2784C48.4727 22.9437 49.5915 18.3691 49.9999 13.688C50.0443 13.0929 49.627 12.5422 49.0321 12.4445ZM37.5954 37.6887L37.4977 37.8131L37.4 37.9197C33.8927 41.8991 29.7282 45.1235 24.9955 47.5217C20.1828 45.0879 15.9474 41.7836 12.4133 37.7065C6.83707 31.1245 3.39186 23.1124 2.44176 14.5408C6.50853 13.7236 10.4332 12.3645 14.1271 10.4903C18.1051 8.46508 21.7634 5.88025 24.9955 2.78911C28.2276 5.87137 31.877 8.46508 35.8639 10.4814C39.5577 12.3556 43.4913 13.7236 47.5492 14.5319C46.608 23.1124 43.1628 31.1068 37.5954 37.6887Z" fill="white"/>
<path d="M34.3189 23.823C33.6707 23.823 33.1468 24.3471 33.1468 24.9955C33.1468 27.1718 32.2944 29.2236 30.7582 30.7603C29.2221 32.297 27.1709 33.1497 24.9955 33.1497C22.82 33.1497 20.7689 32.297 19.2327 30.7603C17.6966 29.2236 16.8442 27.1718 16.8442 24.9955C16.8442 22.8193 17.6966 20.7674 19.2327 19.2307C20.7689 17.6941 22.82 16.8413 24.9955 16.8413C25.6437 16.8413 26.1676 16.3173 26.1676 15.6688C26.1676 15.0204 25.6437 14.4963 24.9955 14.4963C22.1896 14.4963 19.5613 15.5889 17.5723 17.5697C15.5922 19.5505 14.5 22.1886 14.5 24.9955C14.5 27.8024 15.5922 30.4317 17.5723 32.4214C19.5524 34.4111 22.1896 35.4947 24.9955 35.4947C27.8014 35.4947 30.4297 34.4022 32.4187 32.4214C34.4077 30.4406 35.4909 27.8024 35.4909 24.9955C35.4909 24.6846 35.3666 24.3826 35.1446 24.1695C34.9315 23.9474 34.6296 23.823 34.3189 23.823Z" fill="white"/>
<path d="M35.0559 15.7932C34.5498 15.3935 33.8128 15.4734 33.4132 15.9797L25.9368 25.3153L22.7135 22.0909C22.2607 21.6468 21.5237 21.6557 21.0708 22.1087C20.6269 22.5528 20.618 23.2901 21.062 23.752L25.2087 27.9001C25.4306 28.1222 25.7237 28.2466 26.0344 28.2466H26.0966C26.4251 28.2288 26.7359 28.0689 26.9401 27.8113L35.2246 17.4453C35.42 17.2055 35.5088 16.8946 35.4733 16.5837C35.4466 16.264 35.2957 15.9886 35.0559 15.7932Z" fill="white"/>
</g>
<defs>
<clipPath id="clip0_103_140">
<rect width="50" height="50" fill="white"/>
</clipPath>
</defs>
</svg>
