<svg width="40" height="50" viewBox="0 0 40 50" fill="none" xmlns="http://www.w3.org/2000/svg">
<g clip-path="url(#clip0_103_166)">
<path d="M38.7312 11.6353L27.4812 0.385338C27.2368 0.140977 26.8985 0 26.5508 0H3.94737C1.76692 0 0 1.76692 0 3.94737V46.0526C0 48.2331 1.76692 50 3.94737 50H35.1692C37.3496 50 39.1165 48.2331 39.1165 46.0526V12.5658C39.1165 12.218 38.9756 11.8891 38.7312 11.6353ZM27.8665 4.49248L34.6241 11.25H29.1823C28.4586 11.25 27.8665 10.6579 27.8665 9.93421V4.49248ZM35.1692 47.3684H3.94737C3.22368 47.3684 2.63158 46.7763 2.63158 46.0526V3.94737C2.63158 3.22368 3.22368 2.63158 3.94737 2.63158H25.235V9.93421C25.235 12.1147 27.0019 13.8816 29.1823 13.8816H36.485V46.0526C36.485 46.7763 35.8929 47.3684 35.1692 47.3684Z" fill="white"/>
<path d="M7.76306 16.579H21.0055C21.7292 16.579 22.3213 15.9869 22.3213 15.2632C22.3213 14.5395 21.7292 13.9474 21.0055 13.9474H7.76306C7.03937 13.9474 6.44727 14.5395 6.44727 15.2632C6.44727 15.9869 7.03937 16.579 7.76306 16.579Z" fill="white"/>
<path d="M7.76306 26.4944H31.3439C32.0676 26.4944 32.6597 25.9023 32.6597 25.1786C32.6597 24.4549 32.0676 23.8628 31.3439 23.8628H7.76306C7.03937 23.8628 6.44727 24.4549 6.44727 25.1786C6.44727 25.9023 7.03937 26.4944 7.76306 26.4944Z" fill="white"/>
<path d="M31.3442 33.7688H23.4589C22.7352 33.7688 22.1431 34.3609 22.1431 35.0846C22.1431 35.8083 22.7352 36.4004 23.4589 36.4004H31.3442C32.0679 36.4004 32.66 35.8083 32.66 35.0846C32.66 34.3609 32.0773 33.7688 31.3442 33.7688Z" fill="white"/>
<path d="M17.8945 33.7688H7.77233C7.04865 33.7688 6.45654 34.3609 6.45654 35.0846C6.45654 35.8083 7.04865 36.4004 7.77233 36.4004H17.8945C18.6182 36.4004 19.2103 35.8083 19.2103 35.0846C19.2103 34.3609 18.6182 33.7688 17.8945 33.7688Z" fill="white"/>
</g>
<defs>
<clipPath id="clip0_103_166">
<rect width="39.1165" height="50" fill="white"/>
</clipPath>
</defs>
</svg>
