<svg width="17" height="16" viewBox="0 0 17 16" fill="none" xmlns="http://www.w3.org/2000/svg">
<path d="M8.17886 8.43511C6.61625 8.43511 5.34497 7.16382 5.34497 5.60122C5.34497 4.03862 6.61625 2.76733 8.17886 2.76733C9.74146 2.76733 11.0127 4.03862 11.0127 5.60122C11.0127 7.16382 9.74146 8.43511 8.17886 8.43511ZM8.17886 3.70665C7.13421 3.70665 6.28432 4.55654 6.28432 5.60119C6.28432 6.64584 7.13421 7.49573 8.17886 7.49573C9.22351 7.49573 10.0734 6.64584 10.0734 5.60119C10.0734 4.55654 9.22351 3.70665 8.17886 3.70665Z" fill="#662483"/>
<path d="M8.17887 16C8.17831 16 8.17777 16 8.17724 16C8.01145 15.9994 7.85824 15.9115 7.77414 15.7686L3.56166 8.61429C3.01011 7.67754 2.71857 6.60778 2.71857 5.52073V5.49985C2.71854 2.46723 5.18576 0 8.21838 0C11.251 0 13.7182 2.46723 13.7182 5.49985C13.7182 6.6017 13.4193 7.68396 12.8537 8.6296L8.58194 15.7714C8.49712 15.9132 8.34404 16 8.17887 16ZM8.21838 0.939348C5.70372 0.939348 3.65788 2.98518 3.65788 5.49985V5.52073C3.65788 6.44032 3.90449 7.34526 4.3711 8.13769L8.18203 14.61L12.0475 8.14743C12.526 7.34751 12.7789 6.43199 12.7789 5.49988C12.7789 2.98518 10.733 0.939348 8.21838 0.939348Z" fill="#662483"/>
</svg>
