<svg width="43" height="50" viewBox="0 0 43 50" fill="none" xmlns="http://www.w3.org/2000/svg">
<path d="M41.5879 14.858L38.0103 14.9439V13.8481C39.0954 13.6547 40.1053 13.1283 40.9218 12.3333C41.9854 11.2804 42.5763 9.88376 42.5763 8.41191V0.98819C42.5763 0.451018 42.1465 0.0212799 41.6094 0.0212799H0.96691C0.429738 -0.000206986 0 0.429531 0 0.966703V49.0329C0 49.5701 0.429738 49.9998 0.96691 49.9998H37.0434C37.5806 49.9998 38.0103 49.5701 38.0103 49.0329V43.8653C39.0954 43.6719 40.1053 43.1455 40.9218 42.3505C41.9854 41.2976 42.5763 39.901 42.5763 38.4291V30.8979C42.5763 30.6401 42.4688 30.393 42.2862 30.2104C42.1036 30.0277 41.8457 29.931 41.5879 29.931L38.0103 30.017V28.8137C39.0954 28.6203 40.1053 28.0939 40.9218 27.2989C41.9854 26.246 42.5763 24.8494 42.5763 23.3775V15.8464C42.5763 15.5885 42.4688 15.3414 42.2862 15.1588C42.0928 14.9439 41.8457 14.8472 41.5879 14.858ZM1.93382 48.066V1.93361H40.6425V8.39042C40.6425 10.335 38.9987 11.9895 37.0434 11.9895C36.5062 11.9895 36.0765 12.4192 36.0765 12.9564V15.9216C36.0765 15.9216 36.0765 15.9216 36.0765 15.9323V48.066H1.93382ZM40.6425 31.8756V38.4184C40.6425 40.0299 39.5144 41.4373 38.0103 41.8777V31.9401L40.6425 31.8756ZM40.6425 23.356C40.6425 24.9676 39.5144 26.375 38.0103 26.8154V16.8777L40.6425 16.8133V23.356Z" fill="#708879"/>
<path d="M14.7615 15.6208C17.4044 15.6208 19.5531 13.4721 19.5531 10.8292C19.5531 8.1863 17.4044 6.03761 14.7615 6.03761C12.1186 6.03761 9.96992 8.1863 9.96992 10.8292C9.96992 13.4721 12.1186 15.6208 14.7615 15.6208ZM14.7615 7.98217C16.33 7.98217 17.6193 9.26064 17.6193 10.8399C17.6193 12.4192 16.3408 13.6977 14.7615 13.6977C13.193 13.6977 11.9037 12.4192 11.9037 10.8399C11.9037 9.26064 13.1822 7.98217 14.7615 7.98217Z" fill="#708879"/>
<path d="M6.90804 25.913H10.7327C10.7542 25.913 10.7649 25.913 10.7864 25.913C10.8079 25.913 10.8187 25.913 10.8401 25.913H22.4108C22.948 25.913 23.3777 25.4832 23.3777 24.9461V19.4239C23.3777 16.7811 21.2291 14.6324 18.5862 14.6324C18.3283 14.6324 18.0812 14.7291 17.8986 14.9117C17.4581 15.3522 16.9532 15.6852 16.4697 15.8464C16.4267 15.8571 16.3838 15.8786 16.3408 15.9001C15.911 16.115 15.3416 16.2224 14.6541 16.2224C13.9987 16.2224 13.5045 16.1257 12.9351 15.8893C12.3657 15.5993 11.8178 15.3307 11.4095 14.9117C11.2269 14.7291 10.9798 14.6324 10.722 14.6324C8.07907 14.6324 5.93038 16.7811 5.93038 19.4239V24.9461C5.94113 25.4832 6.37086 25.913 6.90804 25.913ZM7.87495 19.4347C7.87495 17.9521 8.94929 16.7703 10.3782 16.5984C10.9368 17.0604 11.5492 17.3719 12.0971 17.6405C12.1186 17.6513 12.1294 17.662 12.1508 17.662C12.9781 18.0166 13.7194 18.167 14.6541 18.167C15.6317 18.167 16.4482 18.0058 17.1465 17.6728C17.7589 17.4579 18.382 17.0819 18.9407 16.5984C20.3696 16.7703 21.4332 17.9521 21.4332 19.4347V23.9899H19.5531V21.4545C19.5531 20.9173 19.1233 20.4875 18.5862 20.4875C18.049 20.4875 17.6193 20.9173 17.6193 21.4545V23.9899H11.807V21.4545C11.807 20.928 11.3881 20.4983 10.8509 20.4875H10.8401C10.3137 20.4875 9.89472 20.9065 9.87323 21.4222L9.79802 23.9899H7.87495V19.4347Z" fill="#708879"/>
<path d="M31.1023 42.1248H7.01547C6.4783 42.1248 6.04856 42.5546 6.04856 43.0918C6.04856 43.6289 6.4783 44.0587 7.01547 44.0587H31.1023C31.6395 44.0587 32.0692 43.6289 32.0692 43.0918C32.0692 42.5546 31.6395 42.1248 31.1023 42.1248Z" fill="#708879"/>
<path d="M31.1023 37.5589H7.01547C6.4783 37.5589 6.04856 37.9886 6.04856 38.5258C6.04856 39.063 6.4783 39.4927 7.01547 39.4927H31.1023C31.6395 39.4927 32.0692 39.063 32.0692 38.5258C32.0692 37.9886 31.6395 37.5589 31.1023 37.5589Z" fill="#708879"/>
<path d="M31.1023 33.0037H7.01547C6.4783 33.0037 6.04856 33.4334 6.04856 33.9706C6.04856 34.5077 6.4783 34.9375 7.01547 34.9375H31.1023C31.6395 34.9375 32.0692 34.5077 32.0692 33.9706C32.0692 33.4334 31.6395 33.0037 31.1023 33.0037Z" fill="#708879"/>
<path d="M31.1023 28.5451H7.01547C6.4783 28.5451 6.04856 28.9749 6.04856 29.512C6.04856 30.0492 6.4783 30.479 7.01547 30.479H31.1023C31.6395 30.479 32.0692 30.0492 32.0692 29.512C32.0692 28.9749 31.6395 28.5451 31.1023 28.5451Z" fill="#708879"/>
</svg>
