<svg width="50" height="50" viewBox="0 0 50 50" fill="none" xmlns="http://www.w3.org/2000/svg">
<g clip-path="url(#clip0_521_1332)">
<path d="M40.2704 12.0808H33.2598C32.798 8.53364 31.1262 5.41723 28.5399 3.28158C25.4457 0.733455 21.1691 -0.393951 16.4954 0.119339C12.8007 0.605132 12.108 3.07076 11.9787 3.99652H9.79883L8.57036 2.94244C8.37639 2.77745 8.13624 2.69496 7.88685 2.71329C7.63746 2.73162 7.40654 2.84161 7.24028 3.0341C7.07403 3.22658 6.9909 3.46489 7.00937 3.71237C7.02784 3.95985 7.13868 4.189 7.33265 4.35399L8.00692 4.93144L7.33265 5.51806C6.93548 5.85719 6.89853 6.45298 7.24028 6.84711C7.42502 7.04876 7.68364 7.16792 7.9515 7.16792C8.18242 7.16792 8.39486 7.08543 8.57036 6.93877L9.80806 5.87553H12.1449C12.6529 7.50706 14.2324 9.3769 17.1142 9.4319C20.6149 9.4319 24.208 10.6051 25.3625 12.0808H11.8124C10.0482 12.0808 8.6073 13.5107 8.6073 15.2614C8.6073 16.8379 9.78035 18.1578 11.3413 18.387V18.8453C11.3413 19.6244 11.406 20.4126 11.5445 21.2101C9.32776 22.4933 7.92379 24.5923 7.58204 27.1313C7.16639 30.2477 8.37639 33.5382 10.6763 35.4997C13.1794 37.6445 16.754 38.9644 23.0072 40.0552V42.6216C20.1346 43.5932 17.9178 45.8939 17.068 48.7903C16.9849 49.0744 17.0403 49.3861 17.2158 49.6152C17.3913 49.8535 17.6777 49.991 17.9732 49.991H34.0727C34.3682 49.991 34.6546 49.8535 34.8301 49.6152C35.0056 49.3769 35.061 49.0744 34.9778 48.7903C34.7654 48.0662 34.4421 47.3421 34.0265 46.6546C35.6059 43.9965 36.0124 42.0533 35.3566 40.3485C34.6453 38.497 32.6318 37.1038 29.0387 35.9672V33.1166C32.2715 32.4383 35.2272 30.651 37.3517 28.0662C39.513 25.4539 40.7046 22.1725 40.7046 18.8453V18.387C42.2748 18.1578 43.4478 16.8379 43.4478 15.2614C43.4663 13.5016 42.0346 12.0808 40.2704 12.0808ZM17.1327 7.55289C15.0914 7.51622 13.9184 6.05884 13.8352 4.71146C13.7521 3.26324 14.8328 2.24583 16.7263 1.98918C20.8643 1.53089 24.6236 2.50247 27.3299 4.72979C29.5282 6.54464 30.9137 9.08359 31.3479 12.0808H27.4777C26.4802 8.96444 20.8551 7.55289 17.1327 7.55289ZM19.3772 48.1212C20.3378 46.2055 22.1205 44.7665 24.208 44.244C24.6236 44.134 24.9192 43.7674 24.9192 43.3366V40.4035L27.1729 40.8068V43.3366C27.1729 43.7674 27.4685 44.1432 27.8841 44.244C29.9624 44.7665 31.7543 46.2147 32.7056 48.1212H19.3772ZM29.0572 42.6308V41.2376C30.8583 41.7875 31.6434 42.6033 31.9113 44.2257C31.0431 43.5107 30.0917 42.9791 29.0572 42.6308ZM33.6108 41.0176C33.8417 41.6042 33.8325 42.3008 33.6016 43.1258C32.8719 40.5043 30.8306 39.5877 27.8195 38.9919L24.1156 38.332C17.7608 37.2779 14.2232 36.0497 11.9233 34.0698C10.1313 32.53 9.14303 29.8352 9.47555 27.3696C9.7157 25.5914 10.5932 24.1248 12.0249 23.1166C12.4682 24.5281 13.1148 25.848 13.9461 27.0488C12.7915 28.4145 12.8007 29.6152 13.0224 30.3943C14.0015 33.8774 20.7904 35.683 23.6722 36.2972L27.7733 37.5162C31.1724 38.5061 33.0843 39.6519 33.6108 41.0176ZM15.1653 28.5795C17.2528 30.8801 20.033 32.4841 23.0164 33.1074V34.2348C18.472 33.1349 15.2761 31.4392 14.8513 29.9085C14.8051 29.7527 14.6758 29.3036 15.1653 28.5795ZM38.8388 18.8453C38.8388 25.0598 34.1743 30.4493 27.9857 31.3934H27.9765C27.5147 31.4667 27.1729 31.8517 27.1729 32.3192V35.3806L24.9192 34.7115V32.3192C24.9192 31.8517 24.5774 31.4576 24.1156 31.3934C17.9178 30.4493 13.2533 25.0506 13.2533 18.8453V18.4328H38.848V18.8453H38.8388ZM41.1941 16.178C40.9447 16.4255 40.6214 16.563 40.2704 16.563H11.8124C11.092 16.563 10.5008 15.9855 10.5008 15.2614C10.5008 14.5465 11.0827 13.9599 11.8124 13.9599H40.2704C40.9909 13.9599 41.582 14.5465 41.582 15.2614C41.5728 15.6005 41.4435 15.9305 41.1941 16.178Z" fill="#708879"/>
<path d="M18.0842 2.87793C17.5577 2.87793 17.1328 3.29956 17.1328 3.81285V3.83118C17.1328 4.34447 17.5577 4.75694 18.0842 4.75694C18.6107 4.75694 19.0356 4.33531 19.0356 3.80369C19.0356 3.29956 18.6107 2.87793 18.0842 2.87793Z" fill="#708879"/>
</g>
<defs>
<clipPath id="clip0_521_1332">
<rect width="36.4754" height="50" fill="white" transform="translate(7)"/>
</clipPath>
</defs>
</svg>
