<svg width="181" height="60" viewBox="0 0 181 60" fill="none" xmlns="http://www.w3.org/2000/svg">
<g clip-path="url(#clip0_105_451)">
<path d="M179.676 13.4313L179.676 13.4311C178.95 10.2438 175.887 7.52394 170.696 5.40376C165.53 3.29332 158.385 1.83316 149.755 1.08391C132.501 -0.414005 109.417 0.938436 84.6042 5.50684L84.6039 5.50689C59.7845 10.0634 37.9299 16.7929 22.7047 24.1716C15.0885 27.8626 9.16099 31.7021 5.34919 35.491C1.52726 39.29 -0.0786334 42.9426 0.686415 46.2992L179.676 13.4313ZM179.676 13.4313C180.403 16.6129 178.903 20.1902 175.269 23.9765M179.676 13.4313L175.269 23.9765M175.269 23.9765C171.646 27.751 165.987 31.6388 158.647 35.4015M175.269 23.9765L158.647 35.4015M158.647 35.4015C143.974 42.9235 122.693 49.8908 97.8812 54.459M158.647 35.4015L97.8812 54.459M97.8812 54.459C73.0661 59.0273 49.4762 60.4244 31.7033 58.9192M97.8812 54.459L31.7033 58.9192M31.7033 58.9192C22.8134 58.1662 15.4067 56.6893 10.0363 54.5367M31.7033 58.9192L10.0363 54.5367M10.0363 54.5367C4.64 52.3736 1.43686 49.5863 0.686451 46.2994L10.0363 54.5367Z" stroke="white"/>
<path fill-rule="evenodd" clip-rule="evenodd" d="M91.8714 20.2651C90.4939 20.2966 87.6134 20.5958 86.6078 22.4842C86.6078 22.4842 86.0816 23.0449 86.0816 25.0019V26.4157C86.0816 26.4157 86.0281 28.0464 86.8616 29.0964C86.8616 29.0964 87.3323 29.7861 88.4922 30.5452C88.4922 30.5452 90.8474 31.8142 92.2608 32.5403C92.2608 32.5403 93.6874 33.3548 93.4991 34.6501C93.4991 34.6501 93.3844 35.9792 92.0056 35.9264C92.0056 35.9264 90.7457 35.8683 90.7457 34.5647V33.0333H85.6982V35.2589C85.6982 35.2589 85.556 39.5133 92.0433 39.5133C92.0433 39.5133 98.2399 39.6388 98.5298 35.1457V33.3355C98.5298 33.3355 98.7469 30.5822 96.3389 29.1333C96.3389 29.1333 95.0509 28.3363 94.2537 28.0289C94.2537 28.0289 91.7889 26.8866 91.2998 26.343C91.2998 26.343 90.3399 25.4375 90.9017 24.3859C90.9017 24.3859 91.137 23.6986 92.1522 23.6986C92.1522 23.6986 93.4733 23.7707 93.4733 24.8568V26.39H98.2109L98.2026 24.1322C98.2026 24.1322 98.5661 20.4365 92.6224 20.2738C92.6224 20.2738 92.3305 20.2546 91.8714 20.2651L91.8714 20.2651Z" fill="white"/>
<path fill-rule="evenodd" clip-rule="evenodd" d="M29.8553 20.2632C29.721 20.2653 29.5698 20.2694 29.4054 20.2778C29.4054 20.2778 25.806 20.471 24.5198 22.4455C24.5128 22.4596 24.5016 22.471 24.4953 22.4842C24.4953 22.4842 23.969 23.0453 23.969 25.0023V26.4157C23.969 26.4157 23.9146 28.0455 24.749 29.0963C24.749 29.0963 25.2198 29.7861 26.3796 30.5452C26.3796 30.5452 28.733 31.8141 30.1464 32.5378C30.1464 32.5378 31.5748 33.3532 31.3865 34.6501C31.3865 34.6501 31.2709 35.9792 29.8938 35.9264C29.8938 35.9264 28.6331 35.8687 28.6331 34.5651V33.0318H23.585V35.2589C23.585 35.2589 23.4437 39.5133 29.9293 39.5133C29.9293 39.5133 36.1249 39.6387 36.4165 35.1456V33.3355C36.4165 33.3355 36.6331 30.5823 34.2235 29.1325C34.2235 29.1325 32.9376 28.3362 32.1404 28.0289C32.1404 28.0289 29.677 26.8874 29.188 26.343C29.188 26.343 28.2269 25.4364 28.7895 24.3873C28.7895 24.3873 29.0241 23.6985 30.0386 23.6985C30.0386 23.6985 31.3611 23.7706 31.3611 24.8568V26.39H36.0998L36.09 24.1314C36.09 24.1314 36.4519 20.4357 30.5098 20.2738C30.5098 20.2738 30.2585 20.2574 29.8554 20.2632L29.8553 20.2632Z" fill="white"/>
<path fill-rule="evenodd" clip-rule="evenodd" d="M44.201 20.8782L41.0842 38.8704H46.1277L47.974 24.9195H48.3884L50.234 38.8706H55.2764L52.1603 20.8783L44.201 20.8782Z" fill="white"/>
<path fill-rule="evenodd" clip-rule="evenodd" d="M72.0884 20.8027L70.5024 30.7423H70.1313L68.6162 20.8921H60.7032L60.3076 38.8902H64.9924L65.0485 25.3289H65.417L67.9 38.8884H72.8287L75.2813 25.334H75.6074L75.7206 38.8902H80.43L79.9236 20.8027H72.0884Z" fill="white"/>
<path fill-rule="evenodd" clip-rule="evenodd" d="M133.948 20.8064L134.286 31.8137H134.08L129.259 20.8071H123.496V38.8935H128.187L127.906 27.8884H128.115L133.107 38.8935H138.699V20.8064L133.948 20.8064Z" fill="white"/>
<path fill-rule="evenodd" clip-rule="evenodd" d="M104.124 20.8187V34.3159C104.124 34.3159 103.595 39.4245 110.805 39.4245C110.805 39.4245 117.07 39.4989 117.07 34.5497V20.8186H112.04V34.3871C112.04 34.3871 112.109 35.8715 110.733 35.8715C110.733 35.8715 109.284 35.9483 109.284 34.424L109.27 20.8186L104.124 20.8187Z" fill="white"/>
<path fill-rule="evenodd" clip-rule="evenodd" d="M151.307 20.1337C151.183 20.1323 151.113 20.135 151.113 20.135C144.265 20.135 145.025 25.3891 145.025 25.3891V34.9186C145.171 39.8453 151.918 39.3457 152.033 39.3391C155.035 39.007 155.941 38.0553 155.941 38.0553C156.775 37.4357 156.991 36.5767 156.991 36.5767C157.229 36.0769 157.288 34.4843 157.288 34.4843V28.886H151.189V31.5391H152.483V34.3891C152.483 35.7818 151.292 35.8076 151.292 35.8076C149.845 35.8076 149.9 34.4843 149.9 34.4843V24.629C149.9 23.6129 151.184 23.559 151.184 23.559C152.417 23.559 152.427 24.7701 152.427 24.7701V26.2686H157.174C157.329 23.3443 156.746 22.6357 156.746 22.6357C155.716 20.3212 152.176 20.1424 151.307 20.1339V20.1337Z" fill="white"/>
</g>
<defs>
<clipPath id="clip0_105_451">
<rect width="180.355" height="60" fill="white"/>
</clipPath>
</defs>
</svg>
