<svg width="340" height="90" viewBox="0 0 340 90" fill="none" xmlns="http://www.w3.org/2000/svg">
<path d="M51.0109 12.6128L51.2935 13.1112L50.726 13.6095L50.2949 13.7924L49.8383 13.2756L50.3853 12.6779L51.0109 12.6128ZM12.2908 49.8288L12.2934 49.8297L12.2932 49.8288H12.2908ZM33.4433 26.6883L33.4477 27.6523L34.365 28.0562L35.0978 27.4405L36.6018 27.2352L36.924 26.0116L35.1998 24.4358L32.922 25.7496L32.3196 26.5443L32.5325 26.9246L33.4433 26.6883ZM71.2596 22.3943L71.7973 22.5264L71.9015 22.313L71.8322 21.8497L71.9272 21.5301L71.6005 21.115L71.3084 21.0224L71.3479 21.5346L71.2018 21.8451L71.2596 22.3943ZM6.66675 38.2725L7.23463 37.5217L7.41063 36.6159H7.11422L6.82903 36.4189L6.41879 37.2599L5.9971 37.7351L5.90676 38.159L6.0064 38.8821L6.66675 38.2725ZM76.5082 67.1303L78.3089 63.36L78.856 63.091L79.3333 61.675L80.5915 59.6219L80.5146 58.0004L80.165 57.5691L80.2626 56.4634L79.2173 55.4068L79.046 54.7673L79.8801 54.2854L80.2812 52.1071L79.5279 51.3495L78.7679 52.6491L77.7876 52.6792L78.4271 54.4103L78.0308 55.0014L78.1213 55.8287L79.1803 57.4623L78.703 60.2524L78.2697 60.3985L78.1607 61.9627L76.6591 63.659L75.1618 66.6412L75.952 67.253L76.5082 67.1303ZM23.1823 16.761L21.9217 18.4156L21.9659 19.8429L22.487 20.3573L23.7315 19.9796L24.3481 18.369L24.1811 17.8729L24.9204 17.442L25.1124 16.8187L24.3272 16.2185L23.1823 16.761ZM49.208 11.642L49.4072 10.8795L48.71 10.3351L48.2612 10.4509L47.8595 11.2968L48.1407 11.7463L48.594 11.803L49.208 11.642ZM67.0584 8.52047L67.2393 8.29578L67.0976 8.09645L66.9449 7.70734L66.4418 7.25318L66.1592 7.86139L66.7803 8.52053L67.0584 8.52047ZM48.2329 12.3976L48.2287 13.2246L49.1502 13.8318L49.5556 12.9396L48.6219 12.4785L48.2329 12.3976ZM88.06 58.7619L88.0634 58.8938L88.0166 58.8948C85.119 67.4354 79.6811 74.8868 72.4315 80.2516L72.4221 80.2789L72.4032 80.2723C64.7931 85.9017 55.5699 88.9253 46.104 88.8942C36.638 88.8632 27.4349 85.7788 19.8619 80.0997L19.8347 80.1074L19.8244 80.071C12.5006 74.5728 7.06335 66.9374 4.26297 58.2181L4.21938 58.2109L4.23348 58.1277C1.68252 50.0633 1.50383 41.4356 3.71868 33.2724L3.68423 33.2434L3.74663 33.1695C4.10578 31.8611 4.52281 30.5781 4.99765 29.3199C5.02333 29.2379 5.04778 29.1557 5.07393 29.0738L5.13646 28.8789L5.1624 28.887C7.29963 23.4073 10.5095 18.4095 14.6038 14.1867L14.5852 14.1312L14.6936 14.0947C18.8166 9.85028 23.7535 6.48117 29.209 4.18895C34.6643 1.89676 40.526 0.728579 46.4433 0.754323C52.3606 0.780069 58.2119 1.99921 63.6471 4.33879C69.0823 6.67839 73.9896 10.0904 78.0757 14.3705L78.1893 14.4136L78.1688 14.4676C82.1233 18.6199 85.2314 23.5024 87.32 28.8426L87.3418 28.8354L87.4048 29.0306C87.4246 29.0925 87.4432 29.1549 87.4628 29.217C87.9769 30.5702 88.4248 31.9538 88.8069 33.3674L88.8757 33.4585L88.8389 33.4862C91.0513 41.807 90.7804 50.5932 88.06 58.7619ZM32.58 5.40408C32.9412 5.6986 33.3197 6.03152 33.7155 6.40283C34.3188 6.14156 34.9336 5.89946 35.56 5.67652L35.5544 5.62384L35.9319 5.54549C36.6249 5.30736 37.3302 5.09283 38.0479 4.90191L37.9156 4.887L37.1049 5.0747L36.5393 4.53249L35.1278 5.25549L34.9173 5.5915L33.3598 5.39436L32.58 5.40408ZM41.0349 18.2834L40.9192 18.7585L40.0936 19.8134C41.5859 20.4676 43.0638 21.146 44.5044 21.8381C43.3471 20.1611 42.272 18.6467 41.272 17.2767L41.1879 17.3611L40.912 17.5721L41.0349 18.2834ZM20.742 34.3425L21.3911 34.3634L22.8674 34.7782L23.252 33.9277L22.8626 33.5197H22.2414L21.7575 33.7691L19.9681 33.3181L18.8697 33.6287L18.8452 33.6719C18.9429 34.2228 19.0609 34.7675 19.1989 35.3058L19.5369 35.1304L20.1927 34.4464L20.742 34.3425ZM20.3593 38.6914C20.3927 38.7686 20.425 38.8466 20.4593 38.9233C20.549 38.8525 20.6417 38.7817 20.7319 38.7106L20.3593 38.6914ZM19.1177 39.0596L18.4318 39.4359L16.8907 41.3014L16.8816 41.8761C17.7281 41.1473 18.6053 40.415 19.5133 39.6798C19.1014 38.7865 18.7446 37.8689 18.445 36.9319L18.2627 36.8079L18.3392 36.5935C18.1793 36.0673 18.0377 35.5349 17.9142 34.9961L17.0208 35.1118L16.7566 34.7524L15.6465 35.2995L14.7289 34.8128L14.0751 33.0788L14.4478 32.6813L14.9406 31.0933L15.2434 31.2049L15.3243 31.6266L15.848 32.0922L16.3765 31.726L15.6674 30.2313L16.0287 29.3369L16.8537 28.8225L17.3584 28.5745C17.3814 28.1347 17.4162 27.6977 17.4628 27.2635C15.8278 27.7236 14.2181 28.2696 12.6405 28.8992L12.5203 29.3578L11.8993 29.4158L11.5819 29.7843L11.6674 30.5258L12.6015 30.6299L13.6304 33.003L13.3383 33.7399L13.5445 35.5728L14.388 36.7271V37.4036L14.2673 37.5474L14.3032 37.9979L14.2351 38.0178V38.7067L14.6708 39.6423L15.0044 39.3804L14.9787 38.458L14.8985 38.3556L14.9012 38.3538L15.482 37.9216L15.9775 37.4406L16.5153 37.3317L16.9048 37.5387L16.7421 38.1019L17.3356 38.2379L17.5025 37.6215L18.0378 37.1834L18.8928 38.2148L18.9694 38.7871L19.1177 39.0596ZM28.5839 32.238L28.4887 33.0546C33.3912 29.7337 38.4821 26.6997 43.7353 23.9675C35.2989 23.9707 26.8922 24.9646 18.6876 26.9285C18.6429 27.2746 18.6085 27.6236 18.5797 27.9738L18.6821 27.9235L19.2938 28.183L19.996 28.9568L20.8789 29.3717L23.9425 29.6522L26.1948 30.2431L27.9026 31.2117L28.5839 32.238ZM26.6791 33.6749L24.9873 35.1349L24.5536 35.8202C25.433 35.1798 26.3308 34.5419 27.2473 33.9066L26.6791 33.6749ZM23.4789 36.5438L23.2745 36.7635C23.405 36.666 23.5375 36.5686 23.6692 36.4712L23.4789 36.5438ZM20.9543 39.9647C23.0901 44.087 26.2987 47.5563 30.2419 50.0071C34.2761 42.0439 39.21 33.3303 44.5953 24.8449C36.2453 29.1095 28.3278 34.1731 20.9543 39.9647ZM38.2081 20.274L37.9647 20.6262L36.9961 21.1013L36.2219 20.2322L33.9579 19.3888L33.0495 19.5439L32.5674 19.0968L31.638 18.8233L30.6904 19.0088L29.7911 18.0495L27.6895 17.8662L27.3445 16.3223C26.0766 15.9568 24.8474 15.6433 23.6759 15.396C21.2543 18.3792 19.6079 21.9151 18.8835 25.6884C27.0456 23.7968 35.394 22.8248 43.7723 22.7906C41.9579 21.9218 40.0884 21.0749 38.2081 20.274ZM27.3928 13.8574L27.5297 13.03L27.4404 11.5916C26.3933 12.4534 25.4143 13.3947 24.512 14.407C25.4895 14.6265 26.5023 14.8899 27.5365 15.1838L27.6132 15.0021L27.3928 13.8574ZM36.9185 11.6272C35.5803 10.0054 34.4444 8.754 33.481 7.79729C32.7967 8.11521 32.1297 8.4577 31.4803 8.82477L31.9628 8.97951L32.8688 9.0073L33.4551 9.31552L33.7654 10.0409L34.7366 10.0755L35.346 10.8147L36.0947 10.766L36.5186 11.4427L36.9185 11.6272ZM16.8132 13.6547C18.9531 13.5165 21.1017 13.6773 23.1971 14.1325C24.2855 12.8484 25.4899 11.6672 26.7946 10.6036L26.3709 10.1008L26.9827 9.57031L27.8564 9.32699L28.6049 8.80539L29.3112 8.7659C30.3572 8.08597 31.4449 7.47266 32.568 6.92962C32.036 6.43808 31.4665 5.98873 30.8648 5.58566L30.5169 5.72107L29.699 5.80461L28.9802 6.01081L28.5076 5.90439L28.2526 6.04793L27.6696 6.17296C23.6881 8.09479 20.0265 10.6182 16.8132 13.6546V13.6547ZM6.65862 28.3336L6.88106 28.396L6.94476 27.8655L7.48471 26.9431L8.03411 26.3963L8.47895 26.1807L9.23667 25.3395L9.22974 26.4355L8.43226 29.5548C8.73595 29.3881 9.05536 29.2229 9.38298 29.0588L9.91562 28.1549L10.2889 27.1842L10.919 26.7995L10.8495 27.6916L11.3291 27.6451L11.2921 27.1912L11.459 26.6304L11.3572 26.3313L11.67 25.7706L12.2399 25.9979L12.6453 25.5923L12.9328 25.7915L13.3338 26.4588L13.8157 25.9979L13.7812 25.0986L13.3407 25.3371L12.8009 25.1008L12.7267 24.2273L13.0882 23.3282L13.5794 23.5529L14.1761 23.2354L14.6313 23.7038L14.8794 24.0533L14.7196 24.5054L15.1089 24.5934L15.519 24.2482L16.2535 24.1948L16.8466 24.4568L16.622 25.6084L16.001 25.358L15.9129 26.2226L15.2361 26.3266L14.6175 26.6607L14.2359 27.0565C15.2941 26.6944 16.4225 26.3459 17.632 26.016C18.294 22.0561 19.9258 18.3216 22.3818 15.1457C20.0617 14.6144 17.6523 14.6077 15.3292 15.126C11.6485 18.9556 8.70873 23.4337 6.65862 28.3336ZM6.70133 52.6755C7.06208 52.1424 7.45849 51.5971 7.89057 51.0395L8.2705 49.5695L7.65872 48.2995L6.87545 48.9182L6.55088 47.3076L7.10733 45.141L7.85452 44.0338L8.13759 42.3772L8.35363 39.8298L8.54852 39.2365L8.51127 38.6943L8.18696 38.604L8.0478 39.3917L7.74437 40.015L7.51956 42.0101L7.41993 42.9486L7.33879 43.7274L6.89143 44.0541L6.08284 43.3239L5.55904 43.3104L5.6008 42.0775L5.65189 40.8748L6.04339 40.6225L6.11531 41.6257L6.65992 41.5932L6.99121 39.1487L7.82621 37.2517L7.89752 36.1894L7.39428 35.2158L7.54979 33.8905L7.48262 33.3273L7.1233 33.6982L6.85006 33.1072L6.87548 32.5719H6.18493L5.70285 33.3574L5.57992 38.145L5.69578 39.6951L5.38556 40.3744L5.31599 40.7149L4.85265 40.9653L4.78522 41.6324L4.85714 44.8145L4.77107 45.3966C4.89014 46.2902 5.04196 47.1742 5.22658 48.0482L5.6821 48.3784L6.05751 49.8288L6.37038 51.5229L6.70133 52.6755ZM8.79863 55.2839V54.4729L9.42611 55.0483L9.5727 55.6476L10.2614 56.2516L10.3584 55.7703L8.98631 53.9006L8.73621 53.342L8.2705 52.8786L8.18602 52.5841C7.79507 53.126 7.44247 53.6517 7.12821 54.161L7.23914 54.547L7.9414 55.6361L8.53694 57.1887L8.93762 57.8446L10.0662 57.3925L10.3166 56.6188L9.61897 56.4172L8.94015 55.7126L8.79863 55.2839ZM15.1783 56.5678L15.6464 57.7959L15.9776 58.0045L16.8768 60.3843L17.0786 60.6694L17.6695 60.6441L17.6386 60.4266L17.7738 60.5303L18.2256 62.1384L17.0786 62.7573L17.0207 63.4641L17.7783 64.6947L19.3912 65.99L19.6925 65.0005L19.3192 64.3933L19.2729 63.749L19.6344 63.2647L19.6276 62.6832L19.6344 62.4191L19.6553 62.4167L19.9242 62.1039V61.886L19.3843 61.1445L19.433 60.3102L19.8871 59.9046L20.1259 59.441L21.0781 60.1712L21.3865 59.6938L21.4885 59.2627L20.967 58.8944L20.6379 58.3938L19.938 58.2061L19.4399 57.7933L19.4861 57.1332L19.4398 56.366L19.0784 56.0532L18.951 55.1864L19.5326 54.904L20.5313 55.059L20.916 54.5444L22.3528 54.5747L23.1267 55.1864L24.3989 57.3672L25.1218 57.4134L25.991 57.9535L26.2218 58.3443C27.2819 56.0184 28.4497 53.5797 29.7116 51.0596C25.6194 48.534 22.2745 44.9631 20.0213 40.7149C18.8062 41.7035 17.6569 42.6808 16.5731 43.6474L16.3184 44.4503L15.3844 45.5026L16.0774 46.3438L15.6208 47.2684L15.6463 48.2694L15.8736 49.1429L16.2027 50.035L16.819 51.2658L16.2859 51.6271L15.5189 51.7825L15.2152 51.6759L15.059 51.8701L14.5919 51.6829L14.1959 51.5277L13.8667 51.0339L13.5331 50.8693L13.4105 51.0589L13.2873 50.6261L13.0508 50.0167L12.6672 49.9221L12.3467 48.8441L12.2583 48.318L11.76 48.3071C11.1441 48.9638 10.5695 49.6065 10.0361 50.2353L10.3651 51.2634L11.4336 52.1857L12.8564 55.6036L13.6813 56.6744L14.4276 56.4124L14.1332 55.5249L14.246 55.1496L15.1783 56.5678ZM27.5328 58.3101C27.4157 58.5625 27.3017 58.8109 27.1873 59.0596L27.555 59.1862L27.8588 58.855L27.5328 58.3101ZM19.9207 75.749L19.8083 75.6832L19.5326 75.6555L19.113 75.3471L18.5987 75.171L17.6324 74.4387L16.796 74.5455L16.4299 74.7842C16.1313 74.8221 15.8282 74.8053 15.5357 74.7345C16.8165 76.0496 18.1797 77.2819 19.617 78.4239C19.6391 77.5251 19.7407 76.63 19.9207 75.749ZM20.4523 73.4551L20.0852 73.0273L20.0613 72.3473C19.9622 72.276 19.8645 72.2032 19.766 72.1311L19.3575 71.996L17.2268 70.321L16.652 69.6768L16.6161 69.5885C16.295 69.303 15.9784 69.0129 15.6664 68.7182L16.0264 69.3642L15.9941 69.816L16.622 70.1634L16.8466 71.1298L18.1584 72.3L19.5093 72.5526L20.0285 73.7182L20.3171 73.9743C20.3601 73.8041 20.4055 73.6306 20.4524 73.4551H20.4523ZM45.6617 83.1691L45.2269 83.1868L43.6699 83.1796L43.1344 83.59L39.5936 84.176L37.86 84.1161L38.1242 84.628L38.9561 85.1333L39.6097 85.3697L39.2902 85.5894L37.7513 85.3024L37.4965 84.9432L35.0398 84.5308L32.2058 82.6003L31.55 81.5297L31.4343 80.883L29.7266 80.4151L28.8226 79.3631L27.3813 78.3527L26.635 77.3959L25.2748 76.8163L21.3629 74.3332C21.3233 74.4921 21.2857 74.6482 21.25 74.8018L21.2588 74.8097L21.7339 75.4633L22.0237 75.6924V75.9312L21.6619 76.0053L20.9936 76.0417C20.7481 77.1356 20.7031 78.2648 20.8607 79.3748C28.0504 84.6828 36.7256 87.5987 45.6617 87.7109V83.1691ZM45.6617 55.7243C40.4286 55.6507 35.2983 54.2597 30.7447 51.6797C29.7879 53.581 28.8773 55.446 28.0269 57.2526C27.9778 57.3568 27.931 57.4583 27.8824 57.5619L28.5007 57.3949L28.7069 56.4146L30.8853 57.1332L32.7831 57.3117L33.4108 57.1098L34.3862 57.6983L36.1339 59.9209L37.5634 59.6404L39.334 63.3018L40.6154 63.5611L41.6142 63.4336L42.9978 64.8891L43.9153 64.8172L44.2558 65.4082L45.2801 65.1973L45.6615 64.9924L45.6617 55.7243ZM45.6617 25.3599C40.6284 33.2998 35.521 42.2834 31.2752 50.6307C35.6642 53.1273 40.613 54.4748 45.6617 54.5483V25.3599ZM45.6617 15.8643L45.577 16.0124L45.0532 16.3505L43.1344 16.844L42.219 16.4503L42.2277 16.3169L42.1107 16.4346C43.234 17.9693 44.4177 19.6397 45.6617 21.4458V15.8643ZM45.6617 9.59522L45.1005 9.67571L44.7357 9.48214L43.6699 9.60718L43.4356 9.9037L42.0915 9.66533L41.2019 9.06033L40.6435 9.14851L40.1265 8.87976L39.297 8.90517L38.0895 8.36762L36.3932 7.94127L35.7863 8.17073L35.5659 7.70728L35.8625 6.88213L35.8355 6.82692C35.4277 6.97484 35.0245 7.13089 34.6263 7.29503C36.0968 8.82104 37.4898 10.4202 38.7992 12.0865L39.3362 12.388L40.9654 11.7116L42.1567 12.2375L43.1887 12.6101L43.1623 12.0984L43.1481 11.7347L43.7373 11.2047L43.489 10.8332L43.3151 10.4786L43.9155 10.0035L45.0393 9.87844L45.662 9.90878L45.6617 9.59522ZM42.7868 6.16843L43.1924 5.29487L42.9291 5.19363C42.4945 5.24012 42.0632 5.29563 41.6349 5.36017L41.4403 5.76285L40.1635 6.05257L40.1383 6.43036L40.5574 6.83808L40.8612 6.45577L41.3315 6.31664L41.5935 6.63656L41.5307 7.04655L41.8969 7.19965L41.6075 7.44295L41.8738 7.59353L42.5204 7.53567L42.8818 6.93772L42.7868 6.16843ZM45.6617 6.65731L45.3708 6.44193L44.8909 6.51604L44.6916 6.90991L44.7379 7.42209L45.6617 7.55326V6.65731ZM45.6617 2.56439L43.5978 2.2986L42.08 2.38427L41.8363 2.15953C41.456 2.19836 41.0772 2.24359 40.6995 2.29247L40.8919 2.54377L40.2379 2.64838L40.1219 3.15121L40.5946 3.32947L40.5273 3.77017L40.9591 4.27433C42.5141 4.01636 44.0858 3.87304 45.6617 3.84547V2.56439ZM75.0375 27.3357C75.4882 31.5996 74.7599 35.9054 72.9321 39.784C77.899 43.4641 82.2719 47.8843 85.8983 52.8901C88.1347 46.6583 88.6323 39.9355 87.3375 33.4424C85.2824 31.2276 81.0455 29.0485 75.0375 27.3357ZM70.7821 67.8508L70.2688 68.3209C70.366 68.591 70.4617 68.8599 70.5554 69.1278C70.866 70.0174 71.1395 70.855 71.3834 71.6501C77.6237 67.319 82.482 61.2796 85.3759 54.2567C83.5574 51.1034 79.7746 46.7562 72.3914 40.8696C70.1332 45.0568 66.8121 48.5756 62.762 51.0716C63.5577 52.6912 64.3286 54.3016 65.0646 55.8885C65.1355 56.041 65.2089 56.2008 65.2821 56.3597L65.6888 55.7474L67.8369 54.9851L69.9133 56.723L70.912 56.2363L72.3256 56.7716L73.0627 56.0787L73.9059 54.4171L74.3231 57.622L73.3754 58.746L74.0868 60.0552L73.8388 60.3102L74.1123 60.6929L74.1258 60.6705L74.0149 60.9035L73.8458 61.6011L74.0844 62.0806L73.1436 63.8257L73.3175 63.9925L74.5803 64.3098L75.148 65.2971L74.9789 65.867L74.1193 67.0374L73.4541 67.6817L73.19 67.2621V66.7735L72.6756 66.3424L72.4485 66.0224L72.1656 66.3886L71.5656 66.3003L71.7162 65.5588L71.1229 65.3202L70.0269 66.6739L69.7629 66.9507C69.8554 67.1961 69.9467 67.4413 70.0367 67.6858L70.4253 67.4432L70.7821 67.8508ZM69.4234 69.4804L69.0768 69.8991L69.5402 70.1889L69.6915 70.262C69.6049 70.0054 69.5156 69.745 69.4232 69.4804H69.4234ZM68.5348 67.0413L68.2842 67.2159L67.9945 67.8996L67.3433 68.312L67.4893 68.8287L68.1266 68.5947L68.6688 68.7684L68.9927 68.2719C68.8458 67.8698 68.6933 67.4596 68.5348 67.0413ZM47.9955 24.9068C53.2158 32.9991 57.9717 41.3818 62.2396 50.0143C66.1334 47.5951 69.3131 44.1833 71.4527 40.1292C64.069 34.414 56.2229 29.3223 47.9955 24.9068ZM71.9819 39.0367C73.7002 35.2729 74.3349 31.1046 73.8148 27C65.5936 24.9772 57.1585 23.9518 48.6919 23.9463C56.8523 28.3356 64.6414 33.3824 71.9819 39.0367ZM77.4121 15.3796C75.6382 14.8588 73.7749 14.7162 71.9426 14.9612L72.9629 15.7066L73.1065 16.55L73.4657 16.6752L74.4898 17.5258L76.2859 19.6552L76.872 20.5913L76.6078 20.7906L73.2595 17.345L73.1272 17.9172L73.5699 18.5825L73.7832 19.0225L73.1531 19.0132L73.3499 19.5509L73.132 19.9147L73.7623 20.4939L73.5363 21.2006C74.1492 22.7596 74.5942 24.3796 74.8638 26.033C79.1738 27.0556 83.2505 28.8872 86.8774 31.4305C86.7183 30.8167 86.5426 30.2071 86.3506 29.6014C84.3352 24.319 81.2977 19.4863 77.4121 15.3796ZM66.1106 6.97018L65.499 6.85445L65.99 8.84264L65.8303 9.08583L66.6668 9.77635L67.1951 10.9234L67.772 11.7904L68.268 12.2514L68.6965 13.3406L69.0535 13.6232L69.4173 13.4933L69.6535 13.7646L69.7821 14.0378C71.7868 13.6674 73.8349 13.5936 75.8609 13.8187C72.9448 11.0321 69.6518 8.66878 66.0783 6.79817L66.1106 6.97018ZM70.6844 15.1057L71.3753 15.3056L71.672 15.2106L71.7437 14.9806C71.4052 15.0141 71.053 15.0549 70.6844 15.1057ZM63.0824 16.9183C58.182 18.5367 53.3998 20.4923 48.7697 22.7712C57.1361 22.7749 65.4735 23.7574 73.6117 25.6989C73.2582 23.8147 72.6665 21.9831 71.8507 20.248L70.8771 19.7409L70.6478 19.1686L70.2145 18.8697L69.8994 19.2009L70.2004 19.7338L70.2331 20.3271L69.545 20.9875L68.238 19.5625L67.9204 19.3307L67.2714 20.4014L66.5975 20.1209L66.3309 19.5693L65.8532 19.2472L65.3992 19.1871L63.9925 18.121L63.923 17.8896L63.2463 17.5394L63.0824 16.9183ZM55.1752 9.37328L55.2957 10.0057C55.5108 9.75772 55.7233 9.51632 55.9334 9.2815L55.3698 8.92842L55.1752 9.37328ZM54.8433 12.3686C52.6928 15.0045 50.3343 18.2306 47.9145 21.8773C52.739 19.4858 57.7267 17.4387 62.8405 15.7514L62.7365 15.6672L62.1759 14.3925L61.7727 14.1331L61.1864 12.8792L60.496 12.177L59.0292 11.5399L57.108 10.0174L56.9404 9.91248C56.797 10.0722 56.652 10.2352 56.5058 10.4015L56.7858 11.3174L55.326 11.9153L55.2125 12.5804L54.8433 12.3686ZM46.838 3.84542C47.0244 3.84887 47.2096 3.8558 47.3951 3.86231L47.9428 3.54744L47.1968 2.62988L46.838 2.659V3.84542ZM46.838 9.19277L47.2894 8.56689L46.838 7.73308V9.19277ZM46.838 21.3743C48.79 18.4245 50.6933 15.7596 52.4894 13.4425L52.3039 13.4957L51.4304 13.315L51.9448 12.5572L51.3818 12.0335L51.0736 12.0798L50.5843 12.335L50.2552 12.087L50.2138 11.6489L49.8385 11.526L49.9542 11.0465L50.2742 10.715L52.0258 10.8286L52.5796 10.9793L52.8717 11.5746L53.2448 11.92L52.8438 12.2995L53.1683 12.467L53.244 12.4812C53.4419 12.2327 53.6376 11.9901 53.8324 11.7508L53.3283 11.408L52.8787 10.3118L52.4663 10.2818L52.2575 9.90178L50.7792 10.1937L50.3064 10.0987L50.5266 9.41504L50.5961 8.52522L49.9532 7.86011L50.4549 7.0698L50.265 6.74787L49.3102 6.66899L49.3584 7.39278L49.0646 7.75078L48.4133 7.57745L48.1326 8.36762L49.3309 8.5507L49.9913 9.14864L49.8267 9.51713L48.9833 10.0015L48.5302 9.66518L47.9567 9.87842L48.0866 10.3467L47.8268 10.7799L47.4306 10.642L47.1179 9.83507L46.838 9.7466V10.1526L46.8744 10.1635L46.9649 10.9098L47.6159 11.2736L47.8081 11.576L47.7445 11.9796L47.9567 12.4624L47.9382 13.2735L47.5095 13.2329L47.2109 13.3653L47.3777 13.6232L47.4306 13.9917L47.0368 14.8562L46.838 15.0168V21.3743ZM46.838 54.5483C51.8892 54.4738 56.8399 53.1238 61.2296 50.6237C56.9258 41.9073 52.1204 33.4476 46.838 25.2872V54.5483ZM46.838 64.361L47.6625 63.9181L48.9881 64.15L49.4724 64.5578L51.171 64.662L51.778 63.9181L51.4535 63.4083L52.0468 62.3099L54.2413 62.6621L54.4963 63.334L55.4928 63.5103L57.592 62.7362L58.8228 63.3018L60.2848 62.9217L60.7994 62.4607L63.1305 60.9983L64.6368 60.514L65.2577 59.5406L65.1004 59.1607L65.1535 58.919C64.7826 58.0908 64.3975 57.2454 63.998 56.383C63.2788 54.8327 62.5266 53.2602 61.7503 51.6783C57.1982 54.258 52.0697 55.6494 46.838 55.7241V64.361ZM71.5416 78.2358L71.4518 78.3239L69.5611 79.282L69.4362 78.4616L69.8484 78.0074L69.9064 77.6369L70.3096 77.1478L70.6201 76.6705L71.0327 76.4133L71.3141 76.2041C71.2744 75.9809 71.2306 75.7517 71.1807 75.5132L70.8056 75.8434L70.291 75.7669L70.1311 75.4169L70.9033 74.3154C70.839 74.0595 70.7716 73.799 70.6982 73.5292L70.6502 73.5597L69.9506 74.8677L68.3679 76.6891L66.0482 78.4387H65.7884L63.5294 79.843L63.9115 80.1119L63.1238 80.8303L62.3893 81.2542L61.5923 80.9901L62.5515 80.4247L62.357 80.2763L61.3163 80.6309L60.2783 81.2889L60.6444 82.005L61.8538 81.8985L62.002 82.6931L60.6906 83.2979H60.6976L58.5403 84.202H57.8194L55.9446 84.3802L54.8186 84.6283L55.6019 84.8205L56.8835 84.5934L57.0295 85.0661L50.5039 86.2154L50.4392 85.7174L53.0321 84.9667L52.242 84.1902L50.745 84.635L49.4264 84.6629L48.7128 83.7059L47.7974 83.2864L47.6165 82.9644L46.8384 83.0745V87.7109C55.6832 87.5998 64.2748 84.7418 71.4237 79.5322C71.5214 79.1074 71.5608 78.6713 71.5414 78.2358H71.5416ZM86.8772 58.5941C86.798 57.5619 86.5271 56.5534 86.0784 55.6204C82.9964 62.5849 78.0278 68.5485 71.7341 72.8375C72.0455 73.9213 72.299 75.0209 72.4938 76.1315L73.016 76.003L73.4936 75.792L73.7069 76.1076L72.6373 77.1587C72.6909 77.6247 72.7153 78.0937 72.7103 78.5628C79.2649 73.4172 84.1861 66.4808 86.8772 58.5941ZM89.144 44.8241C89.144 44.3228 89.1325 43.8243 89.1153 43.327C88.8444 47.0506 88.0192 50.7131 86.667 54.193C87.0312 54.8611 87.3396 55.5583 87.589 56.2773C88.6229 52.5475 89.146 48.6946 89.144 44.8241Z" fill="white"/>
<g clip-path="url(#clip0_356_30)">
<path d="M110.963 32.8861H105.533V41.0449H101.452V17.2481H110.997C118.956 17.2481 120.811 21.2936 120.811 25.0671C120.811 28.9766 118.315 32.8861 110.963 32.8861ZM116.561 25.0332C116.561 22.7555 115.145 21.0897 111.132 21.0897H105.533V29.0445H110.896C114.875 29.0445 116.561 27.4808 116.561 25.0332ZM122.633 29.1466C122.633 25.9188 123.905 22.8233 126.17 20.5409C128.434 18.2585 131.505 16.9763 134.707 16.9763C137.909 16.9763 140.98 18.2585 143.245 20.5409C145.509 22.8233 146.781 25.9188 146.781 29.1466C146.781 32.3745 145.509 35.47 143.245 37.7524C140.98 40.0347 137.909 41.317 134.707 41.317C131.505 41.317 128.434 40.0347 126.17 37.7524C123.905 35.47 122.633 32.3745 122.633 29.1466ZM126.883 29.1466C126.841 30.2098 127.012 31.2707 127.386 32.2657C127.759 33.2608 128.329 34.1695 129.059 34.9376C129.79 35.7057 130.666 36.3173 131.637 36.7359C132.607 37.1545 133.652 37.3713 134.707 37.3736C135.768 37.3883 136.82 37.183 137.798 36.7704C138.776 36.3577 139.66 35.7465 140.394 34.9749C141.128 34.2032 141.696 33.2876 142.064 32.2848C142.432 31.2822 142.591 30.2139 142.532 29.1466C142.576 28.0829 142.407 27.021 142.034 26.025C141.661 25.029 141.091 24.1193 140.36 23.3508C139.629 22.5821 138.752 21.9705 137.78 21.5528C136.809 21.135 135.764 20.9196 134.707 20.9196C133.651 20.9196 132.606 21.135 131.634 21.5528C130.663 21.9705 129.785 22.5821 129.054 23.3508C128.323 24.1193 127.754 25.029 127.381 26.025C127.008 27.021 126.838 28.0829 126.883 29.1466ZM161.155 41.3168C162.985 41.396 164.806 41.0368 166.471 40.2686C168.138 39.5003 169.597 38.3451 170.734 36.8975L168.338 34.2458C167.501 35.2575 166.447 36.0645 165.256 36.6061C164.064 37.1479 162.766 37.4103 161.459 37.3736C160.37 37.4365 159.279 37.2671 158.259 36.8764C157.238 36.4857 156.312 35.8824 155.538 35.1061C154.764 34.3297 154.162 33.3977 153.77 32.3708C153.378 31.3439 153.206 30.2453 153.264 29.1466C153.264 24.1833 156.434 20.9197 161.29 20.9197C162.487 20.8902 163.676 21.121 164.776 21.5961C165.876 22.0713 166.861 22.7798 167.664 23.6733L170.363 21.0897C168.743 18.71 165.371 16.9763 161.088 16.9763C159.486 16.9141 157.888 17.1864 156.395 17.7761C154.903 18.3657 153.547 19.2599 152.414 20.4027C151.28 21.5454 150.393 22.912 149.808 24.4167C149.223 25.9214 148.953 27.5317 149.014 29.1466C149.014 36.5236 153.736 41.3168 161.155 41.3168ZM193.195 36.8975L190.801 34.2458C189.963 35.2574 188.91 36.0643 187.718 36.606C186.526 37.1478 185.228 37.4101 183.921 37.3736C182.832 37.4365 181.741 37.2671 180.72 36.8764C179.701 36.4857 178.773 35.8824 177.999 35.1061C177.226 34.3297 176.625 33.3977 176.232 32.3708C175.84 31.3439 175.668 30.2453 175.725 29.1466C175.725 24.1833 178.896 20.9197 183.752 20.9197C184.948 20.8904 186.138 21.1211 187.237 21.5963C188.337 22.0714 189.322 22.7799 190.127 23.6733L192.825 21.0897C191.206 18.71 187.833 16.9763 183.55 16.9763C181.948 16.9141 180.351 17.1864 178.858 17.7761C177.365 18.3657 176.009 19.2599 174.876 20.4027C173.742 21.5454 172.854 22.912 172.27 24.4167C171.685 25.9214 171.415 27.5317 171.476 29.1466C171.476 36.5236 176.198 41.317 183.618 41.317C185.447 41.3961 187.269 41.0369 188.934 40.2687C190.599 39.5005 192.059 38.3452 193.195 36.8975ZM212.465 24.5572V41.0449H216.547V17.2481H213.106L200.156 33.7359V17.2481H196.075V41.0449H199.481L212.465 24.5572ZM230.545 32.6821L223.901 41.0449H219.011L226.329 31.9682C222.754 31.0504 220.663 28.5688 220.663 24.9992C220.663 20.6817 223.766 17.2483 230.241 17.2483H239.853V41.0449H235.773V32.6821H230.545ZM229.533 28.8406H235.773V21.0897H229.938C226.329 21.0897 224.912 22.6875 224.912 24.999C224.912 27.0728 226.667 28.7046 229.533 28.8406ZM267.399 41.317C269.228 41.3963 271.051 41.037 272.716 40.2687C274.381 39.5005 275.841 38.3452 276.977 36.8975L274.583 34.2458C273.745 35.2574 272.69 36.0643 271.499 36.606C270.307 37.1478 269.01 37.4101 267.703 37.3734C266.613 37.4364 265.522 37.267 264.502 36.8763C263.482 36.4856 262.555 35.8823 261.781 35.106C261.008 34.3297 260.406 33.3976 260.014 32.3707C259.622 31.3439 259.449 30.2453 259.507 29.1465C259.507 24.1833 262.677 20.9197 267.534 20.9197C268.731 20.8903 269.919 21.121 271.019 21.5962C272.119 22.0713 273.104 22.7798 273.909 23.6733L276.606 21.0896C274.988 18.7099 271.615 16.9762 267.331 16.9762C265.729 16.9141 264.132 17.1864 262.639 17.776C261.147 18.3657 259.791 19.2599 258.657 20.4027C257.524 21.5454 256.636 22.912 256.052 24.4167C255.467 25.9214 255.197 27.5317 255.258 29.1465C255.258 36.5236 259.98 41.317 267.399 41.317ZM297.731 37.1696H283.937V30.8464H296.518V27.1069H283.937V21.1237H297.395V17.2481H279.857V41.0449H297.731V37.1696ZM305.676 21.1237H314.935V17.2481H301.593V41.0449H305.676V21.1237ZM338.905 29.2363C338.901 32.4621 337.628 35.5548 335.364 37.8348C333.1 40.1148 330.031 41.3955 326.831 41.3955C323.631 41.3955 320.561 40.1148 318.297 37.8348C316.033 35.5548 314.76 32.4621 314.756 29.2363C314.76 26.0104 316.033 22.9177 318.297 20.6377C320.561 18.3577 323.631 17.0771 326.831 17.0771C330.031 17.0771 333.1 18.3577 335.364 20.6377C337.628 22.9177 338.901 26.0104 338.905 29.2363ZM334.655 29.2363C334.699 28.1725 334.53 27.1107 334.157 26.1147C333.783 25.1186 333.214 24.2089 332.483 23.4404C331.753 22.6719 330.874 22.0603 329.903 21.6425C328.931 21.2248 327.886 21.0094 326.831 21.0094C325.774 21.0094 324.729 21.2248 323.757 21.6425C322.786 22.0603 321.907 22.6719 321.177 23.4404C320.446 24.2089 319.877 25.1186 319.504 26.1147C319.13 27.1107 318.961 28.1725 319.005 29.2363C318.964 30.2994 319.135 31.3602 319.509 32.3552C319.883 33.3502 320.452 34.259 321.182 35.027C321.913 35.7951 322.789 36.4067 323.76 36.8254C324.73 37.2439 325.775 37.4609 326.831 37.4632C327.891 37.478 328.942 37.2727 329.921 36.8601C330.899 36.4473 331.782 35.8362 332.516 35.0644C333.251 34.2928 333.819 33.3771 334.187 32.3745C334.554 31.3717 334.714 30.3037 334.655 29.2363ZM360.529 37.2931H363.396V45.3161H359.449V41.1346H342.62V45.3161H338.675V37.293H341.204C342.755 34.9474 343.835 31.3778 343.835 20.8053V17.3378H360.529V37.2931ZM356.448 21.1793H347.713V22.6751C347.713 30.0521 346.937 34.5055 345.453 37.293H356.448V21.1793ZM382.557 27.1625H370.18V17.3378H366.099V41.1346H370.18V31.0378H382.557V41.1346H386.638V17.3378H382.557V27.1625ZM409.943 17.3378V41.1346H405.863V32.7717H400.635L393.991 41.1344H389.101L396.419 32.0577C392.844 31.1398 390.753 28.6583 390.753 25.0887C390.753 20.7713 393.856 17.3377 400.331 17.3377L409.943 17.3378ZM405.863 21.1793H400.027C396.419 21.1793 395.002 22.7771 395.002 25.0887C395.002 27.1625 396.757 28.7942 399.623 28.9302H405.863V21.1793Z" fill="white"/>
</g>
<g clip-path="url(#clip1_356_30)">
<path d="M-43.1078 70.0807H-48.5606V77.8102H-52.6584V55.2658H-43.074C-35.0812 55.2658 -33.2185 59.0984 -33.2185 62.6733C-33.2185 66.377 -35.7247 70.0807 -43.1078 70.0807ZM-37.4857 62.6412C-37.4857 60.4834 -38.9081 58.9053 -42.9384 58.9053H-48.5605V66.4414H-43.1755C-39.1792 66.4414 -37.4857 64.9599 -37.4857 62.6412ZM-31.3882 66.5381C-31.3882 63.4802 -30.1109 60.5475 -27.8371 58.3853C-25.5633 56.223 -22.4794 55.0083 -19.2637 55.0083C-16.048 55.0083 -12.9641 56.223 -10.6903 58.3853C-8.41656 60.5475 -7.13913 63.4802 -7.13913 66.5381C-7.13913 69.596 -8.41656 72.5287 -10.6903 74.6909C-12.9641 76.8531 -16.048 78.0679 -19.2637 78.0679C-22.4794 78.0679 -25.5633 76.8531 -27.8371 74.6909C-30.1109 72.5287 -31.3882 69.596 -31.3882 66.5381ZM-27.1208 66.5381C-27.1634 67.5453 -26.9916 68.5504 -26.6161 69.493C-26.2406 70.4357 -25.669 71.2966 -24.9355 72.0243C-24.2019 72.752 -23.3215 73.3314 -22.3468 73.728C-21.3722 74.1245 -20.3236 74.3299 -19.2636 74.332C-18.1987 74.346 -17.1422 74.1515 -16.1597 73.7606C-15.1772 73.3696 -14.2899 72.7906 -13.553 72.0596C-12.8159 71.3286 -12.245 70.4611 -11.8757 69.5111C-11.5064 68.5612 -11.3466 67.5492 -11.4063 66.5381C-11.3615 65.5304 -11.5316 64.5244 -11.9064 63.5808C-12.281 62.6372 -12.8526 61.7754 -13.5865 61.0473C-14.3206 60.3191 -15.2019 59.7397 -16.1775 59.3439C-17.1531 58.9481 -18.2029 58.7441 -19.2636 58.7441C-20.3243 58.7441 -21.374 58.9481 -22.3496 59.3439C-23.3252 59.7397 -24.2065 60.3191 -24.9405 61.0473C-25.6745 61.7754 -26.2461 62.6372 -26.6208 63.5808C-26.9955 64.5244 -27.1656 65.5304 -27.1208 66.5381ZM7.29596 78.0678C9.13305 78.1428 10.9624 77.8025 12.6344 77.0747C14.3075 76.3468 15.7734 75.2524 16.9146 73.8811L14.5091 71.3689C13.6681 72.3273 12.61 73.0919 11.4133 73.605C10.2167 74.1182 8.91366 74.3668 7.60067 74.332C6.50706 74.3917 5.41123 74.2312 4.38742 73.861C3.36251 73.4909 2.43178 72.9194 1.65507 72.1839C0.877905 71.4484 0.273149 70.5654 -0.120417 69.5926C-0.513873 68.6197 -0.687166 67.5789 -0.628995 66.5381C-0.628995 61.836 2.55477 58.7442 7.43114 58.7442C8.63333 58.7163 9.82667 58.9348 10.9314 59.385C12.036 59.8352 13.0255 60.5063 13.8321 61.3528L16.5423 58.9052C14.9158 56.6507 11.5297 55.0083 7.22837 55.0083C5.61954 54.9494 4.01514 55.2074 2.51599 55.766C1.01718 56.3246 -0.344347 57.1717 -1.48272 58.2544C-2.6212 59.337 -3.51205 60.6316 -4.09941 62.0571C-4.68688 63.4826 -4.95811 65.0082 -4.89617 66.5381C-4.89617 73.5268 -0.155101 78.0678 7.29596 78.0678ZM39.4705 73.8811L37.0661 71.3689C36.2251 72.3272 35.1669 73.0917 33.9703 73.6049C32.7736 74.1181 31.4695 74.3667 30.1576 74.332C29.064 74.3917 27.9682 74.2312 26.9433 73.861C25.9195 73.4909 24.9876 72.9194 24.2109 72.1839C23.4342 71.4484 22.8303 70.5654 22.4359 69.5926C22.0425 68.6197 21.8697 67.5789 21.9273 66.5381C21.9273 61.836 25.1117 58.7442 29.9881 58.7442C31.1892 58.7164 32.3836 58.935 33.4872 59.3851C34.5919 59.8353 35.5813 60.5064 36.3891 61.3528L39.0993 58.9052C37.4727 56.6507 34.0855 55.0083 29.7853 55.0083C28.1765 54.9494 26.5721 55.2074 25.0729 55.766C23.5738 56.3246 22.212 57.1717 21.0741 58.2544C19.9351 59.337 19.0442 60.6316 18.457 62.0571C17.8697 63.4826 17.5983 65.0082 17.6603 66.5381C17.6603 73.5268 22.4015 78.0679 29.8529 78.0679C31.69 78.1429 33.5193 77.8026 35.1913 77.0748C36.8633 76.347 38.3292 75.2525 39.4705 73.8811ZM58.8219 62.1902V77.8102H62.9205V55.2658H59.4657L46.4609 70.8858V55.2658H42.3624V77.8102H45.7828L58.8219 62.1902ZM76.9778 69.8875L70.3054 77.8102H65.3947L72.7441 69.2111C69.1542 68.3417 67.0545 65.9906 67.0545 62.6089C67.0545 58.5187 70.1702 55.266 76.672 55.266H86.325V77.8102H82.2276V69.8875H76.9778ZM75.9618 66.2481H82.2276V58.9052H76.3684C72.7441 58.9052 71.3214 60.4189 71.3214 62.6088C71.3214 64.5735 73.0832 66.1193 75.9618 66.2481ZM113.987 78.0679C115.824 78.143 117.654 77.8027 119.326 77.0748C120.998 76.347 122.464 75.2525 123.605 73.8811L121.201 71.3689C120.36 72.3272 119.301 73.0917 118.104 73.6049C116.907 74.1181 115.604 74.3667 114.292 74.3319C113.198 74.3916 112.102 74.2311 111.078 73.8609C110.053 73.4908 109.122 72.9193 108.346 72.1838C107.569 71.4484 106.964 70.5653 106.571 69.5925C106.177 68.6197 106.003 67.5789 106.062 66.538C106.062 61.8359 109.245 58.7441 114.123 58.7441C115.324 58.7163 116.517 58.9349 117.622 59.385C118.727 59.8352 119.716 60.5063 120.524 61.3528L123.233 58.9052C121.608 56.6507 118.22 55.0082 113.919 55.0082C112.31 54.9494 110.706 55.2073 109.207 55.7659C107.709 56.3246 106.347 57.1718 105.208 58.2544C104.07 59.337 103.179 60.6316 102.592 62.0571C102.005 63.4826 101.733 65.0082 101.795 66.538C101.795 73.5268 106.536 78.0679 113.987 78.0679ZM144.447 74.1388H130.595V68.1484H143.228V64.6057H130.595V58.9374H144.109V55.2658H126.497V77.8102H144.447V74.1388ZM152.425 58.9374H161.723V55.2658H148.325V77.8102H152.425V58.9374ZM185.794 66.623C185.79 69.6791 184.512 72.609 182.238 74.769C179.964 76.929 176.883 78.1423 173.669 78.1423C170.455 78.1423 167.373 76.929 165.099 74.769C162.826 72.609 161.547 69.6791 161.544 66.623C161.547 63.5669 162.826 60.637 165.099 58.477C167.373 56.317 170.455 55.1038 173.669 55.1038C176.883 55.1038 179.964 56.317 182.238 58.477C184.512 60.637 185.79 63.5669 185.794 66.623ZM181.526 66.623C181.57 65.6152 181.4 64.6093 181.026 63.6657C180.65 62.7221 180.079 61.8603 179.345 61.1322C178.612 60.4041 177.73 59.8247 176.755 59.429C175.778 59.0332 174.729 58.8291 173.669 58.8291C172.607 58.8291 171.558 59.0332 170.582 59.429C169.607 59.8247 168.725 60.4041 167.991 61.1322C167.258 61.8603 166.686 62.7221 166.311 63.6657C165.936 64.6093 165.766 65.6152 165.811 66.623C165.769 67.6302 165.94 68.6352 166.316 69.5778C166.692 70.5204 167.263 71.3814 167.997 72.109C168.73 72.8367 169.61 73.4161 170.585 73.8127C171.559 74.2092 172.608 74.4147 173.669 74.417C174.733 74.431 175.789 74.2365 176.772 73.8456C177.754 73.4545 178.641 72.8756 179.378 72.1444C180.116 71.4134 180.687 70.5459 181.056 69.596C181.425 68.6461 181.585 67.6342 181.526 66.623ZM207.509 74.2558H210.388V81.8565H206.425V77.8951H189.524V81.8565H185.563V74.2557H188.103C189.661 72.0336 190.744 68.6519 190.744 58.6358V55.3508H207.509V74.2558ZM203.411 58.9901H194.639V60.4072C194.639 67.3959 193.86 71.615 192.37 74.2557H203.411V58.9901ZM229.63 64.6584H217.2V55.3508H213.103V77.8951H217.2V68.3298H229.63V77.8951H233.727V55.3508H229.63V64.6584ZM257.131 55.3508V77.8951H253.034V69.9724H247.784L241.112 77.895H236.202L243.55 69.296C239.96 68.4264 237.86 66.0755 237.86 62.6937C237.86 58.6036 240.976 55.3507 247.479 55.3507L257.131 55.3508ZM253.034 58.9901H247.173C243.55 58.9901 242.127 60.5038 242.127 62.6937C242.127 64.6584 243.889 66.2042 246.768 66.3331H253.034V58.9901Z" fill="white"/>
</g>
<defs>
<clipPath id="clip0_356_30">
<rect width="139.024" height="29.2683" fill="white" transform="translate(101 16)"/>
</clipPath>
<clipPath id="clip1_356_30">
<rect width="156.585" height="26.3415" fill="white" transform="translate(101 55)"/>
</clipPath>
</defs>
</svg>
