<svg width="50" height="44" viewBox="0 0 50 44" fill="none" xmlns="http://www.w3.org/2000/svg">
<g clip-path="url(#clip0_103_147)">
<path d="M4.87805 0C2.19948 0 0 2.19948 0 4.87805V39.6341C0 41.9752 1.92726 43.9024 4.26829 43.9024H45.7317C48.0727 43.9024 50 41.9752 50 39.6341V11.5854C50 9.24434 48.0727 7.31707 45.7317 7.31707H42.6829V1.21951C42.6829 0.577091 42.1058 0 41.4634 0H4.87805ZM4.87805 2.43902H40.2439V7.31707H4.87805C3.5061 7.31707 2.43902 6.25 2.43902 4.87805C2.43902 3.5061 3.5061 2.43902 4.87805 2.43902ZM2.43902 9.0919C3.15767 9.50566 3.99608 9.7561 4.87805 9.7561C18.6084 9.74521 33.9286 9.7561 45.7317 9.7561C46.7661 9.7561 47.561 10.551 47.561 11.5854V18.9024H29.878C28.2121 18.9024 26.8293 20.2853 26.8293 21.9512V29.2683C26.8293 30.9342 28.2121 32.3171 29.878 32.3171H47.561V39.6341C47.561 40.6686 46.7661 41.4634 45.7317 41.4634H4.26829C3.23389 41.4634 2.43902 40.6686 2.43902 39.6341V9.0919ZM29.878 21.3415H47.561V29.878H29.878C29.5187 29.878 29.2683 29.6276 29.2683 29.2683V21.9512C29.2683 21.5919 29.5187 21.3415 29.878 21.3415ZM35.9756 23.1707C34.6254 23.1707 33.5366 24.2596 33.5366 25.6098C33.5366 26.9599 34.6254 28.0488 35.9756 28.0488C37.3258 28.0488 38.4146 26.9599 38.4146 25.6098C38.4146 24.2596 37.3258 23.1707 35.9756 23.1707Z" fill="#FCFCFC"/>
</g>
<defs>
<clipPath id="clip0_103_147">
<rect width="50" height="43.9024" fill="white"/>
</clipPath>
</defs>
</svg>
