<svg width="32" height="24" viewBox="0 0 32 24" fill="none" xmlns="http://www.w3.org/2000/svg">
<path d="M31.9248 11.3365C31.7391 10.8748 27.2603 0 16.0004 0C4.74056 0 0.261977 10.8745 0.0760729 11.3365C-0.0253576 11.5915 -0.0253576 11.8741 0.0760729 12.1291C0.261788 12.592 4.74056 23.4668 16.0004 23.4668C27.2603 23.4668 31.7389 12.5924 31.9248 12.1303C32.0251 11.8753 32.0251 11.5915 31.9248 11.3366V11.3365ZM16.0004 21.3333C7.21845 21.3333 3.10906 13.6289 2.23378 11.7376C3.10857 9.88803 7.2983 2.13333 16.0004 2.13333C24.7824 2.13333 28.8918 9.83769 29.7671 11.729C28.8923 13.5786 24.7026 21.3333 16.0004 21.3333Z" fill="white"/>
<path d="M16.0008 4.2666C11.8847 4.2666 8.53418 7.61586 8.53418 11.7332C8.53418 15.8506 11.8847 19.1999 16.0008 19.1999C20.117 19.1999 23.4675 15.8506 23.4675 11.7332C23.4675 7.61586 20.117 4.2666 16.0008 4.2666ZM16.0008 17.0666C13.0601 17.0666 10.6675 14.6739 10.6675 11.7332C10.6675 8.79255 13.0601 6.39993 16.0008 6.39993C18.9415 6.39993 21.3341 8.79255 21.3341 11.7332C21.3341 14.6739 18.9415 17.0666 16.0008 17.0666Z" fill="white"/>
</svg>
