<svg width="50" height="50" viewBox="0 0 50 50" fill="none" xmlns="http://www.w3.org/2000/svg">
<path d="M26.8184 0.0657445C19.7919 -0.433475 13.0939 1.92304 7.96317 6.70246C2.90279 11.4168 0 18.0851 0 24.9981C0 30.887 2.10214 36.6698 5.91897 41.1581C6.59937 41.9584 7.29792 42.7479 8.0739 43.4576C8.65909 43.9931 9.6298 45.0027 10.4879 45.0027C10.9967 45.0027 11.4092 44.5906 11.4092 44.0814V29.4431C11.4092 27.5642 12.9377 26.0349 14.817 26.0349H17.5432C19.121 26.0349 20.4603 27.1174 20.8389 28.6069C19.879 29.5518 19.2815 30.8644 19.2815 32.315C19.2815 33.8226 19.9299 35.1789 20.9576 36.1306V36.1838C19.7745 36.9895 19.0595 38.3171 19.0595 39.7709V48.4469C19.0595 48.9557 19.4716 49.3682 19.9808 49.3682C20.4896 49.3682 20.9021 48.9561 20.9021 48.4469V48.3794L20.9014 39.772C20.9014 38.8202 21.4341 37.9617 22.2953 37.5292C22.5208 37.4147 22.7583 37.3445 23.0015 37.3036C23.4734 37.4447 23.9718 37.523 24.4892 37.523C25.0076 37.523 25.5072 37.4444 25.9795 37.3029C27.1788 37.5018 28.0789 38.5542 28.0789 39.772V48.8162C28.0789 49.3251 28.491 49.7376 29.0002 49.7376C29.5091 49.7376 29.9216 49.3255 29.9216 48.8162L29.922 39.772C29.922 38.2933 29.1564 36.9536 27.9848 36.1638C29.0334 35.2105 29.6965 33.8412 29.6965 32.3158C29.6965 30.3552 28.6063 28.6451 27.0007 27.757V25.3904C27.0007 23.0782 28.8819 21.1962 31.1941 21.1962H34.4057C36.7148 21.1962 38.593 23.0747 38.593 25.3843V41.7476C38.593 42.5815 39.0695 43.3078 39.8359 43.6431C40.5984 43.977 41.4507 43.8343 42.064 43.268C47.599 38.1001 50.4686 30.788 49.9374 23.2079C49.0816 10.8897 39.143 0.940091 26.8189 0.0657219L26.8184 0.0657445ZM16.1799 23.9125C13.7046 23.9125 11.69 21.8983 11.69 19.4227C11.69 16.9474 13.7042 14.9336 16.1799 14.9336C18.6551 14.9336 20.669 16.9474 20.669 19.4227C20.6693 21.8987 18.6555 23.9125 16.1799 23.9125ZM27.8536 32.3167C27.8536 34.1722 26.3436 35.6818 24.4886 35.6818C22.6327 35.6818 21.1235 34.1718 21.1235 32.3167C21.1235 30.4609 22.6335 28.9517 24.4886 28.9517C26.3436 28.9517 27.8536 30.4617 27.8536 32.3167ZM32.7964 19.1311C29.7857 19.1311 27.3359 16.6813 27.3359 13.6706C27.3359 10.6598 29.7857 8.21001 32.7964 8.21001C35.8072 8.21001 38.257 10.6598 38.257 13.6706C38.257 16.6813 35.8076 19.1311 32.7964 19.1311ZM40.8097 41.92C40.7407 41.9836 40.6621 41.9952 40.5731 41.957C40.5094 41.9292 40.4339 41.8707 40.4339 41.7492V25.3859C40.4339 22.8813 38.8984 20.7298 36.72 19.8201C38.7481 18.5214 40.0988 16.2535 40.0988 13.6707C40.0988 9.64418 36.8229 6.36786 32.796 6.36786C28.7698 6.36825 25.4935 9.64379 25.4935 13.6711C25.4935 16.2536 26.8447 18.5222 28.8736 19.8209C26.6932 20.7318 25.157 22.8852 25.157 25.3921V27.1577C24.9376 27.1296 24.7156 27.1095 24.4882 27.1095C23.758 27.1095 23.0633 27.2622 22.4323 27.534C21.9316 26.2545 20.9497 25.2322 19.7188 24.6708C21.4023 23.5317 22.5114 21.6042 22.5114 19.4231C22.5114 15.9316 19.6714 13.0913 16.1796 13.0913C12.6885 13.0913 9.84781 15.9312 9.84781 19.4231C9.84781 21.6049 10.9577 23.5332 12.6418 24.672C10.8307 25.5008 9.56675 27.3258 9.56675 29.4448V42.2623C4.64206 37.8665 1.8429 31.6485 1.8429 24.999C1.8429 18.5947 4.53133 12.4173 9.21977 8.05142C13.9725 3.62401 20.1819 1.44283 26.6884 1.90429C38.1026 2.71499 47.3081 11.9299 48.0996 23.3392C48.5915 30.3637 45.9331 37.1376 40.8095 41.922L40.8097 41.92Z" fill="#708879"/>
</svg>
