<svg width="50" height="50" viewBox="0 0 50 50" fill="none" xmlns="http://www.w3.org/2000/svg">
<path d="M41.5879 14.8582L38.0103 14.9442V13.8483C39.0954 13.655 40.1053 13.1285 40.9218 12.3335C41.9854 11.2807 42.5763 9.88401 42.5763 8.41216V0.988434C42.5763 0.451262 42.1465 0.021524 41.6094 0.021524H0.96691C0.429738 3.71542e-05 0 0.429775 0 0.966947V49.0331C0 49.5703 0.429738 50 0.96691 50H37.0434C37.5806 50 38.0103 49.5703 38.0103 49.0331V43.8655C39.0954 43.6721 40.1053 43.1457 40.9218 42.3507C41.9854 41.2978 42.5763 39.9012 42.5763 38.4293V30.8982C42.5763 30.6403 42.4688 30.3932 42.2862 30.2106C42.1036 30.028 41.8457 29.9313 41.5879 29.9313L38.0103 30.0172V28.814C39.0954 28.6206 40.1053 28.0942 40.9218 27.2991C41.9854 26.2463 42.5763 24.8496 42.5763 23.3778V15.8466C42.5763 15.5888 42.4688 15.3417 42.2862 15.159C42.0928 14.9442 41.8457 14.8475 41.5879 14.8582ZM1.93382 48.0662V1.93386H40.6425V8.39067C40.6425 10.3352 38.9987 11.9897 37.0434 11.9897C36.5062 11.9897 36.0765 12.4195 36.0765 12.9566V15.9218C36.0765 15.9218 36.0765 15.9218 36.0765 15.9326V48.0662H1.93382ZM40.6425 31.8758V38.4186C40.6425 40.0301 39.5144 41.4375 38.0103 41.878V31.9403L40.6425 31.8758ZM40.6425 23.3563C40.6425 24.9678 39.5144 26.3752 38.0103 26.8157V16.878L40.6425 16.8135V23.3563Z" fill="#708879"/>
<path d="M14.7615 15.621C17.4044 15.621 19.5531 13.4723 19.5531 10.8294C19.5531 8.18654 17.4044 6.03785 14.7615 6.03785C12.1186 6.03785 9.96992 8.18654 9.96992 10.8294C9.96992 13.4723 12.1186 15.621 14.7615 15.621ZM14.7615 7.98242C16.33 7.98242 17.6193 9.26089 17.6193 10.8402C17.6193 12.4195 16.3408 13.6979 14.7615 13.6979C13.193 13.6979 11.9037 12.4195 11.9037 10.8402C11.9037 9.26089 13.1822 7.98242 14.7615 7.98242Z" fill="#708879"/>
<path d="M6.90804 25.9132H10.7327C10.7542 25.9132 10.7649 25.9132 10.7864 25.9132C10.8079 25.9132 10.8187 25.9132 10.8401 25.9132H22.4108C22.948 25.9132 23.3777 25.4835 23.3777 24.9463V19.4242C23.3777 16.7813 21.2291 14.6326 18.5862 14.6326C18.3283 14.6326 18.0812 14.7293 17.8986 14.9119C17.4581 15.3524 16.9532 15.6855 16.4697 15.8466C16.4267 15.8574 16.3838 15.8789 16.3408 15.9003C15.911 16.1152 15.3416 16.2226 14.6541 16.2226C13.9987 16.2226 13.5045 16.1259 12.9351 15.8896C12.3657 15.5995 11.8178 15.3309 11.4095 14.9119C11.2269 14.7293 10.9798 14.6326 10.722 14.6326C8.07907 14.6326 5.93038 16.7813 5.93038 19.4242V24.9463C5.94113 25.4835 6.37086 25.9132 6.90804 25.9132ZM7.87495 19.4349C7.87495 17.9523 8.94929 16.7706 10.3782 16.5987C10.9368 17.0606 11.5492 17.3722 12.0971 17.6408C12.1186 17.6515 12.1294 17.6623 12.1508 17.6623C12.9781 18.0168 13.7194 18.1672 14.6541 18.1672C15.6317 18.1672 16.4482 18.0061 17.1465 17.673C17.7589 17.4581 18.382 17.0821 18.9407 16.5987C20.3696 16.7706 21.4332 17.9523 21.4332 19.4349V23.9902H19.5531V21.4547C19.5531 20.9175 19.1233 20.4878 18.5862 20.4878C18.049 20.4878 17.6193 20.9175 17.6193 21.4547V23.9902H11.807V21.4547C11.807 20.9283 11.3881 20.4985 10.8509 20.4878H10.8401C10.3137 20.4878 9.89472 20.9068 9.87323 21.4225L9.79802 23.9902H7.87495V19.4349Z" fill="#708879"/>
<path d="M31.1023 42.1251H7.01547C6.4783 42.1251 6.04856 42.5548 6.04856 43.092C6.04856 43.6292 6.4783 44.0589 7.01547 44.0589H31.1023C31.6395 44.0589 32.0692 43.6292 32.0692 43.092C32.0692 42.5548 31.6395 42.1251 31.1023 42.1251Z" fill="#708879"/>
<path d="M31.1023 37.5591H7.01547C6.4783 37.5591 6.04856 37.9889 6.04856 38.526C6.04856 39.0632 6.4783 39.4929 7.01547 39.4929H31.1023C31.6395 39.4929 32.0692 39.0632 32.0692 38.526C32.0692 37.9889 31.6395 37.5591 31.1023 37.5591Z" fill="#708879"/>
<path d="M31.1023 33.0039H7.01547C6.4783 33.0039 6.04856 33.4336 6.04856 33.9708C6.04856 34.508 6.4783 34.9377 7.01547 34.9377H31.1023C31.6395 34.9377 32.0692 34.508 32.0692 33.9708C32.0692 33.4336 31.6395 33.0039 31.1023 33.0039Z" fill="#708879"/>
<path d="M31.1023 28.5454H7.01547C6.4783 28.5454 6.04856 28.9751 6.04856 29.5123C6.04856 30.0495 6.4783 30.4792 7.01547 30.4792H31.1023C31.6395 30.4792 32.0692 30.0495 32.0692 29.5123C32.0692 28.9751 31.6395 28.5454 31.1023 28.5454Z" fill="#708879"/>
</svg>
