<svg width="160" height="50" viewBox="0 0 160 50" fill="none" xmlns="http://www.w3.org/2000/svg">
<g clip-path="url(#clip0_344_42)">
<path d="M7.83691 8.65922L9.51621 14.8045L12.4083 13.2216L7.83691 8.65922Z" fill="#9C1006"/>
<path d="M35.7316 34.8231L34.0523 28.6778L31.1602 30.2607L35.7316 34.8231Z" fill="#9C1006"/>
<path d="M28.7349 33.9851L34.8923 35.6611L30.3209 31.0987L28.7349 33.9851Z" fill="#9C1006"/>
<path d="M14.927 9.49721L8.67627 7.82123L13.2477 12.3836L14.927 9.49721Z" fill="#9C1006"/>
<path d="M34.8923 7.82123L28.7349 9.49721L30.3209 12.3836L34.8923 7.82123Z" fill="#9C1006"/>
<path d="M9.51621 28.6778L7.83691 34.8231L12.4083 30.2607L9.51621 28.6778Z" fill="#9C1006"/>
<path d="M34.0523 14.8976L35.7316 8.65922L31.1602 13.2216L34.0523 14.8976Z" fill="#9C1006"/>
<path d="M8.67627 35.6611L14.8337 33.9851L13.2477 31.0987L8.67627 35.6611Z" fill="#9C1006"/>
<path d="M9.34918 26.974C9.33111 26.9605 9.31214 26.9482 9.2924 26.9372L1.92943 22.8464H19.1294L12.9718 28.9918L10.0341 27.4002L10.0192 27.3925L9.6863 27.2264L9.34918 26.974Z" stroke="#9C1006" stroke-linejoin="round"/>
<path d="M27.448 10.0005C27.453 10.0107 27.4585 10.0206 27.4643 10.0304L29.1333 12.8622L22.8906 19.0925V1.89226L27.0806 9.26729L27.2614 9.62806L27.448 10.0005Z" stroke="#9C1006" stroke-linejoin="round"/>
<path d="M33.8463 16.3221C33.8703 16.34 33.8959 16.3558 33.9227 16.3692L34.2859 16.5505L41.6392 20.6359H24.4393L30.5969 14.4905L33.5024 16.0647L33.8463 16.3221Z" stroke="#9C1006" stroke-linejoin="round"/>
<path d="M10.0192 16.0898C10.0293 16.0848 10.0393 16.0794 10.0491 16.0736L12.8881 14.407L19.1294 20.6359H1.89879L9.28447 16.4565L9.64599 16.2761L10.0192 16.0898Z" stroke="#9C1006" stroke-linejoin="round"/>
<path d="M33.5495 27.3925C33.5393 27.3975 33.5294 27.4029 33.5196 27.4087L30.6806 29.0754L24.4393 22.8464H41.6699L34.2842 27.0258L33.9227 27.2062L33.5495 27.3925Z" stroke="#9C1006" stroke-linejoin="round"/>
<path d="M27.0288 34.1503C27.0152 34.1684 27.0029 34.1873 26.9919 34.2071L22.8906 41.5595V24.379L29.1356 30.5327L27.4611 33.4573C27.4565 33.4654 27.4521 33.4735 27.448 33.4818L27.2816 33.8139L27.0288 34.1503Z" stroke="#9C1006" stroke-linejoin="round"/>
<path d="M16.3531 9.70448C16.3711 9.68048 16.3869 9.6549 16.4004 9.62806L16.582 9.26553L20.6778 1.92276V19.0925L14.5188 12.9457L16.0952 10.0476L16.3531 9.70448Z" stroke="#9C1006" stroke-linejoin="round"/>
<path d="M16.1205 33.4818C16.1155 33.4717 16.11 33.4617 16.1043 33.4519L14.4352 30.6201L20.6779 24.3898V41.59L16.4879 34.215L16.3071 33.8542L15.8601 34.0782L16.3071 33.8542L16.1205 33.4818Z" stroke="#9C1006" stroke-linejoin="round"/>
<path d="M54.2975 25.9777V12.9423C54.2975 10.149 53.6444 9.77654 51.6853 9.77654H51.1255V10.149C51.4054 10.2421 51.8718 10.8007 51.8718 13.2216V22.067V25.9777C51.8718 28.9572 52.4316 29.4227 54.4841 29.4227H55.2304V29.0503C54.9506 28.9572 54.2975 28.3985 54.2975 25.9777ZM70.9039 16.946C69.5045 16.946 67.9185 17.5978 66.9855 18.8082C66.3325 17.4115 65.1197 16.946 63.8135 16.946C62.2275 16.946 61.108 17.5978 60.4549 18.2495H60.3616C60.0818 17.5978 59.4287 17.2253 58.1226 17.2253H55.7902V17.6909H56.35C57.936 17.6909 58.2159 18.7151 58.2159 20.2979V29.4227H60.5482V19.5531C61.2013 18.8082 62.1342 18.1564 63.1605 18.1564C64.4666 18.1564 65.213 19.0875 65.213 21.6946V29.5158H67.5453V21.6946C67.5453 21.1359 67.5453 20.2979 67.452 19.8324C68.0118 19.0875 69.1313 18.1564 70.1576 18.1564C71.4637 18.1564 72.21 19.0875 72.21 21.6946V29.5158H74.5424V21.6946C74.5424 17.8771 72.8631 16.946 70.9039 16.946ZM83.2188 16.946C81.2596 16.946 80.2334 17.6909 79.6736 18.3426H79.5803C79.3004 17.5978 78.6474 17.1322 77.3412 17.1322H75.0089V17.6909H75.5686C77.1546 17.6909 77.4345 18.7151 77.4345 20.2979V34.4506H79.7669V28.9572C80.5132 29.3296 81.6328 29.702 83.0322 29.702C86.3908 29.702 87.9768 26.8156 87.9768 23.2775C87.8835 19.8324 86.2975 16.946 83.2188 16.946ZM82.1925 28.6778C81.4462 28.6778 80.5132 28.3054 79.6736 27.933V19.5531C80.2334 18.8082 80.9797 17.9702 82.3791 17.9702C84.4316 17.9702 85.3646 20.2979 85.3646 23.2775C85.4579 26.3501 84.5249 28.6778 82.1925 28.6778ZM97.1197 17.3184C96.7465 17.0391 96.0934 16.946 95.5337 16.946C93.9476 16.946 92.9214 17.6909 92.3616 18.3426V18.3426C92.0818 17.5978 91.4287 17.1322 90.1226 17.1322H88.0701V17.6909H88.35C89.936 17.6909 90.2159 18.7151 90.2159 20.2979V29.4227H92.5482V19.8324C93.108 19.0875 93.9476 18.5289 95.0672 18.5289C96.0001 18.5289 96.7465 18.8082 97.1197 19.2737L98.1459 18.5289C97.7727 17.9702 97.5861 17.5978 97.1197 17.3184ZM103.277 16.946C100.012 16.946 98.1459 19.8324 98.1459 23.3706C98.1459 26.9088 100.012 29.7952 103.65 29.7952C105.609 29.7952 107.195 29.0503 108.315 27.095L107.755 26.7225C106.822 28.0261 105.796 28.7709 104.117 28.7709C101.878 28.7709 100.572 26.7225 100.572 23.8361H108.315L108.408 22.8119C108.502 18.9944 106.822 16.946 103.277 16.946ZM100.945 22.7188C100.945 20.1117 102.158 18.1564 103.65 18.1564C105.516 18.1564 106.356 19.8324 106.356 22.7188H100.945ZM115.685 22.7188L114.099 22.067C112.793 21.5084 112.047 20.7635 112.047 19.8324C112.047 18.8082 112.98 17.9702 114.659 17.9702C116.711 17.9702 117.924 18.9944 118.204 20.6704H118.764C118.764 19.3669 118.764 18.622 118.111 17.9702C117.458 17.3184 116.152 16.946 114.193 16.946C111.674 16.946 109.901 18.1564 109.901 20.2979C109.901 21.9739 111.114 22.9981 113.073 23.8361L114.659 24.4879C116.245 25.1397 116.991 25.7914 116.991 26.8156C116.991 27.8398 116.058 28.6778 114.099 28.6778C111.86 28.6778 110.741 27.6536 110.461 25.9777H109.901C109.901 27.2812 109.901 28.0261 110.554 28.6778C111.207 29.3296 112.513 29.702 114.566 29.702C117.178 29.702 119.137 28.4916 119.137 26.3501C119.137 24.4879 117.924 23.5568 115.685 22.7188ZM126.321 22.7188L124.735 22.067C123.429 21.5084 122.682 20.7635 122.682 19.8324C122.682 18.8082 123.615 17.9702 125.295 17.9702C127.347 17.9702 128.56 18.9944 128.84 20.6704H129.4C129.4 19.3669 129.4 18.622 128.746 17.9702C128.093 17.3184 126.787 16.946 124.828 16.946C122.309 16.946 120.537 18.1564 120.537 20.2979C120.537 21.9739 121.749 22.9981 123.709 23.8361L125.295 24.4879C126.881 25.1397 127.627 25.7914 127.627 26.8156C127.627 27.8398 126.694 28.6778 124.735 28.6778C122.496 28.6778 121.376 27.6536 121.096 25.9777H120.537C120.537 27.2812 120.537 28.0261 121.19 28.6778C121.843 29.3296 123.149 29.702 125.201 29.702C127.814 29.702 129.773 28.4916 129.773 26.3501C129.773 24.4879 128.56 23.5568 126.321 22.7188ZM133.131 15.6425C133.878 15.6425 134.344 15.1769 134.344 14.432C134.344 13.5009 133.691 12.7561 132.851 12.7561C132.105 12.7561 131.639 13.2216 131.639 13.9665C131.639 14.8976 132.292 15.6425 133.131 15.6425ZM132.292 17.2253H129.959V17.6909H130.519C132.105 17.6909 132.385 18.7151 132.385 20.2979V29.4227H134.717V20.2979C134.624 17.6909 134.064 17.2253 132.292 17.2253ZM142.181 16.946C138.542 16.946 136.397 19.8324 136.397 23.3706C136.397 26.9088 138.449 29.7952 142.181 29.7952C145.819 29.7952 147.965 26.9088 147.965 23.3706C147.965 19.8324 145.819 16.946 142.181 16.946ZM142.181 28.6778C140.222 28.6778 138.916 26.3501 138.916 23.3706C138.916 20.3911 140.222 18.0633 142.181 18.0633C144.14 18.0633 145.446 20.3911 145.446 23.3706C145.446 26.3501 144.14 28.6778 142.181 28.6778ZM155.615 16.946C154.029 16.946 152.91 17.5978 152.257 18.2495H152.07C151.79 17.5978 151.137 17.2253 149.831 17.2253H147.499V17.6909H148.058C149.644 17.6909 149.924 18.7151 149.924 20.2979V29.4227H152.257V19.5531C152.91 18.8082 153.843 18.1564 154.869 18.1564C156.268 18.1564 157.761 19.0875 157.761 21.6946V29.5158H160.093V21.6946C160 17.8771 157.761 16.946 155.615 16.946Z" fill="#9C1006"/>
<path d="M55.79 40.1304V40.7821H52.4314V43.4823H53.7375C54.2973 43.4823 54.7637 43.5754 55.0436 43.7616C55.3235 43.9479 55.6034 44.1341 55.79 44.3203C55.9766 44.5065 56.0699 44.7858 56.1632 45.0652C56.2565 45.3445 56.2565 45.5307 56.2565 45.6238C56.2565 45.9963 56.1632 46.2756 56.0699 46.5549C55.9766 46.8343 55.79 47.0205 55.6034 47.2067C55.4168 47.3929 55.1369 47.486 54.7637 47.5791C54.4839 47.6723 54.1107 47.6723 53.7375 47.6723H51.7783V40.1304H55.79ZM52.4314 47.0205H53.5509C53.9241 47.0205 54.2973 46.9274 54.4839 46.8343C54.7637 46.7412 54.9503 46.648 55.0436 46.4618C55.1369 46.2756 55.2302 46.1825 55.3235 45.9963C55.4168 45.8101 55.4168 45.6238 55.4168 45.4376C55.4168 45.2514 55.4168 45.0652 55.3235 44.879C55.2302 44.6927 55.1369 44.5065 55.0436 44.4134C54.9503 44.3203 54.6704 44.1341 54.4839 44.041C54.204 43.9479 53.9241 43.9479 53.5509 43.9479H52.4314V47.0205Z" fill="#9C1006"/>
<path d="M59.2418 44.5996C59.2418 44.2272 59.3351 43.9479 59.4284 43.6685C59.5217 43.3892 59.7083 43.1099 59.8949 42.8305C60.0814 42.6443 60.3613 42.4581 60.6412 42.2719C60.9211 42.1788 61.2943 42.0857 61.6675 42.0857C61.854 42.0857 62.1339 42.0857 62.3205 42.1788C62.5071 42.2719 62.787 42.2719 62.9736 42.365C63.1602 42.4581 63.3468 42.5512 63.4401 42.7374C63.6266 42.9237 63.7199 43.1099 63.8132 43.2961C63.9065 43.4823 63.9998 43.7616 64.0931 44.041C64.1864 44.3203 64.1864 44.5996 64.1864 44.879C64.1864 45.3445 64.0931 45.7169 63.9998 46.0894C63.9065 46.4618 63.7199 46.7412 63.4401 47.0205C63.2535 47.2998 62.9736 47.486 62.6004 47.5791C62.2272 47.6723 61.9473 47.7654 61.5742 47.7654C61.1077 47.7654 60.7345 47.6723 60.4546 47.5791C60.1747 47.3929 59.8949 47.2067 59.7083 47.0205C59.5217 46.7412 59.3351 46.4618 59.2418 46.1825C59.1485 45.9032 59.0552 45.5307 59.0552 45.2514H58.2156V47.7654H57.5625V42.2719H58.2156V44.6927H59.2418V44.5996ZM60.0815 45.7169C60.1747 45.9963 60.268 46.1825 60.4546 46.4618C60.6412 46.648 60.8278 46.8343 61.0144 47.0205C61.201 47.2067 61.4809 47.2067 61.854 47.2067C62.1339 47.2067 62.4138 47.1136 62.6937 47.0205C62.8803 46.9274 63.1602 46.7412 63.2535 46.4618C63.4401 46.2756 63.5333 45.9963 63.6266 45.7169C63.7199 45.4376 63.7199 45.1583 63.7199 44.879C63.7199 44.5996 63.7199 44.3203 63.6266 44.041C63.5333 43.7616 63.4401 43.4823 63.2535 43.2961C63.0669 43.1099 62.8803 42.9237 62.6937 42.7374C62.4138 42.6443 62.2272 42.5512 61.854 42.5512C61.5742 42.5512 61.2943 42.6443 61.0144 42.7374C60.7345 42.8305 60.5479 43.0168 60.4546 43.2961C60.268 43.4823 60.1747 43.7616 60.0815 44.041C59.9882 44.3203 59.9882 44.5996 59.9882 44.879C59.9882 45.1583 59.9882 45.4376 60.0815 45.7169Z" fill="#9C1006"/>
<path d="M65.7725 50V43.203V42.1788H66.4255V43.2961C66.4255 43.203 66.5188 43.0168 66.6121 42.9236C66.7054 42.8305 66.7987 42.6443 66.9853 42.5512C67.0786 42.4581 67.2652 42.365 67.4518 42.2719C67.6384 42.1788 67.9182 42.1788 68.1981 42.1788C68.5713 42.1788 68.9445 42.2719 69.2244 42.365C69.5042 42.4581 69.7841 42.6443 69.9707 42.9236C70.1573 43.203 70.3439 43.4823 70.4372 43.8547C70.5305 44.2272 70.6238 44.5996 70.6238 45.0652C70.6238 45.5307 70.5305 45.9963 70.4372 46.3687C70.3439 46.7412 70.1573 47.0205 69.8774 47.2067C69.6908 47.3929 69.4109 47.5791 69.1311 47.6723C68.8512 47.7654 68.5713 47.8585 68.1981 47.8585C67.8249 47.8585 67.4518 47.7654 67.1719 47.5791C66.892 47.3929 66.7054 47.1136 66.5188 46.8343V47.3929V50.1862H65.7725V50ZM66.6121 45.9963C66.7054 46.2756 66.892 46.5549 67.0786 46.7412C67.2652 46.9274 67.4518 47.0205 67.6384 47.1136C67.8249 47.2067 68.0115 47.2067 68.1981 47.2067C68.3847 47.2067 68.5713 47.2067 68.7579 47.1136C68.9445 47.0205 69.1311 46.9274 69.3177 46.7412C69.5042 46.5549 69.5975 46.3687 69.7841 45.9963C69.8774 45.7169 69.9707 45.3445 69.9707 44.879C69.9707 44.4134 69.8774 44.1341 69.7841 43.7616C69.6908 43.4823 69.5042 43.203 69.3177 43.0168C69.1311 42.8305 68.9445 42.7374 68.7579 42.6443C68.5713 42.5512 68.3847 42.5512 68.1981 42.5512C68.0115 42.5512 67.8249 42.5512 67.6384 42.6443C67.4518 42.7374 67.2652 42.8305 67.0786 43.0168C66.892 43.203 66.7987 43.3892 66.6121 43.7616C66.5188 44.041 66.4255 44.4134 66.4255 44.879C66.4255 45.3445 66.4255 45.7169 66.6121 45.9963Z" fill="#9C1006"/>
<path d="M71.65 43.7616C71.7433 43.3892 71.9299 43.1099 72.2097 42.8305C72.3963 42.5512 72.6762 42.365 73.0494 42.2719C73.3293 42.1788 73.7024 42.0857 74.0756 42.0857C74.4488 42.0857 74.822 42.1788 75.1019 42.2719C75.3817 42.365 75.6616 42.6443 75.9415 42.8305C76.1281 43.1099 76.3147 43.3892 76.5013 43.7616C76.5946 44.1341 76.6879 44.5065 76.6879 44.9721C76.6879 45.4376 76.5946 45.8101 76.5013 46.1825C76.408 46.5549 76.2214 46.8343 75.9415 47.1136C75.7549 47.3929 75.475 47.5791 75.1019 47.6723C74.822 47.7654 74.4488 47.8585 74.0756 47.8585C73.7024 47.8585 73.3293 47.7654 73.0494 47.6723C72.7695 47.5791 72.4896 47.2998 72.2097 47.1136C72.0231 46.8343 71.8366 46.5549 71.65 46.1825C71.5567 45.8101 71.4634 45.4376 71.4634 44.9721C71.4634 44.5065 71.4634 44.1341 71.65 43.7616ZM72.2097 45.7169C72.303 45.9963 72.3963 46.1825 72.5829 46.4618C72.7695 46.648 72.9561 46.8343 73.1427 47.0205C73.3293 47.2067 73.6092 47.2067 73.9823 47.2067C74.2622 47.2067 74.5421 47.1136 74.822 47.0205C75.1019 46.9274 75.2885 46.7412 75.3818 46.4618C75.5683 46.2756 75.6616 45.9963 75.7549 45.7169C75.8482 45.4376 75.8482 45.1583 75.8482 44.879C75.8482 44.5996 75.8482 44.3203 75.7549 44.041C75.6616 43.7616 75.5683 43.4823 75.3818 43.2961C75.1952 43.1099 75.0086 42.9237 74.822 42.7374C74.6354 42.5512 74.3555 42.5512 73.9823 42.5512C73.7025 42.5512 73.4226 42.6443 73.1427 42.7374C72.8628 42.8305 72.6762 43.0168 72.5829 43.2961C72.3963 43.4823 72.303 43.7616 72.2097 44.041C72.1164 44.3203 72.1164 44.5996 72.1164 44.879C72.1164 45.1583 72.2097 45.4376 72.2097 45.7169Z" fill="#9C1006"/>
<path d="M84.6182 42.1788V47.6723H83.9651V42.7374H81.073V47.6723H80.4199V42.1788H84.6182Z" fill="#9C1006"/>
<path d="M86.5774 45.1583C86.5774 45.3445 86.5774 45.5307 86.6707 45.8101C86.6707 46.0894 86.764 46.2756 86.9506 46.4618C87.0438 46.648 87.2304 46.8343 87.5103 47.0205C87.7902 47.2067 88.0701 47.2067 88.4433 47.2067C88.7232 47.2067 89.003 47.2067 89.2829 47.1136C89.5628 47.1136 89.8427 46.9274 90.1226 46.8343V47.486C89.8427 47.5791 89.5628 47.6723 89.2829 47.7654C89.003 47.7654 88.7232 47.8585 88.4433 47.8585C87.6969 47.8585 87.0439 47.5791 86.5774 47.1136C86.1109 46.648 85.9243 45.9032 85.9243 44.9721C85.9243 44.5065 86.0176 44.1341 86.1109 43.8547C86.2042 43.4823 86.3908 43.203 86.5774 43.0168C86.764 42.7374 87.0438 42.6443 87.3237 42.4581C87.6036 42.365 87.9768 42.2719 88.2567 42.2719C88.6299 42.2719 88.9097 42.365 89.0963 42.4581C89.3762 42.5512 89.5628 42.6443 89.7494 42.8305C89.936 43.0168 90.0293 43.203 90.1226 43.3892C90.2159 43.5754 90.3092 43.7616 90.3092 44.041C90.4025 44.2272 90.4025 44.4134 90.4025 44.6927C90.4025 44.879 90.4025 45.0652 90.4025 45.2514V45.4376H86.5774V45.1583ZM89.8427 44.5065C89.8427 44.4134 89.8427 44.2272 89.8427 44.041C89.8427 43.8547 89.7494 43.5754 89.6561 43.3892C89.5628 43.203 89.3762 43.0168 89.1896 42.8305C89.003 42.6443 88.7231 42.5512 88.35 42.5512C88.0701 42.5512 87.7902 42.6443 87.6036 42.7374C87.417 42.8305 87.2304 43.0168 87.0439 43.203C86.8573 43.3892 86.764 43.5754 86.764 43.8547C86.6707 44.041 86.6707 44.3203 86.6707 44.5065H89.8427V44.5065Z" fill="#9C1006"/>
<path d="M91.895 50V43.203V42.1788H92.5481V43.2961C92.5481 43.203 92.6414 43.0168 92.7347 42.9236C92.828 42.8305 92.9213 42.6443 93.1079 42.5512C93.2011 42.4581 93.3877 42.365 93.5743 42.2719C93.7609 42.1788 94.0408 42.1788 94.3207 42.1788C94.6939 42.1788 95.067 42.2719 95.3469 42.365C95.6268 42.4581 95.9067 42.6443 96.0933 42.9236C96.2799 43.203 96.4664 43.4823 96.5597 43.8547C96.653 44.2272 96.7463 44.5996 96.7463 45.0652C96.7463 45.5307 96.653 45.9963 96.5597 46.3687C96.4664 46.7412 96.2799 47.0205 96 47.2067C95.8134 47.3929 95.5335 47.5791 95.2536 47.6723C94.9737 47.7654 94.6939 47.8585 94.3207 47.8585C93.9475 47.8585 93.5743 47.7654 93.2944 47.5791C93.0146 47.3929 92.828 47.1136 92.6414 46.8343V47.3929V50.1862H91.895V50ZM92.7347 45.9963C92.828 46.2756 93.0146 46.5549 93.2011 46.7412C93.3877 46.9274 93.5743 47.0205 93.7609 47.1136C93.9475 47.2067 94.1341 47.2067 94.3207 47.2067C94.5073 47.2067 94.6939 47.2067 94.8804 47.1136C95.067 47.0205 95.2536 46.9274 95.4402 46.7412C95.6268 46.5549 95.7201 46.3687 95.9067 45.9963C96 45.7169 96.0933 45.3445 96.0933 44.879C96.0933 44.4134 96 44.1341 95.9067 43.7616C95.8134 43.4823 95.6268 43.203 95.4402 43.0168C95.2536 42.8305 95.067 42.7374 94.8804 42.6443C94.6939 42.5512 94.5073 42.5512 94.3207 42.5512C94.1341 42.5512 93.9475 42.5512 93.7609 42.6443C93.5743 42.7374 93.3877 42.8305 93.2011 43.0168C93.0146 43.203 92.9213 43.3892 92.7347 43.7616C92.6414 44.041 92.5481 44.4134 92.5481 44.879C92.5481 45.3445 92.5481 45.7169 92.7347 45.9963Z" fill="#9C1006"/>
<path d="M98.239 45.1583C98.239 45.3445 98.239 45.5307 98.3323 45.8101C98.3323 46.0894 98.4256 46.2756 98.6122 46.4618C98.7055 46.648 98.8921 46.8343 99.1719 47.0205C99.4518 47.2067 99.7317 47.2067 100.105 47.2067C100.385 47.2067 100.665 47.2067 100.945 47.1136C101.224 47.1136 101.504 46.9274 101.784 46.8343V47.486C101.504 47.5791 101.224 47.6723 100.945 47.7654C100.665 47.7654 100.385 47.8585 100.105 47.8585C99.3585 47.8585 98.7055 47.5791 98.239 47.1136C97.7725 46.648 97.5859 45.9032 97.5859 44.9721C97.5859 44.5065 97.6792 44.1341 97.7725 43.8547C97.8658 43.4823 98.0524 43.203 98.239 43.0168C98.4256 42.7374 98.7055 42.6443 98.9854 42.4581C99.2652 42.365 99.6384 42.2719 99.9183 42.2719C100.291 42.2719 100.571 42.365 100.758 42.4581C101.038 42.5512 101.224 42.6443 101.411 42.8305C101.598 43.0168 101.691 43.203 101.784 43.3892C101.877 43.5754 101.971 43.7616 101.971 44.041C102.064 44.2272 102.064 44.4134 102.064 44.6927C102.064 44.879 102.064 45.0652 102.064 45.2514V45.4376H98.239V45.1583ZM101.411 44.5065C101.411 44.4134 101.411 44.2272 101.411 44.041C101.411 43.8547 101.318 43.5754 101.224 43.3892C101.131 43.203 100.945 43.0168 100.758 42.8305C100.571 42.6443 100.291 42.5512 99.9183 42.5512C99.6384 42.5512 99.3585 42.6443 99.1719 42.7374C98.9854 42.8305 98.7988 43.0168 98.6122 43.203C98.4256 43.3892 98.3323 43.5754 98.3323 43.8547C98.239 44.041 98.239 44.3203 98.239 44.5065H101.411V44.5065Z" fill="#9C1006"/>
<path d="M105.609 42.1788C105.889 42.1788 106.169 42.1788 106.356 42.2719C106.542 42.365 106.729 42.4581 106.915 42.5512C107.102 42.6443 107.195 42.8305 107.195 43.0168C107.288 43.203 107.288 43.3892 107.288 43.5754C107.288 43.8547 107.195 44.041 107.102 44.2272C107.009 44.4134 106.822 44.5996 106.542 44.6927C106.822 44.7858 107.102 44.879 107.288 45.1583C107.475 45.4376 107.568 45.7169 107.568 46.0894C107.568 46.3687 107.568 46.5549 107.475 46.7412C107.382 46.9274 107.288 47.0205 107.195 47.2067C107.102 47.2998 106.915 47.3929 106.822 47.486C106.635 47.5791 106.542 47.5791 106.356 47.5791C106.262 47.5791 106.076 47.6723 105.982 47.6723C105.889 47.6723 105.796 47.6723 105.796 47.6723H103.463V42.1788H105.609V42.1788ZM104.023 44.5065H105.516C105.516 44.5065 105.609 44.5065 105.702 44.5065C105.796 44.5065 105.982 44.5065 106.076 44.4134C106.169 44.3203 106.356 44.3203 106.449 44.1341C106.542 44.041 106.635 43.8547 106.635 43.6685C106.635 43.5754 106.635 43.4823 106.635 43.3892C106.635 43.2961 106.542 43.203 106.449 43.1099C106.356 43.0168 106.262 42.9236 106.076 42.8305C105.982 42.7374 105.796 42.7374 105.516 42.7374H104.023V44.5065V44.5065ZM104.023 47.1136H105.609C105.796 47.1136 105.982 47.1136 106.169 47.0205C106.356 46.9274 106.449 46.9274 106.542 46.8343C106.635 46.7412 106.729 46.648 106.729 46.5549C106.822 46.4618 106.822 46.2756 106.822 46.1825C106.822 46.0894 106.822 45.9032 106.729 45.8101C106.729 45.7169 106.635 45.5307 106.542 45.4376C106.449 45.3445 106.262 45.2514 106.169 45.2514C105.982 45.1583 105.796 45.1583 105.516 45.1583H104.023V47.1136Z" fill="#9C1006"/>
<path d="M108.781 43.7616C108.875 43.3892 109.061 43.1099 109.341 42.8305C109.528 42.5512 109.808 42.365 110.181 42.2719C110.461 42.1788 110.834 42.0857 111.207 42.0857C111.58 42.0857 111.953 42.1788 112.233 42.2719C112.513 42.365 112.793 42.6443 113.073 42.8305C113.259 43.1099 113.446 43.3892 113.633 43.7616C113.726 44.1341 113.819 44.5065 113.819 44.9721C113.819 45.4376 113.726 45.8101 113.633 46.1825C113.539 46.5549 113.353 46.8343 113.073 47.1136C112.886 47.3929 112.606 47.5791 112.233 47.6723C111.953 47.7654 111.58 47.8585 111.207 47.8585C110.834 47.8585 110.461 47.7654 110.181 47.6723C109.901 47.5791 109.621 47.2998 109.341 47.1136C109.154 46.8343 108.968 46.5549 108.781 46.1825C108.688 45.8101 108.595 45.4376 108.595 44.9721C108.595 44.5065 108.688 44.1341 108.781 43.7616ZM109.434 45.7169C109.528 45.9963 109.621 46.1825 109.808 46.4618C109.994 46.648 110.181 46.8343 110.367 47.0205C110.554 47.2067 110.834 47.2067 111.207 47.2067C111.58 47.2067 111.767 47.1136 112.047 47.0205C112.327 46.9274 112.513 46.7412 112.606 46.4618C112.793 46.2756 112.886 45.9963 112.98 45.7169C113.073 45.4376 113.073 45.1583 113.073 44.879C113.073 44.5996 113.073 44.3203 112.98 44.041C112.886 43.7616 112.793 43.4823 112.606 43.2961C112.42 43.1099 112.233 42.9237 112.047 42.7374C111.86 42.5512 111.58 42.5512 111.207 42.5512C110.834 42.5512 110.647 42.6443 110.367 42.7374C110.087 42.8305 109.901 43.0168 109.808 43.2961C109.621 43.4823 109.528 43.7616 109.434 44.041C109.341 44.3203 109.341 44.5996 109.341 44.879C109.341 45.1583 109.341 45.4376 109.434 45.7169Z" fill="#9C1006"/>
<path d="M119.324 42.1788V47.1136H120.163V49.162H119.51V47.6723H114.939V49.162H114.286V47.1136H114.845C115.032 46.8343 115.125 46.648 115.219 46.4618C115.312 46.2756 115.405 45.9963 115.498 45.8101C115.592 45.6238 115.592 45.3445 115.592 45.0652C115.592 44.7858 115.592 44.5996 115.592 44.3203V42.1788H119.324ZM118.67 47.1136V42.7374H116.338V44.3203C116.338 44.5996 116.338 44.879 116.338 45.1583C116.338 45.4376 116.245 45.6238 116.245 45.8101C116.152 45.9963 116.152 46.2756 116.058 46.4618C115.965 46.648 115.872 46.9274 115.685 47.1136H118.67V47.1136Z" fill="#9C1006"/>
<path d="M121.19 43.7616C121.283 43.3892 121.469 43.1099 121.749 42.8305C121.936 42.5512 122.216 42.365 122.589 42.2719C122.869 42.1788 123.242 42.0857 123.615 42.0857C123.988 42.0857 124.362 42.1788 124.641 42.2719C124.921 42.365 125.201 42.6443 125.481 42.8305C125.668 43.1099 125.854 43.3892 126.041 43.7616C126.134 44.1341 126.227 44.5065 126.227 44.9721C126.227 45.4376 126.134 45.8101 126.041 46.1825C125.948 46.5549 125.761 46.8343 125.481 47.1136C125.294 47.3929 125.015 47.5791 124.641 47.6723C124.362 47.7654 123.988 47.8585 123.615 47.8585C123.242 47.8585 122.869 47.7654 122.589 47.6723C122.309 47.5791 122.029 47.2998 121.749 47.1136C121.563 46.8343 121.376 46.5549 121.19 46.1825C121.096 45.8101 121.003 45.4376 121.003 44.9721C121.003 44.5065 121.003 44.1341 121.19 43.7616ZM121.749 45.7169C121.843 45.9963 121.936 46.1825 122.122 46.4618C122.309 46.648 122.496 46.8343 122.682 47.0205C122.869 47.2067 123.149 47.2067 123.522 47.2067C123.802 47.2067 124.082 47.1136 124.362 47.0205C124.641 46.9274 124.828 46.7412 124.921 46.4618C125.108 46.2756 125.201 45.9963 125.294 45.7169C125.388 45.4376 125.388 45.1583 125.388 44.879C125.388 44.5996 125.388 44.3203 125.294 44.041C125.201 43.7616 125.108 43.4823 124.921 43.2961C124.735 43.1099 124.548 42.9237 124.362 42.7374C124.175 42.5512 123.895 42.5512 123.522 42.5512C123.242 42.5512 122.962 42.6443 122.682 42.7374C122.402 42.8305 122.216 43.0168 122.122 43.2961C121.936 43.4823 121.843 43.7616 121.749 44.041C121.656 44.3203 121.656 44.5996 121.656 44.879C121.656 45.1583 121.749 45.4376 121.749 45.7169Z" fill="#9C1006"/>
<path d="M129.586 42.1788C129.866 42.1788 130.145 42.1788 130.332 42.2719C130.519 42.365 130.705 42.4581 130.892 42.5512C131.078 42.6443 131.172 42.8305 131.172 43.0168C131.265 43.203 131.265 43.3892 131.265 43.5754C131.265 43.8547 131.172 44.041 131.078 44.2272C130.985 44.4134 130.799 44.5996 130.519 44.6927C130.799 44.7858 131.078 44.879 131.265 45.1583C131.452 45.4376 131.545 45.7169 131.545 46.0894C131.545 46.3687 131.545 46.5549 131.452 46.7412C131.358 46.9274 131.265 47.0205 131.172 47.2067C131.078 47.2998 130.892 47.3929 130.799 47.486C130.612 47.5791 130.519 47.5791 130.332 47.5791C130.239 47.5791 130.052 47.6723 129.959 47.6723C129.866 47.6723 129.772 47.6723 129.772 47.6723H127.44V42.1788H129.586V42.1788ZM128.093 44.5065H129.586C129.586 44.5065 129.679 44.5065 129.772 44.5065C129.866 44.5065 130.052 44.5065 130.145 44.4134C130.239 44.3203 130.425 44.3203 130.519 44.1341C130.612 44.041 130.705 43.8547 130.705 43.6685C130.705 43.5754 130.705 43.4823 130.705 43.3892C130.705 43.2961 130.612 43.203 130.519 43.1099C130.425 43.0168 130.332 42.9236 130.145 42.8305C130.052 42.7374 129.866 42.7374 129.586 42.7374H128.093V44.5065ZM128.093 47.1136H129.679C129.866 47.1136 130.052 47.1136 130.239 47.0205C130.425 46.9274 130.519 46.9274 130.612 46.8343C130.705 46.7412 130.799 46.648 130.799 46.5549C130.892 46.4618 130.892 46.2756 130.892 46.1825C130.892 46.0894 130.892 45.9032 130.799 45.8101C130.799 45.7169 130.705 45.5307 130.612 45.4376C130.519 45.3445 130.332 45.2514 130.239 45.2514C130.052 45.1583 129.866 45.1583 129.586 45.1583H128.093V47.1136Z" fill="#9C1006"/>
</g>
<defs>
<clipPath id="clip0_344_42">
<rect width="160" height="50" fill="white"/>
</clipPath>
</defs>
</svg>
