<svg width="50" height="50" viewBox="0 0 50 50" fill="none" xmlns="http://www.w3.org/2000/svg">
<path d="M43.3653 0H11.3126C8.64783 0 6.47269 2.17514 6.47269 4.83992V6.91149H4.18456C2.97928 6.91149 2 7.89077 2 9.09604V10.6215C2 11.8267 2.97928 12.806 4.18456 12.806H6.47269V17.0056H4.18456C2.97928 17.0056 2 17.9849 2 19.1902V20.7156C2 21.9209 2.97928 22.9002 4.18456 22.9002H6.47269V27.0998H4.18456C2.97928 27.0998 2 28.0791 2 29.2844V30.8098C2 32.0151 2.97928 32.9944 4.18456 32.9944H6.47269V37.194H4.18456C2.97928 37.194 2 38.1733 2 39.3785V40.904C2 42.1092 2.97928 43.0885 4.18456 43.0885H6.47269V45.1601C6.47269 47.8249 8.64783 50 11.3126 50H43.3653C46.0301 50 48.2053 47.8249 48.2053 45.1601V4.83992C48.2053 2.17514 46.0301 0 43.3653 0ZM3.61017 10.6215V9.09604C3.61017 8.78531 3.86441 8.52166 4.18456 8.52166H9.3823C9.69303 8.52166 9.95669 8.77589 9.95669 9.09604V10.6215C9.95669 10.9322 9.70245 11.1959 9.3823 11.1959H4.18456C3.87382 11.1959 3.61017 10.9322 3.61017 10.6215ZM3.61017 20.7156V19.1902C3.61017 18.8795 3.86441 18.6158 4.18456 18.6158H9.3823C9.69303 18.6158 9.95669 18.8795 9.95669 19.1902V20.7156C9.95669 21.0264 9.70245 21.29 9.3823 21.29H4.18456C3.87382 21.29 3.61017 21.0264 3.61017 20.7156ZM3.61017 30.8098V29.2844C3.61017 28.9736 3.86441 28.71 4.18456 28.71H9.3823C9.69303 28.71 9.95669 28.9642 9.95669 29.2844V30.8098C9.95669 31.1205 9.70245 31.3842 9.3823 31.3842H4.18456C3.87382 31.3842 3.61017 31.1205 3.61017 30.8098ZM3.61017 40.904V39.3785C3.61017 39.0678 3.87382 38.8041 4.18456 38.8041H9.3823C9.69303 38.8041 9.95669 39.0584 9.95669 39.3785V40.904C9.95669 41.2147 9.70245 41.4783 9.3823 41.4783H4.18456C3.86441 41.4689 3.61017 41.2147 3.61017 40.904ZM8.08286 45.1601V43.0885H9.37288C10.5782 43.0885 11.5574 42.1092 11.5574 40.904V39.3785C11.5574 38.1733 10.5782 37.194 9.37288 37.194H8.08286V32.9944H9.37288C10.5782 32.9944 11.5574 32.0151 11.5574 30.8098V29.2844C11.5574 28.0791 10.5782 27.0998 9.37288 27.0998H8.08286V22.9002H9.37288C10.5782 22.9002 11.5574 21.9209 11.5574 20.7156V19.1902C11.5574 17.9849 10.5782 17.0056 9.37288 17.0056H8.08286V12.806H9.37288C10.5782 12.806 11.5574 11.8267 11.5574 10.6215V9.09604C11.5574 7.89077 10.5782 6.91149 9.37288 6.91149H8.08286V4.83992C8.08286 3.06026 9.53296 1.61017 11.3126 1.61017H14.081V48.3804H11.3126C9.53296 48.3804 8.08286 46.9397 8.08286 45.1601ZM46.5951 45.1601C46.5951 46.9397 45.145 48.3898 43.3653 48.3898H15.7006V1.61017H43.3653C45.145 1.61017 46.5951 3.06026 46.5951 4.83992V45.1601ZM44.7872 27.4859L43.7514 26.8832V20.8851C43.7514 20.5838 43.5913 20.3107 43.3277 20.1789L30.8041 13.4746C30.5687 13.3428 30.2768 13.3428 30.0414 13.4746L17.5179 20.1789C17.2542 20.3202 17.0942 20.5932 17.0942 20.8851C17.0942 21.1864 17.2542 21.4595 17.5179 21.5913L21.049 23.484V31.2806C21.049 31.5725 21.1996 31.8362 21.4539 31.9774L28.6008 36.1017C29.1751 36.4313 29.7966 36.6008 30.4181 36.6008C31.0395 36.6008 31.661 36.4313 32.2354 36.1017L39.3823 31.9774C39.6271 31.8362 39.7872 31.5631 39.7872 31.2806V23.484L42.1318 22.2316V26.8832L41.096 27.4859C40.8512 27.6271 40.6911 27.9002 40.6911 28.1827V32.58C40.6911 32.8814 40.8606 33.1638 41.1337 33.3051C41.2467 33.3616 41.3691 33.3898 41.4915 33.3898C41.661 33.3898 41.8305 33.3333 41.9812 33.2298L42.9322 32.5141L43.8832 33.2298C44.1281 33.4087 44.4576 33.4463 44.7307 33.3051C45.0038 33.1638 45.1733 32.8908 45.1733 32.58V28.1921C45.1921 27.9002 45.0414 27.6365 44.7872 27.4859ZM31.435 34.7175C30.7853 35.0942 30.0697 35.0942 29.42 34.7175L22.6686 30.8192V29.7081L28.8927 33.3051C29.3823 33.5876 29.9002 33.7288 30.4275 33.7288C30.9548 33.7288 31.4727 33.5876 31.9623 33.3051L38.1864 29.7081V30.8192L31.435 34.7175ZM38.177 27.8531L31.1431 31.9115C30.6723 32.1846 30.1544 32.1846 29.693 31.9115L22.6591 27.8531V24.3597L30.032 28.3051C30.1544 28.371 30.2768 28.3992 30.4087 28.3992C30.5405 28.3992 30.6723 28.371 30.7853 28.3051L38.1582 24.3597L38.177 27.8531ZM30.4275 26.6761L19.6083 20.8945L30.4181 15.1036L41.2279 20.8945L30.4275 26.6761ZM43.5819 30.9605L43.4313 30.8475C43.29 30.7439 43.1205 30.6874 42.951 30.6874C42.7815 30.6874 42.6121 30.7439 42.4708 30.8475L42.3202 30.9605V28.6535L42.951 28.2863L43.5819 28.6535V30.9605Z" fill="#708879"/>
</svg>
