<svg width="50" height="50" viewBox="0 0 50 50" fill="none" xmlns="http://www.w3.org/2000/svg">
<g clip-path="url(#clip0_521_1358)">
<path d="M38.3785 7.06193H37.2486V3.38961C37.2486 2.25967 36.7441 1.30123 35.8362 0.625286C34.9282 -0.000218764 33.7982 -0.161639 32.7893 0.171291L12.1679 7.06193C10.4124 7.1729 9 8.64587 9 10.4518V46.61C9 48.4764 10.5234 49.9998 12.3898 49.9998H38.3785C40.245 49.9998 41.7684 48.4764 41.7684 46.61V10.4518C41.7684 8.58533 40.245 7.06193 38.3785 7.06193ZM33.5157 2.37064C33.8588 2.25967 34.2522 2.31011 34.5347 2.54215C34.8172 2.76411 34.9887 3.10713 34.9887 3.45014V7.12246H19.341L33.5157 2.37064ZM39.5085 46.61C39.5085 47.2355 39.004 47.7399 38.3785 47.7399H12.3898C11.7643 47.7399 11.2599 47.2355 11.2599 46.61V10.4518C11.2599 9.82625 11.7643 9.32182 12.3898 9.32182H38.3785C39.004 9.32182 39.5085 9.82625 39.5085 10.4518V46.61ZM25.3842 19.4913C21.9338 19.4913 19.1695 22.2556 19.1695 25.706C19.1695 29.1564 21.9338 31.9207 25.3842 31.9207C28.8345 31.9207 31.5989 29.1564 31.5989 25.706C31.5989 22.2657 28.8345 19.4913 25.3842 19.4913ZM25.3842 29.6608C23.1848 29.6608 21.4294 27.9053 21.4294 25.706C21.4294 23.5066 23.1848 21.7512 25.3842 21.7512C27.5835 21.7512 29.339 23.5066 29.339 25.706C29.339 27.9154 27.5835 29.6608 25.3842 29.6608ZM31.5989 36.4405C31.5989 37.066 31.0944 37.5704 30.4689 37.5704H20.2994C19.6739 37.5704 19.1695 37.066 19.1695 36.4405C19.1695 35.815 19.6739 35.3105 20.2994 35.3105H30.4689C31.0944 35.3105 31.5989 35.825 31.5989 36.4405Z" fill="#708879"/>
</g>
<defs>
<clipPath id="clip0_521_1358">
<rect width="50" height="50" fill="white"/>
</clipPath>
</defs>
</svg>
