<svg width="50" height="48" viewBox="0 0 50 48" fill="none" xmlns="http://www.w3.org/2000/svg">
<g clip-path="url(#clip0_103_203)">
<path d="M47.6225 16.6633H29.7653V14.2857H32.1429C32.5918 14.2857 33 14.0408 33.2041 13.6327C33.4082 13.2245 33.3571 12.7551 33.0918 12.3776L25.949 2.85715C25.5 2.26531 24.5 2.26531 24.0408 2.85715L16.898 12.3776C16.6224 12.7347 16.5918 13.2245 16.7857 13.6327C16.9898 14.0408 17.398 14.2857 17.8469 14.2857H20.2245V16.6633H2.36735C1.07143 16.6633 0 17.7347 0 19.051V45.2449C0 46.551 1.07143 47.6225 2.37755 47.6225H47.6122C48.9184 47.6225 49.9898 46.551 49.9898 45.2449V19.051C50 17.7347 48.9286 16.6633 47.6225 16.6633ZM25 5.56123L29.7653 11.9082H28.5714C27.9184 11.9082 27.3776 12.449 27.3776 13.102V22.6225H22.6122V13.102C22.6122 12.449 22.0714 11.9082 21.4184 11.9082H20.2245L25 5.56123ZM5.94898 19.051H20.2347V23.8163C20.2347 24.4694 20.7755 25.0102 21.4286 25.0102H28.5714C29.2245 25.0102 29.7653 24.4694 29.7653 23.8163V19.051H45.4082L25 35.3776L4.59184 19.051H5.94898ZM2.37755 20.3367L17.1429 32.1429L2.37755 43.949V20.3367ZM4.59184 45.2347L19.0408 33.6633L24.2449 37.8265C24.4694 38.0102 24.7347 38.0918 24.9898 38.0918C25.2449 38.0918 25.5102 38.0102 25.7449 37.8265L30.949 33.6633L45.4082 45.2347H4.59184ZM47.6225 43.949L32.8571 32.1429L47.6225 20.3367V43.949Z" fill="white"/>
<path d="M17.8572 2.37755H32.1429C32.796 2.37755 33.3368 1.83673 33.3368 1.18367C33.3368 0.530612 32.796 0 32.1429 0H17.8572C17.2041 0 16.6633 0.540816 16.6633 1.19388C16.6633 1.84694 17.2041 2.37755 17.8572 2.37755Z" fill="white"/>
</g>
<defs>
<clipPath id="clip0_103_203">
<rect width="50" height="47.6225" fill="white"/>
</clipPath>
</defs>
</svg>
