<svg width="50" height="50" viewBox="0 0 50 50" fill="none" xmlns="http://www.w3.org/2000/svg">
<path d="M2.09192 30.1042L5.02075 30.8333C5.2298 30.9376 5.33451 31.0419 5.43921 31.2501C5.75297 32.2916 6.17142 33.3332 6.69456 34.3753C6.79927 34.5835 6.79927 34.792 6.69456 35.0002L5.22972 37.6044C4.60221 38.646 4.81126 40.0004 5.64819 40.9378L9.20455 44.4793C10.0415 45.3127 11.5059 45.5209 12.5519 44.896L15.0623 43.3334C15.2714 43.2291 15.4808 43.2291 15.6898 43.3334C16.6311 43.8544 17.6774 44.2707 18.8281 44.5835C19.0372 44.6878 19.2466 44.7917 19.2466 45.0002L19.9788 47.9168C20.2926 49.1669 21.3386 50 22.5939 50H27.5104C28.7658 50 29.8118 49.1666 30.1255 47.9168L30.8577 45.0002C30.9625 44.792 31.0668 44.5835 31.2762 44.5835C32.4269 44.271 33.4729 43.7501 34.4145 43.3334C34.6236 43.2291 34.9377 43.2291 35.042 43.3334L37.6572 44.896C38.0756 45.1042 38.5984 45.3127 39.0169 45.3127C39.7491 45.3127 40.4814 45.0003 40.8998 44.4793L44.4562 40.9378C45.2931 40.1043 45.5021 38.7502 44.8746 37.6044L43.3055 35.1044C43.2008 34.8963 43.2008 34.5835 43.3055 34.4795C43.8286 33.438 44.2467 32.3964 44.5608 31.3543C44.6655 31.1461 44.7699 30.9376 44.9793 30.9376L47.9081 30.2084C49.1634 29.896 50 28.8544 50 27.6042V22.604C50 21.3539 49.1631 20.3122 47.9081 19.9998L44.9793 19.2706C44.7702 19.1664 44.5608 19.0625 44.5608 18.8539C44.2471 17.8123 43.8286 16.7708 43.3055 15.7287C43.2008 15.5205 43.2008 15.312 43.3055 15.1038L44.8746 12.4996C45.5021 11.458 45.2931 10.1036 44.4562 9.16623L40.8998 5.6247C40.0629 4.79127 38.5984 4.58311 37.5525 5.20798L35.042 6.77059C34.833 6.87486 34.6236 6.87486 34.4145 6.77059C33.4733 6.24961 32.4269 5.83327 31.2762 5.52049C31.0672 5.41621 30.8577 5.31231 30.8577 5.10377L30.2302 2.08317C29.9165 0.833065 28.8705 0 27.6151 0H22.6986C21.4433 0 20.3972 0.833428 20.0835 2.08317L19.3513 4.99978C19.1422 5.20796 19.0375 5.31223 18.8285 5.4165C17.7825 5.72895 16.6318 6.14566 15.6902 6.66661C15.4811 6.77088 15.2717 6.77088 15.0627 6.66661L12.4475 5.20789C11.4016 4.58299 9.93714 4.79117 9.10021 5.62461L5.54347 9.06224C4.70655 9.89567 4.49752 11.2498 5.12501 12.3956L6.69417 14.8956C6.79887 15.1037 6.79887 15.4165 6.69417 15.5205C6.171 16.562 5.75291 17.6036 5.43882 18.6457C5.33411 18.8539 5.22977 19.0624 5.02036 19.0624L2.0919 19.8958C0.836555 20.2083 1.19215e-07 21.2499 1.19215e-07 22.5V27.5003C-0.000364689 28.7501 0.836555 29.7917 2.0919 30.1041L2.09192 30.1042ZM2.09192 22.5001C2.09192 22.1877 2.30097 21.9791 2.61509 21.8752L5.54392 21.146C6.48517 20.9379 7.21778 20.2087 7.4268 19.271C7.74056 18.3337 8.05431 17.396 8.57745 16.4587C8.99591 15.6252 8.99591 14.5837 8.47274 13.7502L6.90358 11.2503C6.79887 11.0421 6.79887 10.6254 7.00829 10.5211L10.5647 6.97959C10.7737 6.77141 11.0878 6.77141 11.2969 6.87532L13.912 8.43793C14.7489 8.95892 15.7949 8.95892 16.6318 8.43793C17.4687 8.02121 18.41 7.60451 19.4559 7.29208C20.3972 6.97964 21.0251 6.2505 21.3388 5.3128L21.9663 2.60397C22.071 2.29152 22.2804 2.08334 22.5942 2.08334H27.5107C27.8244 2.08334 28.0339 2.29152 28.1382 2.60433L28.8704 5.52094C29.0795 6.45827 29.8117 7.18782 30.7533 7.39597C31.7992 7.70841 32.7409 8.12512 33.5774 8.54181C34.4143 8.95853 35.4603 8.95853 36.2972 8.43754L38.8076 6.87493C39.0167 6.77066 39.4352 6.77066 39.5399 6.9792L43.0962 10.5207C43.3053 10.7289 43.3053 11.0417 43.2009 11.2499L41.6318 13.8541C41.1086 14.6875 41.1086 15.6248 41.5271 16.5625C42.0502 17.4999 42.364 18.4376 42.6777 19.3749C42.9914 20.3122 43.7237 20.9375 44.6653 21.2499L47.5941 21.9791C47.9079 22.0833 48.1173 22.2915 48.1173 22.604V27.6042C48.1173 27.9167 47.9082 28.1252 47.5941 28.2291L44.6653 28.9583C43.724 29.1665 42.9914 29.8956 42.7824 30.8333C42.4686 31.7706 42.0502 32.7083 41.6318 33.6456C41.2133 34.4791 41.2133 35.5207 41.7365 36.3541L43.3056 38.854C43.4103 39.0622 43.4103 39.4789 43.2009 39.5832L39.6446 43.1247C39.4355 43.3329 39.1214 43.3329 38.9123 43.229L36.2972 41.6664C35.4603 41.1454 34.5191 41.1454 33.5774 41.5621C32.7405 41.9788 31.7992 42.3955 30.7533 42.708C29.812 43.0204 29.1841 43.7496 28.8704 44.6873L28.2429 47.3961C28.1382 47.7085 27.9291 47.9171 27.6154 47.9171H22.6989C22.3851 47.9171 22.1757 47.7089 22.0714 47.3961L21.3392 44.4795C21.1301 43.5421 20.3979 42.8126 19.4563 42.6044C18.515 42.292 17.5734 41.8753 16.6321 41.4586C16.2137 41.2504 15.7952 41.1462 15.2724 41.1462C14.7492 41.1462 14.3311 41.2504 13.9126 41.5629L11.4022 43.1255C11.1932 43.2298 10.7747 43.2298 10.67 43.0212L7.11363 39.4797C6.90458 39.2715 6.90458 38.9587 7.00892 38.7505L8.57808 36.1463C9.10125 35.3129 9.10125 34.3756 8.68279 33.4379C8.15962 32.5005 7.84587 31.5628 7.53214 30.6255C7.21838 29.6882 6.48619 29.0629 5.54457 28.7505L2.61462 28.1252C2.30086 28.021 2.09181 27.8124 2.09181 27.5L2.09192 22.5001Z" fill="#708879"/>
<path d="M25.2095 40.1042C33.578 40 40.2725 33.3332 40.2725 24.9999C40.2725 16.6662 33.4732 9.89551 25.1049 9.89551C16.7364 9.89551 9.93726 16.6665 9.93726 24.9999C9.93689 33.3335 16.8406 40.2084 25.2095 40.1042ZM30.4397 32.3959C30.126 32.6041 29.8122 32.9169 29.8122 33.3332V37.0833C26.7787 38.3334 23.2222 38.3334 20.1886 37.0833L20.1882 33.3336C20.1882 33.0211 19.9792 32.7087 19.7698 32.5002C17.6779 31.1461 16.2134 28.7501 15.7949 26.2502C15.3764 23.3336 16.3181 20.4169 18.3053 18.3333C18.7238 17.9166 19.3513 18.229 19.3513 18.8543V23.7503C19.3513 24.8961 19.9788 25.8335 21.0251 26.2502L23.8492 27.5003C24.5815 27.8128 25.3137 27.8128 26.0459 27.5003L28.8701 26.2502C29.916 25.8335 30.5439 24.7919 30.5439 23.7503V18.8543C30.5439 18.2294 31.2761 18.0209 31.6946 18.4376C33.3684 20.2083 34.3097 22.5001 34.3097 24.8961C34.4144 29.3749 31.067 32.0834 30.4395 32.3959L30.4397 32.3959ZM25.1048 11.979C32.3226 11.979 38.1803 17.8123 38.1803 25C38.1803 29.6873 35.6699 33.7499 32.0089 36.0418V33.9586C33.7871 32.7085 36.5069 29.4794 36.5069 24.7919C36.5069 21.8753 35.3562 19.0625 33.3685 16.875C31.6947 15.1043 28.6615 16.3541 28.6615 18.7501V23.6461C28.6615 23.8542 28.5568 24.167 28.2431 24.271L25.4189 25.5211C25.2099 25.6253 25.1052 25.6253 24.8958 25.5211L21.9666 24.271C21.7575 24.1667 21.5481 23.9585 21.5481 23.6461V18.7501C21.5481 16.354 18.6193 15.1043 16.8411 16.7708C14.3307 19.375 13.18 22.9165 13.7028 26.4584C14.1212 29.375 15.7947 32.0835 18.0961 33.75V35.9375C14.3303 33.6457 11.9246 29.5833 11.9246 24.8957C12.0293 17.8123 17.887 11.9789 25.1047 11.9789L25.1048 11.979Z" fill="#708879"/>
</svg>
