<svg width="50" height="50" viewBox="0 0 50 50" fill="none" xmlns="http://www.w3.org/2000/svg">
<path d="M31.8181 3.4087C31.8181 2.78167 32.3272 2.27259 32.9546 2.27259H37.5001C41.8863 2.27259 45.4544 5.84074 45.4544 10.2269V14.3018L48.0588 11.6975C48.502 11.2542 49.2222 11.2542 49.6655 11.6975C50.1088 12.1407 50.1088 12.8609 49.6655 13.3042L45.0948 17.8749C45.0925 17.8749 45.0925 17.8749 45.0925 17.8772C44.9879 17.9727 44.8722 18.0476 44.7493 18.0975C44.6295 18.1473 44.4929 18.177 44.3521 18.1816H44.3498H44.3476H44.3179H44.2882H44.2859H44.2836C44.1429 18.177 44.0063 18.1473 43.8838 18.0952C43.7586 18.0454 43.6452 17.97 43.5406 17.8749L38.9676 13.302C38.5244 12.8587 38.5244 12.1385 38.9676 11.6952C39.4109 11.252 40.1311 11.252 40.5744 11.6952L43.1818 14.3023V10.227C43.1818 7.09528 40.6342 4.54529 37.4998 4.54529H32.9542C32.3271 4.54529 31.8181 4.0362 31.8181 3.40879V3.4087ZM17.045 45.4544H12.4995C9.36778 45.4544 6.81778 42.9044 6.81778 39.7727V35.6978L9.42213 38.3022C9.86539 38.7454 10.5856 38.7454 11.0289 38.3022C11.4721 37.8589 11.4721 37.1387 11.0289 36.6954L6.45817 32.1247C6.45361 32.1247 6.45361 32.1247 6.45589 32.1224C6.35354 32.0269 6.23559 31.952 6.1127 31.9021C5.99057 31.8523 5.85664 31.8226 5.71549 31.818H5.7132H5.71092H5.65423H5.65195H5.64966C5.50889 31.8226 5.37458 31.8523 5.25207 31.9044C5.12688 31.9542 5.01122 32.0296 4.90888 32.1247C4.9066 32.127 4.90888 32.127 4.9066 32.127L0.335887 36.6977C-0.107372 37.1409 -0.107372 37.8612 0.335887 38.3044C0.779146 38.7477 1.49936 38.7477 1.94264 38.3044L4.54514 35.6974V39.7727C4.54514 44.1588 8.11328 47.727 12.4998 47.727H17.0454C17.6724 47.727 18.1815 47.2179 18.1815 46.5909C18.1815 45.9635 17.6724 45.4544 17.045 45.4544L17.045 45.4544ZM21.5906 6.81778H14.7976H14.7496H7.95426C7.32685 6.81778 6.81776 7.32687 6.81776 7.95428C6.81776 8.58168 7.32685 9.09077 7.95426 9.09077H12.934L10.6614 13.6363L7.95426 13.636C7.32685 13.636 6.81776 14.1451 6.81776 14.7725C6.81776 15.3999 7.32685 15.9089 7.95426 15.9089H9.52487L6.93835 21.0815C6.65642 21.6427 6.88622 22.3246 7.44743 22.6064C7.60875 22.6882 7.78149 22.7271 7.95423 22.7271C8.37238 22.7271 8.77225 22.4976 8.97237 22.0996L11.6723 16.7018L16.1608 22.3017C16.5515 22.7925 17.2676 22.8697 17.7584 22.4767C18.2469 22.0836 18.3264 21.3699 17.9334 20.8791L13.9452 15.9089H19.318C19.945 15.9089 20.4541 15.3998 20.4541 14.7724C20.4541 14.145 19.945 13.6359 19.318 13.6359H13.2018L15.4744 9.09037L21.5906 9.09075C22.218 9.09075 22.7271 8.58167 22.7271 7.95426C22.7271 7.32685 22.218 6.81776 21.5906 6.81776L21.5906 6.81778ZM50 21.5908V48.8635C50 49.4909 49.4909 50 48.8635 50H21.5908C20.9634 50 20.4543 49.4909 20.4543 48.8635V29.5457H1.13649C0.509084 29.5457 0 29.0366 0 28.4092V1.13649C0 0.509084 0.509084 0 1.13649 0H28.4092C29.0366 0 29.5457 0.509084 29.5457 1.13649V20.4543H48.8635C49.4909 20.4543 50 20.9634 50 21.5908ZM21.5906 20.4543H27.2723V2.27318H2.27298V27.2735H20.4551V21.5918C20.4547 20.964 20.9638 20.4549 21.5912 20.4549L21.5906 20.4543ZM47.7266 22.7273H22.7273V47.7276H47.7276L47.7266 22.7273ZM27.3929 41.5367L29.6541 37.0139C29.6609 37.0002 29.6678 36.9842 29.6769 36.9709L34.2111 27.9003C34.5973 27.1298 35.8589 27.1298 36.2451 27.9003L40.7793 36.9709C40.7885 36.9846 40.7953 36.9983 40.8022 37.0139L43.0634 41.5367C43.343 42.0979 43.1155 42.7798 42.5543 43.0616C42.3884 43.1434 42.2156 43.1822 42.0452 43.1822C41.6293 43.1822 41.2294 42.9528 41.0293 42.5548L39.0702 38.6366H31.3815L29.4247 42.5548C29.145 43.1183 28.4632 43.3413 27.8997 43.0639C27.3385 42.782 27.111 42.0979 27.3929 41.5367L27.3929 41.5367ZM32.5202 36.3641H37.936L35.2271 30.9503L32.5202 36.3641Z" fill="white"/>
</svg>
