<?xml version="1.0" encoding="utf-8"?><svg viewBox="0 0 50 50" xmlns="http://www.w3.org/2000/svg" xmlns:xlink="http://www.w3.org/1999/xlink"><style>:root>svg{display:none}:root>svg:target{display:block}</style><svg viewBox="0 0 24 24" id="icon-arrow" xmlns="http://www.w3.org/2000/svg"><path fill-rule="evenodd" clip-rule="evenodd" d="M7.695 10.323l4.136 4.137a.65.65 0 00.92 0l4.136-4.137a.65.65 0 00-.92-.92L12.373 13h-.162L8.614 9.404a.65.65 0 10-.92.919z"/></svg><svg viewBox="0 0 50 44" id="icon-billfold" xmlns="http://www.w3.org/2000/svg"><g clip-path="url(#ba)"><path d="M4.878 0C2.199 0 0 2.2 0 4.878v34.756c0 2.341 1.927 4.268 4.268 4.268h41.464c2.34 0 4.268-1.927 4.268-4.268V11.585c0-2.34-1.927-4.268-4.268-4.268h-3.05V1.22c0-.643-.576-1.22-1.219-1.22H4.878zm0 2.439h35.366v4.878H4.878A2.408 2.408 0 012.44 4.878a2.408 2.408 0 012.439-2.439zM2.439 9.092a4.9 4.9 0 002.439.664c13.73-.01 29.05 0 40.854 0a1.8 1.8 0 011.829 1.83v7.316H29.878c-1.666 0-3.049 1.383-3.049 3.05v7.316c0 1.666 1.383 3.05 3.049 3.05h17.683v7.316a1.8 1.8 0 01-1.83 1.83H4.269a1.8 1.8 0 01-1.829-1.83V9.092zm27.439 12.25h17.683v8.536H29.878c-.36 0-.61-.25-.61-.61v-7.317c0-.36.25-.61.61-.61zm6.098 1.829a2.435 2.435 0 00-2.44 2.439 2.435 2.435 0 002.44 2.439 2.435 2.435 0 002.439-2.44c0-1.35-1.09-2.438-2.44-2.438z"/></g><defs><clipPath id="ba"><path d="M0 0h50v43.902H0z"/></clipPath></defs></svg><svg viewBox="0 0 40 50" id="icon-doc" xmlns="http://www.w3.org/2000/svg"><g clip-path="url(#ca)"><path d="M38.731 11.635L27.481.385a1.324 1.324 0 00-.93-.385H3.947A3.947 3.947 0 000 3.947v42.106A3.947 3.947 0 003.947 50H35.17a3.947 3.947 0 003.948-3.947V12.566c0-.348-.141-.677-.386-.93zM27.866 4.492l6.758 6.758h-5.442a1.32 1.32 0 01-1.316-1.316V4.492zm7.303 42.876H3.947a1.32 1.32 0 01-1.315-1.315V3.947a1.32 1.32 0 011.315-1.315h21.288v7.302a3.947 3.947 0 003.947 3.948h7.303v32.17a1.32 1.32 0 01-1.316 1.316z"/><path d="M7.763 16.579h13.243a1.32 1.32 0 001.315-1.316 1.32 1.32 0 00-1.316-1.316H7.764a1.32 1.32 0 00-1.316 1.316 1.32 1.32 0 001.316 1.316zm0 9.915h23.58a1.32 1.32 0 001.317-1.315 1.32 1.32 0 00-1.316-1.316H7.764a1.32 1.32 0 00-1.317 1.316 1.32 1.32 0 001.316 1.315zm23.581 7.275H23.46a1.32 1.32 0 00-1.316 1.316A1.32 1.32 0 0023.46 36.4h7.885a1.32 1.32 0 001.316-1.315c0-.724-.583-1.316-1.316-1.316zm-13.449 0H7.772a1.32 1.32 0 00-1.315 1.316A1.32 1.32 0 007.772 36.4h10.123a1.32 1.32 0 001.315-1.315 1.32 1.32 0 00-1.316-1.316z"/></g><defs><clipPath id="ca"><path d="M0 0h39.117v50H0z"/></clipPath></defs></svg><svg viewBox="0 0 50 50" id="icon-docs" xmlns="http://www.w3.org/2000/svg"><path d="M11.707 0a1.144 1.144 0 00-1.025 1.136v1.705c0 .304.111.599.325.812a1.152 1.152 0 001.623 0 1.1 1.1 0 00.324-.812v-.568H42.5v39.772h-.568c-.305 0-.599.112-.812.325a1.152 1.152 0 000 1.623c.213.214.507.335.812.325h1.704c.63 0 1.137-.507 1.137-1.136V1.136C44.773.507 44.265 0 43.636 0H11.707zM6.025 5.682A1.144 1.144 0 005 6.818v42.046C5 49.493 5.507 50 6.136 50h31.819c.629 0 1.136-.507 1.136-1.136V6.818c0-.629-.507-1.136-1.136-1.136H6.025zm1.248 2.273h29.545v39.772H7.273V7.955zm4.434 8.522c-.305.01-.589.152-.792.376a1.114 1.114 0 00-.294.821c.01.305.152.589.375.792.224.203.518.304.822.294h20.455c.304 0 .598-.112.811-.325a1.152 1.152 0 000-1.623 1.102 1.102 0 00-.811-.325H11.818c-.03-.01-.07-.01-.111-.01zm0 6.819c-.305.01-.589.152-.792.375a1.114 1.114 0 00-.294.822c.01.304.152.588.375.791.224.203.518.305.822.294h20.455c.304 0 .598-.111.811-.324a1.152 1.152 0 000-1.624 1.102 1.102 0 00-.811-.324H11.818c-.03-.01-.07-.01-.111-.01zm0 6.818c-.305.01-.589.152-.792.375a1.114 1.114 0 00-.294.822c.02.304.152.588.375.791.224.203.518.315.822.295h20.455c.304 0 .598-.112.811-.325a1.152 1.152 0 000-1.624 1.101 1.101 0 00-.811-.324H11.818c-.03-.01-.07-.01-.111-.01zm0 6.818c-.305.01-.589.142-.792.365a1.114 1.114 0 00-.294.822c.01.304.152.588.375.791.224.203.518.315.822.295h13.636c.305 0 .6-.112.812-.325a1.152 1.152 0 000-1.623 1.102 1.102 0 00-.811-.325H11.706z"/></svg><svg viewBox="0 0 50 50" id="icon-envelope" xmlns="http://www.w3.org/2000/svg"><g clip-path="url(#ea)"><path d="M24.875 23.137c-5.232 0-9.492 4.26-9.492 9.492 0 2.879 1.328 5.58 3.637 7.416v8.939c0 .339.178.65.49.847.187.115.4.178.615.178.187 0 .365-.045.544-.125l4.215-2.166 4.34 2.175c.357.178.74.17 1.043-.018.295-.178.473-.508.473-.864v-8.967c2.308-1.835 3.636-4.527 3.636-7.415 0-5.231-4.26-9.492-9.5-9.492zm7.344 9.492c0 4.047-3.297 7.344-7.344 7.344-4.046 0-7.344-3.297-7.344-7.344 0-4.117 3.227-7.344 7.344-7.344 4.118 0 7.344 3.227 7.344 7.344zm-11.051 8.672c1.22.535 2.53.82 3.707.82s2.496-.294 3.708-.82v5.918l-3.209-1.666c-.25-.125-.623-.125-1.007 0L21.16 47.21v-5.909h.009z"/><path d="M48.743 0H1.132C.535 0 0 .472 0 1.016v34.403c0 .633.517 1.016 1.016 1.016h11.631c.633 0 1.016-.383 1.016-1.016 0-.669-.419-1.132-1.016-1.132h-10.5V2.148h45.464v32.13H37.112c-.543 0-1.016.535-1.016 1.132 0 .633.517 1.016 1.016 1.016h11.631c.5 0 1.016-.383 1.016-1.016V1.132C49.76.463 49.34 0 48.743 0z"/><path d="M37.522 9.492c0-.544-.535-1.016-1.132-1.016H13.37c-.606 0-1.132.472-1.132 1.016 0 .624.508 1.132 1.132 1.132h23.02a1.128 1.128 0 001.132-1.132zM16.88 14.296c-.508 0-1.015.499-1.015 1.016 0 .606.472 1.132 1.016 1.132H32.87c.597 0 1.016-.464 1.016-1.132 0-.5-.383-1.016-1.016-1.016H16.88z"/></g><defs><clipPath id="ea"><path d="M0 0h49.759v50H0z"/></clipPath></defs></svg><svg viewBox="0 0 32 24" id="icon-eye" xmlns="http://www.w3.org/2000/svg"><path d="M31.925 11.336C31.739 10.875 27.26 0 16 0 4.74 0 .262 10.874.076 11.336a1.07 1.07 0 000 .793C.262 12.592 4.741 23.467 16 23.467c11.26 0 15.739-10.875 15.925-11.337.1-.255.1-.539 0-.793zM16 21.334c-8.782 0-12.89-7.704-13.766-9.595C3.109 9.888 7.298 2.133 16 2.133c8.782 0 12.892 7.705 13.767 9.596-.875 1.85-5.064 9.604-13.767 9.604z"/><path d="M16 4.267c-4.115 0-7.466 3.349-7.466 7.466 0 4.118 3.35 7.467 7.467 7.467 4.116 0 7.466-3.35 7.466-7.467 0-4.117-3.35-7.466-7.466-7.466zm0 12.8a5.34 5.34 0 01-5.332-5.334A5.34 5.34 0 0116 6.4a5.34 5.34 0 015.333 5.333A5.34 5.34 0 0116 17.067z"/></svg><svg viewBox="0 0 12 24" id="icon-fb" xmlns="http://www.w3.org/2000/svg"><path d="M3 8H0v4h3v12h5V12h3.6l.4-4H8V6.3C8 5.4 8.2 5 9.1 5H12V0H8.2C4.6 0 3 1.6 3 4.6V8z"/></svg><svg viewBox="0 0 50 50" id="icon-list" xmlns="http://www.w3.org/2000/svg"><path d="M41.588 14.858l-3.578.086v-1.096a5.582 5.582 0 002.912-1.514 5.498 5.498 0 001.654-3.922V.988a.963.963 0 00-.967-.966H.967A.932.932 0 000 .967v48.066c0 .537.43.967.967.967h36.076c.538 0 .967-.43.967-.967v-5.168a5.582 5.582 0 002.912-1.514 5.498 5.498 0 001.654-3.922V30.9a.977.977 0 00-.29-.688.992.992 0 00-.698-.28l-3.578.086v-1.203a5.582 5.582 0 002.912-1.515 5.498 5.498 0 001.654-3.921v-7.531a.977.977 0 00-.29-.688.871.871 0 00-.698-.3zM1.934 48.066V1.934h38.709V8.39c0 1.944-1.644 3.599-3.6 3.599a.963.963 0 00-.966.967v35.109H1.934zm38.709-16.19v6.543c0 1.611-1.129 3.019-2.633 3.459V31.94l2.633-.064zm0-8.52c0 1.612-1.129 3.02-2.633 3.46v-9.938l2.633-.064v6.542z"/><path d="M14.761 15.621a4.796 4.796 0 004.792-4.792 4.796 4.796 0 00-4.792-4.791 4.796 4.796 0 00-4.791 4.791 4.796 4.796 0 004.791 4.792zm0-7.639a2.863 2.863 0 012.858 2.858 2.856 2.856 0 01-2.857 2.858 2.857 2.857 0 110-5.715z"/><path d="M6.908 25.913H22.41c.538 0 .968-.43.968-.967v-5.522a4.796 4.796 0 00-4.792-4.791.967.967 0 00-.687.279c-.44.44-.946.773-1.43.935-.042.01-.085.032-.128.053-.43.215-1 .323-1.687.323a4.16 4.16 0 01-1.719-.333c-.57-.29-1.117-.56-1.526-.978a.967.967 0 00-.687-.28 4.796 4.796 0 00-4.792 4.792v5.522a.98.98 0 00.978.967zm.967-6.478a2.824 2.824 0 012.503-2.836c.559.462 1.171.773 1.72 1.042.02.01.031.021.053.021.827.355 1.568.505 2.503.505.978 0 1.794-.16 2.492-.494.613-.215 1.236-.59 1.795-1.074 1.429.172 2.492 1.353 2.492 2.836v4.555h-1.88v-2.535a.963.963 0 00-.967-.967.963.963 0 00-.967.967v2.535h-5.812v-2.535a.967.967 0 00-.956-.967h-.01a.97.97 0 00-.968.934l-.075 2.568H7.875v-4.555zm23.227 22.69H7.015a.963.963 0 00-.966.967c0 .537.43.967.966.967h24.087c.538 0 .967-.43.967-.967a.963.963 0 00-.967-.967zm0-4.565H7.015a.963.963 0 00-.966.966c0 .537.43.967.966.967h24.087c.538 0 .967-.43.967-.967a.963.963 0 00-.967-.967zm0-4.556H7.015a.963.963 0 00-.966.967c0 .537.43.967.966.967h24.087c.538 0 .967-.43.967-.967a.963.963 0 00-.967-.967zm0-4.459H7.015a.963.963 0 00-.966.967c0 .537.43.967.966.967h24.087c.538 0 .967-.43.967-.967a.963.963 0 00-.967-.967z"/></svg><svg viewBox="0 0 36 50" id="icon-locker" xmlns="http://www.w3.org/2000/svg"><g clip-path="url(#ia)"><path d="M33.971 24.862a5.944 5.944 0 00-4.21-1.743h-1.19V10.714a10.713 10.713 0 10-21.428 0V23.12h-1.19a5.944 5.944 0 00-4.21 1.743A5.963 5.963 0 000 29.07v14.977c0 1.583.627 3.093 1.743 4.209A5.944 5.944 0 005.953 50h23.809a5.944 5.944 0 004.21-1.743 5.944 5.944 0 001.742-4.21V29.072a5.963 5.963 0 00-1.743-4.21zM9.524 10.714a8.336 8.336 0 0116.667 0V23.12H9.523V10.714zm23.81 33.334a3.58 3.58 0 01-1.042 2.53 3.562 3.562 0 01-2.53 1.041H5.952a3.58 3.58 0 01-2.53-1.042 3.562 3.562 0 01-1.041-2.53V29.072c0-.946.372-1.86 1.042-2.53a3.562 3.562 0 012.53-1.041H29.76a3.58 3.58 0 012.53 1.041 3.562 3.562 0 011.042 2.53v14.977z"/><path d="M22.098 39.073l-3.71 1.86c-.329.17-.722.17-1.052 0l-2.38-1.19a1.226 1.226 0 01-.67-1.074v-5.665c0-.66.531-1.19 1.19-1.19h4.762c.319 0 .617-.128.84-.351a1.183 1.183 0 000-1.68 1.182 1.182 0 00-.84-.35h-4.762a3.58 3.58 0 00-2.53 1.041 3.561 3.561 0 00-1.041 2.53v5.665c0 .66.191 1.308.531 1.87.351.564.85 1.021 1.446 1.319l2.38 1.19a3.457 3.457 0 001.595.383c.553 0 1.106-.127 1.595-.383l3.688-1.86a1.193 1.193 0 00.553-1.594 1.217 1.217 0 00-1.595-.52z"/><path d="M25.361 30.123l-5.123 5.092-1.552-1.52a1.187 1.187 0 00-1.669 0 1.187 1.187 0 000 1.669l2.381 2.38c.213.234.521.362.83.362.318 0 .616-.128.828-.361l5.953-5.953a1.187 1.187 0 000-1.669 1.143 1.143 0 00-1.648 0z"/></g><defs><clipPath id="ia"><path d="M0 0h35.714v50H0z"/></clipPath></defs></svg><svg viewBox="0 0 50 50" id="icon-notebook" xmlns="http://www.w3.org/2000/svg"><path d="M43.365 0H11.313a4.85 4.85 0 00-4.84 4.84v2.07H4.185A2.188 2.188 0 002 9.096v1.525c0 1.206.98 2.185 2.185 2.185h2.288v4.2H4.185A2.186 2.186 0 002 19.19v1.526c0 1.205.98 2.184 2.185 2.184h2.288v4.2H4.185C2.979 27.1 2 28.08 2 29.284v1.526c0 1.205.98 2.184 2.185 2.184h2.288v4.2H4.185c-1.206 0-2.185.98-2.185 2.184v1.526c0 1.205.98 2.184 2.185 2.184h2.288v2.072a4.85 4.85 0 004.84 4.84h32.052a4.85 4.85 0 004.84-4.84V4.84A4.85 4.85 0 0043.365 0zM3.61 10.621V9.096c0-.31.254-.574.575-.574h5.197c.311 0 .575.254.575.574v1.525a.578.578 0 01-.575.575H4.185a.583.583 0 01-.575-.575zm0 10.095V19.19c0-.31.254-.574.575-.574h5.197c.311 0 .575.264.575.574v1.526c0 .31-.255.574-.575.574H4.185a.583.583 0 01-.575-.574zm0 10.094v-1.526c0-.31.254-.574.575-.574h5.197c.311 0 .575.254.575.574v1.526c0 .31-.255.574-.575.574H4.185a.583.583 0 01-.575-.574zm0 10.094v-1.526c0-.31.264-.574.575-.574h5.197c.311 0 .575.254.575.575v1.525c0 .31-.255.574-.575.574H4.185a.583.583 0 01-.575-.574zm4.473 4.256v-2.07h1.29c1.205 0 2.184-.98 2.184-2.185v-1.526a2.186 2.186 0 00-2.184-2.184h-1.29v-4.2h1.29a2.186 2.186 0 002.184-2.184v-1.526a2.186 2.186 0 00-2.184-2.184h-1.29v-4.2h1.29c1.205 0 2.184-.98 2.184-2.184V19.19a2.186 2.186 0 00-2.184-2.184h-1.29v-4.2h1.29c1.205 0 2.184-.98 2.184-2.184V9.095A2.186 2.186 0 009.373 6.91h-1.29V4.84c0-1.78 1.45-3.23 3.23-3.23h2.768v46.77h-2.768c-1.78 0-3.23-1.44-3.23-3.22zm38.512 0c0 1.78-1.45 3.23-3.23 3.23H15.701V1.61h27.664c1.78 0 3.23 1.45 3.23 3.23v40.32zm-1.808-17.674l-1.036-.603v-5.998a.78.78 0 00-.423-.706l-12.524-6.704a.785.785 0 00-.763 0l-12.523 6.704a.802.802 0 00-.424.706c0 .301.16.574.424.706l3.531 1.893v7.797c0 .292.15.555.405.696l7.147 4.125a3.64 3.64 0 001.817.499c.622 0 1.243-.17 1.817-.5l7.147-4.124a.819.819 0 00.405-.696v-7.797l2.345-1.252v4.651l-1.036.603a.819.819 0 00-.405.697v4.397a.8.8 0 00.8.81.87.87 0 00.49-.16l.951-.716.951.716a.811.811 0 00.848.075.809.809 0 00.442-.725v-4.388a.76.76 0 00-.386-.706zm-13.352 7.232a1.938 1.938 0 01-2.015 0l-6.751-3.899v-1.11l6.224 3.596a3.04 3.04 0 001.534.424c.528 0 1.046-.141 1.535-.424l6.224-3.597v1.111l-6.751 3.899zm6.742-6.865l-7.034 4.058c-.47.274-.989.274-1.45 0l-7.034-4.058V24.36l7.373 3.945a.771.771 0 00.377.094.746.746 0 00.376-.094l7.373-3.945.019 3.493zm-7.75-1.177l-10.819-5.781 10.81-5.791 10.81 5.79-10.8 5.782zm13.155 4.285l-.15-.113a.817.817 0 00-.481-.16.817.817 0 00-.48.16l-.15.113v-2.307l.63-.368.63.367v2.308z"/></svg><svg viewBox="0 0 50 48" id="icon-post" xmlns="http://www.w3.org/2000/svg"><g clip-path="url(#ka)"><path d="M47.623 16.663H29.765v-2.377h2.378c.449 0 .857-.245 1.061-.653a1.214 1.214 0 00-.112-1.255l-7.143-9.52c-.449-.593-1.449-.593-1.908 0l-7.143 9.52c-.276.357-.306.847-.112 1.255.204.408.612.653 1.06.653h2.378v2.377H2.367C1.071 16.663 0 17.735 0 19.051v26.194a2.387 2.387 0 002.378 2.378h45.234a2.387 2.387 0 002.378-2.378V19.05a2.373 2.373 0 00-2.367-2.388zM25 5.561l4.765 6.347h-1.194c-.653 0-1.193.541-1.193 1.194v9.52h-4.766v-9.52c0-.653-.54-1.194-1.194-1.194h-1.194L25 5.561zM5.949 19.051h14.286v4.765c0 .653.54 1.194 1.194 1.194h7.142c.653 0 1.194-.54 1.194-1.194v-4.765h15.643L25 35.378 4.592 19.05h1.357zm-3.571 1.286l14.765 11.806L2.378 43.949V20.337zm2.214 24.898L19.04 33.663l5.204 4.164c.224.183.49.265.745.265s.52-.082.755-.265l5.204-4.164 14.46 11.572H4.591zm43.03-1.286L32.858 32.143l14.766-11.806v23.612z"/><path d="M17.857 2.378h14.286c.653 0 1.194-.541 1.194-1.194C33.337.53 32.796 0 32.143 0H17.857c-.653 0-1.194.54-1.194 1.194 0 .653.541 1.184 1.194 1.184z"/></g><defs><clipPath id="ka"><path d="M0 0h50v47.623H0z"/></clipPath></defs></svg><svg viewBox="0 0 50 50" id="icon-shield" xmlns="http://www.w3.org/2000/svg"><g clip-path="url(#la)"><path d="M49.032 12.444a42.97 42.97 0 01-11.987-3.979l-.116-.062A43.379 43.379 0 0125.83.329a1.19 1.19 0 00-1.651 0 43.334 43.334 0 01-11.09 8.074A43.25 43.25 0 01.985 12.436a1.181 1.181 0 00-.968 1.252 45.446 45.446 0 003.338 13.59 45.614 45.614 0 007.3 11.939 43.51 43.51 0 0013.842 10.65c.16.08.338.115.515.115.178 0 .355-.035.515-.115a43.573 43.573 0 0013.834-10.65 45.525 45.525 0 007.3-11.939A45.445 45.445 0 0050 13.688a1.174 1.174 0 00-.968-1.244zM37.595 37.69l-.097.124-.098.107a41.378 41.378 0 01-12.404 9.602 41.158 41.158 0 01-12.583-9.816 43.048 43.048 0 01-9.971-23.165 45.699 45.699 0 0011.685-4.05A45.705 45.705 0 0024.995 2.79a45.492 45.492 0 0010.869 7.692 45.476 45.476 0 0011.685 4.05 42.968 42.968 0 01-9.954 23.158z"/><path d="M34.319 23.823c-.648 0-1.172.524-1.172 1.172a8.112 8.112 0 01-2.389 5.765 8.106 8.106 0 01-5.762 2.39 8.107 8.107 0 01-5.763-2.39 8.112 8.112 0 01-2.389-5.765 8.11 8.11 0 012.389-5.764 8.107 8.107 0 015.762-2.39 1.171 1.171 0 100-2.345 10.444 10.444 0 00-7.423 3.074 10.436 10.436 0 00-3.072 7.425 10.45 10.45 0 003.072 7.426 10.392 10.392 0 007.424 3.074c2.805 0 5.434-1.093 7.423-3.074a10.4 10.4 0 003.072-7.425c0-.311-.124-.613-.346-.826a1.147 1.147 0 00-.826-.347z"/><path d="M35.056 15.793a1.17 1.17 0 00-1.643.187l-7.476 9.335-3.224-3.224a1.171 1.171 0 00-1.642.018 1.18 1.18 0 00-.009 1.643l4.147 4.148c.222.222.515.347.825.347h.063c.328-.018.639-.178.843-.436l8.285-10.366c.195-.24.284-.55.248-.861a1.127 1.127 0 00-.417-.79z"/></g><defs><clipPath id="la"><path d="M0 0h50v50H0z"/></clipPath></defs></svg><svg viewBox="0 0 14 20" id="icon-slide-button-arrow" xmlns="http://www.w3.org/2000/svg"><path d="M1.5 2L12 10.5l-10.5 8"/></svg><svg viewBox="0 0 50 50" id="icon-stamp" xmlns="http://www.w3.org/2000/svg"><g clip-path="url(#na)"><path d="M35.549 42.36H9.2c-1.207 0-2.2.982-2.2 2.201V47.8c0 1.218.993 2.2 2.2 2.2h26.338c1.207 0 2.2-.993 2.211-2.2v-3.24c0-1.219-.982-2.2-2.2-2.2zm.124 2.201V47.8a.125.125 0 01-.124.124H9.2a.125.125 0 01-.124-.124v-3.24c0-.068.057-.124.124-.124h26.35c.068 0 .124.056.124.124zM42.76 5.53a9.846 9.846 0 00-5.7-5 9.832 9.832 0 00-7.56.497 9.82 9.82 0 00-4.998 5.687 22.906 22.906 0 00-1.219 6.522l-.418 10.235-2.087-.71a4.358 4.358 0 00-3.385.225 4.464 4.464 0 00-2.246 2.55l-.203.598a4.448 4.448 0 002.223 5.405l-.474 1.41a1.71 1.71 0 001.072 2.166l13.496 4.594c.17.056.35.09.553.09h.7l-.215-.068c.52-.157.948-.553 1.128-1.094l.486-1.422a4.323 4.323 0 002.821-.372 4.464 4.464 0 002.245-2.55l.203-.599a4.358 4.358 0 00-.225-3.385 4.463 4.463 0 00-2.55-2.245l-2.088-.711 5.913-8.362a23.21 23.21 0 003.013-5.913 9.805 9.805 0 00-.486-7.549zM31.937 36.582l-.35 1.05-12.796-4.356.35-1.05 12.796 4.356zm6.601-18.788l-6.263 8.87-7.346-2.506.452-10.844c.079-2.02.451-4.006 1.106-5.935a7.715 7.715 0 013.95-4.491 7.73 7.73 0 015.968-.384 7.715 7.715 0 014.492 3.95 7.781 7.781 0 01.394 5.969 21.582 21.582 0 01-2.753 5.371zM19.356 24.6c.26 0 .52.046.756.125l15.629 5.314a2.34 2.34 0 011.354 1.185c.282.564.316 1.208.113 1.806l-.203.598a2.339 2.339 0 01-1.185 1.354 2.334 2.334 0 01-1.806.113L18.397 29.78a2.348 2.348 0 01-1.467-2.99l.203-.599a2.339 2.339 0 011.185-1.354 2.37 2.37 0 011.038-.237z"/></g><defs><clipPath id="na"><path transform="translate(7)" d="M0 0h36.786v50H0z"/></clipPath></defs></svg><svg viewBox="0 0 50 50" id="icon-translate" xmlns="http://www.w3.org/2000/svg"><path d="M31.818 3.409c0-.627.51-1.136 1.137-1.136H37.5c4.386 0 7.954 3.568 7.954 7.954v4.075l2.605-2.604a1.137 1.137 0 011.607 1.606l-4.571 4.57c-.002 0-.002 0-.002.003a1.14 1.14 0 01-.74.304h-.069a1.135 1.135 0 01-.743-.307l-4.573-4.572a1.137 1.137 0 011.606-1.607l2.608 2.607v-4.075A5.688 5.688 0 0037.5 4.545h-4.546a1.137 1.137 0 01-1.136-1.136zM17.045 45.454h-4.546a5.69 5.69 0 01-5.681-5.681v-4.075l2.604 2.604a1.137 1.137 0 001.607-1.607l-4.57-4.57c-.005 0-.005 0-.003-.003a1.13 1.13 0 00-.74-.304H5.65a1.14 1.14 0 00-.741.306c-.002.003 0 .003-.002.003l-4.571 4.57a1.137 1.137 0 001.607 1.607l2.602-2.607v4.076c0 4.386 3.568 7.954 7.955 7.954h4.545a1.137 1.137 0 000-2.273zm4.546-38.636H7.954a1.137 1.137 0 000 2.273h4.98l-2.273 4.545H7.954a1.137 1.137 0 000 2.273h1.57L6.939 21.08a1.136 1.136 0 002.033 1.02l2.7-5.398 4.489 5.6a1.137 1.137 0 001.773-1.423l-3.989-4.97h5.373a1.137 1.137 0 000-2.273h-6.116l2.272-4.546h6.117a1.137 1.137 0 000-2.272zM50 21.59v27.273C50 49.49 49.49 50 48.864 50H21.59c-.628 0-1.137-.51-1.137-1.136V29.546H1.136C.51 29.546 0 29.036 0 28.409V1.136C0 .51.51 0 1.136 0H28.41c.628 0 1.137.51 1.137 1.136v19.318h19.318c.627 0 1.136.51 1.136 1.137zm-28.41-1.137h5.682V2.274H2.273v25h18.182v-5.682c0-.628.509-1.137 1.136-1.137zm26.137 2.273h-25v25h25v-25zm-20.334 18.81l2.261-4.523c.007-.014.014-.03.023-.043l4.534-9.07c.386-.771 1.648-.771 2.034 0l4.534 9.07c.01.014.016.027.023.043l2.261 4.523a1.138 1.138 0 01-2.034 1.018l-1.959-3.918h-7.689l-1.956 3.918a1.137 1.137 0 11-2.032-1.018zm5.127-5.173h5.416l-2.709-5.414-2.707 5.414z"/></svg><svg viewBox="0 0 24 20" id="icon-twitter" xmlns="http://www.w3.org/2000/svg"><path d="M7.548 19.2c9.057 0 14.01-7.386 14.01-13.79 0-.21-.005-.42-.014-.627A9.926 9.926 0 0024 2.273a9.94 9.94 0 01-2.828.763A4.879 4.879 0 0023.338.355 9.97 9.97 0 0120.21 1.53 4.955 4.955 0 0016.617 0c-2.72 0-4.925 2.17-4.925 4.846 0 .38.043.75.128 1.106A14.055 14.055 0 011.67.887a4.777 4.777 0 00-.667 2.437c0 1.681.87 3.166 2.192 4.034a4.947 4.947 0 01-2.23-.606l-.001.062c0 2.347 1.697 4.307 3.95 4.751a5.006 5.006 0 01-2.224.084c.627 1.925 2.445 3.327 4.6 3.366a9.978 9.978 0 01-6.115 2.075c-.397 0-.79-.022-1.175-.067A14.1 14.1 0 007.548 19.2"/></svg><svg viewBox="0 0 24 24" id="icon-vk" xmlns="http://www.w3.org/2000/svg"><path d="M13.072 19.747C4.872 19.747.195 13.82 0 3.957h4.107c.135 7.24 3.163 10.306 5.562 10.938V3.958h3.867V10.2c2.37-.27 4.857-3.114 5.697-6.243h3.868a12.389 12.389 0 01-1.853 4.514 11.69 11.69 0 01-3.41 3.357 11.96 11.96 0 013.887 3.262A12.741 12.741 0 0124 19.747h-4.257a7.871 7.871 0 00-2.296-3.809 7.23 7.23 0 00-3.91-1.834v5.643h-.465z"/></svg></svg>