<svg width="43" height="50" fill="none" xmlns="http://www.w3.org/2000/svg">
    <path d="m41.588 14.858-3.578.086v-1.096a5.582 5.582 0 0 0 2.912-1.515 5.498 5.498 0 0 0 1.654-3.921V.988a.963.963 0 0 0-.967-.967H.967A.932.932 0 0 0 0 .967v48.066c0 .537.43.967.967.967h36.076c.538 0 .967-.43.967-.967v-5.168a5.582 5.582 0 0 0 2.912-1.515 5.498 5.498 0 0 0 1.654-3.92v-7.532a.977.977 0 0 0-.29-.688.991.991 0 0 0-.698-.279l-3.578.086v-1.203a5.582 5.582 0 0 0 2.912-1.515 5.498 5.498 0 0 0 1.654-3.921v-7.532a.977.977 0 0 0-.29-.687.87.87 0 0 0-.698-.301ZM1.934 48.066V1.934h38.709V8.39c0 1.945-1.644 3.6-3.6 3.6a.963.963 0 0 0-.966.966v35.11H1.934Zm38.709-16.19v6.542c0 1.612-1.129 3.02-2.633 3.46V31.94l2.633-.064Zm0-8.52c0 1.612-1.129 3.019-2.633 3.46v-9.938l2.633-.065v6.543Z" fill="#708879"/>
    <path d="M14.761 15.62a4.796 4.796 0 0 0 4.792-4.79 4.796 4.796 0 0 0-4.792-4.792 4.796 4.796 0 0 0-4.791 4.791 4.796 4.796 0 0 0 4.791 4.792Zm0-7.638a2.857 2.857 0 1 1 0 5.716 2.863 2.863 0 0 1-2.857-2.858 2.857 2.857 0 0 1 2.857-2.858Z" fill="#708879"/>
    <path d="M6.908 25.913H22.41c.538 0 .968-.43.968-.967v-5.522a4.796 4.796 0 0 0-4.792-4.792.967.967 0 0 0-.687.28c-.44.44-.946.773-1.43.934-.042.011-.085.033-.128.054-.43.215-1 .322-1.687.322-.655 0-1.15-.096-1.719-.333-.57-.29-1.117-.558-1.526-.977a.967.967 0 0 0-.687-.28 4.796 4.796 0 0 0-4.792 4.792v5.522c.011.537.44.967.978.967Zm.967-6.478a2.824 2.824 0 0 1 2.503-2.837c.559.462 1.171.774 1.72 1.043.02.01.031.021.053.021.827.355 1.568.505 2.503.505.978 0 1.794-.161 2.492-.494.613-.215 1.236-.591 1.795-1.075 1.429.172 2.492 1.354 2.492 2.837v4.555h-1.88v-2.535a.963.963 0 0 0-.967-.967.963.963 0 0 0-.967.966v2.536h-5.812v-2.535a.967.967 0 0 0-.956-.967h-.01a.97.97 0 0 0-.968.934l-.075 2.568H7.875v-4.555ZM31.102 42.125H7.015a.963.963 0 0 0-.966.967c0 .537.43.967.966.967h24.087c.538 0 .967-.43.967-.967a.963.963 0 0 0-.967-.967ZM31.102 37.559H7.015a.963.963 0 0 0-.966.967c0 .537.43.967.966.967h24.087c.538 0 .967-.43.967-.967a.963.963 0 0 0-.967-.967ZM31.102 33.004H7.015a.963.963 0 0 0-.966.967c0 .537.43.967.966.967h24.087c.538 0 .967-.43.967-.967a.963.963 0 0 0-.967-.967ZM31.102 28.545H7.015a.963.963 0 0 0-.966.967c0 .537.43.967.966.967h24.087c.538 0 .967-.43.967-.967a.963.963 0 0 0-.967-.967Z" fill="#708879"/>
</svg>
