<svg width="50" height="50" fill="none" xmlns="http://www.w3.org/2000/svg">
    <g clip-path="url(#a)" fill="#708879">
        <path d="M50 10.608a6.562 6.562 0 0 0-1.94-4.668A6.546 6.546 0 0 0 43.392 4H6.608A6.562 6.562 0 0 0 1.94 5.94 6.562 6.562 0 0 0 0 10.608v32.963c0 1.764.692 3.421 1.94 4.669a6.563 6.563 0 0 0 4.668 1.94h36.784a6.563 6.563 0 0 0 4.668-1.94A6.49 6.49 0 0 0 50 43.57V10.608Zm-2.3 32.963c0 1.15-.449 2.232-1.258 3.05a4.282 4.282 0 0 1-3.05 1.258H6.608a4.315 4.315 0 0 1-3.05-1.257 4.242 4.242 0 0 1-1.258-3.05V19.613h45.4v23.957Zm0-26.267H2.3v-6.696c0-1.15.449-2.232 1.258-3.05A4.282 4.282 0 0 1 6.607 6.3h36.784c1.15 0 2.232.449 3.05 1.258a4.315 4.315 0 0 1 1.258 3.05v6.696Z"/>
        <path d="M12.349 10.861a1.159 1.159 0 0 0-.994-.575H7.534c-.41 0-.79.224-.994.575-.205.351-.205.8 0 1.15.204.351.585.575.994.575h3.82c.41 0 .79-.224.995-.575.204-.35.204-.79 0-1.15ZM23.177 10.861a1.159 1.159 0 0 0-.994-.575h-3.82c-.41 0-.79.224-.995.575-.204.351-.204.8 0 1.15.205.351.585.575.995.575h3.82c.41 0 .79-.224.994-.575.205-.35.205-.79 0-1.15ZM10.565 32.567a1.138 1.138 0 0 0-.312.79c0 .292.117.575.312.79l5.848 6.169c.283.302.712.429 1.111.331.4-.097.722-.4.848-.79.117-.399.02-.828-.263-1.13l-5.097-5.37 5.097-5.36c.215-.225.332-.527.322-.839a1.136 1.136 0 0 0-.332-.77l-.048-.039a1.138 1.138 0 0 0-.79-.312h-.029c-.302.01-.595.137-.8.36l-5.867 6.17ZM32.485 40.618c.39.097.81-.02 1.092-.302l5.858-6.16c.204-.214.311-.497.311-.79 0-.292-.117-.574-.311-.789l-5.848-6.15a1.148 1.148 0 0 0-.848-.36c-.088 0-.176.01-.264.029a1.17 1.17 0 0 0-.575 1.93l5.098 5.35-5.097 5.37c-.264.293-.361.712-.244 1.102.127.37.438.673.828.77ZM26.579 24.351l-5.35 17.378c-.118.39-.02.829.262 1.121.283.302.702.429 1.111.341.4-.097.722-.4.848-.79l5.351-17.378a1.147 1.147 0 0 0-.087-.877 1.203 1.203 0 0 0-.683-.555.997.997 0 0 0-.34-.049c-.186 0-.371.049-.537.136-.292.137-.487.38-.575.673Z"/>
    </g>
    <defs>
        <clipPath id="a">
            <path fill="#fff" d="M0 0h50v50H0z"/>
        </clipPath>
    </defs>
</svg>
