<svg width="100" height="100" fill="none" xmlns="http://www.w3.org/2000/svg">
    <path d="M50 .001a49.996 49.996 0 0 0-50 50 49.998 49.998 0 0 0 85.354 35.355A50.005 50.005 0 0 0 100 50 50.059 50.059 0 0 0 49.998 0l.001.001Zm0 95.708a45.708 45.708 0 0 1-32.32-78.027 45.706 45.706 0 0 1 78.026 32.32 45.76 45.76 0 0 1-45.707 45.707Zm23.022-59.128a2.148 2.148 0 0 1-.151 3.031L42.428 67.206a2.15 2.15 0 0 1-1.443.557h-.173a2.15 2.15 0 0 1-1.503-.803L26.89 51.344a2.147 2.147 0 1 1 3.356-2.681l10.99 13.824 28.75-26.058a2.147 2.147 0 0 1 3.034.15v.002Z" fill="#38B5BC"/>
</svg>
