<svg width="50" height="50" fill="none" xmlns="http://www.w3.org/2000/svg">
    <path d="m2.092 30.104 2.929.73c.209.104.314.208.418.416a19.513 19.513 0 0 0 1.256 3.125.66.66 0 0 1 0 .625L5.23 37.604c-.628 1.042-.419 2.396.418 3.334l3.557 3.541c.836.834 2.3 1.042 3.347.417l2.51-1.563a.668.668 0 0 1 .628 0c.941.521 1.987.938 3.138 1.25.21.105.419.209.419.417l.732 2.917c.314 1.25 1.36 2.083 2.615 2.083h4.916c1.256 0 2.302-.833 2.615-2.083L30.858 45c.104-.208.209-.416.418-.416 1.15-.313 2.197-.834 3.138-1.25.21-.105.524-.105.628 0l2.615 1.562c.419.208.941.417 1.36.417.732 0 1.464-.313 1.883-.834l3.556-3.541c.837-.834 1.046-2.188.419-3.334l-1.57-2.5c-.104-.208-.104-.52 0-.624a19.503 19.503 0 0 0 1.256-3.126c.105-.208.209-.416.418-.416l2.93-.73C49.162 29.896 50 28.854 50 27.604v-5c0-1.25-.837-2.292-2.092-2.604l-2.929-.73c-.209-.104-.418-.207-.418-.416a19.507 19.507 0 0 0-1.255-3.125.66.66 0 0 1 0-.625l1.569-2.604c.627-1.042.418-2.396-.419-3.334L40.9 5.625c-.837-.834-2.302-1.042-3.347-.417l-2.511 1.563a.668.668 0 0 1-.628 0 14.08 14.08 0 0 0-3.138-1.25c-.209-.105-.418-.209-.418-.417l-.628-3.02C29.916.833 28.87 0 27.615 0H22.7c-1.256 0-2.302.833-2.616 2.083L19.352 5c-.209.208-.313.312-.523.417-1.046.312-2.196.729-3.138 1.25a.668.668 0 0 1-.627 0l-2.616-1.46c-1.045-.624-2.51-.416-3.347.418L5.543 9.062c-.836.834-1.045 2.188-.418 3.334l1.57 2.5c.104.208.104.52 0 .624a19.496 19.496 0 0 0-1.256 3.126c-.105.208-.21.416-.419.416l-2.928.834C.837 20.208 0 21.25 0 22.5v5c0 1.25.837 2.292 2.092 2.604Zm0-7.604c0-.312.209-.52.523-.625l2.929-.729a2.47 2.47 0 0 0 1.883-1.875c.314-.937.627-1.875 1.15-2.812.419-.834.419-1.875-.104-2.709l-1.57-2.5c-.104-.208-.104-.625.105-.729l3.557-3.541c.209-.209.523-.209.732-.105l2.615 1.563a2.562 2.562 0 0 0 2.72 0c.837-.417 1.778-.833 2.824-1.146.941-.312 1.57-1.042 1.883-1.98l.627-2.708c.105-.312.314-.52.628-.52h4.917c.313 0 .523.208.627.52l.732 2.917c.21.937.942 1.667 1.883 1.875 1.046.312 1.988.73 2.824 1.146.837.417 1.883.417 2.72-.104l2.51-1.563c.21-.104.628-.104.733.104l3.556 3.542c.21.208.21.52.105.729l-1.57 2.604c-.522.834-.522 1.77-.104 2.709.523.937.837 1.875 1.15 2.812.314.937 1.047 1.563 1.988 1.875l2.93.73c.313.103.522.311.522.624v5c0 .313-.209.521-.523.625l-2.929.73a2.47 2.47 0 0 0-1.883 1.874c-.313.938-.732 1.875-1.15 2.813-.419.833-.419 1.875.105 2.708l1.569 2.5c.104.208.104.625-.105.73l-3.556 3.54c-.21.209-.524.209-.733.105l-2.615-1.563c-.837-.52-1.778-.52-2.72-.104-.837.417-1.778.834-2.824 1.146-.941.312-1.569 1.042-1.883 1.98l-.627 2.708c-.105.313-.314.521-.628.521H22.7c-.314 0-.523-.208-.628-.52l-.732-2.917a2.471 2.471 0 0 0-1.883-1.876c-.941-.312-1.883-.729-2.824-1.145a2.907 2.907 0 0 0-1.36-.313c-.523 0-.94.104-1.36.417l-2.51 1.563c-.209.104-.627.104-.732-.105L7.114 39.48c-.21-.208-.21-.521-.105-.73l1.57-2.604c.522-.833.522-1.77.104-2.708-.523-.938-.837-1.875-1.15-2.813-.315-.937-1.047-1.562-1.988-1.875l-2.93-.625c-.314-.104-.523-.313-.523-.625v-5Z" fill="#708879"/>
    <path d="M25.21 40.104C33.578 40 40.273 33.334 40.273 25s-6.8-15.104-15.168-15.104c-8.369 0-15.168 6.77-15.168 15.104s6.904 15.208 15.272 15.104Zm5.23-7.708c-.314.208-.628.52-.628.937v3.75c-3.033 1.25-6.59 1.25-9.623 0v-3.75c0-.312-.21-.624-.42-.833-2.091-1.354-3.556-3.75-3.974-6.25a9.512 9.512 0 0 1 2.51-7.917c.419-.416 1.046-.104 1.046.521v4.896c0 1.146.628 2.084 1.674 2.5l2.824 1.25a2.69 2.69 0 0 0 2.197 0l2.824-1.25c1.046-.416 1.674-1.458 1.674-2.5v-4.896c0-.625.732-.833 1.15-.416 1.674 1.77 2.616 4.062 2.616 6.458.104 4.479-3.243 7.187-3.87 7.5Zm-5.335-20.417c7.218 0 13.075 5.833 13.075 13.021 0 4.687-2.51 8.75-6.171 11.042v-2.083c1.778-1.25 4.498-4.48 4.498-9.167 0-2.917-1.15-5.73-3.139-7.917-1.673-1.77-4.707-.52-4.707 1.875v4.896c0 .208-.104.521-.418.625l-2.824 1.25c-.21.104-.314.104-.523 0l-2.93-1.25c-.209-.104-.418-.313-.418-.625V18.75c0-2.396-2.929-3.646-4.707-1.98-2.51 2.605-3.661 6.146-3.138 9.688.418 2.917 2.092 5.626 4.393 7.292v2.188c-3.766-2.292-6.171-6.355-6.171-11.042.104-7.084 5.962-12.917 13.18-12.917Z" fill="#708879"/>
</svg>
