<svg width="100" height="100" fill="none" xmlns="http://www.w3.org/2000/svg">
    <path d="M50 .001a49.996 49.996 0 0 0-50 50 49.998 49.998 0 0 0 85.354 35.355A50.005 50.005 0 0 0 100 50 50.059 50.059 0 0 0 49.998 0l.001.001Zm0 95.708a45.71 45.71 0 0 1-32.32-78.027 45.706 45.706 0 0 1 78.026 32.32 45.76 45.76 0 0 1-45.707 45.707Z" fill="#38B5BC"/>
    <path fill-rule="evenodd" clip-rule="evenodd" d="m64.213 67.212-30-29.999 2-2 30 30-2 2Z" fill="#38B5BC"/>
    <path fill-rule="evenodd" clip-rule="evenodd" d="m66.213 37.215-30 30-2-2 30-30 2 2Z" fill="#38B5BC"/>
</svg>
