<svg width="50" height="44" fill="none" xmlns="http://www.w3.org/2000/svg">
    <g clip-path="url(#a)">
        <path d="M4.878 0C2.199 0 0 2.2 0 4.878v34.756c0 2.341 1.927 4.268 4.268 4.268h41.464c2.34 0 4.268-1.927 4.268-4.268V11.585c0-2.34-1.927-4.268-4.268-4.268h-3.05V1.22c0-.643-.576-1.22-1.219-1.22H4.878Zm0 2.439h35.366v4.878H4.878A2.408 2.408 0 0 1 2.44 4.878a2.408 2.408 0 0 1 2.439-2.439ZM2.439 9.092a4.9 4.9 0 0 0 2.439.664c13.73-.01 29.05 0 40.854 0a1.8 1.8 0 0 1 1.829 1.83v7.316H29.878c-1.666 0-3.049 1.383-3.049 3.05v7.316c0 1.666 1.383 3.05 3.049 3.05h17.683v7.316a1.8 1.8 0 0 1-1.83 1.83H4.269a1.8 1.8 0 0 1-1.829-1.83V9.092Zm27.439 12.25h17.683v8.536H29.878c-.36 0-.61-.25-.61-.61v-7.317c0-.36.25-.61.61-.61Zm6.098 1.829a2.435 2.435 0 0 0-2.44 2.439 2.435 2.435 0 0 0 2.44 2.439 2.435 2.435 0 0 0 2.439-2.44c0-1.35-1.09-2.438-2.44-2.438Z" fill="#FCFCFC"/>
    </g>
    <defs>
        <clipPath id="a">
            <path fill="#fff" d="M0 0h50v43.902H0z"/>
        </clipPath>
    </defs>
</svg>
