<svg width="50" height="50" fill="none" xmlns="http://www.w3.org/2000/svg">
    <g clip-path="url(#a)" fill="#fff">
        <path d="M49.032 12.444a42.97 42.97 0 0 1-11.987-3.979l-.116-.062A43.379 43.379 0 0 1 25.83.329a1.19 1.19 0 0 0-1.651 0 43.334 43.334 0 0 1-11.09 8.074A43.25 43.25 0 0 1 .985 12.436a1.181 1.181 0 0 0-.968 1.252 45.446 45.446 0 0 0 3.338 13.59 45.614 45.614 0 0 0 7.3 11.939 43.51 43.51 0 0 0 13.842 10.65c.16.08.338.115.515.115.178 0 .355-.035.515-.115a43.573 43.573 0 0 0 13.834-10.65 45.525 45.525 0 0 0 7.3-11.939A45.445 45.445 0 0 0 50 13.688a1.174 1.174 0 0 0-.968-1.244ZM37.595 37.69l-.097.124-.098.107a41.378 41.378 0 0 1-12.404 9.602 41.158 41.158 0 0 1-12.583-9.816 43.048 43.048 0 0 1-9.971-23.165 45.699 45.699 0 0 0 11.685-4.05 45.705 45.705 0 0 0 10.868-7.702 45.492 45.492 0 0 0 10.869 7.692 45.476 45.476 0 0 0 11.685 4.05 42.968 42.968 0 0 1-9.954 23.158Z"/>
        <path d="M34.319 23.823c-.648 0-1.172.524-1.172 1.172a8.112 8.112 0 0 1-2.389 5.765 8.106 8.106 0 0 1-5.762 2.39 8.107 8.107 0 0 1-5.763-2.39 8.112 8.112 0 0 1-2.389-5.765c0-2.176.853-4.228 2.389-5.764a8.107 8.107 0 0 1 5.762-2.39 1.171 1.171 0 1 0 0-2.345 10.444 10.444 0 0 0-7.423 3.074 10.436 10.436 0 0 0-3.072 7.425c0 2.807 1.092 5.437 3.072 7.426a10.392 10.392 0 0 0 7.424 3.074c2.805 0 5.434-1.093 7.423-3.074a10.4 10.4 0 0 0 3.072-7.425c0-.311-.124-.613-.346-.826a1.147 1.147 0 0 0-.826-.347Z"/>
        <path d="M35.056 15.793a1.17 1.17 0 0 0-1.643.187l-7.476 9.335-3.224-3.224a1.171 1.171 0 0 0-1.642.018 1.18 1.18 0 0 0-.009 1.643l4.147 4.148c.222.222.515.347.825.347h.063c.328-.018.639-.178.843-.436l8.285-10.366c.195-.24.284-.55.248-.861a1.127 1.127 0 0 0-.417-.79Z"/>
    </g>
    <defs>
        <clipPath id="a">
            <path fill="#fff" d="M0 0h50v50H0z"/>
        </clipPath>
    </defs>
</svg>
