<svg width="50" height="50" fill="none" xmlns="http://www.w3.org/2000/svg">
    <g clip-path="url(#a)">
        <path d="M38.379 7.062h-1.13V3.39c0-1.13-.505-2.089-1.413-2.765A3.466 3.466 0 0 0 32.79.171l-20.621 6.89A3.398 3.398 0 0 0 9 10.452V46.61A3.397 3.397 0 0 0 12.39 50h25.989a3.397 3.397 0 0 0 3.39-3.39V10.452a3.397 3.397 0 0 0-3.39-3.39ZM33.516 2.37c.343-.111.736-.06 1.019.171.282.222.454.565.454.908v3.672H19.34l14.175-4.751Zm5.992 44.239c0 .626-.504 1.13-1.13 1.13H12.39c-.626 0-1.13-.505-1.13-1.13V10.452c0-.626.504-1.13 1.13-1.13h25.989c.625 0 1.13.504 1.13 1.13V46.61ZM25.384 19.491a6.192 6.192 0 0 0-6.215 6.215 6.192 6.192 0 0 0 6.215 6.215 6.192 6.192 0 0 0 6.215-6.215 6.198 6.198 0 0 0-6.215-6.215Zm0 10.17a3.936 3.936 0 0 1-3.955-3.955c0-2.2 1.756-3.955 3.955-3.955 2.2 0 3.955 1.756 3.955 3.955a3.93 3.93 0 0 1-3.955 3.955Zm6.215 6.78c0 .625-.505 1.13-1.13 1.13h-10.17c-.625 0-1.13-.505-1.13-1.13 0-.626.505-1.13 1.13-1.13h10.17c.625 0 1.13.514 1.13 1.13Z" fill="#708879"/>
    </g>
    <defs>
        <clipPath id="a">
            <path fill="#fff" d="M0 0h50v50H0z"/>
        </clipPath>
    </defs>
</svg>
