<svg width="36" height="50" fill="none" xmlns="http://www.w3.org/2000/svg">
    <g clip-path="url(#a)" fill="#fff">
        <path d="M33.971 24.862a5.944 5.944 0 0 0-4.21-1.743h-1.19V10.714a10.713 10.713 0 1 0-21.428 0V23.12h-1.19a5.944 5.944 0 0 0-4.21 1.743A5.963 5.963 0 0 0 0 29.07v14.977c0 1.583.627 3.093 1.743 4.209A5.944 5.944 0 0 0 5.953 50h23.809a5.944 5.944 0 0 0 4.21-1.743 5.944 5.944 0 0 0 1.742-4.21V29.072a5.963 5.963 0 0 0-1.743-4.21ZM9.524 10.714a8.336 8.336 0 0 1 16.667 0V23.12H9.523V10.714Zm23.81 33.334a3.58 3.58 0 0 1-1.042 2.53 3.562 3.562 0 0 1-2.53 1.041H5.952a3.58 3.58 0 0 1-2.53-1.042 3.562 3.562 0 0 1-1.041-2.53V29.072c0-.946.372-1.86 1.042-2.53a3.562 3.562 0 0 1 2.53-1.041H29.76c.947 0 1.861.372 2.53 1.041a3.562 3.562 0 0 1 1.042 2.53v14.977Z"/>
        <path d="m22.098 39.073-3.71 1.86c-.329.17-.722.17-1.052 0l-2.38-1.19a1.226 1.226 0 0 1-.67-1.074v-5.665c0-.66.531-1.19 1.19-1.19h4.762c.319 0 .617-.128.84-.351a1.183 1.183 0 0 0 0-1.68 1.182 1.182 0 0 0-.84-.35h-4.762a3.58 3.58 0 0 0-2.53 1.041 3.561 3.561 0 0 0-1.041 2.53v5.665c0 .66.191 1.308.531 1.87.351.564.85 1.021 1.446 1.319l2.38 1.19a3.457 3.457 0 0 0 1.595.383c.553 0 1.106-.127 1.595-.383l3.688-1.86a1.193 1.193 0 0 0 .553-1.594 1.217 1.217 0 0 0-1.595-.52Z"/>
        <path d="m25.361 30.123-5.123 5.092-1.552-1.52a1.187 1.187 0 0 0-1.669 0 1.187 1.187 0 0 0 0 1.669l2.381 2.38c.213.234.521.362.83.362.318 0 .616-.128.828-.361l5.953-5.953a1.187 1.187 0 0 0 0-1.669 1.143 1.143 0 0 0-1.648 0Z"/>
    </g>
    <defs>
        <clipPath id="a">
            <path fill="#fff" d="M0 0h35.714v50H0z"/>
        </clipPath>
    </defs>
</svg>
