<svg width="47" height="50" fill="none" xmlns="http://www.w3.org/2000/svg">
    <path d="M41.365 0H9.313a4.85 4.85 0 0 0-4.84 4.84V6.91H2.185C.979 6.911 0 7.891 0 9.096v1.525c0 1.206.98 2.185 2.185 2.185h2.288v4.2H2.185C.979 17.006 0 17.985 0 19.19v1.526C0 21.92.98 22.9 2.185 22.9h2.288v4.2H2.185C.979 27.1 0 28.08 0 29.284v1.526c0 1.205.98 2.184 2.185 2.184h2.288v4.2H2.185c-1.206 0-2.185.98-2.185 2.184v1.526c0 1.205.98 2.184 2.185 2.184h2.288v2.072A4.85 4.85 0 0 0 9.313 50h32.052a4.85 4.85 0 0 0 4.84-4.84V4.84A4.85 4.85 0 0 0 41.365 0ZM1.61 10.621V9.096c0-.31.254-.574.575-.574h5.197c.311 0 .575.254.575.574v1.525c0 .311-.255.575-.575.575H2.185a.583.583 0 0 1-.575-.575Zm0 10.095V19.19c0-.31.254-.574.575-.574h5.197c.311 0 .575.264.575.574v1.526c0 .31-.255.574-.575.574H2.185a.583.583 0 0 1-.575-.574Zm0 10.094v-1.526c0-.31.254-.574.575-.574h5.197c.311 0 .575.254.575.574v1.526c0 .31-.255.574-.575.574H2.185a.583.583 0 0 1-.575-.574Zm0 10.094v-1.526c0-.31.264-.574.575-.574h5.197c.311 0 .575.254.575.575v1.525c0 .31-.255.574-.575.574H2.185a.583.583 0 0 1-.575-.574Zm4.473 4.256V43.09h1.29c1.205 0 2.184-.98 2.184-2.185v-1.526c0-1.205-.979-2.184-2.184-2.184h-1.29v-4.2h1.29c1.205 0 2.184-.979 2.184-2.184v-1.526c0-1.205-.979-2.184-2.184-2.184h-1.29v-4.2h1.29c1.205 0 2.184-.98 2.184-2.184V19.19c0-1.205-.979-2.184-2.184-2.184h-1.29v-4.2h1.29c1.205 0 2.184-.98 2.184-2.184V9.095c0-1.205-.979-2.185-2.184-2.185h-1.29V4.84c0-1.78 1.45-3.23 3.23-3.23h2.768v46.77H9.313c-1.78 0-3.23-1.44-3.23-3.22Zm38.512 0c0 1.78-1.45 3.23-3.23 3.23H13.701V1.61h27.664c1.78 0 3.23 1.45 3.23 3.23v40.32Zm-1.808-17.674-1.036-.603v-5.998a.78.78 0 0 0-.423-.706l-12.524-6.704a.785.785 0 0 0-.763 0l-12.523 6.704a.802.802 0 0 0-.424.706c0 .301.16.574.424.706l3.531 1.893v7.797c0 .292.15.555.405.696l7.147 4.125c.574.33 1.196.499 1.817.499.622 0 1.243-.17 1.817-.5l7.147-4.124a.819.819 0 0 0 .405-.696v-7.797l2.345-1.252v4.651l-1.036.603a.819.819 0 0 0-.405.697v4.397a.8.8 0 0 0 .8.81c.17 0 .34-.057.49-.16l.951-.716.951.716a.811.811 0 0 0 .848.075.809.809 0 0 0 .442-.725v-4.388a.76.76 0 0 0-.386-.706Zm-13.352 7.232a1.938 1.938 0 0 1-2.015 0l-6.751-3.899v-1.11l6.224 3.596c.49.283 1.007.424 1.534.424.528 0 1.046-.141 1.535-.424l6.224-3.597v1.111l-6.751 3.899Zm6.742-6.865-7.034 4.058c-.47.274-.989.274-1.45 0l-7.034-4.058V24.36l7.373 3.945a.771.771 0 0 0 .377.094.746.746 0 0 0 .376-.094l7.373-3.945.019 3.493Zm-7.75-1.177-10.819-5.781 10.81-5.791 10.81 5.79-10.8 5.782Zm13.155 4.285-.15-.113a.817.817 0 0 0-.481-.16.817.817 0 0 0-.48.16l-.15.113v-2.307l.63-.368.63.367v2.308Z" fill="#708879"/>
</svg>
