<svg width="50" height="50" fill="none" xmlns="http://www.w3.org/2000/svg">
    <g clip-path="url(#a)" fill="#708879">
        <path d="M50 24.012a6.33 6.33 0 0 0-6.323-6.323H32.311V6.323A6.33 6.33 0 0 0 25.988 0H6.334C2.841 0 0 2.841 0 6.323V19.43a6.33 6.33 0 0 0 6.323 6.323h1.213v5.469c0 .427.247.809.64.988.382.18.842.113 1.168-.168l7.233-6.29h1.134v11.366a6.33 6.33 0 0 0 6.323 6.323h9.423l7.233 6.29c.314.28.775.348 1.168.168.381-.18.64-.562.64-.988v-5.47h1.213a6.33 6.33 0 0 0 6.323-6.323V24.012H50Zm-33.85-.427c-.258 0-.517.09-.707.27l-5.74 4.986v-4.167a1.09 1.09 0 0 0-1.089-1.09H6.323a4.16 4.16 0 0 1-4.155-4.154V6.323a4.16 4.16 0 0 1 4.155-4.155h19.654a4.16 4.16 0 0 1 4.155 4.155V19.43a4.16 4.16 0 0 1-4.155 4.155H16.15Zm31.671 13.533a4.16 4.16 0 0 1-4.155 4.156h-2.291a1.09 1.09 0 0 0-1.09 1.089v4.167l-5.739-4.987a1.11 1.11 0 0 0-.707-.27h-9.827a4.16 4.16 0 0 1-4.156-4.155V25.752h6.121a6.309 6.309 0 0 0 6.3-5.694l.023-.202h11.377a4.16 4.16 0 0 1 4.155 4.156v13.106h-.01Z"/>
        <path d="M43.441 30.57a1.75 1.75 0 0 0-1.74-1.74 1.75 1.75 0 0 0-1.742 1.74c0 .956.787 1.742 1.741 1.742a1.75 1.75 0 0 0 1.741-1.741ZM33.839 28.83a1.75 1.75 0 0 0-1.74 1.74c0 .956.785 1.742 1.74 1.742a1.75 1.75 0 0 0 1.74-1.741c0-.955-.774-1.74-1.74-1.74ZM25.977 28.83a1.75 1.75 0 0 0-1.74 1.74c0 .956.786 1.742 1.74 1.742a1.75 1.75 0 0 0 1.74-1.741c0-.955-.774-1.74-1.74-1.74ZM25.753 12.938a1.75 1.75 0 0 0-1.741-1.74 1.75 1.75 0 0 0-1.741 1.74c0 .955.786 1.74 1.74 1.74.967 0 1.742-.785 1.742-1.74ZM16.161 11.197a1.75 1.75 0 0 0-1.74 1.741c0 .955.786 1.74 1.74 1.74a1.75 1.75 0 0 0 1.741-1.74 1.75 1.75 0 0 0-1.74-1.74ZM8.3 11.197a1.75 1.75 0 0 0-1.74 1.741c0 .955.785 1.74 1.74 1.74a1.75 1.75 0 0 0 1.74-1.74 1.75 1.75 0 0 0-1.74-1.74Z"/>
    </g>
    <defs>
        <clipPath id="a">
            <path fill="#fff" d="M0 0h50v50H0z"/>
        </clipPath>
    </defs>
</svg>
