<svg width="50" height="50" fill="none" xmlns="http://www.w3.org/2000/svg">
    <g clip-path="url(#a)" fill="#708879">
        <path d="M40.27 12.08h-7.01c-.462-3.546-2.134-6.663-4.72-8.798C25.446.733 21.17-.394 16.495.119c-3.694.486-4.387 2.952-4.516 3.878h-2.18L8.57 2.942a.94.94 0 0 0-1.33.092.925.925 0 0 0 .093 1.32l.674.577-.674.587a.937.937 0 0 0-.093 1.33c.185.2.444.32.712.32.23 0 .443-.083.618-.23l1.238-1.062h2.337c.508 1.631 2.087 3.5 4.97 3.556 3.5 0 7.093 1.173 8.248 2.649h-13.55c-1.765 0-3.206 1.43-3.206 3.18 0 1.577 1.173 2.897 2.734 3.126v.458c0 .78.065 1.568.204 2.365-2.217 1.283-3.621 3.382-3.963 5.921-.416 3.117.794 6.407 3.094 8.369 2.503 2.145 6.078 3.464 12.331 4.555v2.567a9.277 9.277 0 0 0-5.939 6.168.935.935 0 0 0 .905 1.201h16.1a.943.943 0 0 0 .757-.376.94.94 0 0 0 .148-.825 9.122 9.122 0 0 0-.952-2.135c1.58-2.659 1.986-4.602 1.33-6.306-.71-1.852-2.724-3.245-6.317-4.382v-2.85a14.717 14.717 0 0 0 8.313-5.05c2.161-2.613 3.353-5.895 3.353-9.222v-.458c1.57-.23 2.743-1.55 2.743-3.126.018-1.76-1.413-3.18-3.178-3.18ZM17.133 7.554c-2.042-.037-3.215-1.494-3.298-2.842-.083-1.448.998-2.465 2.891-2.722 4.138-.458 7.898.513 10.604 2.74 2.198 1.816 3.584 4.355 4.018 7.352h-3.87c-.998-3.117-6.623-4.528-10.345-4.528Zm2.244 40.568a7.474 7.474 0 0 1 4.831-3.877.942.942 0 0 0 .711-.907v-2.934l2.254.404v2.53c0 .43.296.806.711.907a7.484 7.484 0 0 1 4.822 3.877H19.377Zm9.68-5.49v-1.393c1.801.55 2.586 1.365 2.854 2.988a8.955 8.955 0 0 0-2.854-1.595Zm4.554-1.613c.23.586.222 1.283-.01 2.108-.73-2.622-2.77-3.538-5.781-4.134l-3.704-.66c-6.355-1.054-9.893-2.282-12.193-4.262-1.792-1.54-2.78-4.235-2.447-6.7.24-1.779 1.117-3.245 2.549-4.253a14.556 14.556 0 0 0 1.921 3.932c-1.155 1.366-1.145 2.566-.924 3.345.98 3.483 7.768 5.289 10.65 5.903l4.101 1.22c3.4.99 5.311 2.135 5.838 3.5ZM15.165 28.579c2.088 2.301 4.868 3.905 7.851 4.528v1.128c-4.544-1.1-7.74-2.796-8.165-4.326-.046-.156-.175-.605.314-1.33Zm23.674-9.734c0 6.215-4.665 11.604-10.853 12.548h-.01a.939.939 0 0 0-.803.926v3.062l-2.254-.67V32.32a.932.932 0 0 0-.803-.926c-6.198-.944-10.863-6.342-10.863-12.548v-.412h25.595v.412h-.01Zm2.355-2.667c-.25.247-.573.385-.924.385H11.812c-.72 0-1.311-.577-1.311-1.302 0-.714.582-1.301 1.311-1.301H40.27c.72 0 1.312.586 1.312 1.301-.01.34-.139.67-.388.917Z"/>
        <path d="M18.084 2.878a.945.945 0 0 0-.951.935v.018c0 .513.425.926.951.926a.948.948 0 0 0 .952-.953c0-.504-.425-.926-.952-.926Z"/>
    </g>
    <defs>
        <clipPath id="a">
            <path fill="#fff" transform="translate(7)" d="M0 0h36.475v50H0z"/>
        </clipPath>
    </defs>
</svg>
