<svg width="50" height="50" fill="none" xmlns="http://www.w3.org/2000/svg">
    <path d="M31.818 3.409c0-.627.51-1.136 1.137-1.136H37.5c4.386 0 7.954 3.568 7.954 7.954v4.075l2.605-2.604a1.137 1.137 0 0 1 1.607 1.606l-4.571 4.57c-.002 0-.002 0-.002.003a1.14 1.14 0 0 1-.74.304h-.069a1.135 1.135 0 0 1-.743-.307l-4.573-4.572a1.137 1.137 0 0 1 1.606-1.607l2.608 2.607v-4.075A5.688 5.688 0 0 0 37.5 4.545h-4.546c-.627 0-1.136-.509-1.136-1.136ZM17.045 45.454h-4.546a5.69 5.69 0 0 1-5.681-5.681v-4.075l2.604 2.604a1.137 1.137 0 0 0 1.607-1.607l-4.57-4.57c-.005 0-.005 0-.003-.003a1.13 1.13 0 0 0-.74-.304H5.65c-.141.005-.275.034-.398.086-.125.05-.24.126-.343.22-.002.003 0 .003-.002.003l-4.571 4.57a1.137 1.137 0 0 0 1.607 1.607l2.602-2.607v4.076c0 4.386 3.568 7.954 7.955 7.954h4.545a1.137 1.137 0 0 0 0-2.273Zm4.546-38.636H7.954a1.137 1.137 0 0 0 0 2.273h4.98l-2.273 4.545H7.954a1.137 1.137 0 0 0 0 2.273h1.57L6.939 21.08A1.136 1.136 0 0 0 8.972 22.1l2.7-5.398 4.489 5.6a1.137 1.137 0 0 0 1.773-1.423l-3.989-4.97h5.373a1.137 1.137 0 0 0 0-2.273h-6.116l2.272-4.546h6.117a1.137 1.137 0 0 0 0-2.272ZM50 21.59v27.273C50 49.49 49.49 50 48.864 50H21.59c-.628 0-1.137-.51-1.137-1.136V29.546H1.136C.51 29.546 0 29.036 0 28.409V1.136C0 .51.51 0 1.136 0H28.41c.628 0 1.137.51 1.137 1.136v19.318h19.318c.627 0 1.136.51 1.136 1.137Zm-28.41-1.137h5.682V2.274H2.273v25h18.182v-5.682c0-.628.509-1.137 1.136-1.137Zm26.137 2.273h-25v25h25v-25Zm-20.334 18.81 2.261-4.523c.007-.014.014-.03.023-.043l4.534-9.07c.386-.771 1.648-.771 2.034 0l4.534 9.07c.01.014.016.027.023.043l2.261 4.523a1.138 1.138 0 0 1-2.034 1.018l-1.959-3.918h-7.689l-1.956 3.918a1.137 1.137 0 1 1-2.032-1.018Zm5.127-5.173h5.416l-2.709-5.414-2.707 5.414Z" fill="#fff"/>
</svg>
