<svg width="32" height="24" fill="none" xmlns="http://www.w3.org/2000/svg">
    <path d="M31.925 11.336C31.739 10.875 27.26 0 16 0 4.74 0 .262 10.874.076 11.336a1.07 1.07 0 0 0 0 .793C.262 12.592 4.741 23.467 16 23.467c11.26 0 15.739-10.875 15.925-11.337.1-.255.1-.539 0-.793ZM16 21.334c-8.782 0-12.89-7.704-13.766-9.595C3.109 9.888 7.298 2.133 16 2.133c8.782 0 12.892 7.705 13.767 9.596-.875 1.85-5.064 9.604-13.767 9.604Z" fill="#fff"/>
    <path d="M16 4.267c-4.115 0-7.466 3.349-7.466 7.466 0 4.118 3.35 7.467 7.467 7.467 4.116 0 7.466-3.35 7.466-7.467 0-4.117-3.35-7.466-7.466-7.466Zm0 12.8a5.34 5.34 0 0 1-5.332-5.334A5.34 5.34 0 0 1 16 6.4a5.34 5.34 0 0 1 5.333 5.333 5.34 5.34 0 0 1-5.333 5.334Z" fill="#fff"/>
</svg>
