<svg width="24" height="20" fill="none" xmlns="http://www.w3.org/2000/svg">
    <path d="M7.548 19.2c9.057 0 14.01-7.386 14.01-13.79 0-.21-.005-.42-.014-.627A9.926 9.926 0 0 0 24 2.273a9.94 9.94 0 0 1-2.828.763A4.879 4.879 0 0 0 23.338.355 9.97 9.97 0 0 1 20.21 1.53 4.955 4.955 0 0 0 16.617 0c-2.72 0-4.925 2.17-4.925 4.846 0 .38.043.75.128 1.106A14.055 14.055 0 0 1 1.67.887a4.777 4.777 0 0 0-.667 2.437c0 1.681.87 3.166 2.192 4.034a4.947 4.947 0 0 1-2.23-.606l-.001.062c0 2.347 1.697 4.307 3.95 4.751a5.006 5.006 0 0 1-2.224.084c.627 1.925 2.445 3.327 4.6 3.366a9.978 9.978 0 0 1-6.115 2.075c-.397 0-.79-.022-1.175-.067A14.1 14.1 0 0 0 7.548 19.2" fill="#fff"/>
</svg>
