<svg width="50" height="50" fill="none" xmlns="http://www.w3.org/2000/svg">
    <path d="M11.707 0a1.144 1.144 0 0 0-1.025 1.136v1.705c0 .304.111.599.325.812a1.152 1.152 0 0 0 1.623 0c.213-.213.335-.508.324-.812v-.568H42.5v39.772h-.568c-.305 0-.599.112-.812.325a1.152 1.152 0 0 0 0 1.623c.213.214.507.335.812.325h1.704c.63 0 1.137-.507 1.137-1.136V1.136C44.773.507 44.265 0 43.636 0H11.707ZM6.025 5.682A1.144 1.144 0 0 0 5 6.818v42.046C5 49.493 5.507 50 6.136 50h31.819c.629 0 1.136-.507 1.136-1.136V6.818c0-.629-.507-1.136-1.136-1.136H6.025Zm1.248 2.273h29.545v39.772H7.273V7.955Zm4.434 8.522c-.305.01-.589.152-.792.376a1.114 1.114 0 0 0-.294.821c.01.305.152.589.375.792.224.203.518.304.822.294h20.455c.304 0 .598-.112.811-.325a1.152 1.152 0 0 0 0-1.623 1.102 1.102 0 0 0-.811-.325H11.818c-.03-.01-.07-.01-.111-.01Zm0 6.819c-.305.01-.589.152-.792.375a1.114 1.114 0 0 0-.294.822c.01.304.152.588.375.791.224.203.518.305.822.294h20.455c.304 0 .598-.111.811-.324a1.152 1.152 0 0 0 0-1.624 1.102 1.102 0 0 0-.811-.324H11.818c-.03-.01-.07-.01-.111-.01Zm0 6.818c-.305.01-.589.152-.792.375a1.114 1.114 0 0 0-.294.822c.02.304.152.588.375.791.224.203.518.315.822.295h20.455c.304 0 .598-.112.811-.325a1.152 1.152 0 0 0 0-1.624 1.101 1.101 0 0 0-.811-.324H11.818c-.03-.01-.07-.01-.111-.01Zm0 6.818c-.305.01-.589.142-.792.365a1.114 1.114 0 0 0-.294.822c.01.304.152.588.375.791.224.203.518.315.822.295h13.636c.305 0 .6-.112.812-.325a1.152 1.152 0 0 0 0-1.623 1.102 1.102 0 0 0-.811-.325H11.706Z" fill="#708879"/>
</svg>
