<svg width="50" height="50" fill="none" xmlns="http://www.w3.org/2000/svg">
    <g clip-path="url(#a)" fill="#708879">
        <path d="M24.875 23.137c-5.232 0-9.492 4.26-9.492 9.492 0 2.879 1.328 5.58 3.637 7.416v8.939c0 .339.178.65.49.847.187.115.4.178.615.178.187 0 .365-.045.544-.125l4.215-2.166 4.34 2.175c.357.178.74.17 1.043-.018.295-.178.473-.508.473-.864v-8.967c2.308-1.835 3.636-4.527 3.636-7.415 0-5.231-4.26-9.492-9.5-9.492Zm7.344 9.492c0 4.047-3.297 7.344-7.344 7.344-4.046 0-7.344-3.297-7.344-7.344 0-4.117 3.227-7.344 7.344-7.344 4.118 0 7.344 3.227 7.344 7.344Zm-11.051 8.672c1.22.535 2.53.82 3.707.82s2.496-.294 3.708-.82v5.918l-3.209-1.666c-.25-.125-.623-.125-1.007 0L21.16 47.21v-5.909h.009Z"/>
        <path d="M48.743 0H1.132C.535 0 0 .472 0 1.016v34.403c0 .633.517 1.016 1.016 1.016h11.631c.633 0 1.016-.383 1.016-1.016 0-.669-.419-1.132-1.016-1.132h-10.5V2.148h45.464v32.13H37.112c-.543 0-1.016.535-1.016 1.132 0 .633.517 1.016 1.016 1.016h11.631c.5 0 1.016-.383 1.016-1.016V1.132C49.76.463 49.34 0 48.743 0Z"/>
        <path d="M37.522 9.492c0-.544-.535-1.016-1.132-1.016H13.37c-.606 0-1.132.472-1.132 1.016 0 .624.508 1.132 1.132 1.132H36.39a1.128 1.128 0 0 0 1.132-1.132ZM16.88 14.296c-.508 0-1.015.499-1.015 1.016 0 .606.472 1.132 1.016 1.132H32.87c.597 0 1.016-.464 1.016-1.132 0-.5-.383-1.016-1.016-1.016H16.88Z"/>
    </g>
    <defs>
        <clipPath id="a">
            <path fill="#fff" d="M0 0h49.759v50H0z"/>
        </clipPath>
    </defs>
</svg>
