<svg width="50" height="50" fill="none" xmlns="http://www.w3.org/2000/svg">
    <path d="M26.818.066c-7.026-.5-13.724 1.857-18.855 6.636A25.088 25.088 0 0 0 0 24.998c0 5.889 2.102 11.672 5.919 16.16.68.8 1.379 1.59 2.155 2.3.585.535 1.556 1.545 2.414 1.545a.921.921 0 0 0 .921-.922V29.443a3.412 3.412 0 0 1 3.408-3.408h2.726a3.405 3.405 0 0 1 3.296 2.572 5.189 5.189 0 0 0 .119 7.524v.053a4.323 4.323 0 0 0-1.898 3.587v8.676a.921.921 0 1 0 1.842 0V39.772a2.5 2.5 0 0 1 2.1-2.468 5.182 5.182 0 0 0 2.978-.001 2.52 2.52 0 0 1 2.099 2.469v9.044a.921.921 0 1 0 1.843 0v-9.044a4.37 4.37 0 0 0-1.937-3.608 5.188 5.188 0 0 0 1.712-3.848A5.21 5.21 0 0 0 27 27.757V25.39a4.199 4.199 0 0 1 4.193-4.194h3.212a4.192 4.192 0 0 1 4.187 4.188v16.364c0 .834.476 1.56 1.243 1.895a2.036 2.036 0 0 0 2.228-.375c5.535-5.168 8.405-12.48 7.873-20.06C49.082 10.89 39.143.94 26.82.066ZM16.18 23.912a4.495 4.495 0 0 1-4.49-4.49 4.495 4.495 0 0 1 4.49-4.488 4.494 4.494 0 0 1 4.489 4.489 4.494 4.494 0 0 1-4.49 4.49Zm11.674 8.405a3.37 3.37 0 0 1-3.365 3.365 3.369 3.369 0 0 1-3.366-3.365 3.369 3.369 0 0 1 3.366-3.365 3.37 3.37 0 0 1 3.365 3.365Zm4.942-13.186c-3.01 0-5.46-2.45-5.46-5.46 0-3.011 2.45-5.461 5.46-5.461 3.011 0 5.461 2.45 5.461 5.46 0 3.011-2.45 5.461-5.46 5.461ZM40.81 41.92c-.07.064-.148.075-.237.037a.216.216 0 0 1-.14-.208V25.386a6.038 6.038 0 0 0-3.713-5.566 7.297 7.297 0 0 0 3.379-6.15c0-4.026-3.276-7.302-7.303-7.302-4.026 0-7.302 3.276-7.302 7.303a7.298 7.298 0 0 0 3.38 6.15 6.044 6.044 0 0 0-3.717 5.571v1.766a5.245 5.245 0 0 0-.669-.049c-.73 0-1.425.153-2.056.425a5.258 5.258 0 0 0-2.713-2.863 6.331 6.331 0 0 0 2.792-5.248 6.339 6.339 0 0 0-6.331-6.332 6.339 6.339 0 0 0-6.332 6.332c0 2.182 1.11 4.11 2.794 5.249a5.253 5.253 0 0 0-3.075 4.773v12.817A23.03 23.03 0 0 1 1.843 25 23.234 23.234 0 0 1 9.22 8.051c4.752-4.427 10.962-6.608 17.468-6.147C38.103 2.715 47.308 11.93 48.1 23.34c.492 7.025-2.167 13.799-7.29 18.583v-.002Z" fill="#708879"/>
</svg>
