<svg width="16" height="17" fill="none" xmlns="http://www.w3.org/2000/svg">
    <path d="M2.632 6.318a2.255 2.255 0 0 1 1.593-3.846c.602 0 1.168.234 1.593.66L8.42 5.733a.98.98 0 0 0 .697.289.98.98 0 0 0 .697-.289.98.98 0 0 0 .29-.697.98.98 0 0 0-.29-.697L7.213 1.738A4.197 4.197 0 0 0 4.225.5c-1.129 0-2.19.44-2.987 1.238A4.195 4.195 0 0 0 0 4.725c0 1.129.44 2.19 1.238 2.987l2.6 2.602c.187.186.435.289.698.289a.98.98 0 0 0 .697-.29.979.979 0 0 0 .29-.696.98.98 0 0 0-.29-.698l-2.601-2.6ZM5.115 4.63a.98.98 0 0 0-.697.288.98.98 0 0 0-.289.698c0 .263.103.51.29.697l5.768 5.768a.98.98 0 0 0 .697.29.987.987 0 0 0 .697-1.684L5.813 4.918a.98.98 0 0 0-.698-.288Zm9.647 4.657-2.601-2.601a.98.98 0 0 0-.697-.289.98.98 0 0 0-.697.289.978.978 0 0 0-.29.697c0 .263.103.511.29.697l2.601 2.601a2.256 2.256 0 0 1 0 3.187 2.24 2.24 0 0 1-1.593.66 2.238 2.238 0 0 1-1.594-.66l-2.6-2.602a.98.98 0 0 0-.698-.288.98.98 0 0 0-.697.288.98.98 0 0 0-.289.698.98.98 0 0 0 .29.697l2.6 2.601a4.195 4.195 0 0 0 2.988 1.238c1.129 0 2.19-.44 2.987-1.238a4.23 4.23 0 0 0 0-5.975Z" fill="#704437"/>
</svg>
