<svg width="50" height="50" fill="none" xmlns="http://www.w3.org/2000/svg">
    <g clip-path="url(#a)" fill="#708879">
        <path d="M0 48.308h49.746v2.03H0v-2.03ZM48.07 46.936v-2.335c0-.914-.558-1.726-1.42-2.03 0-.102.05-.203.05-.305V40.49a2.166 2.166 0 0 0-2.182-2.182H30.305a2.166 2.166 0 0 0-2.183 2.182v1.777c0 .102 0 .203.05.305-.812.304-1.42 1.116-1.42 2.03v2.335h2.03v-2.335c0-.102.05-.152.152-.152H45.94c.102 0 .153.05.153.152v2.335h1.978ZM30.153 40.49c0-.102.05-.152.153-.152h14.264c.102 0 .152.05.152.152v1.777c0 .101-.05.152-.152.152H30.305c-.102 0-.153-.051-.153-.153V40.49ZM12.74 41.708l-.71-.711 18.173-18.173 1.472 1.473-.203.202a2.023 2.023 0 0 0 0 2.894l2.285 2.284c.406.407.913.61 1.42.61.56 0 1.067-.203 1.422-.61l9.594-9.594a2.023 2.023 0 0 0 0-2.893l-2.285-2.285a2.004 2.004 0 0 0-1.42-.609c-.508 0-1.067.203-1.422.61l-.203.202-7.31-7.207.203-.203c.406-.406.61-.914.61-1.421 0-.559-.204-1.066-.61-1.422l-2.284-2.284c-.762-.761-2.133-.761-2.894 0l-9.593 9.492a2.023 2.023 0 0 0 0 2.894l2.284 2.284c.407.406.914.61 1.421.61.508 0 1.066-.204 1.422-.61l.203-.203 1.472 1.473L7.716 36.683l-.711-.71-4.467 4.467 5.787 5.787 4.416-4.52ZM23.3 26.886l-1.473-1.473 1.473-1.472 1.472 1.472-1.472 1.473Zm19.188-10.508 2.284 2.284-9.593 9.594-2.285-2.335 9.594-9.543Zm-19.746-.559-2.285-2.335 9.594-9.594 2.285 2.285-9.594 9.644Zm3.096-.203 6.295-6.294 7.31 7.31-6.346 6.294-5.787-5.787-1.472-1.523Zm2.944 5.788-2.589 2.588-1.472-1.473 2.589-2.588 1.269 1.268.203.204Zm-8.375 5.43 1.472 1.473-11.27 11.27-1.472-1.473 11.27-11.27ZM7.006 38.815l2.893 2.894-1.573 1.574-2.894-2.894 1.574-1.573Z"/>
        <path d="m29.795 15.066 1.436-1.436 3.84 3.84-1.435 1.437-3.841-3.84ZM45.533 30.287H50v2.03h-4.467v-2.03ZM44.311 27.107l3.77-2.396 1.09 1.714-3.77 2.396-1.09-1.714ZM44.294 35.489l1.09-1.714 3.769 2.398-1.09 1.713-3.77-2.398ZM25.532 30.287H30v2.03h-4.468v-2.03ZM26.365 36.163l3.77-2.397 1.089 1.713-3.77 2.397-1.09-1.713Z"/>
    </g>
    <defs>
        <clipPath id="a">
            <path fill="#fff" d="M0 0h50v50H0z"/>
        </clipPath>
    </defs>
</svg>
