<svg width="40" height="50" fill="none" xmlns="http://www.w3.org/2000/svg">
    <g clip-path="url(#a)" fill="#fff">
        <path d="M38.731 11.635 27.481.385a1.324 1.324 0 0 0-.93-.385H3.947A3.947 3.947 0 0 0 0 3.947v42.106A3.947 3.947 0 0 0 3.947 50H35.17a3.947 3.947 0 0 0 3.948-3.947V12.566c0-.348-.141-.677-.386-.93ZM27.866 4.492l6.758 6.758h-5.442a1.32 1.32 0 0 1-1.316-1.316V4.492Zm7.303 42.876H3.947a1.32 1.32 0 0 1-1.315-1.315V3.947a1.32 1.32 0 0 1 1.315-1.315h21.288v7.302a3.947 3.947 0 0 0 3.947 3.948h7.303v32.17a1.32 1.32 0 0 1-1.316 1.316Z"/>
        <path d="M7.763 16.579h13.243a1.32 1.32 0 0 0 1.315-1.316 1.32 1.32 0 0 0-1.316-1.316H7.764a1.32 1.32 0 0 0-1.316 1.316 1.32 1.32 0 0 0 1.316 1.316ZM7.763 26.494h23.58a1.32 1.32 0 0 0 1.317-1.315 1.32 1.32 0 0 0-1.316-1.316H7.764a1.32 1.32 0 0 0-1.317 1.316 1.32 1.32 0 0 0 1.316 1.315ZM31.344 33.769H23.46a1.32 1.32 0 0 0-1.316 1.316A1.32 1.32 0 0 0 23.46 36.4h7.885a1.32 1.32 0 0 0 1.316-1.315c0-.724-.583-1.316-1.316-1.316ZM17.895 33.769H7.772a1.32 1.32 0 0 0-1.315 1.316A1.32 1.32 0 0 0 7.772 36.4h10.123a1.32 1.32 0 0 0 1.315-1.315 1.32 1.32 0 0 0-1.316-1.316Z"/>
    </g>
    <defs>
        <clipPath id="a">
            <path fill="#fff" d="M0 0h39.117v50H0z"/>
        </clipPath>
    </defs>
</svg>
