<svg width="50" height="48" fill="none" xmlns="http://www.w3.org/2000/svg">
    <g clip-path="url(#a)" fill="#fff">
        <path d="M47.623 16.663H29.765v-2.377h2.378c.449 0 .857-.245 1.061-.653.204-.408.153-.878-.112-1.255l-7.143-9.52c-.449-.593-1.449-.593-1.908 0l-7.143 9.52c-.276.357-.306.847-.112 1.255.204.408.612.653 1.06.653h2.378v2.377H2.367C1.071 16.663 0 17.735 0 19.051v26.194a2.387 2.387 0 0 0 2.378 2.378h45.234a2.387 2.387 0 0 0 2.378-2.378V19.05a2.373 2.373 0 0 0-2.367-2.388ZM25 5.561l4.765 6.347h-1.194c-.653 0-1.193.541-1.193 1.194v9.52h-4.766v-9.52c0-.653-.54-1.194-1.194-1.194h-1.194L25 5.561ZM5.949 19.051h14.286v4.765c0 .653.54 1.194 1.194 1.194h7.142c.653 0 1.194-.54 1.194-1.194v-4.765h15.643L25 35.378 4.592 19.05h1.357Zm-3.571 1.286 14.765 11.806L2.378 43.949V20.337Zm2.214 24.898L19.04 33.663l5.204 4.164c.224.183.49.265.745.265s.52-.082.755-.265l5.204-4.164 14.46 11.572H4.591Zm43.03-1.286L32.858 32.143l14.766-11.806v23.612Z"/>
        <path d="M17.857 2.378h14.286c.653 0 1.194-.541 1.194-1.194C33.337.53 32.796 0 32.143 0H17.857c-.653 0-1.194.54-1.194 1.194 0 .653.541 1.184 1.194 1.184Z"/>
    </g>
    <defs>
        <clipPath id="a">
            <path fill="#fff" d="M0 0h50v47.623H0z"/>
        </clipPath>
    </defs>
</svg>
